<svg width="24" height="24" viewBox="0 0 24 24" fill="none" xmlns="http://www.w3.org/2000/svg">
<path d="M22.0004 19.92V16.92C22.0126 16.4296 21.8441 15.9518 21.527 15.5775C21.2098 15.2032 20.7662 14.9585 20.2804 14.89C19.3204 14.7634 18.3777 14.5286 17.4704 14.19C17.1125 14.0555 16.7235 14.0263 16.3495 14.1061C15.9756 14.1859 15.6323 14.3711 15.3604 14.64L14.0904 15.91C11.5869 14.4864 9.51398 12.4135 8.09042 9.91L9.36042 8.64C9.62928 8.36811 9.81457 8.02485 9.89433 7.65088C9.97408 7.27691 9.94496 6.88792 9.81042 6.53C9.47187 5.62273 9.23704 4.68007 9.11042 3.72C9.0425 3.23945 8.80215 2.79999 8.43418 2.48353C8.06621 2.16708 7.59573 1.99522 7.11042 2H4.11042C3.83276 2.00026 3.5582 2.05833 3.30421 2.17052C3.05023 2.28271 2.82238 2.44655 2.63519 2.65162C2.44799 2.85669 2.30555 3.09849 2.21692 3.36162C2.1283 3.62476 2.09543 3.90347 2.12042 4.18C2.44866 7.27099 3.5004 10.2412 5.19042 12.85C6.72576 15.2662 8.77425 17.3147 11.1904 18.85C13.7874 20.5341 16.7433 21.5856 19.8204 21.92C20.0978 21.9451 20.3773 21.9119 20.6412 21.8227C20.905 21.7335 21.1473 21.5901 21.3525 21.4019C21.5577 21.2136 21.7214 20.9845 21.8329 20.7293C21.9445 20.4742 22.0016 20.1985 22.0004 19.92Z" stroke="white" stroke-width="0" stroke-linecap="round" stroke-linejoin="round" fill="#fff"/>
</svg>
