<svg width="20" height="28" viewBox="0 0 20 28" fill="none" xmlns="http://www.w3.org/2000/svg">
<path d="M10.0002 0.829102C4.8829 0.829102 0.731934 5.00038 0.731934 10.1427C0.731934 16.2618 7.84468 24.9337 9.60797 26.99C9.81465 27.2308 10.1858 27.2308 10.3925 26.99C12.1564 24.9337 19.2685 16.2618 19.2685 10.1427C19.2691 5.00038 15.1182 0.829102 10.0002 0.829102ZM10.0002 13.4695C8.17301 13.4695 6.69025 11.9795 6.69025 10.1434C6.69025 8.30721 8.17301 6.81658 10.0002 6.81658C11.8274 6.81658 13.3102 8.30659 13.3102 10.1427C13.3102 11.9789 11.8274 13.4695 10.0002 13.4695Z" fill="white"/>
</svg>
