<svg width="50" height="50" viewBox="0 0 50 50" fill="none" xmlns="http://www.w3.org/2000/svg">
<path d="M46.2513 25L49.8091 18.6508C50.2834 17.7438 49.8091 16.8367 49.0975 16.3832L42.2191 12.9819L41.0332 5.95238C40.796 5.04535 40.0844 4.36508 39.1357 4.59184L31.5457 5.72562L26.0905 0.510204C25.3789 -0.170068 24.193 -0.170068 23.7186 0.510204L18.2633 5.72562L10.9106 4.59184C9.96181 4.36508 9.01307 5.04535 9.01307 5.95238L7.82714 12.9819L0.948744 16.3832C0 16.8367 -0.237186 17.7438 0.237186 18.6508L3.55779 25L0.237186 31.3492C-0.237186 32.2562 0.237186 33.1633 0.948744 33.6168L7.58995 36.7914L8.77588 44.0476C9.01307 44.9547 9.72462 45.6349 10.6734 45.4082L18.0261 44.2744L23.4814 49.4898C24.193 50.1701 25.1417 50.1701 25.8533 49.4898L31.3085 44.5011L38.8985 45.6349C39.8472 45.8617 40.796 45.1814 40.796 44.2744L41.9819 37.2449L48.8603 33.8435C49.8091 33.39 50.0462 32.483 49.5719 31.576L46.2513 25ZM18.9749 13.6621C20.8724 13.6621 22.5327 15.2494 22.5327 17.0635C22.5327 18.8776 21.1096 20.4649 18.9749 20.4649C16.8402 20.4649 15.4171 18.8776 15.4171 17.0635C15.4171 15.2494 17.0774 13.6621 18.9749 13.6621ZM30.8342 36.3379C28.9367 36.3379 27.2764 34.7506 27.2764 32.9365C27.2764 31.1224 28.9367 29.5351 30.8342 29.5351C32.7317 29.5351 34.392 31.1224 34.392 32.9365C34.392 34.7506 32.9688 36.3379 30.8342 36.3379ZM14.7055 34.7506C13.7568 33.8435 13.7568 32.483 14.7055 31.576L31.7829 15.2494C32.7317 14.3424 34.1548 14.3424 35.1035 15.2494C36.0523 16.1565 36.0523 17.517 35.1035 18.424L18.0261 34.7506C17.3146 35.6576 15.6543 35.6576 14.7055 34.7506Z" fill="#2196F3"/>
</svg>
