<svg width="25" height="25" viewBox="0 0 25 25" fill="none" xmlns="http://www.w3.org/2000/svg">
<rect x="3" y="4" width="20" height="18" fill="white"/>
<path fill-rule="evenodd" clip-rule="evenodd" d="M1.75736 1.75736C0 3.51472 0 6.34312 0 12V13C0 18.6569 0 21.4853 1.75736 23.2427C3.51472 25 6.34312 25 12 25H13C18.6569 25 21.4853 25 23.2427 23.2427C25 21.4853 25 18.6569 25 13V12C25 6.34312 25 3.51472 23.2427 1.75736C21.4853 0 18.6569 0 13 0H12C6.34312 0 3.51472 0 1.75736 1.75736ZM4.21875 7.60449C4.35417 14.1045 7.60412 18.0107 13.302 18.0107H13.6251V14.292C15.7188 14.5003 17.302 16.0316 17.9374 18.0107H20.8958C20.0833 15.0524 17.9478 13.417 16.6145 12.792C17.9478 12.0212 19.8228 10.1462 20.2707 7.60449H17.5832C16.9998 9.66699 15.2709 11.542 13.6251 11.7191V7.60449H10.9374V14.8128C9.27078 14.3962 7.16667 12.3753 7.07292 7.60449H4.21875Z" fill="#0077FF"/>
</svg>
