<svg width="21" height="19" viewBox="0 0 21 19" fill="none" xmlns="http://www.w3.org/2000/svg">
<path d="M0.191131 8.96258L0 15.2994C0 15.7365 0.254842 16.1423 0.668959 16.3296L6.56217 18.9205C6.81701 19.0454 7.10371 19.0142 7.3267 18.8893L20.6422 10.7107C21.0244 10.4609 21.12 9.89906 20.8333 9.43082L15.0994 0.503017C14.8127 0.0347755 14.2393 -0.121305 13.857 0.0972077L0.541538 8.30704C0.318552 8.4319 0.191131 8.68163 0.191131 8.96258ZM5.63837 12.5212C6.14805 13.3328 5.89321 14.363 5.09683 14.8624C4.2686 15.3619 3.21738 15.1121 2.70769 14.3317C2.19801 13.5513 2.45285 12.49 3.24923 11.9905C4.04561 11.4911 5.12869 11.7408 5.63837 12.5212Z" fill="url(#paint0_linear_33_132)"/>
<defs>
<linearGradient id="paint0_linear_33_132" x1="19.86" y1="8.40498e-07" x2="4.60196" y2="10.0073" gradientUnits="userSpaceOnUse">
<stop offset="0.0001" stop-color="#C6E5FF"/>
<stop offset="0.0002" stop-color="#D0EAFF"/>
<stop offset="1" stop-color="#2196F3"/>
</linearGradient>
</defs>
</svg>
