<svg width="41" height="42" viewBox="0 0 41 42" fill="none" xmlns="http://www.w3.org/2000/svg">
<path d="M23.6028 39.435C22.0075 39.435 20.5573 38.71 19.6871 37.405L6.9248 20.15L37.0903 15.8L28.0986 36.39C27.3735 38.275 25.6332 39.435 23.6028 39.435Z" fill="#FF9534"/>
<path d="M33.6093 18.555L26.213 35.665C25.7779 36.68 24.7627 37.26 23.7475 37.26C22.8774 37.26 22.1523 36.97 21.5721 36.1L10.9852 21.745L33.6093 18.555ZM40.7156 13.19L33.0292 14.35L10.2601 17.54L3.00879 18.555L7.35957 24.355L17.9465 38.71C19.2517 40.595 21.4271 41.61 23.6025 41.61C26.358 41.61 28.9685 40.015 30.1287 37.405L37.525 20.295L40.7156 13.19Z" fill="white"/>
<path d="M26.0678 35.665L39.7002 4.48999C40.5704 2.60499 38.9751 0.429996 36.9447 0.719996L3.15361 4.48999C1.12324 4.77999 -0.0369475 7.09999 1.26829 8.83999L21.4269 36.245C22.7322 37.84 25.3426 37.55 26.0678 35.665Z" fill="#FF9534"/>
</svg>
