<svg width="534" height="576" viewBox="0 0 534 576" fill="none" xmlns="http://www.w3.org/2000/svg">
<g clip-path="url(#clip0_157_1498)">
<path d="M522.366 523.624C515.01 521.447 506.743 521.826 499.894 518.637C493.045 515.447 488.893 509.409 482.816 505.359C472.992 498.828 459.914 498.258 447.672 497.98L338.606 495.258L322.148 502.334C299.645 501.038 277.074 501.567 254.657 503.916C240.351 505.422 225.83 507.713 213.031 514.346C210.965 515.275 209.115 516.624 207.6 518.308C203.688 523.193 205.979 530.965 210.891 534.863C215.803 538.762 222.399 539.61 228.615 539.85C234.831 540.091 241.275 539.85 247.162 542.103C255.024 545.065 260.759 551.964 268.203 555.849C277.268 560.571 288.003 560.457 298.195 559.799C305.166 559.36 312.129 558.718 319.084 557.875C339.428 561.33 360.457 562.241 380.371 557.545C391.765 554.862 402.488 550.407 413.869 547.799C448.191 539.926 484.766 549.306 519.847 545.002C524.911 544.369 530.62 543.053 533 539.04C536.621 532.952 529.721 525.826 522.366 523.624Z" fill="#BCE6F8"/>
<g style="mix-blend-mode:soft-light">
<path d="M525.53 524.889C526.254 526.017 526.653 527.322 526.684 528.662C526.715 530.001 526.377 531.324 525.707 532.484C523.315 536.496 517.63 537.813 512.553 538.445C477.435 542.749 440.898 533.382 406.576 541.243C395.182 543.85 384.434 548.306 373.078 550.989C353.164 555.685 332.135 554.786 311.791 551.318C304.853 552.162 297.89 552.803 290.902 553.242C280.698 553.9 269.962 554.014 260.91 549.293C253.453 545.407 247.731 538.509 239.856 535.547C234.008 533.345 227.576 533.547 221.322 533.294C216.537 533.104 211.561 532.547 207.282 530.56C208.175 532.224 209.393 533.692 210.865 534.876C215.777 538.749 222.373 539.623 228.589 539.863C234.805 540.104 241.249 539.863 247.136 542.116C254.998 545.078 260.733 551.976 268.177 555.862C277.242 560.583 287.977 560.469 298.169 559.811C305.14 559.372 312.103 558.731 319.058 557.887C339.402 561.343 360.431 562.254 380.345 557.558C391.739 554.875 402.462 550.419 413.843 547.812C448.165 539.939 484.739 549.318 519.82 545.015C524.884 544.382 530.594 543.065 532.974 539.053C536.089 533.838 531.506 527.877 525.53 524.889Z" fill="#231F20"/>
</g>
<path d="M180.152 343.623L118.865 176.773L107.307 145.408C106.225 142.504 104.036 140.147 101.219 138.854C98.4019 137.561 95.1872 137.437 92.2792 138.51L74.5552 145.054C73.2194 145.552 72.1353 146.558 71.5399 147.854C70.9444 149.149 70.886 150.627 71.3775 151.965L100.787 231.757C101.031 232.419 101.403 233.026 101.882 233.544C102.361 234.062 102.937 234.48 103.578 234.775C104.219 235.07 104.911 235.236 105.616 235.264C106.321 235.291 107.025 235.179 107.686 234.934L124.613 228.706L168.315 347.977L180.152 343.623Z" fill="#2845A3"/>
<path d="M58.4895 165.824L55.084 156.585L71.3268 151.965L73.8588 158.8L58.4895 165.824Z" fill="#FBB040"/>
<path d="M72.5928 155.382L71.3268 151.965L55.084 156.585L56.7804 161.204L72.5928 155.382Z" fill="#F7941D"/>
<path d="M62.9202 177.862L59.5146 168.609L75.7701 163.989L78.2895 170.824L62.9202 177.862Z" fill="#FBB040"/>
<path d="M77.0235 167.407L75.7701 163.989L59.5146 168.609L61.2111 173.229L77.0235 167.407Z" fill="#F7941D"/>
<path d="M67.3518 189.886L63.9463 180.634L80.2018 176.026L82.7211 182.861L67.3518 189.886Z" fill="#FBB040"/>
<path d="M81.4551 179.444L80.2018 176.026L63.9463 180.634L65.6427 185.266L81.4551 179.444Z" fill="#F7941D"/>
<path d="M71.7825 201.911L68.377 192.671L84.6324 188.051L87.1518 194.886L71.7825 201.911Z" fill="#FBB040"/>
<path d="M85.8858 191.468L84.6324 188.051L68.377 192.671L70.0734 197.291L85.8858 191.468Z" fill="#F7941D"/>
<path d="M76.2132 213.948L72.8076 204.695L89.0631 200.075L91.5824 206.91L76.2132 213.948Z" fill="#FBB040"/>
<path d="M90.3164 203.493L89.0631 200.075L72.8076 204.695L74.5041 209.315L90.3164 203.493Z" fill="#F7941D"/>
<path d="M80.6448 225.972L77.2393 216.72L93.4947 212.1L96.0141 218.935L80.6448 225.972Z" fill="#FBB040"/>
<path d="M94.7481 215.53L93.4947 212.1L77.2393 216.72L78.9484 221.353L94.7481 215.53Z" fill="#F7941D"/>
<path d="M85.0755 237.997L81.6699 228.744L97.9254 224.137L100.445 230.972L85.0755 237.997Z" fill="#FBB040"/>
<path d="M99.1787 227.555L97.9254 224.137L81.6699 228.744L83.379 233.377L99.1787 227.555Z" fill="#F7941D"/>
<path d="M104.433 230.301L75.074 150.636C74.8253 149.963 74.7119 149.247 74.7403 148.53C74.7687 147.813 74.9382 147.109 75.2393 146.457C75.5404 145.806 75.967 145.22 76.4947 144.734C77.0225 144.248 77.6411 143.87 78.3149 143.623L74.5929 144.99C73.234 145.492 72.1296 146.512 71.522 147.826C70.9144 149.141 70.8532 150.643 71.3519 152.003L100.711 231.668C100.957 232.342 101.335 232.96 101.821 233.488C102.308 234.016 102.893 234.442 103.545 234.743C104.196 235.044 104.901 235.214 105.618 235.242C106.335 235.271 107.051 235.157 107.724 234.909L111.446 233.529C110.774 233.778 110.059 233.892 109.342 233.864C108.626 233.837 107.922 233.668 107.27 233.368C106.619 233.069 106.033 232.644 105.546 232.117C105.059 231.591 104.681 230.974 104.433 230.301Z" fill="#173684"/>
<g style="mix-blend-mode:soft-light" opacity="0.5">
<path d="M72.1877 151.003L89.9117 144.459C92.8263 143.388 96.0469 143.516 98.8666 144.817C101.686 146.117 103.875 148.483 104.952 151.395L116.536 182.811L176.177 345.078L180.152 343.623L118.865 176.773L107.307 145.408C106.225 142.504 104.036 140.147 101.219 138.854C98.4019 137.561 95.1871 137.437 92.2791 138.51L74.5551 145.054C73.2962 145.524 72.2595 146.45 71.6501 147.647C71.0406 148.845 70.9027 150.227 71.2635 151.522C71.5522 151.316 71.862 151.142 72.1877 151.003Z" fill="white"/>
</g>
<path d="M213.954 85.9956L211.865 86.2254C208.654 86.5787 206.337 89.4675 206.691 92.6777L219.62 210.138C219.973 213.348 222.862 215.664 226.073 215.311L228.162 215.081C231.373 214.728 233.689 211.839 233.336 208.629L220.407 91.1686C220.054 87.9583 217.164 85.6423 213.954 85.9956Z" fill="#FFDE17"/>
<g style="mix-blend-mode:soft-light">
<path d="M213.739 86.045L212.081 86.2222C211.416 86.3057 210.771 86.4981 210.169 86.7918C211.401 87.0635 212.517 87.7135 213.362 88.6508C214.206 89.5881 214.737 90.7658 214.878 92.0193L227.741 209.05C227.877 210.304 227.617 211.569 226.997 212.668C226.377 213.767 225.429 214.644 224.285 215.176C224.934 215.336 225.607 215.384 226.272 215.315L227.931 215.138C229.53 214.96 230.993 214.155 231.999 212.899C233.006 211.644 233.473 210.041 233.299 208.442L220.436 91.4117C220.258 89.813 219.453 88.3502 218.197 87.3441C216.942 86.3381 215.339 85.8709 213.739 86.045Z" fill="#042066"/>
</g>
<path d="M232.394 200.35L218.677 201.857L221.369 226.353L235.086 224.846L232.394 200.35Z" fill="#FBB040"/>
<path d="M239.608 207.189L213.445 210.063C211.409 210.287 209.939 212.119 210.163 214.155L211.217 223.742C211.44 225.778 213.272 227.247 215.309 227.023L241.472 224.149C243.508 223.926 244.977 222.094 244.754 220.058L243.7 210.471C243.476 208.435 241.644 206.966 239.608 207.189Z" fill="#BE1E2D"/>
<g style="mix-blend-mode:soft-light">
<path d="M239.489 207.189L229.361 208.303C229.865 208.239 230.377 208.278 230.866 208.416C231.355 208.554 231.811 208.789 232.208 209.106C232.605 209.424 232.934 209.817 233.175 210.264C233.417 210.711 233.567 211.202 233.615 211.708L234.641 221.011C234.704 221.515 234.665 222.026 234.527 222.515C234.389 223.004 234.155 223.46 233.837 223.857C233.519 224.254 233.126 224.582 232.679 224.824C232.232 225.066 231.741 225.215 231.235 225.264L241.363 224.15C242.379 224.035 243.308 223.524 243.948 222.727C244.588 221.931 244.888 220.913 244.781 219.897L243.756 210.594C243.707 210.087 243.557 209.595 243.315 209.147C243.072 208.699 242.742 208.305 242.344 207.987C241.946 207.67 241.488 207.435 240.998 207.298C240.508 207.161 239.994 207.124 239.489 207.189Z" fill="#042066"/>
</g>
<path d="M227.261 216.682C216.48 217.869 206.612 223.288 199.827 231.747C193.042 240.207 189.895 251.014 191.078 261.793L192.066 270.83L273.381 261.894L272.394 252.857C271.206 242.076 265.784 232.208 257.32 225.424C248.856 218.64 238.044 215.496 227.261 216.682Z" fill="#EF4136"/>
<g style="mix-blend-mode:soft-light">
<path d="M227.26 216.682C225.055 216.919 222.874 217.343 220.74 217.948C230.424 218.466 239.609 222.407 246.656 229.067C253.703 235.728 258.153 244.675 259.214 254.312L260.202 263.337L273.381 261.894L272.393 252.857C271.206 242.076 265.784 232.208 257.32 225.424C248.856 218.64 238.043 215.496 227.26 216.682Z" fill="#042066"/>
</g>
<path d="M276.434 259.671L188.583 269.321C185.588 269.65 183.426 272.345 183.755 275.34L183.971 277.302C184.3 280.297 186.995 282.458 189.991 282.129L277.842 272.479C280.837 272.15 282.999 269.455 282.669 266.461L282.454 264.498C282.125 261.503 279.43 259.342 276.434 259.671Z" fill="#EF4136"/>
<g style="mix-blend-mode:soft-light">
<path d="M276.229 259.679L263.062 261.122C263.805 261.041 264.557 261.109 265.274 261.32C265.99 261.531 266.658 261.883 267.238 262.353C267.819 262.824 268.3 263.405 268.654 264.063C269.009 264.72 269.23 265.442 269.304 266.185L269.481 267.729C269.564 268.473 269.498 269.226 269.287 269.944C269.076 270.662 268.726 271.331 268.255 271.912C267.784 272.494 267.202 272.976 266.543 273.331C265.885 273.687 265.162 273.908 264.417 273.982L277.596 272.526C278.34 272.451 279.062 272.228 279.72 271.873C280.378 271.517 280.959 271.035 281.429 270.453C281.9 269.872 282.251 269.204 282.462 268.486C282.674 267.769 282.741 267.017 282.66 266.274L282.483 264.742C282.409 263.997 282.188 263.275 281.832 262.616C281.477 261.958 280.995 261.376 280.413 260.905C279.831 260.435 279.162 260.084 278.444 259.873C277.726 259.663 276.973 259.597 276.229 259.679Z" fill="#042066"/>
</g>
<path d="M313.665 186.608C317.694 187.604 321.953 186.965 325.511 184.831C329.07 182.696 331.638 179.239 332.655 175.216L337.529 155.572C338.529 151.544 337.891 147.284 335.756 143.725C333.62 140.166 330.16 137.599 326.135 136.586L275.495 123.929C271.466 122.932 267.207 123.571 263.648 125.706C260.09 127.841 257.521 131.297 256.505 135.32L251.643 154.964C250.64 158.993 251.276 163.254 253.412 166.814C255.549 170.374 259.01 172.94 263.037 173.951L263.848 174.153L259.91 189.937L257.087 189.241C253.59 188.376 249.893 188.934 246.808 190.792C243.722 192.65 241.5 195.657 240.629 199.151L225.133 261.287C224.272 264.782 224.832 268.477 226.69 271.561C228.548 274.645 231.553 276.868 235.046 277.741L289.649 291.348C293.145 292.209 296.841 291.649 299.926 289.792C303.011 287.934 305.233 284.93 306.107 281.437L321.603 219.289C322.464 215.793 321.904 212.099 320.046 209.015C318.188 205.93 315.184 203.708 311.69 202.835L308.867 202.139L312.804 186.355L313.665 186.608Z" fill="#B9EAFC"/>
<path d="M316.363 123.574L290.26 117.067C289.181 116.798 288.089 117.454 287.82 118.533L286.313 124.575C286.044 125.654 286.7 126.746 287.779 127.015L313.882 133.522C314.961 133.791 316.054 133.135 316.323 132.056L317.829 126.014C318.098 124.935 317.442 123.843 316.363 123.574Z" fill="#2C52A8"/>
<path d="M318.849 113.635L292.745 107.128C291.666 106.859 290.574 107.516 290.305 108.594L288.798 114.636C288.529 115.715 289.186 116.807 290.264 117.076L316.368 123.583C317.446 123.852 318.539 123.196 318.808 122.117L320.315 116.075C320.584 114.996 319.927 113.904 318.849 113.635Z" fill="#2C52A8"/>
<path d="M313.35 101.693L303.191 99.1607C301.183 98.6601 299.149 99.8818 298.648 101.89L297.98 104.567C297.48 106.575 298.702 108.608 300.71 109.109L310.869 111.641C312.877 112.142 314.911 110.92 315.411 108.912L316.079 106.235C316.58 104.227 315.358 102.194 313.35 101.693Z" fill="#1B75BC"/>
<path d="M318.082 147.844L283.171 139.141C279.799 138.301 276.384 140.352 275.543 143.723L272.343 156.558C271.502 159.929 273.554 163.343 276.926 164.183L311.837 172.886C315.208 173.726 318.623 171.675 319.464 168.304L322.665 155.47C323.505 152.099 321.453 148.684 318.082 147.844Z" fill="white"/>
<path d="M304.682 211.579L265.066 201.704C261.694 200.863 258.279 202.915 257.439 206.286L244.269 259.096C243.428 262.467 245.48 265.881 248.852 266.722L288.468 276.597C291.84 277.437 295.254 275.386 296.095 272.015L309.265 219.205C310.105 215.834 308.054 212.42 304.682 211.579Z" fill="#1B75BC"/>
<g style="mix-blend-mode:soft-light">
<path d="M233.843 263.489L249.339 201.341C250.213 197.848 252.436 194.844 255.52 192.986C258.605 191.129 262.301 190.569 265.797 191.43L268.608 192.127L272.545 176.343L271.735 176.14C267.708 175.13 264.246 172.563 262.11 169.004C259.973 165.444 259.337 161.182 260.341 157.154L265.215 137.573C266.228 133.549 268.796 130.09 272.356 127.954C275.915 125.819 280.176 125.182 284.205 126.182L275.495 123.954C271.466 122.957 267.207 123.596 263.648 125.731C260.09 127.866 257.521 131.323 256.505 135.345L251.643 154.964C250.64 158.993 251.276 163.254 253.412 166.814C255.548 170.374 259.01 172.94 263.037 173.951L263.848 174.153L259.91 189.937L257.087 189.241C253.59 188.376 249.893 188.934 246.808 190.792C243.722 192.65 241.5 195.657 240.629 199.151L225.133 261.287C224.272 264.782 224.832 268.477 226.69 271.561C228.548 274.645 231.553 276.868 235.046 277.741L243.756 279.906C240.269 279.035 237.269 276.819 235.411 273.742C233.554 270.666 232.99 266.98 233.843 263.489Z" fill="white"/>
</g>
<path d="M301.936 96.387L298.146 111.605L300.456 112.18L304.245 96.9619L301.936 96.387Z" fill="#2C52A8"/>
<path d="M307.685 97.8263L303.896 113.044L306.205 113.619L309.995 98.4012L307.685 97.8263Z" fill="#2C52A8"/>
<path d="M313.406 99.2495L309.616 114.468L311.926 115.042L315.715 99.8244L313.406 99.2495Z" fill="#2C52A8"/>
<path d="M277.694 12.3774L216.605 350.13L235.367 353.522L296.456 15.7694L277.694 12.3774Z" fill="#27AAE1"/>
<g style="mix-blend-mode:soft-light" opacity="0.3">
<path d="M223.348 350.129L284.192 13.5433L277.66 12.3662L216.588 350.129L235.35 353.508L235.565 352.331L223.348 350.129Z" fill="white"/>
</g>
<path d="M292.776 33.5168L275.14 30.1373C273.871 29.8922 272.751 29.1531 272.027 28.0826C271.303 27.012 271.034 25.6977 271.279 24.4288C271.539 23.1742 272.282 22.0723 273.348 21.3617C274.414 20.651 275.718 20.3887 276.976 20.6316L294.611 23.9605C295.866 24.2201 296.968 24.9634 297.679 26.0294C298.39 27.0954 298.652 28.3984 298.409 29.6563C298.166 30.9111 297.439 32.0198 296.385 32.7423C295.33 33.4649 294.034 33.7431 292.776 33.5168Z" fill="#231F20"/>
<path d="M290.927 43.0858L273.305 39.6936C272.048 39.437 270.944 38.6944 270.233 37.6275C269.521 36.5607 269.26 35.2561 269.507 33.9978C269.763 32.7415 270.506 31.6375 271.573 30.9263C272.64 30.2151 273.945 29.9542 275.204 30.2005L292.839 33.5801C294.107 33.8282 295.224 34.568 295.948 35.6377C296.671 36.7074 296.942 38.02 296.7 39.2885C296.438 40.5574 295.683 41.6703 294.6 42.3824C293.518 43.0945 292.197 43.3475 290.927 43.0858Z" fill="#231F20"/>
<path d="M294.611 23.9605L276.976 20.5683C275.709 20.3231 274.592 19.5859 273.868 18.5182C273.144 17.4505 272.873 16.1395 273.114 14.8725C273.234 14.2447 273.477 13.6468 273.828 13.1128C274.18 12.5789 274.633 12.1195 275.162 11.7609C275.691 11.4023 276.286 11.1516 276.912 11.0231C277.538 10.8946 278.184 10.8908 278.811 11.012L296.447 14.4675C297.075 14.5874 297.673 14.8299 298.207 15.1812C298.741 15.5325 299.2 15.9856 299.559 16.5147C299.918 17.0437 300.169 17.6383 300.297 18.2644C300.426 18.8905 300.429 19.5358 300.308 20.1633C300.051 21.4196 299.309 22.5235 298.242 23.2347C297.175 23.946 295.87 24.2068 294.611 23.9605Z" fill="#231F20"/>
<path d="M275.812 15.8597C275.812 14.8724 276.432 6.08821 281.61 2.02519C282.735 1.14779 284.04 0.52951 285.432 0.21445C286.824 -0.100611 288.268 -0.104684 289.662 0.202523C291.075 0.444333 292.421 0.983476 293.61 1.78428C294.8 2.58507 295.806 3.62927 296.561 4.84779C300.081 10.5183 297.891 18.9101 297.637 19.8595L291.409 18.1254C291.877 16.442 292.801 11.0119 291.08 8.23997C290.786 7.7863 290.4 7.40034 289.946 7.10786C289.492 6.81538 288.981 6.62311 288.446 6.54388C287.962 6.4062 287.452 6.38372 286.957 6.47822C286.463 6.57273 285.997 6.7816 285.598 7.08815C283.319 8.8855 282.369 13.9738 282.268 16.1635L275.812 15.8597Z" fill="#231F20"/>
<path d="M368.438 135.21L366.714 134.855C358.421 133.147 350.313 138.484 348.605 146.775L338.329 196.648C336.621 204.94 341.959 213.046 350.252 214.754L351.975 215.109C360.268 216.817 368.376 211.48 370.085 203.189L380.361 153.315C382.069 145.024 376.731 136.918 368.438 135.21Z" fill="#EF4136"/>
<path d="M369.61 154.965C369.418 155.891 368.955 156.739 368.281 157.403C367.607 158.066 366.751 158.515 365.822 158.693C364.892 158.87 363.931 158.768 363.06 158.4C362.188 158.031 361.446 157.413 360.926 156.622C360.406 155.832 360.132 154.905 360.139 153.959C360.145 153.013 360.432 152.091 360.963 151.308C361.494 150.525 362.246 149.917 363.122 149.561C363.999 149.205 364.961 149.116 365.888 149.307C366.504 149.433 367.089 149.68 367.61 150.033C368.131 150.386 368.577 150.838 368.922 151.364C369.268 151.889 369.507 152.478 369.625 153.096C369.743 153.714 369.738 154.349 369.61 154.965Z" fill="white"/>
<g style="mix-blend-mode:soft-light">
<path d="M344.847 197.063L354.76 148.965C355.503 145.293 357.497 141.992 360.4 139.625C363.304 137.257 366.939 135.968 370.686 135.978C369.691 135.553 368.656 135.227 367.597 135.004C365.508 134.577 363.355 134.565 361.262 134.97C359.168 135.375 357.175 136.189 355.396 137.364C353.618 138.54 352.088 140.054 350.895 141.821C349.701 143.588 348.868 145.572 348.442 147.661L338.53 195.759C338.101 197.848 338.088 200.001 338.492 202.094C338.897 204.188 339.71 206.181 340.886 207.96C342.062 209.739 343.578 211.268 345.346 212.461C347.114 213.653 349.099 214.486 351.19 214.91C352.247 215.131 353.325 215.242 354.405 215.239C350.957 213.78 348.12 211.172 346.378 207.858C344.635 204.545 344.094 200.73 344.847 197.063Z" fill="white"/>
</g>
<path d="M309.634 187.38L400.151 206.023C405.084 207.039 409.411 209.972 412.181 214.178C414.95 218.384 415.936 223.517 414.919 228.449L397.908 311.014L270.191 284.71L287.203 202.145C288.219 197.213 291.153 192.887 295.36 190.118C299.566 187.349 304.701 186.364 309.634 187.38Z" fill="#EF4136"/>
<path d="M393.601 218.467L310.715 201.404C304.031 200.025 297.65 203.544 296.473 209.265L291.232 234.706L287.358 253.528L281.496 281.956L388.587 304.005L394.5 275.615L398.298 256.793L403.551 231.314C404.754 225.593 400.285 219.846 393.601 218.467Z" fill="#BE1E2D"/>
<path d="M389.511 305.461L280.091 282.918L295.283 209.024C296.549 202.696 303.613 198.734 310.931 200.24L393.816 217.302C397.224 217.963 400.285 219.816 402.45 222.53C403.464 223.777 404.193 225.231 404.585 226.791C404.976 228.35 405.021 229.976 404.716 231.554L389.511 305.461ZM282.901 281.07L387.663 302.588L402.399 231.023C402.638 229.783 402.599 228.506 402.286 227.283C401.973 226.059 401.393 224.92 400.589 223.947C398.775 221.679 396.212 220.131 393.36 219.58L310.475 202.518C304.449 201.253 298.688 204.392 297.65 209.455L282.901 281.07Z" fill="#F46460"/>
<path d="M386.004 226.96L314.335 212.201C310.778 211.467 307.385 213.34 306.739 216.378L295.751 269.881L292.775 284.323L377.319 301.79L380.294 287.348L391.308 233.858C391.967 230.744 389.561 227.681 386.004 226.96Z" fill="#EF4136"/>
<path d="M311.019 175.714L264.561 185.172C258.977 186.309 255.372 191.756 256.509 197.339L262.405 226.287C263.542 231.87 268.991 235.474 274.574 234.337L321.033 224.878C326.617 223.742 330.221 218.294 329.084 212.712L323.188 183.763C322.051 178.181 316.603 174.577 311.019 175.714Z" fill="#F2C60F"/>
<path d="M320.367 224.715L275.125 233.926C269.205 235.131 265.383 240.906 266.589 246.824L275.041 288.324C276.247 294.242 282.023 298.063 287.942 296.858L333.185 287.647C339.104 286.442 342.926 280.667 341.721 274.749L333.268 233.249C332.063 227.33 326.287 223.51 320.367 224.715Z" fill="#F2C60F"/>
<path d="M300.159 177.925L253.7 187.383C248.116 188.52 244.512 193.967 245.649 199.55L251.545 228.498C252.682 234.081 258.13 237.685 263.714 236.548L310.172 227.09C315.756 225.953 319.361 220.505 318.224 214.923L312.328 185.975C311.191 180.392 305.742 176.788 300.159 177.925Z" fill="#FFDE17"/>
<path d="M309.517 226.923L264.274 236.134C258.354 237.34 254.533 243.114 255.738 249.033L264.191 290.533C265.396 296.451 271.172 300.272 277.092 299.067L322.334 289.856C328.254 288.65 332.075 282.876 330.87 276.957L322.418 235.457C321.212 229.539 315.436 225.718 309.517 226.923Z" fill="#FFDE17"/>
<path d="M260.759 198C260.893 198.662 260.827 199.349 260.571 199.973C260.315 200.598 259.879 201.133 259.318 201.511C258.758 201.888 258.099 202.091 257.423 202.094C256.747 202.097 256.086 201.899 255.523 201.527C254.959 201.154 254.519 200.623 254.257 200C253.995 199.378 253.924 198.691 254.052 198.028C254.18 197.365 254.502 196.755 254.977 196.274C255.452 195.794 256.059 195.465 256.72 195.329C257.61 195.15 258.534 195.33 259.291 195.83C260.048 196.331 260.576 197.111 260.759 198Z" fill="#F2C60F"/>
<path d="M306.816 185.114C306.952 185.776 306.889 186.464 306.635 187.09C306.38 187.716 305.946 188.253 305.386 188.632C304.827 189.011 304.167 189.216 303.491 189.221C302.815 189.225 302.153 189.03 301.588 188.658C301.024 188.286 300.582 187.756 300.319 187.133C300.056 186.51 299.984 185.824 300.111 185.16C300.238 184.496 300.559 183.885 301.034 183.404C301.509 182.923 302.115 182.593 302.777 182.456C303.217 182.366 303.671 182.362 304.112 182.447C304.552 182.531 304.972 182.702 305.348 182.949C305.723 183.196 306.045 183.514 306.297 183.886C306.549 184.257 306.725 184.675 306.816 185.114Z" fill="#F2C60F"/>
<path d="M272.342 195.633C272.477 196.295 272.412 196.983 272.155 197.608C271.899 198.234 271.462 198.769 270.901 199.147C270.34 199.524 269.68 199.727 269.004 199.729C268.328 199.732 267.666 199.533 267.103 199.16C266.539 198.786 266.099 198.253 265.838 197.63C265.578 197.006 265.508 196.319 265.638 195.655C265.768 194.992 266.092 194.382 266.569 193.902C267.045 193.423 267.654 193.096 268.317 192.962C268.756 192.872 269.21 192.869 269.651 192.954C270.091 193.04 270.511 193.212 270.885 193.46C271.259 193.708 271.581 194.028 271.831 194.401C272.081 194.774 272.255 195.192 272.342 195.633Z" fill="#F2C60F"/>
<path d="M269.595 218.517C269.729 219.179 269.663 219.866 269.407 220.491C269.15 221.116 268.715 221.651 268.154 222.028C267.594 222.406 266.935 222.609 266.259 222.612C265.583 222.614 264.922 222.417 264.359 222.044C263.795 221.672 263.355 221.141 263.093 220.518C262.831 219.895 262.76 219.209 262.888 218.546C263.016 217.883 263.338 217.272 263.813 216.792C264.288 216.311 264.895 215.983 265.556 215.847C265.997 215.754 266.452 215.75 266.894 215.835C267.336 215.919 267.757 216.091 268.133 216.339C268.509 216.588 268.831 216.908 269.082 217.282C269.333 217.656 269.507 218.076 269.595 218.517Z" fill="#F2C60F"/>
<path d="M295.903 203.062C296.036 203.725 295.971 204.411 295.715 205.036C295.458 205.661 295.022 206.196 294.462 206.574C293.902 206.951 293.242 207.154 292.567 207.157C291.891 207.16 291.23 206.962 290.666 206.59C290.103 206.217 289.662 205.686 289.401 205.063C289.139 204.441 289.068 203.754 289.196 203.091C289.324 202.428 289.646 201.818 290.121 201.337C290.596 200.857 291.202 200.528 291.864 200.392C292.754 200.212 293.678 200.393 294.435 200.893C295.192 201.394 295.72 202.174 295.903 203.062Z" fill="#F2C60F"/>
<path d="M287.965 263.097C288.099 263.759 288.033 264.445 287.777 265.07C287.521 265.695 287.085 266.23 286.524 266.608C285.964 266.985 285.305 267.188 284.629 267.191C283.953 267.194 283.292 266.996 282.729 266.624C282.165 266.251 281.725 265.72 281.463 265.097C281.201 264.475 281.13 263.788 281.258 263.125C281.387 262.462 281.708 261.852 282.183 261.371C282.658 260.891 283.265 260.562 283.926 260.426C284.816 260.247 285.74 260.427 286.497 260.927C287.254 261.428 287.782 262.208 287.965 263.097Z" fill="#F2C60F"/>
<path d="M287.674 244.528C287.808 245.19 287.742 245.877 287.486 246.502C287.23 247.127 286.794 247.662 286.233 248.039C285.673 248.417 285.014 248.62 284.338 248.622C283.662 248.625 283.001 248.428 282.438 248.055C281.874 247.683 281.434 247.152 281.172 246.529C280.91 245.906 280.839 245.22 280.967 244.557C281.095 243.894 281.417 243.283 281.892 242.803C282.367 242.322 282.974 241.993 283.635 241.857C284.076 241.767 284.53 241.764 284.972 241.85C285.414 241.935 285.834 242.106 286.209 242.355C286.584 242.603 286.907 242.922 287.158 243.295C287.41 243.668 287.585 244.087 287.674 244.528Z" fill="#F2C60F"/>
<path d="M318.146 257.932C318.281 258.595 318.215 259.282 317.959 259.908C317.702 260.534 317.266 261.069 316.705 261.447C316.144 261.824 315.484 262.027 314.808 262.029C314.131 262.031 313.47 261.833 312.906 261.459C312.343 261.086 311.903 260.553 311.642 259.929C311.381 259.305 311.312 258.618 311.442 257.955C311.572 257.291 311.895 256.681 312.372 256.202C312.849 255.723 313.457 255.395 314.12 255.262C314.56 255.171 315.014 255.169 315.454 255.254C315.895 255.34 316.315 255.511 316.689 255.76C317.063 256.008 317.385 256.328 317.635 256.7C317.885 257.073 318.059 257.492 318.146 257.932Z" fill="#F2C60F"/>
<path d="M301.549 286.323C301.683 286.985 301.617 287.672 301.361 288.297C301.105 288.922 300.669 289.457 300.108 289.834C299.548 290.211 298.889 290.414 298.213 290.417C297.537 290.42 296.876 290.223 296.313 289.85C295.749 289.478 295.309 288.946 295.047 288.324C294.785 287.701 294.714 287.015 294.842 286.352C294.97 285.688 295.292 285.078 295.767 284.598C296.242 284.117 296.849 283.788 297.51 283.652C297.951 283.562 298.405 283.559 298.847 283.644C299.289 283.73 299.709 283.901 300.084 284.149C300.459 284.398 300.782 284.717 301.033 285.09C301.285 285.463 301.46 285.882 301.549 286.323Z" fill="#F2C60F"/>
<path d="M281.699 205.974C281.905 206.992 281.806 208.048 281.412 209.009C281.019 209.97 280.349 210.793 279.488 211.373C278.627 211.954 277.613 212.267 276.574 212.272C275.535 212.276 274.518 211.973 273.652 211.4C272.786 210.828 272.108 210.011 271.706 209.053C271.304 208.096 271.194 207.041 271.392 206.021C271.589 205.002 272.084 204.063 272.814 203.325C273.545 202.587 274.478 202.081 275.495 201.873C276.861 201.6 278.28 201.878 279.442 202.646C280.604 203.414 281.415 204.61 281.699 205.974Z" fill="#F2C60F"/>
<path d="M305.512 214.695C305.719 215.712 305.619 216.769 305.226 217.73C304.832 218.691 304.162 219.514 303.301 220.094C302.44 220.675 301.426 220.988 300.387 220.992C299.349 220.997 298.332 220.694 297.465 220.121C296.599 219.548 295.922 218.732 295.52 217.774C295.117 216.817 295.008 215.762 295.205 214.742C295.402 213.722 295.897 212.784 296.628 212.046C297.358 211.308 298.291 210.802 299.309 210.594C300.675 210.321 302.093 210.599 303.255 211.367C304.417 212.135 305.228 213.331 305.512 214.695Z" fill="#F2C60F"/>
<path d="M277.128 252.047C277.335 253.065 277.236 254.122 276.842 255.084C276.448 256.045 275.778 256.869 274.916 257.45C274.055 258.03 273.04 258.343 272.001 258.347C270.961 258.351 269.944 258.047 269.078 257.473C268.211 256.899 267.534 256.081 267.133 255.122C266.732 254.164 266.624 253.108 266.823 252.088C267.022 251.068 267.519 250.13 268.251 249.393C268.984 248.655 269.918 248.152 270.937 247.946C271.613 247.807 272.31 247.803 272.987 247.935C273.664 248.066 274.309 248.33 274.884 248.711C275.459 249.092 275.954 249.583 276.339 250.155C276.724 250.728 276.992 251.37 277.128 252.047Z" fill="#F2C60F"/>
<path d="M311.044 268.236C311.248 269.253 311.146 270.309 310.751 271.269C310.355 272.229 309.684 273.05 308.822 273.629C307.96 274.208 306.946 274.518 305.908 274.521C304.87 274.524 303.854 274.22 302.989 273.646C302.123 273.072 301.447 272.255 301.046 271.297C300.645 270.34 300.537 269.285 300.735 268.266C300.933 267.247 301.429 266.309 302.16 265.572C302.89 264.834 303.823 264.33 304.841 264.122C305.518 263.982 306.217 263.977 306.896 264.108C307.576 264.24 308.223 264.504 308.8 264.886C309.376 265.269 309.872 265.762 310.257 266.337C310.642 266.911 310.91 267.557 311.044 268.236Z" fill="#F2C60F"/>
<path d="M140.133 141.946L131.854 141.979L131.925 159.788L140.205 159.754L140.133 141.946Z" fill="#1B75BC"/>
<path d="M130.038 137.404L121.632 137.438C118.891 137.449 116.678 139.679 116.689 142.419L116.757 159.469C116.768 162.209 118.999 164.422 121.74 164.411L130.146 164.377C132.887 164.366 135.1 162.135 135.089 159.395L135.02 142.346C135.009 139.606 132.779 137.393 130.038 137.404Z" fill="#27AAE1"/>
<path d="M237.3 248.414C237.667 233.149 211.587 221.758 211.461 221.707L211.296 178.912L178.608 179.039L178.772 221.833C178.772 221.833 152.693 233.44 153.148 248.743L153.744 396.986C153.744 402.961 172.632 407.745 195.863 407.657C219.095 407.568 237.92 402.594 237.907 396.645L237.312 248.363L237.3 248.414Z" fill="#B9EAFC"/>
<g style="mix-blend-mode:soft-light">
<g style="mix-blend-mode:soft-light">
<path d="M237.3 248.414C237.604 235.921 220.183 226.023 213.79 222.808C220.766 227.618 228.286 234.731 228.096 242.984V248.452L237.3 248.414Z" fill="#231F20"/>
</g>
<g style="mix-blend-mode:soft-light">
<path d="M228.653 391.265C228.653 397.252 209.865 402.176 186.621 402.265C173.518 402.328 161.808 400.822 154.072 398.467C156.782 403.771 174.442 407.809 195.85 407.733C219.094 407.631 237.907 402.67 237.894 396.721L237.299 248.439H228.121L228.653 391.265Z" fill="#231F20"/>
</g>
<g style="mix-blend-mode:soft-light">
<path d="M202.256 216.277C205.438 217.725 208.514 219.395 211.46 221.277L211.296 178.912H202.117L202.256 216.277Z" fill="#231F20"/>
</g>
</g>
<path d="M215.613 169.66C215.613 172.748 206.371 175.292 194.939 175.33C183.507 175.368 174.215 172.913 174.215 169.812C174.215 166.711 183.457 164.179 194.889 164.141C206.321 164.103 215.6 166.559 215.613 169.66Z" fill="#1B75BC"/>
<path d="M174.215 169.812L174.303 191.19C174.303 194.291 183.583 196.759 195.015 196.709C206.447 196.658 215.714 194.177 215.702 191.025L215.613 169.66L174.215 169.812Z" fill="#1B75BC"/>
<g style="mix-blend-mode:soft-light">
<path d="M209.157 169.685L209.22 186.912C209.22 190 199.978 192.544 188.546 192.595C183.756 192.679 178.973 192.178 174.304 191.101V191.19C174.304 194.291 183.583 196.759 195.016 196.709C206.448 196.658 215.715 194.177 215.702 191.025L215.613 169.66L209.157 169.685Z" fill="#231F20"/>
</g>
<path d="M226.204 131.322L149.016 131.632C144.087 131.652 140.107 135.663 140.127 140.591L140.235 167.538C140.255 172.467 144.267 176.446 149.196 176.426L226.384 176.116C231.313 176.096 235.293 172.085 235.273 167.157L235.165 140.21C235.145 135.281 231.133 131.302 226.204 131.322Z" fill="#2C52A8"/>
<path d="M146.565 176.482C146.094 176.485 145.643 176.675 145.311 177.009C144.979 177.344 144.793 177.796 144.793 178.267L144.907 207.379L145.008 232.2C145.01 232.513 145.094 232.82 145.252 233.09C145.41 233.36 145.636 233.584 145.908 233.739C146.18 233.895 146.488 233.976 146.801 233.974C147.114 233.973 147.422 233.889 147.692 233.731C152.262 231.086 161.124 223.821 161.061 207.315L160.947 178.203C160.941 177.731 160.748 177.28 160.412 176.949C160.075 176.617 159.622 176.431 159.149 176.431L146.565 176.482Z" fill="#15267A"/>
<path d="M136.374 140.725H114.004V144.294H136.374V140.725Z" fill="#2B3990"/>
<path d="M137.02 146.067L114.649 146.153L114.663 149.722L137.033 149.636L137.02 146.067Z" fill="#2B3990"/>
<path d="M137.056 152.155L114.686 152.241L114.699 155.81L137.069 155.724L137.056 152.155Z" fill="#2B3990"/>
<path d="M137.079 158.243L114.709 158.329L114.723 161.898L137.093 161.812L137.079 158.243Z" fill="#2B3990"/>
<path d="M228.197 131.32H221.019C221.928 131.317 222.828 131.493 223.669 131.838C224.51 132.183 225.274 132.69 225.918 133.331C226.563 133.972 227.075 134.733 227.424 135.572C227.774 136.411 227.955 137.31 227.956 138.219L228.083 169.166C228.088 170.075 227.914 170.975 227.57 171.817C227.227 172.658 226.721 173.423 226.081 174.068C225.441 174.714 224.681 175.227 223.842 175.578C223.004 175.929 222.105 176.112 221.196 176.115L147.173 176.406L228.374 176.077C229.283 176.075 230.181 175.894 231.02 175.545C231.858 175.195 232.619 174.683 233.258 174.039C233.898 173.394 234.405 172.63 234.748 171.789C235.092 170.949 235.266 170.049 235.261 169.141L235.147 138.181C235.131 136.351 234.39 134.602 233.088 133.317C231.786 132.032 230.027 131.314 228.197 131.32Z" fill="#13247A"/>
<path d="M375.611 521.421H157.985C153.177 521.421 148.553 519.574 145.068 516.262C141.583 512.95 139.504 508.426 139.261 503.625L129.247 306.233C129.127 303.7 129.522 301.169 130.409 298.793C131.296 296.417 132.656 294.246 134.406 292.41C136.156 290.575 138.261 289.114 140.593 288.116C142.924 287.117 145.434 286.602 147.971 286.601H385.637C388.18 286.601 390.695 287.118 393.031 288.121C395.367 289.123 397.475 290.59 399.226 292.432C400.977 294.274 402.336 296.453 403.219 298.837C404.101 301.22 404.49 303.758 404.362 306.296L394.348 503.752C394.073 508.532 391.978 513.026 388.494 516.312C385.01 519.598 380.4 521.426 375.611 521.421Z" fill="#F9C441"/>
<g style="mix-blend-mode:soft-light">
<path d="M385.637 286.601H364.571C367.113 286.601 369.628 287.118 371.964 288.121C374.3 289.123 376.408 290.59 378.159 292.432C379.911 294.274 381.269 296.453 382.152 298.837C383.035 301.22 383.424 303.758 383.295 306.296L373.281 503.752C373.037 508.552 370.958 513.076 367.474 516.388C363.989 519.7 359.365 521.548 354.557 521.548H375.61C380.418 521.548 385.043 519.7 388.527 516.388C392.012 513.076 394.091 508.552 394.334 503.752L404.349 306.359C404.486 303.817 404.104 301.273 403.226 298.883C402.348 296.493 400.992 294.307 399.241 292.459C397.49 290.61 395.381 289.137 393.042 288.13C390.703 287.123 388.184 286.603 385.637 286.601Z" fill="#231F20"/>
</g>
<g style="mix-blend-mode:soft-light">
<path d="M402.349 345.8L404.349 306.233C404.469 303.701 404.074 301.171 403.188 298.796C402.302 296.421 400.943 294.25 399.194 292.415C397.445 290.58 395.342 289.119 393.012 288.119C390.682 287.12 388.173 286.604 385.638 286.601H147.971C145.429 286.601 142.913 287.118 140.577 288.121C138.241 289.123 136.134 290.59 134.382 292.432C132.631 294.274 131.273 296.453 130.39 298.837C129.507 301.22 129.118 303.758 129.247 306.296L131.26 345.863L402.349 345.8Z" fill="#262262"/>
</g>
<path d="M410.488 258.439H123.106C114.855 258.439 108.167 265.126 108.167 273.374V312.435C108.167 320.684 114.855 327.371 123.106 327.371H410.488C418.739 327.371 425.427 320.684 425.427 312.435V273.374C425.427 265.126 418.739 258.439 410.488 258.439Z" fill="#F9C441"/>
<g style="mix-blend-mode:soft-light">
<path d="M411.375 258.426H389.701C393.432 258.426 397.009 259.908 399.647 262.545C402.285 265.182 403.766 268.759 403.766 272.488V313.308C403.763 317.036 402.28 320.609 399.642 323.244C397.005 325.878 393.429 327.358 389.701 327.358H411.375C415.102 327.358 418.677 325.878 421.312 323.243C423.947 320.608 425.428 317.035 425.428 313.308V272.488C425.429 270.642 425.067 268.814 424.362 267.108C423.656 265.402 422.621 263.852 421.316 262.546C420.011 261.24 418.462 260.204 416.756 259.497C415.05 258.79 413.222 258.426 411.375 258.426Z" fill="#231F20"/>
</g>
<path d="M184.343 479.551H225.146C227.832 479.551 230.408 480.617 232.308 482.516C234.207 484.415 235.274 486.991 235.274 489.677V521.485H174.215V489.677C174.215 486.991 175.282 484.415 177.181 482.516C179.081 480.617 181.657 479.551 184.343 479.551Z" fill="#EDA132"/>
<path d="M310.766 479.551H351.569C354.255 479.551 356.831 480.617 358.731 482.516C360.63 484.415 361.697 486.991 361.697 489.677V521.485H300.638V489.677C300.638 486.991 301.705 484.415 303.604 482.516C305.503 480.617 308.08 479.551 310.766 479.551Z" fill="#EDA132"/>
<path d="M217.588 488.056H191.471C185.472 488.056 180.608 492.919 180.608 498.916V534.876C180.608 540.874 185.472 545.736 191.471 545.736H217.588C223.587 545.736 228.451 540.874 228.451 534.876V498.916C228.451 492.919 223.587 488.056 217.588 488.056Z" fill="#00003D"/>
<path d="M344.226 488.056H318.108C312.109 488.056 307.246 492.919 307.246 498.916V534.876C307.246 540.874 312.109 545.736 318.108 545.736H344.226C350.225 545.736 355.088 540.874 355.088 534.876V498.916C355.088 492.919 350.225 488.056 344.226 488.056Z" fill="#00003D"/>
<path d="M238.576 291.638L232.077 283.062C229.641 279.847 225.059 279.216 221.844 281.652L111.279 365.405C108.063 367.841 107.432 372.422 109.868 375.637L116.367 384.212C118.803 387.427 123.385 388.059 126.601 385.623L237.165 301.869C240.381 299.434 241.012 294.853 238.576 291.638Z" fill="#00003D"/>
<path d="M154.519 379.543L146.187 379.965L150.87 472.397L159.202 471.975L154.519 379.543Z" fill="white"/>
<path d="M160.289 481.905C160.289 482.884 159.999 483.841 159.455 484.654C158.911 485.468 158.138 486.103 157.233 486.477C156.329 486.852 155.333 486.95 154.373 486.759C153.413 486.568 152.531 486.097 151.839 485.404C151.146 484.712 150.675 483.83 150.484 482.87C150.293 481.91 150.391 480.915 150.765 480.011C151.14 479.107 151.775 478.334 152.589 477.79C153.403 477.246 154.36 476.956 155.339 476.956C156.651 476.959 157.908 477.482 158.835 478.409C159.763 479.337 160.285 480.593 160.289 481.905Z" fill="white"/>
<path d="M128.208 312.752C128.21 313.733 127.921 314.694 127.377 315.512C126.834 316.329 126.059 316.967 125.153 317.345C124.246 317.722 123.248 317.822 122.285 317.632C121.321 317.442 120.436 316.971 119.74 316.277C119.045 315.584 118.571 314.7 118.379 313.737C118.186 312.774 118.284 311.776 118.659 310.868C119.034 309.961 119.67 309.185 120.486 308.64C121.303 308.094 122.263 307.802 123.245 307.802C124.559 307.802 125.819 308.323 126.75 309.251C127.68 310.179 128.204 311.438 128.208 312.752Z" fill="white"/>
<path d="M127.423 271.058H119.08V304.524H127.423V271.058Z" fill="white"/>
<path d="M338.555 253.325C338.803 257.857 338.237 262.397 336.884 266.729C330.554 290.588 317.071 312.764 315.513 337.408C315.362 339.94 315.881 343.155 318.324 343.648C320.767 344.142 322.426 341.56 323.388 339.345C325.319 334.592 326.708 329.637 327.528 324.574C326.893 333.133 327.798 341.737 330.199 349.977C331.009 352.901 332.959 356.394 335.959 355.951C338.124 355.622 339.365 353.356 340.137 351.306C342.313 345.526 343.445 339.406 343.48 333.231C343.503 330.857 343.355 328.484 343.036 326.13C342.914 334.315 344.238 342.456 346.948 350.179C347.581 352.065 348.569 354.179 350.506 354.685C351.46 354.827 352.434 354.646 353.273 354.171C354.112 353.697 354.769 352.956 355.139 352.065C355.839 350.262 356.12 348.323 355.962 346.395C355.903 339.602 355.844 332.805 355.785 326.004C355.874 333.708 358.282 341.207 362.697 347.521C364.179 349.749 366.495 352.078 369.103 351.496C372.104 350.825 372.965 346.977 372.901 343.901C372.901 337.016 371.509 330.206 370.964 323.333C370.42 316.46 370.737 309.283 373.826 303.081C374.547 307.663 375.535 312.815 376.256 317.409C376.417 319.466 377.059 321.456 378.13 323.219C379.396 324.89 381.687 325.928 383.523 325.004C384.831 324.128 385.765 322.797 386.144 321.27C390.98 307.731 390.358 292.842 384.409 279.754C385.405 272.398 385.693 264.963 385.27 257.553C385.169 255.325 384.675 252.629 382.561 251.882C368.382 246.971 352.81 248.376 338.555 253.325Z" fill="#2C52A8"/>
<g style="mix-blend-mode:soft-light" opacity="0.5">
<path d="M331.744 316.169C331.744 316.169 329.541 344.256 335.959 355.964C335.959 355.964 327.325 359.761 327.528 324.586C328.626 321.637 330.039 318.814 331.744 316.169Z" fill="#231F20"/>
</g>
<g style="mix-blend-mode:soft-light" opacity="0.5">
<path d="M343.442 334.991C343.442 334.991 345.758 355.698 351.784 354.787C347.407 341.325 345.982 327.079 347.607 313.017C347.607 313.017 342.365 321.181 343.442 334.991Z" fill="#231F20"/>
</g>
<g style="mix-blend-mode:soft-light" opacity="0.5">
<path d="M355.873 328.712C355.873 328.712 356.367 336.509 359.532 342.053C362.697 347.597 364.419 352.078 369.103 351.572C369.103 351.572 357.38 335.396 359.101 314.245C357.01 318.784 355.909 323.716 355.873 328.712Z" fill="#231F20"/>
</g>
<g style="mix-blend-mode:soft-light" opacity="0.2">
<g style="mix-blend-mode:soft-light" opacity="0.2">
<path d="M385.321 257.667C385.22 255.439 384.726 252.743 382.612 251.996C368.382 246.933 352.81 248.376 338.555 253.325C338.555 253.325 375.687 250.123 384.46 279.906C385.458 272.537 385.746 265.09 385.321 257.667Z" fill="white"/>
</g>
</g>
<g style="mix-blend-mode:soft-light" opacity="0.5">
<g style="mix-blend-mode:soft-light" opacity="0.5">
<path d="M344.466 260.78C344.466 260.78 340.023 283.045 331.73 297.373" stroke="white" stroke-width="2" stroke-miterlimit="10"/>
</g>
<g style="mix-blend-mode:soft-light" opacity="0.5">
<path d="M331.73 301.018C331.733 301.368 331.632 301.711 331.439 302.003C331.247 302.296 330.973 302.525 330.651 302.662C330.329 302.798 329.973 302.837 329.629 302.772C329.285 302.707 328.968 302.542 328.718 302.297C328.468 302.052 328.296 301.739 328.224 301.396C328.151 301.054 328.182 300.698 328.312 300.373C328.442 300.048 328.665 299.769 328.954 299.57C329.242 299.372 329.583 299.264 329.933 299.259C330.167 299.254 330.4 299.295 330.618 299.382C330.836 299.468 331.034 299.597 331.202 299.76C331.369 299.924 331.502 300.12 331.593 300.336C331.684 300.552 331.73 300.784 331.73 301.018Z" fill="white"/>
</g>
</g>
<g style="mix-blend-mode:soft-light" opacity="0.5">
<path d="M217.588 488.056H210.194C213.075 488.056 215.838 489.201 217.875 491.237C219.912 493.274 221.057 496.036 221.057 498.916V534.876C221.057 537.756 219.912 540.519 217.875 542.555C215.838 544.592 213.075 545.736 210.194 545.736H217.588C220.47 545.736 223.234 544.592 225.273 542.556C227.312 540.52 228.459 537.757 228.463 534.876V498.916C228.459 496.035 227.312 493.273 225.273 491.236C223.234 489.2 220.47 488.056 217.588 488.056Z" fill="white"/>
</g>
<g style="mix-blend-mode:soft-light" opacity="0.5">
<path d="M344.214 488.056H336.82C339.701 488.056 342.464 489.201 344.501 491.237C346.538 493.274 347.683 496.036 347.683 498.916V534.876C347.683 537.756 346.538 540.519 344.501 542.555C342.464 544.592 339.701 545.736 336.82 545.736H344.214C347.096 545.736 349.86 544.592 351.899 542.556C353.938 540.52 355.085 537.757 355.089 534.876V498.916C355.085 496.035 353.938 493.273 351.899 491.236C349.86 489.2 347.096 488.056 344.214 488.056Z" fill="white"/>
</g>
<path d="M457.977 489.727V444.085C457.978 441.283 457.428 438.508 456.356 435.919C455.285 433.33 453.714 430.977 451.733 428.995C449.752 427.014 447.4 425.442 444.811 424.369C442.222 423.296 439.447 422.744 436.644 422.744H406.071C403.268 422.744 400.493 423.296 397.904 424.369C395.315 425.442 392.963 427.014 390.982 428.995C389.001 430.977 387.43 433.33 386.359 435.919C385.287 438.508 384.737 441.283 384.738 444.085V489.727C382.149 491.565 380.037 493.996 378.579 496.817C377.121 499.638 376.359 502.766 376.357 505.941V556.09C376.357 561.37 378.456 566.435 382.19 570.168C385.925 573.902 390.99 576 396.272 576H446.405C451.687 576 456.752 573.902 460.487 570.168C464.221 566.435 466.32 561.37 466.32 556.09V505.941C466.322 502.77 465.566 499.643 464.115 496.823C462.664 494.002 460.559 491.569 457.977 489.727Z" fill="#2C52A8"/>
<path d="M396.271 563.57C394.289 563.567 392.389 562.777 390.989 561.375C389.588 559.972 388.802 558.072 388.802 556.09V505.941C388.797 504.748 389.082 503.571 389.631 502.51C390.18 501.45 390.977 500.539 391.954 499.853L397.17 496.144V444.085C397.17 441.735 398.104 439.481 399.766 437.82C401.428 436.158 403.682 435.224 406.032 435.224H436.606C438.956 435.224 441.21 436.158 442.872 437.82C444.534 439.481 445.468 441.735 445.468 444.085V496.144L450.684 499.853C451.661 500.539 452.458 501.45 453.007 502.51C453.556 503.571 453.841 504.748 453.836 505.941V556.09C453.836 558.072 453.05 559.972 451.649 561.375C450.249 562.777 448.349 563.567 446.367 563.57H396.271Z" fill="#4B76C4"/>
<path d="M432.935 404.265H409.767C405.739 404.265 402.475 407.529 402.475 411.555V415.821C402.475 419.847 405.739 423.111 409.767 423.111H432.935C436.962 423.111 440.227 419.847 440.227 415.821V411.555C440.227 407.529 436.962 404.265 432.935 404.265Z" fill="#042066"/>
<path d="M458.647 354.787C472.023 354.787 482.866 343.946 482.866 330.573C482.866 317.2 472.023 306.359 458.647 306.359C445.272 306.359 434.429 317.2 434.429 330.573C434.429 343.946 445.272 354.787 458.647 354.787Z" fill="#B9EAFC"/>
<path d="M466.117 317.979C466.105 318.715 465.875 319.43 465.457 320.036C465.039 320.642 464.452 321.11 463.768 321.383C463.085 321.656 462.336 321.721 461.616 321.57C460.896 321.419 460.236 321.058 459.72 320.534C459.204 320.009 458.855 319.344 458.716 318.621C458.577 317.899 458.654 317.151 458.939 316.473C459.223 315.794 459.702 315.215 460.314 314.807C460.927 314.399 461.647 314.182 462.383 314.182C462.878 314.182 463.369 314.28 463.827 314.472C464.284 314.664 464.698 314.944 465.046 315.298C465.394 315.651 465.667 316.07 465.851 316.531C466.035 316.991 466.126 317.483 466.117 317.979Z" fill="white"/>
<path d="M476.637 329.535C476.64 328.44 476.317 327.369 475.71 326.457C475.103 325.546 474.239 324.835 473.228 324.415C472.216 323.995 471.103 323.884 470.028 324.097C468.954 324.31 467.967 324.837 467.193 325.611C466.418 326.386 465.891 327.372 465.678 328.447C465.465 329.521 465.576 330.634 465.996 331.645C466.416 332.656 467.127 333.52 468.039 334.127C468.951 334.734 470.022 335.056 471.117 335.054C472.581 335.054 473.985 334.472 475.02 333.438C476.056 332.403 476.637 330.999 476.637 329.535Z" fill="white"/>
<g style="mix-blend-mode:soft-light">
<path d="M477.587 315.523C478.622 318.236 479.154 321.114 479.157 324.017C479.156 329.038 477.593 333.934 474.684 338.028C471.775 342.121 467.665 345.208 462.923 346.862C458.181 348.516 453.041 348.654 448.217 347.257C443.393 345.86 439.123 342.998 435.999 339.066C437.225 342.34 439.147 345.31 441.631 347.77C444.116 350.231 447.104 352.123 450.391 353.318C453.677 354.512 457.184 354.98 460.668 354.689C464.153 354.398 467.534 353.356 470.577 351.633C473.62 349.911 476.253 347.549 478.295 344.711C480.337 341.873 481.74 338.626 482.406 335.194C483.073 331.762 482.987 328.226 482.155 324.83C481.323 321.434 479.765 318.259 477.587 315.523Z" fill="#231F20"/>
</g>
<path d="M417.768 228.238C433.178 228.238 445.671 215.748 445.671 200.341C445.671 184.934 433.178 172.444 417.768 172.444C402.358 172.444 389.865 184.934 389.865 200.341C389.865 215.748 402.358 228.238 417.768 228.238Z" fill="#B9EAFC"/>
<path d="M428.453 203.632C432.145 203.632 435.138 200.64 435.138 196.949C435.138 193.258 432.145 190.266 428.453 190.266C424.761 190.266 421.769 193.258 421.769 196.949C421.769 200.64 424.761 203.632 428.453 203.632Z" fill="white"/>
<path d="M425.301 185.342C425.313 185.845 425.175 186.341 424.905 186.765C424.634 187.19 424.244 187.524 423.782 187.726C423.321 187.927 422.81 187.986 422.315 187.896C421.819 187.805 421.362 187.569 421.002 187.218C420.641 186.867 420.394 186.416 420.291 185.923C420.188 185.43 420.234 184.918 420.424 184.452C420.613 183.986 420.938 183.587 421.355 183.305C421.773 183.024 422.265 182.874 422.769 182.874C423.429 182.874 424.064 183.132 424.537 183.593C425.01 184.054 425.284 184.682 425.301 185.342Z" fill="white"/>
<g style="mix-blend-mode:soft-light">
<path d="M422.452 172.862C427.828 175.888 432.047 180.614 434.447 186.296C436.846 191.979 437.291 198.297 435.711 204.26C434.13 210.222 430.614 215.491 425.715 219.24C420.816 222.989 414.81 225.005 408.64 224.973C407.074 224.963 405.512 224.823 403.969 224.555C407.502 226.543 411.427 227.736 415.47 228.05C419.512 228.364 423.575 227.792 427.373 226.374C431.171 224.955 434.614 222.725 437.461 219.838C440.308 216.952 442.49 213.479 443.855 209.661C445.22 205.844 445.735 201.775 445.363 197.738C444.992 193.701 443.744 189.794 441.706 186.29C439.668 182.785 436.889 179.768 433.563 177.449C430.238 175.13 426.446 173.564 422.452 172.862Z" fill="#231F20"/>
</g>
<path d="M478.601 142.309C489.243 138.173 494.518 126.195 490.381 115.555C486.245 104.915 474.264 99.6424 463.622 103.778C452.98 107.913 447.706 119.891 451.842 130.531C455.979 141.171 467.959 146.444 478.601 142.309Z" fill="#B9EAFC"/>
<path d="M465.978 123.245C465.978 124.211 465.691 125.156 465.154 125.959C464.617 126.763 463.854 127.389 462.961 127.759C462.068 128.129 461.085 128.225 460.137 128.037C459.19 127.848 458.319 127.383 457.635 126.7C456.952 126.016 456.487 125.146 456.298 124.198C456.109 123.25 456.206 122.268 456.576 121.375C456.946 120.483 457.572 119.72 458.376 119.183C459.18 118.646 460.124 118.359 461.091 118.359C462.387 118.359 463.63 118.874 464.546 119.79C465.463 120.707 465.978 121.949 465.978 123.245Z" fill="white"/>
<path d="M469.687 111.537C469.687 112.155 469.503 112.76 469.16 113.274C468.816 113.788 468.328 114.189 467.756 114.425C467.185 114.662 466.556 114.724 465.95 114.603C465.343 114.483 464.786 114.185 464.348 113.748C463.911 113.31 463.613 112.753 463.493 112.147C463.372 111.54 463.434 110.912 463.671 110.341C463.907 109.769 464.308 109.281 464.822 108.938C465.337 108.594 465.941 108.411 466.56 108.411C467.389 108.411 468.184 108.74 468.771 109.326C469.357 109.913 469.687 110.708 469.687 111.537Z" fill="white"/>
<g style="mix-blend-mode:soft-light">
<path d="M483.664 106.689C486.422 110.743 487.647 115.645 487.121 120.519C486.594 125.393 484.35 129.921 480.789 133.291C477.229 136.662 472.585 138.656 467.688 138.917C462.792 139.177 457.962 137.687 454.064 134.713C455.75 137.185 457.953 139.262 460.52 140.799C463.087 142.337 465.958 143.299 468.934 143.618C471.909 143.937 474.919 143.606 477.754 142.648C480.589 141.689 483.182 140.127 485.354 138.068C487.525 136.009 489.224 133.503 490.331 130.724C491.439 127.944 491.929 124.957 491.768 121.969C491.608 118.981 490.8 116.064 489.4 113.419C488.001 110.775 486.044 108.465 483.664 106.651V106.689Z" fill="#231F20"/>
</g>
<path d="M78.1795 101.151C80.4449 91.6735 74.5964 82.1541 65.1166 79.8891C55.6367 77.6242 46.1153 83.4714 43.8499 92.9493C41.5845 102.427 47.433 111.947 56.9128 114.212C66.3926 116.476 75.9141 110.629 78.1795 101.151Z" fill="#B9EAFC"/>
<path d="M54.2225 91.0067C55.6 91.0067 56.7166 89.8903 56.7166 88.5132C56.7166 87.136 55.6 86.0197 54.2225 86.0197C52.8451 86.0197 51.7285 87.136 51.7285 88.5132C51.7285 89.8903 52.8451 91.0067 54.2225 91.0067Z" fill="white"/>
<path d="M56.7295 98.1074C56.732 98.9391 56.4876 99.7528 56.0273 100.446C55.567 101.138 54.9114 101.679 54.1436 101.999C53.3758 102.319 52.5303 102.404 51.7141 102.243C50.898 102.082 50.1479 101.683 49.5588 101.096C48.9697 100.509 48.5681 99.7601 48.4049 98.9446C48.2417 98.1291 48.3242 97.2835 48.642 96.5149C48.9597 95.7463 49.4984 95.0893 50.1899 94.6269C50.8814 94.1646 51.6945 93.9179 52.5264 93.9178C53.6389 93.9178 54.7061 94.3588 55.494 95.1442C56.2818 95.9295 56.7261 96.9951 56.7295 98.1074Z" fill="white"/>
<g style="mix-blend-mode:soft-light">
<path d="M65.9718 108.638C62.9604 108.653 59.9956 107.896 57.3606 106.438C54.7255 104.981 52.5083 102.872 50.9209 100.313C49.3334 97.755 48.4287 94.8323 48.2932 91.8246C48.1576 88.8168 48.7958 85.8246 50.1468 83.1338C48.0489 84.7556 46.3439 86.8295 45.1586 89.2012C43.9732 91.5729 43.3382 94.1814 43.3006 96.8324C43.263 99.4834 43.8239 102.109 44.9416 104.513C46.0592 106.917 47.7048 109.039 49.7559 110.719C51.807 112.4 54.2107 113.596 56.7882 114.22C59.3658 114.843 62.0507 114.877 64.6432 114.32C67.2358 113.762 69.6692 112.627 71.7623 110.999C73.8555 109.371 75.5544 107.292 76.7328 104.917C73.6602 107.321 69.8732 108.63 65.9718 108.638Z" fill="#231F20"/>
</g>
<path d="M348.125 424.428L354.81 428.086L348.125 431.744L344.466 438.427L340.808 431.744L334.123 428.086L340.808 424.428L344.466 417.745L348.125 424.428Z" fill="white"/>
<path d="M402.032 466.881L408.767 470.564L402.032 474.247L398.361 480.968L394.677 474.247L387.954 470.564L394.677 466.881L398.361 460.16L402.032 466.881Z" fill="white"/>
<path d="M180.608 558.102H51.5647L32.0176 353.167H171.949L180.608 558.102Z" fill="#D68112"/>
<path d="M19.2179 353.167L0 576H21.9525L24.0034 561.735H114.181L115.143 576H139.931L159.149 353.167H19.2179Z" fill="#FFDE17"/>
<path d="M159.15 353.167H171.949L154.098 576H139.932L159.15 353.167Z" fill="#EDA132"/>
<path d="M159.149 353.167L180.608 558.102L191.154 554.381L171.949 353.167H159.149Z" fill="#EDA132"/>
<path d="M24.0031 561.735L21.9521 576H35.511L37.524 561.735H24.0031Z" fill="#D68112"/>
<g style="mix-blend-mode:soft-light">
<path d="M4.62091 522.396L0 576H21.9525L24.0034 561.735H114.181L115.143 576H139.931L150.87 449.211L4.62091 522.396Z" fill="#231F20"/>
</g>
<g style="mix-blend-mode:soft-light">
<path d="M94.9376 353.167H19.218L14.7363 405.15L94.9376 353.167Z" fill="white"/>
</g>
<path d="M132.88 375.887L139.564 379.532L132.88 383.19L129.221 389.873L125.562 383.19L118.878 379.532L125.562 375.887L129.221 369.191L132.88 375.887Z" fill="white"/>
<path d="M47.0323 522.928L53.7168 526.586L47.0323 530.244L43.3735 536.927L39.7148 530.244L33.0303 526.586L39.7148 522.928L43.3735 516.244L47.0323 522.928Z" fill="white"/>
<path d="M25.6114 496.967L32.2959 500.625L25.6114 504.283L21.9526 510.966L18.2939 504.283L11.6094 500.625L18.2939 496.967L21.9526 490.284L25.6114 496.967Z" fill="white"/>
<path d="M105.116 495.233H54.6277C53.9325 495.232 53.2508 495.041 52.6569 494.679C52.0631 494.317 51.58 493.8 51.2602 493.183L28.5354 449.464C28.2431 448.898 28.0979 448.267 28.1134 447.63C28.1289 446.993 28.3045 446.37 28.624 445.819L53.8681 402.1C54.2017 401.522 54.6815 401.043 55.2593 400.71C55.8372 400.376 56.4926 400.201 57.1597 400.201H107.648C108.315 400.201 108.97 400.376 109.548 400.71C110.126 401.043 110.606 401.522 110.94 402.1L136.234 445.819C136.583 446.419 136.76 447.104 136.746 447.798C136.733 448.492 136.53 449.169 136.158 449.755L108.306 493.474C107.965 494.011 107.493 494.453 106.936 494.761C106.378 495.068 105.753 495.231 105.116 495.233ZM56.9319 487.639H103.027L128.461 447.616L105.458 407.796H59.3499L36.22 447.806L56.9319 487.639Z" fill="#00003D"/>
<path d="M87.8862 455.641L91.5449 417.036H76.2769L72.6309 455.641H87.8862Z" fill="#00003D"/>
<path d="M72.1113 461.121L70.6934 476.12H85.9487L87.3666 461.121H72.1113Z" fill="#00003D"/>
<g style="mix-blend-mode:soft-light">
<g style="mix-blend-mode:soft-light">
<g style="mix-blend-mode:soft-light">
<path d="M457.187 458.473L366.21 513.471L381.088 538.072L472.065 483.074L457.187 458.473Z" fill="white"/>
</g>
<g style="mix-blend-mode:soft-light">
<path d="M474.012 490.215L382.873 545.443L388.234 554.287L479.373 499.059L474.012 490.215Z" fill="white"/>
</g>
</g>
</g>
<path d="M29.7381 361.964L25.1045 422.757" stroke="white" stroke-width="5" stroke-miterlimit="10"/>
<path d="M27.422 430.124C27.422 430.777 27.2279 431.417 26.8643 431.96C26.5006 432.504 25.9838 432.927 25.3793 433.177C24.7748 433.427 24.1098 433.491 23.4684 433.363C22.8271 433.234 22.2384 432.918 21.7768 432.455C21.3152 431.992 21.0015 431.402 20.8754 430.76C20.7494 430.119 20.8166 429.454 21.0686 428.851C21.3207 428.247 21.7462 427.732 22.2912 427.371C22.8363 427.009 23.4764 426.817 24.1304 426.82C24.5642 426.818 24.994 426.903 25.395 427.068C25.7959 427.234 26.16 427.477 26.4662 427.785C26.7723 428.092 27.0145 428.457 27.1785 428.858C27.3426 429.26 27.4254 429.69 27.422 430.124Z" fill="white"/>
<g opacity="0.8">
<g opacity="0.8">
<path opacity="0.8" d="M407.843 400.201V430.124" stroke="#2C52A8" stroke-width="2" stroke-miterlimit="10"/>
<path opacity="0.8" d="M416.844 400.201V430.124" stroke="#2C52A8" stroke-width="2" stroke-miterlimit="10"/>
<path opacity="0.8" d="M425.858 400.201V430.124" stroke="#2C52A8" stroke-width="2" stroke-miterlimit="10"/>
<path opacity="0.8" d="M434.872 400.201V430.124" stroke="#2C52A8" stroke-width="2" stroke-miterlimit="10"/>
</g>
</g>
</g>
<defs>
<clipPath id="clip0_157_1498">
<rect width="534" height="576" fill="white"/>
</clipPath>
</defs>
</svg>
