<svg width="465" height="476" viewBox="0 0 465 476" fill="none" xmlns="http://www.w3.org/2000/svg">
<path d="M257.644 296.699C259.648 299.103 261.25 290.689 261.25 290.689C261.25 290.689 261.651 295.497 262.853 295.898C264.456 296.298 266.459 290.288 266.459 290.288C266.459 290.288 266.459 293.494 268.062 293.494C268.864 293.494 270.066 291.49 270.466 289.888C270.867 288.685 271.268 287.483 271.268 287.483C271.268 287.483 274.874 279.871 273.271 274.662C273.271 274.662 276.076 264.645 278.079 260.638C279.682 256.631 282.888 251.423 282.888 251.423C282.086 251.022 281.686 250.621 280.884 249.82C278.881 248.217 276.877 246.214 273.672 244.21C270.466 242.207 266.459 239.803 261.25 237.8C260.449 237.399 259.648 237.399 258.846 236.998C258.846 236.998 261.651 269.854 261.25 270.254C260.85 270.655 256.442 276.265 255.641 278.669C255.24 281.473 255.641 294.295 257.644 296.699Z" fill="#D64E27"/>
<path d="M270.466 289.888C270.867 288.685 271.268 287.483 271.268 287.483C271.268 287.483 274.874 279.871 273.271 274.662C273.271 274.662 276.076 264.645 278.079 260.638C279.682 256.631 282.888 251.423 282.888 251.423C282.086 251.022 281.686 250.621 280.884 249.82C278.881 248.217 276.877 246.214 273.672 244.21C273.271 251.823 272.47 269.453 270.867 273.46C270.466 273.059 272.069 281.473 270.466 289.888Z" fill="#BF3B27"/>
<path d="M271.669 312.726C271.669 312.726 269.264 329.955 270.467 358.804C271.268 387.252 275.676 437.737 275.676 437.737H280.484C280.484 437.737 300.518 365.215 303.323 350.389C306.128 335.564 300.118 324.746 300.118 324.746C300.118 324.746 318.549 297.901 324.96 288.285C330.971 278.268 352.207 245.412 352.207 245.412L362.625 253.025C362.625 253.025 365.03 270.254 367.834 283.076C370.239 295.497 376.249 335.164 376.249 335.164C366.632 363.612 374.245 390.858 377.05 400.073C379.855 408.888 390.273 442.144 390.273 442.144L391.876 441.744L396.684 440.942C396.684 440.942 401.092 350.79 401.492 336.767C401.492 332.359 401.893 325.548 401.893 317.534C402.294 298.302 403.095 271.456 402.695 255.029C402.294 236.197 399.489 210.554 397.886 192.523C397.886 192.122 397.886 191.722 397.886 191.321C397.486 187.314 397.486 183.708 397.085 180.503C397.085 180.102 397.085 179.301 397.085 178.499C397.085 178.099 397.085 177.698 397.085 176.897C396.283 162.873 393.479 148.849 392.677 144.843C392.677 144.843 392.677 144.442 392.677 144.041C392.677 144.041 389.872 142.839 384.663 140.035C381.458 138.432 377.451 136.028 372.643 133.223C360.221 126.011 351.807 120.001 351.807 120.001C351.807 120.001 344.995 105.977 340.187 95.5594C336.581 87.5459 332.574 79.1317 330.971 75.5256C328.166 75.9263 324.96 76.7277 322.156 77.1283C323.758 79.9331 327.765 87.1452 331.372 94.7581C335.779 104.775 342.992 120.401 342.992 120.401C336.18 122.405 310.936 138.432 310.936 138.432C292.505 115.994 276.477 103.573 270.467 99.1655C267.662 101.169 265.658 103.172 263.655 104.775C268.463 108.381 280.083 117.196 286.494 123.206C294.508 130.819 306.929 144.041 306.929 144.041C306.128 146.445 305.327 152.055 304.525 156.863C304.125 160.469 303.724 163.274 303.724 163.274C304.525 164.075 310.135 171.688 315.344 178.9C318.549 183.308 322.556 190.52 325.361 195.728C325.762 196.129 325.762 196.53 326.163 196.931C327.765 200.136 328.967 202.139 329.368 202.941L327.765 205.345L271.669 312.726Z" fill="#2755A5"/>
<path d="M383.861 140.035C387.468 156.062 394.279 205.345 395.882 222.173C397.084 234.995 399.889 288.285 401.492 317.134C401.892 297.901 402.694 271.056 402.293 254.628C401.892 235.796 399.088 210.153 397.485 192.123C397.485 191.722 397.485 191.321 397.485 190.921C397.084 186.914 397.084 183.308 396.683 180.102C396.683 179.702 396.683 178.9 396.683 178.099C396.683 177.698 396.683 177.298 396.683 176.496C395.882 162.473 393.077 148.449 392.276 144.442C392.276 144.442 392.276 144.041 392.276 143.641C392.276 143.641 389.07 142.839 383.861 140.035Z" fill="#214287"/>
<path d="M279.683 437.737H280.484C280.484 437.737 300.518 365.215 303.323 350.39C306.128 335.565 300.118 324.746 300.118 324.746C300.118 324.746 318.55 297.901 324.961 288.285C330.971 278.268 352.208 245.413 352.208 245.413L362.626 253.025C362.626 253.025 365.03 270.254 367.835 283.076C370.239 295.497 376.249 335.164 376.249 335.164C366.632 363.612 374.246 390.858 377.05 400.074C379.855 408.888 390.273 442.145 390.273 442.145L391.876 441.744C387.869 427.32 379.855 398.07 377.852 383.646C375.448 364.013 379.855 338.369 379.855 338.369C379.855 338.369 378.653 329.555 375.848 309.521C373.444 289.487 365.43 253.426 365.43 253.426L352.608 243.409C352.608 243.409 343.392 254.628 332.574 267.85C321.755 281.073 290.1 323.144 290.1 323.144C290.1 323.144 290.902 334.363 291.703 349.188C292.505 364.013 286.895 392.06 284.09 407.686C282.487 418.905 280.484 431.326 279.683 437.737Z" fill="#214287"/>
<path d="M302.522 164.075C303.323 165.277 308.933 172.489 314.142 180.102C317.347 184.51 321.354 191.722 324.159 196.931C324.56 197.331 324.56 197.732 324.96 198.133C326.563 201.338 327.765 203.341 328.166 204.143C326.964 200.136 308.532 163.674 303.724 157.664C302.922 161.27 302.522 164.075 302.522 164.075Z" fill="#214287"/>
<path d="M330.169 76.3272C331.772 79.5326 335.378 88.3475 339.385 96.361C344.193 106.378 351.005 120.802 351.005 120.802C351.005 120.802 359.419 126.412 371.841 134.025C376.649 136.829 380.656 139.233 383.861 140.836C389.07 143.641 391.875 144.843 391.875 144.843C391.475 140.836 389.872 124.809 383.06 112.388C383.06 112.388 403.495 106.378 414.715 107.58C414.715 107.58 419.924 126.011 418.321 143.641C419.122 143.641 420.324 143.641 421.526 143.24C426.335 142.839 432.746 142.439 437.554 143.24C438.756 138.432 443.164 115.193 443.965 103.974C444.766 91.5529 443.164 81.1353 443.164 81.1353C443.164 81.1353 427.537 74.3238 397.084 71.9198C378.252 69.9164 352.608 71.9198 330.169 76.3272Z" fill="#A6DDEB"/>
<path d="M254.839 152.055C257.243 166.079 259.247 180.904 259.247 180.904C259.247 180.904 257.644 188.516 258.445 199.735C258.846 210.153 260.85 232.992 261.25 237.399C268.863 240.204 273.672 243.81 277.278 246.615C278.48 247.416 279.682 248.618 280.483 249.419C281.285 247.817 292.905 220.971 286.894 209.752C286.894 209.752 288.497 194.927 288.898 183.308C288.898 171.688 287.295 152.456 287.295 152.456L290.501 151.654L302.922 163.675C302.922 163.675 303.323 161.671 303.723 158.466C304.525 153.658 305.727 146.846 306.528 144.442C306.528 144.442 294.107 131.22 286.093 123.607C279.682 117.997 268.062 108.782 263.254 105.176C258.445 109.583 255.641 113.189 255.24 114.391C254.038 117.597 252.435 137.631 254.839 152.055Z" fill="#A6DDEB"/>
<path d="M270.066 99.9669C276.076 104.374 292.104 116.795 310.536 139.233C310.536 139.233 335.779 123.206 342.591 121.203C342.591 121.203 335.378 105.576 330.971 95.5594C327.765 87.9466 323.358 80.7344 321.755 77.9297C320.152 78.3304 318.149 78.731 316.546 79.1317C307.731 81.1351 300.118 83.5392 294.508 85.9432C286.494 89.1486 279.282 93.5561 273.672 97.5628C272.069 98.3642 270.867 99.1655 270.066 99.9669Z" fill="#A6DDEB"/>
<path d="M373.444 108.782C373.444 108.782 380.255 127.213 383.861 140.435C389.07 143.24 391.875 144.442 391.875 144.442C391.475 140.435 389.872 124.408 383.06 111.987C383.06 111.987 403.495 105.977 414.715 107.179C414.715 107.179 419.924 125.61 418.321 143.24C419.122 143.24 420.324 143.24 421.526 142.839C423.129 134.826 426.335 114.792 420.725 101.57C420.324 101.57 391.875 101.169 373.444 108.782Z" fill="#66C8CE"/>
<path d="M276.878 246.614C278.08 247.416 279.282 248.618 280.083 249.419C280.885 247.816 292.505 220.971 286.494 209.752C286.494 209.752 288.097 194.927 288.498 183.308C288.498 171.688 286.895 152.455 286.895 152.455L290.1 151.654L302.522 163.674C302.522 163.674 302.923 161.671 303.323 158.466C298.515 153.657 292.104 146.445 290.501 145.644C288.498 144.442 279.682 141.637 279.682 141.637C282.087 152.856 279.682 207.749 279.682 207.749C282.087 216.964 278.881 237.399 276.878 246.614Z" fill="#66C8CE"/>
<path d="M273.272 97.5629C279.282 98.3643 290.902 98.765 300.919 94.7582C312.139 90.3508 315.344 82.3372 316.146 79.1318C307.33 81.1352 299.717 83.5393 294.108 85.9433C286.094 89.1487 278.881 93.5562 273.272 97.5629Z" fill="#66C8CE"/>
<path d="M239.613 453.764C239.613 454.165 246.024 454.966 248.028 458.171C250.031 461.377 248.829 464.182 246.024 464.182C243.219 464.182 239.212 465.384 239.613 466.586C239.613 467.788 237.61 465.384 236.808 465.784C236.007 466.185 237.61 469.791 235.206 470.993C232.801 471.794 233.202 474.199 226.791 475C219.979 475.801 216.774 470.993 214.77 469.791C212.366 468.589 205.955 468.188 201.948 469.39C197.941 470.592 197.14 470.192 194.736 468.589C192.332 466.986 188.725 468.589 186.722 466.586C184.718 464.983 183.516 461.377 180.712 461.377C177.907 461.377 173.9 461.778 172.297 459.774C170.694 457.37 171.496 455.767 168.691 455.767C166.287 455.767 163.883 456.168 163.081 454.165C162.28 452.161 165.485 448.956 163.081 448.555C160.677 448.155 157.872 443.747 163.081 442.545C168.29 441.343 171.896 444.548 171.896 444.548L239.613 453.764Z" fill="#7BC6C9"/>
<path d="M218.777 458.572L169.893 443.347L185.921 437.737L239.613 452.161L218.777 458.572Z" fill="#D64E27"/>
<path d="M389.873 441.744C390.674 441.744 395.082 439.34 402.294 441.744C409.506 444.148 417.921 450.158 417.921 450.158H387.869L389.873 441.744Z" fill="#C72F47"/>
<path d="M279.682 450.158H248.829C248.829 450.158 266.459 437.737 280.884 436.936L279.682 450.158Z" fill="#C72F47"/>
<path d="M239.613 452.161V456.569L218.777 463.38V458.572L239.613 452.161Z" fill="#6E2C27"/>
<path d="M218.777 463.38L169.893 447.754V443.347L218.777 458.572V463.38Z" fill="#EE7123"/>
<path d="M226.39 426.919C226.791 426.919 227.592 426.518 227.993 426.117L463.599 134.025C464.401 133.223 464 132.021 463.199 131.22C462.397 130.418 461.195 130.819 460.394 131.62L224.788 423.713C223.986 424.515 224.387 425.717 225.188 426.518C225.589 426.919 225.99 426.919 226.39 426.919Z" fill="#CE8686"/>
<path d="M294.107 77.9298C294.107 77.9298 295.309 79.9331 296.912 82.7379C299.316 87.1453 303.323 92.3541 304.926 91.9534C307.33 91.1521 308.132 87.546 308.532 81.9365C308.532 81.5358 308.532 81.1352 308.532 80.7345C308.532 79.9331 308.532 79.1318 308.532 78.3304C308.132 72.721 307.33 65.5088 307.33 65.5088C307.33 65.9095 306.929 66.3101 306.929 66.7108C304.525 70.3169 300.118 74.7243 294.107 77.9298Z" fill="#F1B5AB"/>
<path d="M229.596 428.922C228.794 428.521 223.585 421.309 223.585 421.309L199.143 446.953L212.767 448.555L229.596 428.922Z" fill="#2B91BE"/>
<path d="M316.947 153.658C322.957 150.452 354.612 134.826 355.012 134.425H355.413C355.413 134.425 355.814 134.425 355.814 134.826C356.214 135.627 364.629 156.062 359.019 168.082C357.417 171.688 354.211 174.092 350.204 175.294C348.201 175.695 346.598 176.095 344.594 176.095C327.765 176.095 316.947 154.86 316.546 154.86C316.546 154.058 316.546 153.658 316.947 153.658ZM344.594 174.493C346.197 174.493 348.201 174.092 349.803 173.691C353.41 172.89 356.214 170.486 357.817 167.281C363.026 156.863 356.214 138.832 354.612 135.627C350.605 137.63 324.159 150.853 317.347 154.058C319.351 157.264 329.769 174.493 344.594 174.493Z" fill="#A6DDEB"/>
<path d="M324.961 198.133C324.56 197.732 324.56 197.331 324.159 196.931C326.964 197.732 330.971 198.934 335.379 199.735V196.931C335.379 196.931 335.379 196.53 335.779 196.53H336.18L338.985 197.732L339.386 198.133V200.537C347.399 201.739 356.615 202.54 364.629 200.537C370.639 198.934 376.249 196.129 381.057 192.523L380.657 190.92C380.657 190.52 380.657 190.52 380.657 190.52L383.462 188.516H383.862C383.862 188.516 384.263 188.516 384.263 188.917L384.664 190.119C390.674 184.91 395.082 179.701 397.085 177.297C397.085 177.698 397.085 178.099 397.085 178.9C394.681 181.705 390.674 186.513 385.064 191.321L387.068 199.335C392.277 196.53 395.883 193.324 398.287 191.321C398.287 191.722 398.287 192.122 398.287 192.523C395.883 194.526 392.277 197.331 387.468 200.136L388.27 203.742C388.27 203.742 388.27 204.143 387.869 204.143L386.266 205.345C386.266 205.345 386.266 205.345 385.866 205.345C385.866 205.345 385.465 205.345 385.465 204.944L383.862 201.338C379.054 203.742 373.044 206.146 365.831 207.348C360.622 208.55 355.814 208.951 351.406 208.951C346.999 208.951 342.992 208.55 339.386 208.149V211.756C339.386 211.756 339.386 212.156 338.985 212.156C338.985 212.156 338.985 212.156 338.584 212.156L335.779 211.355L335.379 210.954V207.749C332.173 206.947 329.769 206.547 327.766 205.745L328.166 204.944C330.17 205.345 332.574 206.146 335.379 206.947V201.338C331.372 200.136 327.766 198.934 324.961 198.133ZM385.465 204.143L386.266 203.742L385.465 200.537L385.064 199.735L383.061 192.122L382.66 190.92V190.119L380.657 191.321L381.057 192.122L381.458 192.924L383.862 200.136L384.263 200.937L385.465 204.143ZM365.43 206.547C372.643 204.944 378.653 202.941 383.462 200.537L381.057 193.725C376.249 196.93 370.639 200.136 364.629 201.338C360.622 202.139 356.615 202.54 352.608 202.54C347.8 202.54 343.392 202.139 338.985 201.338V206.947C346.197 208.149 355.413 208.55 365.43 206.547ZM336.581 206.547V207.348V210.153L338.183 210.954V208.149V207.348V201.338V200.537V198.533L336.581 197.732V200.136V200.937V206.547Z" fill="#A6DDEB"/>
<path d="M263.254 296.298C263.655 296.298 264.055 296.298 264.456 295.497C267.261 291.49 269.665 281.073 269.665 280.271C269.665 279.871 269.264 279.871 269.264 279.871C268.864 279.871 268.864 280.271 268.864 280.271C268.864 281.073 266.46 291.09 264.055 294.696C263.655 295.096 263.655 295.096 263.655 295.096C262.453 294.696 262.453 284.679 263.254 279.871C263.254 279.47 263.254 279.47 262.853 279.47C262.453 279.47 262.453 279.47 262.453 279.871C261.251 283.076 260.449 295.096 263.254 296.298C262.853 296.298 262.853 296.298 263.254 296.298Z" fill="#AB3424"/>
<path d="M294.107 77.9298C294.107 77.9298 295.309 79.9331 296.912 82.7379C300.918 81.9365 305.727 79.5325 308.131 78.3304C307.73 72.721 306.929 65.5088 306.929 65.5088C306.929 65.9095 306.528 66.3101 306.528 66.7108C304.525 70.3169 300.117 74.7243 294.107 77.9298Z" fill="#F5948D"/>
<path d="M409.907 189.718C410.307 190.119 410.708 190.119 411.109 190.119C411.91 189.718 413.513 187.715 414.314 186.112C414.715 185.311 415.116 184.51 415.516 184.51C416.318 185.712 418.722 194.527 421.126 194.527C421.927 194.527 423.53 193.725 425.934 192.523C429.54 190.119 434.349 186.513 436.352 183.708C439.558 179.702 435.551 172.89 435.551 172.89C435.551 172.89 435.551 166.88 437.154 161.27C438.756 155.661 442.363 143.641 441.561 143.641C440.359 143.24 438.756 142.839 437.154 142.839C432.345 142.439 425.533 142.439 420.725 142.839C419.924 142.839 419.122 142.839 418.321 143.24C415.516 143.641 413.913 143.641 413.913 143.641L414.314 170.085C414.314 170.085 408.304 181.304 408.304 184.109C407.502 186.112 408.704 188.917 409.907 189.718Z" fill="#D64E27"/>
<path d="M409.907 189.718C411.109 183.708 414.715 175.294 416.318 170.486C417.921 166.479 419.924 150.052 420.726 142.839C419.924 142.839 419.123 142.839 418.321 143.24C415.517 143.641 413.914 143.641 413.914 143.641L414.315 170.085C414.315 170.085 408.304 181.304 408.304 184.109C407.503 186.112 408.705 188.917 409.907 189.718Z" fill="#BF3B27"/>
<path d="M415.115 184.51C415.917 185.712 418.321 194.527 420.725 194.527C421.526 194.527 423.129 193.725 425.533 192.523C419.924 189.719 415.917 185.311 415.115 184.51Z" fill="#BF3B27"/>
<path d="M139.04 436.134C139.842 436.134 140.242 435.734 140.242 434.932V424.915C140.242 424.114 139.842 423.713 139.04 423.713C138.239 423.713 137.838 424.114 137.838 424.915V434.932C137.437 435.734 138.239 436.134 139.04 436.134Z" fill="#4B4063"/>
<path d="M87.3506 441.343C88.152 441.343 88.5527 440.943 88.5527 440.141V430.926C88.5527 430.124 88.152 429.724 87.3506 429.724C86.5492 429.724 86.1485 430.124 86.1485 430.926V440.141C86.1485 440.943 86.9499 441.343 87.3506 441.343Z" fill="#4B4063"/>
<path d="M35.2608 441.343C36.0622 441.343 36.4629 440.942 36.4629 440.141V430.124C36.4629 429.323 36.0622 428.922 35.2608 428.922C34.4594 428.922 34.0587 429.323 34.0587 430.124V440.141C34.0587 440.942 34.4594 441.343 35.2608 441.343Z" fill="#4B4063"/>
<path d="M23.2398 360.807C24.0412 362.81 24.8426 366.817 25.644 371.225C26.846 378.437 28.0481 388.053 28.8495 397.269C29.2502 400.875 29.6509 404.08 30.0516 407.686C31.2536 421.309 32.055 432.127 32.055 432.127C32.055 432.127 49.6854 435.333 89.7545 433.73C92.1586 433.73 94.9635 433.73 97.3676 433.329C131.426 431.727 141.444 426.919 141.444 425.717C141.444 424.515 149.057 354.396 150.259 343.578C150.259 342.777 150.259 342.376 150.259 342.376C150.259 342.376 145.05 345.181 133.43 348.787C125.817 351.191 115.799 353.595 102.577 355.999C99.7718 356.4 96.9669 356.8 93.7614 357.201C92.1586 357.602 90.1552 357.602 88.1517 358.002C44.8771 363.612 23.2398 360.807 23.2398 360.807Z" fill="#F79738"/>
<path d="M23.2401 360.807C24.0415 362.811 24.8429 366.817 25.6443 371.225C35.2609 372.427 49.6857 373.228 71.7237 371.225C116.601 367.619 140.242 352.393 149.858 343.979C149.858 343.178 149.858 342.777 149.858 342.777C149.858 342.777 144.649 345.582 133.029 349.188C125.416 351.592 115.399 353.996 102.176 356.4C99.3714 356.8 96.5665 357.201 93.361 357.602C91.7583 358.003 89.7548 358.003 87.7513 358.403C44.8774 363.612 23.2401 360.807 23.2401 360.807Z" fill="#ED8222"/>
<path d="M67.316 302.308L104.981 303.11L122.611 303.51L164.283 291.49L119.005 287.083C117.803 287.483 116.2 287.483 114.598 287.884C98.5699 291.49 67.316 302.308 67.316 302.308Z" fill="#ED7D27"/>
<path d="M104.981 302.709L122.611 303.11L164.283 291.09L119.005 286.682C117.803 287.083 116.2 287.083 114.598 287.483C111.793 292.292 108.187 297.901 104.981 302.709Z" fill="#D64E27"/>
<path d="M96.9669 433.73C131.026 432.128 141.043 427.32 141.043 426.117C141.043 424.915 150.259 342.777 150.259 342.777C150.259 342.777 145.05 345.582 133.43 349.188C126.217 371.225 112.193 412.094 96.9669 433.73Z" fill="#ED8222"/>
<path d="M123.413 283.477L145.05 234.995H138.238L117.402 283.477H123.413Z" fill="#5B1436"/>
<path d="M132.228 440.542C132.228 444.548 135.434 447.353 139.04 447.353C142.646 447.353 145.852 444.148 145.852 440.542C145.852 436.535 142.646 433.73 139.04 433.73C135.434 433.73 132.228 436.936 132.228 440.542Z" fill="#6C5964"/>
<path d="M80.1386 444.148C80.1386 448.155 83.3441 451.761 87.351 451.761C91.3579 451.761 94.5635 448.555 94.5635 444.148C94.5635 439.74 91.3579 436.535 87.351 436.535C83.3441 436.535 80.1386 439.74 80.1386 444.148Z" fill="#6C5964"/>
<path d="M35.6616 447.754C31.6783 447.754 28.4492 444.346 28.4492 440.141C28.4492 435.937 31.6783 432.528 35.6616 432.528C39.6449 432.528 42.874 435.937 42.874 440.141C42.874 444.346 39.6449 447.754 35.6616 447.754Z" fill="#6C5964"/>
<path d="M84.9465 342.376L88.5527 353.996C88.5527 353.996 101.375 351.992 119.005 349.188C136.636 346.383 145.05 341.575 144.649 338.77L129.423 340.773L84.9465 342.376Z" fill="#D64E27"/>
<path d="M47.2819 309.921C47.2819 311.524 48.484 312.726 50.0867 312.726C51.6895 312.726 52.8916 311.524 52.8916 309.921C52.8916 308.319 51.6895 307.117 50.0867 307.117C48.484 307.117 47.2819 308.319 47.2819 309.921Z" fill="#7BC6C9"/>
<path d="M16.829 326.349C16.829 328.352 18.8325 329.955 20.8359 329.955C23.24 329.955 24.8428 328.352 24.8428 326.349C24.8428 324.346 22.8393 322.743 20.8359 322.743C18.8325 322.743 16.829 324.346 16.829 326.349Z" fill="#7BC6C9"/>
<path d="M2.40396 341.575C2.40396 343.177 3.60603 344.379 5.20882 344.379C6.8116 344.379 8.01367 343.177 8.01367 341.575C8.01367 339.972 6.8116 338.77 5.20882 338.77C3.60603 338.77 2.40396 339.972 2.40396 341.575Z" fill="#7BC6C9"/>
<path d="M169.092 291.09L148.256 338.369L129.423 340.773L123.012 306.315L169.092 291.09Z" fill="#F7991C"/>
<path d="M129.423 340.773L75.3296 342.376L64.9117 305.915L123.012 306.315L129.423 340.773Z" fill="#FFC40C"/>
<path d="M123.412 306.716L122.21 303.11L169.893 289.086L168.29 293.093L123.412 306.716Z" fill="#EDD260"/>
<path d="M123.413 306.716L64.9123 305.915L63.3095 301.106L122.211 303.11L123.413 306.716Z" fill="#F5E38F"/>
<path d="M163.882 291.089L118.604 286.682V283.076L169.893 289.086L163.882 291.089Z" fill="#F5E38F"/>
<path d="M118.604 286.682L68.9189 301.507L63.3092 301.106L118.604 283.076V286.682Z" fill="#EDD260"/>
<path d="M192.732 238.601L155.468 310.723L149.858 309.921L187.523 236.598L192.732 238.601Z" fill="#5B1436"/>
<path d="M88.9531 354.396C88.9531 354.396 86.1483 340.373 78.5352 328.352C70.922 316.332 68.9186 315.13 65.3124 315.931C61.3055 316.733 58.0999 326.75 58.0999 326.75C58.0999 326.75 53.6923 316.733 45.6785 319.137C37.6647 321.541 38.8668 333.962 38.8668 333.962C38.8668 333.962 36.0619 327.952 32.055 328.753C28.0481 329.554 29.2502 337.969 29.2502 337.969C29.2502 337.969 26.4454 332.359 20.8357 335.164C15.6267 337.969 17.2295 345.582 17.2295 345.582C17.2295 345.582 9.61635 340.773 9.61635 348.787C9.21565 357.201 7.2122 360.807 39.2675 360.407C70.922 360.006 88.9531 354.396 88.9531 354.396Z" fill="#CDE4E1"/>
<path d="M24.0415 347.985C24.0415 349.989 25.6442 351.592 27.6477 351.592C29.6511 351.592 31.2539 349.989 31.2539 347.985C31.2539 345.982 29.6511 344.379 27.6477 344.379C25.6442 344.379 24.0415 345.982 24.0415 347.985Z" fill="#7BC6C9"/>
<path d="M48.8845 346.784C48.8845 349.989 51.6893 352.794 54.8949 352.794C58.1004 352.794 60.9053 349.989 60.9053 346.784C60.9053 343.578 58.1004 340.773 54.8949 340.773C51.6893 340.773 48.8845 343.578 48.8845 346.784Z" fill="#7BC6C9"/>
<path d="M64.1099 335.164C62.3396 335.164 60.9044 333.729 60.9044 331.959C60.9044 330.188 62.3396 328.753 64.1099 328.753C65.8803 328.753 67.3154 330.188 67.3154 331.959C67.3154 333.729 65.8803 335.164 64.1099 335.164Z" fill="#7BC6C9"/>
<path d="M28.8497 397.269C29.2504 400.875 29.6511 404.08 30.0518 407.686C39.2676 407.286 52.4905 404.882 67.7167 396.067C86.5492 384.848 97.7686 366.817 102.978 355.999C100.173 356.4 97.3678 356.8 94.1623 357.201C86.9499 368.019 75.3298 384.046 64.1105 390.457C54.0932 396.067 39.6684 397.269 28.8497 397.269Z" fill="#ED8222"/>
<path d="M29.251 398.471C40.0696 398.471 52.4911 395.666 63.7104 390.457C85.7484 379.639 99.7726 359.605 100.173 359.605C100.574 359.205 100.574 358.403 99.7726 358.003C99.3719 357.602 98.5705 357.602 98.1698 358.403C98.1698 358.804 171.496 348.386 62.909 388.454C41.2717 396.467 16.8296 398.872 6.41164 389.255C4.0075 386.851 2.80541 383.646 3.20611 380.04C4.00748 371.626 11.6206 362.41 16.4289 359.205C16.8296 358.804 17.2303 358.003 16.8296 357.602C16.4289 356.8 15.6275 356.801 15.2268 357.201C9.61716 360.407 1.60335 370.824 0.801971 380.04C0.401276 384.848 1.60335 388.454 4.80888 391.259C9.61716 396.067 18.833 398.471 29.251 398.471Z" fill="#5B1436"/>
<path d="M23.2403 361.609C25.6444 363.612 40.0693 364.814 70.5218 362.811C81.7411 362.009 92.9605 360.006 103.378 358.003C121.009 354.396 135.834 349.588 142.646 347.184C153.064 343.578 151.461 338.369 149.458 336.366L143.447 339.571C143.848 342.376 134.632 345.982 106.584 351.191C101.776 351.992 96.5667 352.794 90.957 353.996C50.8879 360.407 23.2403 358.804 23.2403 358.804C23.2403 358.804 20.8361 360.006 23.2403 361.609Z" fill="#FFC40C"/>
<path d="M103.378 358.003C121.009 354.396 135.834 349.588 142.646 347.184C153.064 343.578 151.461 338.369 149.458 336.366L143.447 339.571C143.848 342.376 134.632 345.982 106.584 351.191C105.783 353.595 104.58 355.999 103.378 358.003Z" fill="#F7991C"/>
<path d="M260.449 44.2731C262.853 49.4819 271.668 76.3272 273.271 79.9333C274.473 82.738 276.877 86.7448 283.689 85.5427C284.891 85.1421 286.093 85.1421 287.696 84.3407C288.497 83.94 289.298 83.5393 290.1 83.5393C292.103 82.738 294.507 81.536 296.511 80.3339C296.911 79.9333 297.312 79.9333 297.713 79.5326C303.723 75.9265 308.131 71.5191 310.134 68.3136C310.535 67.913 310.535 67.5123 310.936 67.1116C312.939 61.9028 310.535 55.8927 310.535 55.8927C312.538 55.492 314.141 53.4886 314.943 51.4853C317.747 45.8758 317.347 36.6602 313.74 35.0575C313.34 35.0575 313.34 34.6568 312.939 34.6568C312.538 34.6568 312.138 34.6568 311.737 34.6568C307.73 35.4582 306.528 40.667 306.528 40.667C306.528 40.667 304.124 33.8555 301.319 29.8487C299.716 26.6433 295.709 24.2393 292.905 23.0372C291.302 22.2359 290.1 21.8352 290.1 21.8352C286.894 29.0474 277.678 37.0609 269.664 41.0677C266.459 42.6704 263.253 43.8724 260.449 44.2731Z" fill="#F1B5AB"/>
<path d="M306.127 57.8962C306.127 64.7077 301.319 73.5226 297.713 79.5327C303.723 75.9266 308.131 71.5192 310.134 68.3138C310.535 67.9131 310.535 67.5124 310.935 67.1117C312.939 61.9029 310.535 55.8928 310.535 55.8928C312.538 55.4921 314.141 53.4887 314.942 51.4854C313.34 45.4752 312.939 39.4651 313.74 35.0576C313.34 35.0576 313.34 34.657 312.939 34.657C312.538 34.657 312.138 34.657 311.737 34.657C307.73 35.4583 306.528 40.6671 306.528 40.6671C306.528 40.6671 304.124 33.8556 301.319 29.8488C299.716 26.6434 295.709 24.2394 292.904 23.0374C300.918 32.6536 306.127 47.8793 306.127 57.8962Z" fill="#F5948D"/>
<path d="M297.713 39.8654C298.114 39.0641 294.507 35.458 288.898 36.66C283.288 37.8621 282.086 42.2695 282.086 42.2695C282.086 42.2695 285.692 41.0675 290.5 40.2661C295.309 39.4648 297.713 39.8654 297.713 39.8654Z" fill="#9D5E55"/>
<path d="M271.268 47.8792C271.669 46.6771 269.665 44.6737 265.658 45.8758C261.651 47.0778 263.254 51.0846 263.254 51.0846C263.254 51.0846 264.857 49.0812 266.86 49.0812C268.864 48.6805 271.268 48.6805 271.268 47.8792Z" fill="#9D5E55"/>
<path d="M250.833 43.4716L251.234 43.8723C253.237 45.0743 256.443 45.475 260.449 44.273C263.254 43.4716 266.059 42.2696 269.665 40.6669C277.679 36.2595 286.895 28.2459 290.101 21.4344C290.101 21.4344 298.916 25.0405 301.721 29.448C304.525 33.4547 306.93 40.2662 306.93 40.2662C306.93 40.2662 308.132 35.0574 312.139 34.2561C312.139 34.2561 314.543 23.4378 310.135 17.8283C306.529 13.4209 301.721 8.61279 290.101 4.60603C287.296 3.80468 283.689 2.60265 279.683 1.8013C260.049 -2.60614 252.035 11.0169 250.432 16.2256C248.829 21.4344 248.028 39.4649 250.833 43.4716Z" fill="#592019"/>
<path d="M311.738 38.2627L312.139 37.8621L312.539 38.2627C312.539 38.2627 311.738 40.2661 311.738 42.6702C312.539 43.0709 315.344 44.2729 314.943 45.4749C314.543 46.6769 312.539 46.6769 311.738 47.0776C311.738 47.879 312.139 48.6803 312.139 49.8823C312.139 49.8823 312.139 50.283 311.738 50.283C311.738 50.283 311.337 50.283 311.337 49.8823C309.735 44.6736 311.738 38.6634 311.738 38.2627ZM313.741 45.4749C314.142 44.6736 312.539 43.8722 311.337 43.4715C311.337 44.2729 311.337 45.4749 311.337 46.2763C312.139 46.6769 313.741 46.2763 313.741 45.4749Z" fill="#983222"/>
<path d="M278.08 69.5157C278.48 69.5157 283.689 68.3136 287.296 65.9096C287.296 65.9096 287.696 65.5089 287.296 65.5089C287.296 65.5089 286.895 65.1082 286.895 65.5089C284.09 67.5123 279.682 68.7143 278.08 69.115C276.878 63.5055 274.073 50.6839 274.073 50.6839L273.672 50.2832L273.271 50.6839C273.672 50.6839 276.878 63.9062 278.08 69.5157C277.679 69.5157 277.679 69.5157 278.08 69.5157Z" fill="#983222"/>
<path d="M282.086 74.7245C287.696 74.7245 290.901 71.9197 291.302 71.9197V71.519H290.901C290.901 71.519 287.295 74.7245 280.884 74.3238C280.884 74.3238 280.483 74.3238 280.483 74.7245C280.483 74.7245 280.483 75.1251 280.884 75.1251C280.884 74.7245 281.685 74.7245 282.086 74.7245Z" fill="#3C1515"/>
<path d="M289.299 49.8825C290.901 51.8859 291.302 54.2899 290.1 54.6906C289.299 55.4919 287.295 54.2899 285.692 51.8859C284.09 49.8825 283.689 47.4784 284.891 47.0777C285.692 46.6771 287.696 47.8791 289.299 49.8825Z" fill="#3C1515"/>
<path d="M271.669 55.0912C273.271 57.0946 273.672 59.098 272.47 59.8993C271.669 60.7007 269.665 59.4987 268.463 57.0946C266.86 55.0912 266.46 53.0878 267.662 52.2865C268.463 51.8858 270.467 53.0878 271.669 55.0912Z" fill="#3C1515"/>
<path d="M284.09 85.142C285.292 84.7413 286.494 84.7413 288.097 83.9399C288.898 83.5393 289.7 83.1386 290.501 83.1386C289.7 81.1352 287.295 76.7278 284.491 77.5291C282.487 77.9298 283.289 82.7379 284.09 85.142Z" fill="#592019"/>
<path d="M250.833 43.4715L251.234 43.8722C253.237 45.0743 256.443 45.4749 260.449 44.2729C263.254 43.4715 266.059 42.2695 269.665 40.6668C277.679 36.2594 286.895 28.2459 290.101 21.4344C290.101 21.4344 298.916 25.0404 301.721 29.4479C304.525 33.4546 306.93 40.2661 306.93 40.2661C306.93 40.2661 308.132 35.0573 312.139 34.256C312.139 34.256 314.543 23.4377 310.135 17.8283C306.529 13.4208 301.721 8.61272 290.101 4.60596C290.501 9.81475 287.696 22.2357 280.484 28.6465C273.272 35.458 262.453 44.2729 250.833 43.4715Z" fill="#461714"/>
</svg>
