<svg width="442" height="392" viewBox="0 0 442 392" fill="none" xmlns="http://www.w3.org/2000/svg">
<path d="M337.552 330.262H52.0589C51.3957 350.51 49.7378 366.774 49.4062 368.765H338.547C337.883 355.157 337.552 342.212 337.552 330.262Z" fill="#DFF1FF"/>
<path d="M354.462 188.532C354.462 195.17 350.152 228.03 346.504 252.593H345.841C343.852 258.567 341.862 268.525 340.204 281.47H50.7323C49.406 269.853 47.4165 259.231 43.7691 251.265C38.7954 223.052 31.1689 187.868 31.1689 187.868C35.4795 182.889 164.134 186.208 198.287 185.876C198.618 185.876 198.95 185.876 199.281 185.876C199.945 185.876 200.276 185.876 200.939 185.876C231.445 185.212 354.462 188.532 354.462 188.532Z" fill="#DFF1FF"/>
<path d="M43.7694 252.925C43.7694 252.593 43.4378 251.929 43.4378 251.597C43.1062 249.937 42.443 248.278 41.7799 246.618C36.8061 235.997 26.1955 229.69 15.9164 232.345C11.6058 233.341 7.95843 235.997 5.30576 239.648C0.663602 245.622 -0.994312 253.92 1.32677 262.55C3.31627 270.516 8.62159 276.823 14.9217 280.142C19.2322 282.134 24.206 282.798 28.8481 281.802C39.7904 278.815 46.422 265.87 43.7694 252.925Z" fill="#DFF1FF"/>
<path d="M15.9168 232.677C26.1959 230.022 36.8066 236.328 41.7803 246.95C42.4435 248.278 43.4382 249.937 44.1014 251.265L39.1277 225.707C9.94835 219.732 4.97461 239.648 4.97461 239.648C7.62727 236.328 11.2747 233.673 15.9168 232.677Z" fill="#DFF1FF"/>
<path d="M50.7324 281.47C51.064 285.785 51.3956 290.432 51.7272 295.079H338.878C339.21 290.1 339.873 285.785 340.204 281.47C317.657 281.802 76.5959 281.47 50.7324 281.47Z" fill="#DFF1FF"/>
<path d="M51.7275 295.079C52.3907 307.028 52.3907 319.309 51.7275 330.262H337.22C337.22 317.317 337.884 305.7 338.547 295.079H51.7275Z" fill="#DFF1FF"/>
<path d="M51.7271 295.079C51.3955 290.432 51.064 285.785 50.7324 281.47C49.406 281.47 50.7324 281.47 50.7324 281.47C49.406 269.853 47.4165 259.231 43.7691 251.265C43.7691 251.929 43.7691 251.265 43.7691 251.265C43.106 249.605 42.4428 248.278 41.4481 246.95C42.1112 248.61 42.7744 249.937 43.106 251.929C43.106 252.261 43.4376 252.925 43.4376 253.256C46.4218 265.87 39.7901 278.814 28.5163 281.47C23.8742 282.798 18.9004 282.134 14.5898 279.81C14.5898 279.81 27.8532 319.973 24.2057 368.765H49.406C49.406 368.765 49.406 368.765 49.406 368.433C49.7376 366.442 51.3955 350.178 52.0587 329.93C52.3903 319.309 52.3903 307.028 51.7271 295.079Z" fill="#DFF1FF"/>
<path d="M385.963 270.516C380.326 279.146 370.71 283.461 361.426 280.806C350.152 277.487 343.852 265.206 346.837 252.925H346.505H346.173C344.184 258.899 342.194 268.857 340.536 281.802C340.536 281.802 341.531 281.802 340.536 281.802C339.873 286.117 339.542 290.764 339.21 295.411C338.215 306.032 337.884 317.649 337.884 330.594C337.884 342.544 338.215 355.488 338.879 369.097H354.463H368.058C368.058 368.765 362.421 310.015 385.963 270.516Z" fill="#DFF1FF"/>
<path d="M375.021 233.673C379.663 235.001 383.31 237.988 385.963 241.639C380.657 232.014 368.72 216.413 350.483 224.379L346.173 252.593C347.168 249.937 348.162 247.946 348.825 246.618C353.468 236.329 364.741 230.686 375.021 233.673Z" fill="#DFF1FF"/>
<path d="M389.279 248.941C388.947 248.278 387.952 245.29 385.963 241.639C383.31 237.988 379.663 235.001 375.021 233.673C364.742 230.686 353.799 236.328 348.826 246.95C348.162 248.278 347.499 249.605 347.168 251.265C347.168 251.929 346.836 252.261 346.836 252.925C343.852 265.206 350.152 277.819 361.426 280.806C370.71 283.461 380.658 279.146 385.963 270.516C387.289 268.525 388.616 265.869 389.279 263.546C390.605 258.235 390.605 253.256 389.279 248.941Z" fill="#DFF1FF"/>
<path d="M201.602 281.47H200.608L198.618 185.876C198.95 185.876 199.281 185.876 199.613 185.876L201.602 281.47Z" fill="#DFF1FF"/>
<path d="M201.603 329.599C201.271 329.599 201.271 329.267 201.271 329.267L200.939 295.411C200.939 295.079 201.271 295.079 201.271 295.079C201.603 295.079 201.603 295.411 201.603 295.411L201.934 329.267C201.934 329.267 201.934 329.599 201.603 329.599Z" fill="#DFF1FF"/>
<path d="M337.22 330.262H52.0591C51.7275 330.262 51.7275 329.931 51.7275 329.931C51.7275 329.599 52.0591 329.599 52.0591 329.599H337.552C337.884 329.599 337.884 329.931 337.884 329.931C337.884 329.931 337.552 330.262 337.22 330.262Z" fill="#DFF1FF"/>
<path d="M367.063 270.849C366.731 270.849 366.399 270.849 366.068 270.849C361.094 269.853 360.099 264.542 360.431 259.895C361.094 254.252 364.078 248.278 369.052 248.278C369.384 248.278 370.047 248.278 370.378 248.278C375.352 249.274 376.347 254.916 376.015 259.231C375.352 265.206 372.036 270.849 367.063 270.849ZM368.72 249.274C364.41 249.274 361.426 254.916 360.762 260.227C360.431 264.21 361.426 269.521 365.736 270.185C366.068 270.185 366.399 270.185 366.731 270.185C371.042 270.185 374.026 264.542 374.689 259.563C375.021 255.58 374.026 250.269 369.715 249.274C369.715 249.274 369.052 249.274 368.72 249.274Z" fill="#DFF1FF"/>
<path d="M22.2161 271.18C15.5845 271.18 12.6002 264.21 11.9371 258.235C11.2739 252.261 12.9318 245.622 17.2424 244.295C17.9055 244.295 18.2371 243.963 18.9003 243.963C24.8688 243.963 30.5057 251.929 31.1689 259.231C31.832 265.206 29.5109 269.521 24.5372 270.516C23.874 271.18 22.8793 271.18 22.2161 271.18ZM18.9003 245.29C18.2371 245.29 17.9055 245.29 17.2424 245.622C13.2634 246.618 11.9371 252.925 12.6002 258.567C13.2634 264.542 16.5792 270.516 22.2161 270.516C22.8793 270.516 23.5425 270.516 24.2056 270.184C30.5057 268.525 30.5057 262.218 30.1741 259.563C29.5109 252.925 24.5372 245.29 18.9003 245.29Z" fill="#DFF1FF"/>
<path d="M49.4067 369.097C49.0751 369.097 49.0751 368.765 49.0751 368.765C54.0488 323.624 50.0699 279.81 49.7383 274.831C48.7435 264.21 46.0909 256.576 44.4329 252.593C46.0909 262.218 43.1066 275.827 32.8275 280.474C21.2221 285.785 14.5905 280.806 14.5905 280.474C14.2589 280.474 14.2589 280.142 14.5905 279.81C14.5905 279.478 14.9221 279.478 15.2536 279.81C15.2536 279.81 21.5537 284.789 32.8275 279.81C44.1014 274.499 46.0909 258.235 42.775 248.941C42.775 248.61 42.775 248.61 43.1066 248.278C43.4382 247.946 43.4382 248.278 43.7698 248.278C43.7698 248.278 49.4067 257.24 51.0646 274.831C51.3962 279.81 55.7068 323.624 50.4014 368.765C49.7383 369.097 49.7383 369.097 49.4067 369.097Z" fill="#DFF1FF"/>
<path d="M338.547 369.097C338.215 369.097 338.215 368.765 338.215 368.765C338.215 368.434 335.231 333.914 338.215 299.062C341.199 264.21 345.841 253.92 345.841 253.589C345.841 253.257 346.173 253.257 346.505 253.257C346.836 253.257 346.836 253.589 346.836 253.589C346.836 253.589 345.841 258.899 347.168 264.874C348.826 272.84 353.799 277.819 361.426 280.142C379.994 285.453 386.958 267.861 387.289 267.197C387.289 266.865 387.621 266.865 387.952 266.865C388.284 266.865 388.284 267.197 388.284 267.529C388.284 267.861 380.658 286.449 361.426 281.138C347.168 277.155 345.51 263.878 345.841 257.572C344.184 262.882 341.199 275.495 339.21 299.394C336.226 334.246 339.21 368.765 339.21 369.097C339.21 369.097 338.878 369.097 338.547 369.097Z" fill="#DFF1FF"/>
<path d="M441.006 376.068C441.006 380.715 428.406 384.698 411.163 386.025C407.184 386.357 403.205 386.357 398.895 386.357C375.684 386.357 356.452 381.71 356.452 376.068V371.421V370.093L357.778 302.713C357.778 308.356 376.016 312.671 398.563 312.671C406.521 312.671 414.148 312.007 420.448 311.011C432.053 309.351 439.679 306.032 439.679 302.381L441.006 368.102V369.429V376.068Z" fill="#FF9534"/>
<path d="M441.006 376.068C441.006 380.715 428.405 384.698 411.163 386.025C417.463 364.119 419.784 333.582 420.779 311.343C432.384 309.683 440.011 306.364 440.011 302.713L441.337 368.434V369.761L441.006 376.068Z" fill="#E4822F"/>
<path d="M324.952 350.842L322.631 351.506C322.631 351.506 306.715 331.922 298.093 321.301C289.472 310.679 277.204 297.734 271.235 285.121C265.93 273.836 254.656 243.631 251.672 235.665C260.625 232.677 265.93 228.362 268.583 221.724C272.893 210.771 268.583 198.489 265.267 191.519C263.94 188.864 262.283 185.544 260.625 182.225C260.293 181.561 259.961 181.229 259.961 180.566C258.635 178.242 257.64 176.251 256.977 174.591C256.977 174.259 256.646 174.259 256.646 173.927C256.314 173.263 255.982 172.6 255.982 172.268C255.982 171.936 255.982 171.936 255.651 171.936C255.982 171.604 256.314 171.272 256.646 171.272C256.977 170.94 257.309 170.608 257.64 170.608C259.63 168.948 261.288 167.289 262.614 165.629L262.946 165.961C269.909 172.268 274.551 185.213 277.867 198.158C280.188 207.783 281.514 217.741 282.509 224.379C284.167 240.312 287.814 279.147 287.814 279.147C301.409 283.13 307.709 290.764 311.025 300.39C311.688 302.381 312.683 306.032 314.341 310.347C317.657 325.616 324.952 350.842 324.952 350.842Z" fill="#FF9534"/>
<path d="M226.803 292.755C235.755 304.373 233.434 318.645 228.792 333.582C224.482 347.854 216.524 370.425 216.524 370.425L213.871 369.761L211.882 369.429C211.882 369.429 208.897 311.343 208.566 293.751C207.903 277.819 206.576 245.954 206.576 238.652C208.566 238.984 211.882 239.648 216.524 239.648C219.508 239.648 223.155 239.648 227.797 239.316C230.119 239.316 232.44 238.984 234.429 238.652L226.803 292.755Z" fill="#FF9534"/>
<path d="M324.952 350.842L322.631 351.506C322.631 351.506 306.715 331.922 298.093 321.301C289.472 310.679 277.204 297.734 271.235 285.121C265.93 273.836 254.656 243.631 251.672 235.665C260.625 232.677 265.93 228.362 268.583 221.724C272.893 210.771 268.583 198.489 265.267 191.519C263.94 188.864 262.283 185.544 260.625 182.225C260.293 181.561 259.961 181.229 259.961 180.566C258.635 178.242 257.64 176.251 256.977 174.591C256.977 174.259 256.646 174.259 256.646 173.927C256.314 173.263 255.982 172.6 255.982 172.268C255.982 171.936 255.982 171.936 255.651 171.936C255.982 171.604 256.314 171.272 256.646 171.272C256.977 170.94 257.309 170.608 257.64 170.608C259.63 168.948 261.288 167.289 262.614 165.629L262.946 165.961C269.909 172.268 274.551 185.213 277.867 198.158C275.877 207.451 272.893 220.728 272.23 236.66C271.235 257.572 279.525 285.453 279.525 285.453C279.525 285.453 296.104 307.692 314.341 310.679C317.657 325.616 324.952 350.842 324.952 350.842Z" fill="#E4822F"/>
<path d="M234.429 238.984L226.803 293.087C235.756 304.704 233.434 318.977 228.792 333.914C224.482 348.186 216.524 370.757 216.524 370.757L213.871 370.093C216.855 359.804 224.813 333.582 226.14 318.977C227.798 300.721 222.824 296.406 222.824 296.406C222.161 283.461 218.513 252.593 216.524 239.648C219.508 239.648 223.155 239.648 227.798 239.316C229.787 239.316 232.108 238.984 234.429 238.984Z" fill="#E4822F"/>
<path d="M264.604 99.5764C264.604 99.5764 261.951 102.896 260.293 106.879C259.63 108.206 258.967 109.866 258.303 111.194C256.977 113.849 255.651 116.504 255.651 116.504L252.998 114.845L252.003 114.513L246.698 111.194H246.366C246.366 111.194 246.366 111.194 246.035 111.526C240.73 116.836 237.745 126.13 237.745 134.096C237.745 142.062 241.393 149.697 245.04 152.352C248.356 154.675 254.988 160.318 256.977 161.978C256.646 162.642 255.982 163.305 255.319 163.969C252.667 167.289 248.024 171.935 240.066 176.25C234.761 179.238 228.793 180.897 223.487 181.893C223.156 181.893 223.156 181.893 222.824 181.893C214.203 183.553 207.24 183.221 207.24 183.221C206.908 181.229 203.261 167.62 202.598 157.331C202.266 154.344 201.934 151.356 201.603 148.369C200.94 142.726 200.276 138.079 200.276 136.752C200.276 136.42 200.276 136.42 200.276 136.42C199.282 136.088 198.619 135.756 197.624 135.424C194.308 134.096 191.987 132.769 190.329 131.441C187.345 129.117 186.682 126.462 186.35 124.471C186.018 120.819 191.655 111.194 193.313 105.883C194.64 101.9 196.297 93.2699 197.624 88.9549C197.955 87.6272 198.287 86.6314 198.619 86.2995C198.95 85.6357 200.608 84.308 201.934 82.9803C202.266 82.6484 202.598 82.3164 202.929 82.3164C204.255 81.3207 205.582 79.993 206.245 78.9972C206.245 79.3291 206.245 79.6611 206.245 79.6611C206.577 81.3207 206.577 85.6357 207.24 89.6187C207.571 92.2741 208.234 94.2656 208.898 94.9295C208.898 94.9295 208.898 94.9295 209.229 94.9295H209.561C209.561 94.9295 209.561 94.9295 209.561 94.5976C210.224 93.6018 210.887 90.9464 211.55 88.623C211.882 87.6272 212.213 86.9634 212.545 85.9676C214.203 81.6526 217.187 76.0099 217.187 75.0142C217.187 75.0142 217.85 75.0142 218.845 75.0142C221.498 75.0142 226.472 75.3461 230.119 75.3461C231.445 75.3461 232.772 75.678 233.435 75.678C236.751 76.3418 240.066 78.9972 246.366 83.9761C250.345 87.2953 256.314 92.606 259.961 96.2572L260.293 96.5891C263.609 98.5806 264.604 99.5764 264.604 99.5764Z" fill="#2196F3"/>
<path d="M207.239 79.6615C207.571 81.3211 207.571 85.6361 208.234 89.6192C203.923 90.283 200.608 89.9511 198.618 89.2873C198.95 87.9596 199.281 86.9638 199.613 86.6319C199.944 85.968 201.602 84.6403 202.929 83.3127C203.26 82.9807 203.592 82.6488 203.923 82.6488C205.25 81.653 206.576 80.3254 207.239 79.3296C206.908 79.3296 207.239 79.6615 207.239 79.6615Z" fill="#0B82E0"/>
<path d="M231.445 75.3465C228.129 78.9976 221.829 85.6361 213.208 88.2914C213.54 87.2957 213.871 86.6318 214.203 85.636C215.861 81.3211 218.845 75.6784 218.845 74.6826C218.845 74.6826 219.508 74.6826 220.503 74.6826C222.824 75.0145 227.798 75.3465 231.445 75.3465Z" fill="#0B82E0"/>
<path d="M245.372 152.02C248.688 154.344 255.319 159.986 257.309 161.646C256.977 162.31 256.314 162.974 255.651 163.638C250.014 159.655 238.409 151.025 235.756 145.382C232.772 138.08 234.43 130.777 234.43 130.777C229.124 134.097 222.161 131.773 222.161 131.773C234.098 130.113 238.74 125.467 238.74 116.173C239.072 106.879 236.751 103.228 236.751 103.228C236.751 103.228 234.43 100.572 240.067 101.9C245.04 103.228 253.33 108.539 257.64 111.526C256.314 114.181 254.988 116.837 254.988 116.837L252.335 115.177L252.004 114.513L246.698 111.194H246.367C246.367 111.194 246.367 111.194 246.035 111.526C240.73 116.837 237.746 126.13 237.746 134.097C238.077 141.731 241.725 149.365 245.372 152.02Z" fill="#0B82E0"/>
<path d="M213.539 58.4184C213.871 55.0992 213.539 52.7757 213.539 52.7757C222.492 45.4734 216.192 36.1796 213.539 36.8434C210.887 37.5073 210.887 42.4861 210.887 42.4861C210.887 42.4861 210.887 42.4861 206.908 35.8477C205.913 34.1881 204.587 32.8604 202.929 32.1965C197.955 29.8731 190.66 30.5369 186.35 32.8604C180.713 36.1796 174.413 42.818 173.749 47.4649C171.097 47.133 166.786 43.8138 165.46 38.1711C163.802 31.5327 169.439 18.9196 177.065 15.2685C184.692 11.6173 195.302 15.2685 195.965 15.2685C195.634 14.9366 191.986 10.6216 195.965 10.6216C199.613 10.6216 209.892 16.5962 212.213 17.9239C212.545 18.2558 212.876 18.2558 212.876 18.2558C212.876 18.2558 222.824 27.5496 224.813 36.8434C226.803 46.4692 224.15 59.7461 213.539 58.4184Z" fill="#B75349"/>
<path d="M213.539 58.4183C213.871 55.0991 213.539 52.7757 213.539 52.7757C222.492 45.4734 216.192 36.1795 213.539 36.8434C210.887 37.5072 210.887 42.4861 210.887 42.4861C210.887 42.4861 210.887 42.4861 206.908 35.8476C205.913 34.188 204.587 32.8603 202.929 32.1965C215.529 31.2007 213.871 26.2219 212.213 17.9238C212.545 18.2558 212.876 18.2557 212.876 18.2557C212.876 18.2557 222.824 27.5496 224.813 36.8434C226.803 46.4691 224.15 59.746 213.539 58.4183Z" fill="#A03E37"/>
<path d="M252.003 40.4945C251.34 47.4649 247.361 54.1033 241.061 56.0948C241.061 56.0948 243.382 49.4564 241.724 46.1372C240.398 43.4818 239.735 43.8137 235.092 44.4776C230.782 45.1414 227.798 43.8137 226.803 37.8391C225.808 31.8645 223.819 21.9069 216.524 19.9153C217.85 16.2642 216.524 12.613 213.871 12.613C214.203 10.9534 214.866 8.62997 216.192 6.30652C218.513 2.65538 221.829 0 227.134 0C236.75 0 239.735 6.30652 241.061 13.6088C242.387 20.2472 239.403 28.2134 239.071 29.5411C239.403 28.8772 240.729 26.5538 244.377 27.2176C247.693 27.8815 251.34 31.8645 252.003 37.1753C252.003 38.171 252.003 39.1668 252.003 40.4945Z" fill="#B75349"/>
<path d="M252.003 40.4946C251.34 47.4649 247.361 54.1034 241.061 56.0949C241.061 56.0949 243.382 49.4565 241.724 46.1372C240.398 43.4819 239.735 43.8138 235.092 44.4776C230.782 45.1415 227.798 43.8138 226.803 37.8392C225.808 31.8646 223.819 21.9069 216.524 19.9154C217.85 16.2643 216.524 12.6131 213.871 12.6131C214.203 10.9535 214.866 8.63005 216.192 6.3066C225.476 4.31506 233.103 5.64275 235.756 13.6089C238.74 22.9027 234.761 32.1965 236.419 32.5284C237.745 32.8604 248.024 27.2177 251.34 37.5073C252.003 38.1711 252.003 39.1669 252.003 40.4946Z" fill="#A03E37"/>
<path d="M213.54 52.7755C213.54 52.7755 213.54 54.1032 213.54 55.7628C213.54 56.4266 213.54 57.4224 213.54 58.4182C213.208 62.7331 212.545 68.0439 209.561 71.695C209.561 71.695 209.561 71.695 209.561 72.027C208.566 73.3547 207.571 74.3504 206.245 75.3462C201.935 78.9973 197.624 80.6569 190.992 79.6612C182.703 78.3335 178.724 71.695 177.066 63.0651C175.408 54.4351 173.75 48.1286 173.75 48.1286C174.745 43.8136 180.713 36.8432 186.35 33.524C190.329 31.2005 196.961 30.5367 201.935 32.1963C203.924 33.1921 205.914 34.5198 206.908 36.1794C210.887 42.8178 210.887 42.8178 210.887 42.8178C210.887 42.8178 210.887 37.839 213.54 37.1751C216.193 36.1794 222.161 45.4732 213.54 52.7755Z" fill="#F1B5AB"/>
<path d="M213.54 52.7755C213.54 52.7755 213.54 54.1031 213.54 55.7628C213.54 56.4266 213.54 57.4224 213.54 58.4181C213.208 62.7331 212.545 68.0439 209.561 71.695C209.561 71.695 209.561 71.695 209.561 72.0269C213.54 53.1074 206.245 38.5028 201.935 32.1963C203.924 33.1921 205.914 34.5197 206.908 36.1794C210.887 42.8178 210.887 42.8178 210.887 42.8178C210.887 42.8178 210.887 37.839 213.54 37.1751C216.193 36.1794 222.161 45.4732 213.54 52.7755Z" fill="#F5948D"/>
<path d="M214.203 12.2809C210.887 11.949 211.55 17.9236 211.55 17.9236C213.54 19.2513 215.861 21.9067 215.861 21.9067C216.192 21.2428 216.524 20.579 216.856 19.9151C217.85 15.9321 216.856 12.6128 214.203 12.2809Z" fill="#5F1D16"/>
<path d="M272.562 177.246C272.562 176.915 272.893 176.915 272.893 176.915C272.893 176.915 272.562 176.915 272.562 177.246Z" fill="#F1B5AB"/>
<path d="M192.65 47.4648C192.65 47.4648 191.987 43.4817 195.303 43.1498C198.618 42.8179 203.26 45.4733 203.26 45.4733C203.26 45.4733 194.308 44.8094 192.65 47.4648Z" fill="#B75349"/>
<path d="M183.035 49.1243C183.035 49.1243 180.714 47.4647 178.061 49.1243C175.408 50.7839 175.74 54.4351 175.74 54.4351C175.74 54.4351 177.729 52.7755 179.719 51.4478C182.04 50.1201 183.035 49.1243 183.035 49.1243Z" fill="#B75349"/>
<path d="M254.656 171.936C257.309 169.612 259.63 167.621 261.288 165.297L254.656 171.936Z" fill="#5F1D16"/>
<path d="M264.603 191.187C263.277 188.532 261.619 185.213 259.961 181.893C259.629 181.23 259.298 180.898 259.298 180.234C257.972 177.91 256.977 175.919 256.314 174.259C256.314 173.927 255.982 173.927 255.982 173.595C255.65 172.931 255.319 172.268 255.319 171.936C255.319 171.604 255.319 171.604 254.987 171.604L260.956 165.629L261.619 164.965L257.64 161.314C255.319 164.633 250.345 170.608 241.061 175.587C226.803 183.221 208.234 182.889 208.234 182.889V186.872C208.234 186.872 208.234 187.204 208.234 187.536C207.239 193.843 202.266 232.677 202.266 236.992C202.266 236.992 202.597 237.988 206.245 238.652C209.56 239.316 215.861 239.98 227.466 239.316C229.787 239.316 232.108 238.984 234.098 238.652C240.729 237.988 246.366 236.992 251.008 235.333C259.961 232.346 265.266 228.031 267.919 221.392C272.23 210.771 268.251 198.489 264.603 191.187Z" fill="#0179D9"/>
<path d="M261.619 165.297C261.287 165.629 261.287 165.629 261.619 165.297C261.619 164.965 261.619 165.297 261.619 165.297Z" fill="#5F1D16"/>
<path d="M216.524 370.425C216.524 370.425 211.882 368.102 206.245 369.097C200.608 370.093 194.64 376.068 194.64 376.068H216.524V370.425Z" fill="#1E1E1E"/>
<path d="M321.968 351.174C322.299 351.505 320.641 366.774 319.315 369.097C317.989 371.421 312.683 373.412 312.352 374.408C312.02 375.404 321.968 376.4 324.62 374.408C327.273 372.417 333.242 357.812 333.242 357.812L324.289 349.514L321.968 351.174Z" fill="#1E1E1E"/>
<path d="M209.892 94.9298C209.561 94.5979 204.587 91.6106 200.939 93.2702C200.939 93.2702 201.934 86.9637 203.592 82.3168C204.918 81.321 206.245 79.9933 206.908 78.9976C206.908 79.3295 206.908 79.6614 206.908 79.6614C207.571 82.6487 207.903 93.6021 209.892 94.9298Z" fill="#0179D9"/>
<path d="M224.151 87.9595C218.845 88.2914 211.55 93.9341 210.556 94.5979C211.55 93.6022 212.545 89.2872 213.871 85.636C215.529 81.3211 218.514 75.6784 218.514 74.6826C218.514 74.6826 219.177 74.6826 220.172 74.6826L224.151 87.9595Z" fill="#0179D9"/>
<path d="M213.539 47.4649C211.218 44.1457 212.213 40.4945 213.208 38.503C213.208 38.503 213.539 38.1711 213.539 38.503L213.871 38.8349C212.876 40.8264 211.882 44.1457 213.871 47.133C213.871 47.133 213.871 47.4649 213.539 47.4649C213.871 47.4649 213.871 47.4649 213.539 47.4649Z" fill="#983222"/>
<path d="M212.877 45.1418C212.877 45.1418 212.877 44.8098 212.877 45.1418C212.545 44.8098 212.545 44.4779 212.877 44.4779C212.877 44.4779 214.203 44.146 213.872 43.1502C213.872 42.8183 213.54 42.8183 213.54 42.8183C213.209 42.8183 212.545 42.8183 212.545 42.8183H212.214V42.4864C212.214 42.4864 213.209 42.1545 213.872 42.4864C214.203 42.4864 214.203 42.8183 214.535 43.4822C214.867 44.146 213.54 44.8098 212.877 45.1418Z" fill="#983222"/>
<path d="M173.088 41.4901C173.088 41.4901 172.756 41.4901 173.088 41.4901C172.756 41.1582 172.424 36.8432 173.751 35.1836H174.082V35.5155C173.419 36.8432 173.419 40.1624 173.088 41.4901C173.419 41.4901 173.419 41.4901 173.088 41.4901Z" fill="#993E3A"/>
<path d="M178.724 25.8899C178.393 25.8899 178.393 25.5579 178.393 25.5579C178.724 25.226 181.377 21.2429 183.035 20.5791H183.366C183.366 20.5791 183.366 20.911 183.035 20.911C181.708 21.5749 179.056 25.226 178.724 25.8899C179.056 25.5579 178.724 25.8899 178.724 25.8899Z" fill="#993E3A"/>
<path d="M200.609 26.2218C197.625 23.8983 189.667 24.5622 189.667 24.5622C189.667 24.5622 189.335 24.5622 189.335 24.2303C189.335 24.2303 189.335 23.8983 189.667 23.8983C189.998 23.8983 197.956 23.2345 200.94 25.5579C200.94 25.5579 200.94 25.8899 200.609 26.2218C200.94 26.2218 200.94 26.2218 200.609 26.2218Z" fill="#993E3A"/>
<path d="M205.582 25.226C205.25 25.226 205.25 25.226 205.582 25.226C204.256 23.2345 201.271 20.911 201.271 20.911V20.5791H201.603C201.603 20.5791 204.919 22.9026 205.914 24.8941L205.582 25.226Z" fill="#993E3A"/>
<path d="M170.435 41.4901C170.103 41.4901 170.103 41.4901 170.435 41.4901C168.113 39.4986 169.108 33.8559 169.44 33.524C169.44 33.524 169.771 33.1921 169.771 33.524V33.8559C169.44 34.5198 168.777 39.1667 170.435 40.8263C170.435 41.1582 170.435 41.4901 170.435 41.4901Z" fill="#993E3A"/>
<path d="M233.766 19.5834C233.434 19.2515 231.445 11.2854 226.14 9.29385C220.834 7.63424 219.508 10.9535 219.508 10.9535L219.176 11.2854L218.845 10.9535C218.845 10.9535 220.503 6.97039 226.14 8.96193C231.776 10.9535 233.766 18.9196 234.098 19.2515C234.098 19.5834 234.098 19.5834 233.766 19.5834C234.098 19.5834 234.098 19.5834 233.766 19.5834Z" fill="#5F1D16"/>
<path d="M236.75 15.6006C236.418 15.6006 236.418 15.2686 236.75 15.6006C236.75 11.2856 233.766 6.97059 233.766 6.97059V6.63867H234.097C234.429 6.63867 237.081 10.9537 236.75 15.6006C236.75 15.2686 236.75 15.6006 236.75 15.6006Z" fill="#5F1D16"/>
<path d="M219.508 16.2645C219.177 16.2645 219.177 16.2645 219.508 16.2645C219.177 16.2645 219.177 15.9326 219.177 15.9326C219.177 15.9326 220.835 12.9453 222.493 13.2772C222.493 13.2772 222.824 13.2772 222.824 13.6091C222.824 13.9411 222.824 13.9411 222.493 13.9411C221.166 13.6091 220.172 15.6007 219.508 16.2645Z" fill="#5F1D16"/>
<path d="M229.787 30.8688C229.455 30.8688 229.455 30.5369 229.787 30.8688C228.792 26.5538 223.819 22.5707 222.492 21.2431V20.9111H222.824C224.482 22.2388 229.455 26.5538 229.787 30.5369C230.119 30.5369 229.787 30.8688 229.787 30.8688Z" fill="#5F1D16"/>
<path d="M246.035 47.4649C245.703 47.4649 245.703 47.133 245.703 47.133C246.035 44.1457 243.05 37.8391 242.719 37.5072V37.1753H243.05C244.045 37.5072 247.029 44.1457 246.035 47.4649C246.366 47.4649 246.366 47.4649 246.035 47.4649Z" fill="#5F1D16"/>
<path d="M248.687 43.8138C248.356 43.8138 248.356 43.4819 248.687 43.8138C248.687 41.1584 248.024 38.835 246.366 36.5115C246.366 36.5115 246.366 36.5115 246.366 36.1796V35.8477H246.698C249.019 39.1669 249.019 41.8223 248.687 43.8138C249.019 43.8138 248.687 43.8138 248.687 43.8138Z" fill="#5F1D16"/>
<path d="M191.655 71.3633C191.655 71.3633 200.276 67.0483 202.266 64.061C202.266 64.061 202.598 69.3718 199.613 73.0229C195.966 76.6741 191.655 71.3633 191.655 71.3633Z" fill="white"/>
<path d="M186.019 67.7121C184.693 67.7121 183.698 67.3802 183.698 67.3802L183.366 67.0483C183.366 67.0483 184.029 64.061 184.693 61.0737C185.356 57.7544 185.356 56.0948 183.366 53.7714V53.4395H183.698C185.687 55.7629 185.687 57.7544 185.024 61.0737C184.693 63.729 184.029 66.0525 183.698 67.0483C184.361 67.3802 186.019 67.7121 187.345 67.0483C189.003 66.3844 189.335 65.0567 189.335 65.0567L189.666 64.7248C189.666 64.7248 189.998 65.0567 189.666 65.0567C189.666 65.0567 189.003 66.3844 187.345 67.3802C187.345 67.7121 186.682 67.7121 186.019 67.7121Z" fill="#983222"/>
<path d="M224.151 181.561C223.819 181.561 223.819 181.561 223.488 181.561C220.835 175.919 216.193 159.322 214.203 151.688C212.877 146.378 211.219 141.731 209.893 137.748C208.898 134.428 207.903 131.773 207.24 129.118C205.582 123.143 206.577 118.496 207.572 112.853L207.903 111.194C208.567 107.211 208.898 103.56 209.561 100.24C209.893 98.2488 209.893 96.2573 210.224 94.9296H210.556C210.556 94.9296 210.556 94.9296 210.556 94.5977C210.224 96.2573 209.893 98.2488 209.893 100.572C209.561 103.891 208.898 107.543 208.235 111.526V112.853C207.24 118.496 206.577 123.143 207.903 129.118C208.567 131.773 209.561 134.76 210.556 137.748C211.882 141.731 213.54 146.046 214.867 151.688C217.188 160.318 221.83 176.25 224.151 181.561Z" fill="#0179D9"/>
<path d="M181.708 57.7544C182.371 59.746 182.04 61.4056 181.376 61.7375C180.382 62.0694 179.387 60.7417 178.724 59.0821C178.061 57.0906 178.392 55.431 179.055 55.0991C179.719 54.7671 181.045 56.0948 181.708 57.7544Z" fill="#1E1724"/>
<path d="M197.292 51.7798C197.955 53.7714 197.624 55.431 196.96 55.7629C195.966 56.0948 194.971 54.7671 194.308 53.1075C193.645 51.116 193.976 49.4564 194.639 49.1244C195.634 48.7925 196.629 50.1202 197.292 51.7798Z" fill="#1E1724"/>
<path d="M202.266 148.369V150.693C202.266 150.693 197.624 161.314 193.977 167.621C190.329 173.927 181.377 179.902 181.377 179.902C179.056 182.557 176.734 185.212 175.408 184.549C175.408 184.549 175.408 184.549 175.077 184.217C174.082 182.889 176.403 179.57 176.403 179.57L172.424 181.561C172.424 181.561 171.761 186.872 170.434 186.208C169.108 185.876 169.44 179.238 170.434 177.578C171.429 175.587 177.066 174.259 177.066 174.259C177.066 174.259 180.382 166.957 184.361 156.999C188.34 147.041 190.661 131.773 190.661 131.773H190.993C192.65 133.101 194.972 134.428 198.619 135.756C199.282 136.088 199.945 136.42 200.608 136.42C200.94 136.42 201.603 141.731 202.266 148.369Z" fill="#F1B5AB"/>
<path d="M202.266 148.369V150.692C202.266 150.692 197.624 161.314 193.977 167.62C190.329 173.927 181.377 179.902 181.377 179.902C179.056 182.557 176.735 185.212 175.408 184.548C177.066 182.889 179.056 180.565 180.382 179.238C182.371 177.246 194.972 160.318 196.63 153.348C197.956 148.701 198.287 140.403 198.619 135.756C199.282 136.088 199.945 136.42 200.609 136.42C200.94 136.42 201.603 141.73 202.266 148.369Z" fill="#F5948D"/>
<path d="M356.784 335.241C337.22 335.241 325.283 298.73 315.336 259.231C305.72 221.06 290.799 199.485 266.593 172.931C243.382 147.373 227.798 149.365 210.224 154.344C193.645 158.991 181.376 179.57 180.382 182.225C180.05 183.553 178.724 184.881 177.066 184.881C175.076 184.881 173.75 183.221 173.75 181.561C173.75 177.91 189.003 153.68 208.566 148.037C227.798 142.394 246.035 140.071 271.899 168.616C296.767 195.834 312.352 218.073 322.299 257.571C327.604 278.814 340.205 328.271 357.115 328.271C357.447 328.271 357.447 328.271 357.779 328.271C359.768 327.939 361.426 329.599 361.426 331.258C361.426 333.25 360.1 334.909 358.442 334.909C357.447 335.241 357.115 335.241 356.784 335.241Z" fill="#1E1E1E"/>
<path d="M218.182 75.0142C218.182 76.0099 215.198 81.6526 213.54 85.9676C211.882 90.2826 210.887 95.9253 209.561 94.9295C207.572 93.6018 207.24 82.6484 206.908 79.6611C206.908 79.3292 206.908 78.9972 206.908 78.9972C206.908 78.6653 206.577 78.3334 206.577 78.0015C206.245 77.0057 205.251 76.0099 204.919 75.3461C205.914 74.3503 207.24 73.0226 208.235 71.695C210.887 68.3757 211.882 62.7331 212.214 58.75C213.54 61.0735 214.866 64.7246 216.193 67.7119C217.187 71.363 218.182 74.6823 218.182 75.0142Z" fill="#F1B5AB"/>
<path d="M215.861 68.0438C212.877 73.0226 208.898 76.3419 206.577 78.0015C206.245 77.0057 205.251 76.0099 204.919 75.3461C205.914 74.3503 207.24 73.0226 208.235 71.695C210.887 68.3757 211.882 62.7331 212.214 58.75C213.209 61.4054 214.866 64.7246 215.861 68.0438Z" fill="#F5948D"/>
<path d="M280.851 172.931C281.845 178.574 279.856 182.557 278.53 182.557C277.866 182.557 277.866 180.898 278.198 179.902C278.198 179.238 278.53 178.574 278.53 178.242C278.53 178.242 278.53 178.574 278.198 178.574C277.535 179.902 275.545 183.221 274.551 182.889C273.887 182.889 273.887 181.893 274.219 180.898C274.219 180.234 274.551 179.57 274.551 179.57C274.551 179.902 274.219 180.234 274.219 180.566C273.556 181.561 272.893 182.889 271.898 182.225C271.566 181.893 271.566 180.898 271.566 179.902C271.898 178.906 272.23 177.91 272.23 177.246C272.23 177.578 272.23 177.578 271.898 177.91C271.235 179.238 270.572 180.566 269.908 179.902C268.914 178.906 270.903 169.612 270.903 169.612C270.903 169.612 267.587 172.268 266.261 170.608C265.929 170.276 265.929 169.944 265.929 169.612C266.261 167.621 270.24 164.301 269.908 163.638C269.577 162.974 268.582 147.705 266.593 137.416C264.603 127.126 265.266 124.471 265.266 123.807C265.266 123.143 257.308 118.496 255.65 116.505C255.65 116.505 256.977 114.181 258.635 111.194C259.298 109.866 259.961 108.207 260.624 106.879C261.95 102.896 264.603 99.5767 264.603 99.5767C269.577 103.56 278.861 114.845 278.861 114.845C278.861 114.845 280.851 117.169 281.182 126.794C281.514 136.42 278.53 162.974 278.53 162.974C278.53 162.974 279.856 166.957 280.851 172.931Z" fill="#F1B5AB"/>
<path d="M270.903 149.033C270.903 160.65 269.908 164.965 269.908 164.965C269.908 164.965 268.582 166.957 265.929 169.612C266.261 167.621 270.24 164.301 269.908 163.638C269.577 162.974 268.582 147.705 266.593 137.416C264.603 127.126 265.266 124.471 265.266 123.807C265.266 123.143 257.308 118.496 255.65 116.505C255.65 116.505 256.977 114.181 258.635 111.194C263.94 115.509 266.593 120.488 267.587 123.143C268.251 125.798 270.903 137.416 270.903 149.033Z" fill="#F5948D"/>
<path d="M271.566 179.902C271.898 178.906 272.23 177.91 272.23 177.246C272.23 177.578 272.23 177.578 271.898 177.91C272.23 176.583 272.561 174.923 272.561 172.931C272.893 175.919 272.561 178.242 271.566 179.902Z" fill="#F5948D"/>
<path d="M274.219 181.23C274.219 180.566 274.55 179.902 274.55 179.902C274.55 180.234 274.219 180.566 274.219 180.898C274.882 179.57 275.213 177.91 275.877 175.587C275.213 177.91 274.55 179.902 274.219 181.23Z" fill="#F5948D"/>
<path d="M278.198 179.902C278.198 179.238 278.53 178.574 278.53 178.242C278.53 178.242 278.53 178.574 278.198 178.574C278.861 176.914 279.193 175.587 279.193 174.259C279.525 175.919 279.193 177.578 278.198 179.902Z" fill="#F5948D"/>
<path d="M398.563 313.003C421.088 313.003 439.348 308.544 439.348 303.045C439.348 297.545 421.088 293.087 398.563 293.087C376.038 293.087 357.778 297.545 357.778 303.045C357.778 308.544 376.038 313.003 398.563 313.003Z" fill="#FFC40C"/>
<path d="M398.563 296.738C384.636 296.738 373.362 299.394 373.362 303.045C373.362 306.364 384.636 309.351 398.563 309.351C412.489 309.351 423.763 306.696 423.763 303.045C423.763 299.394 412.489 296.738 398.563 296.738Z" fill="#F79738"/>
<path d="M359.436 383.37C360.431 379.719 364.078 377.395 367.063 378.391C370.378 379.387 372.036 383.038 371.042 386.689C370.047 390.34 366.399 392.664 363.415 391.668C360.099 391.004 358.441 387.021 359.436 383.37Z" fill="#5F1D16"/>
<path d="M365.073 388.681C364.741 388.681 364.741 388.681 364.41 388.681C363.415 388.349 363.084 387.685 363.084 387.353C362.752 386.689 362.752 385.693 362.752 384.698C363.084 383.038 364.741 382.042 365.736 382.042C366.068 382.042 366.068 382.042 366.399 382.042C367.394 382.374 367.726 383.038 367.726 383.37C368.057 384.034 368.057 385.03 368.057 386.025C367.394 387.685 366.068 388.681 365.073 388.681Z" fill="#9FD8D4"/>
<path d="M441.006 370.093C433.711 373.412 419.121 378.391 398.895 379.387C397.237 379.387 395.579 379.387 393.921 379.387C380.989 379.387 371.042 377.064 364.742 375.072C361.094 373.744 358.442 372.749 356.452 371.753V370.425C362.089 373.412 376.679 379.387 398.563 378.391C419.121 377.395 433.711 372.085 440.674 369.097L441.006 370.093Z" fill="#CE615A"/>
<path d="M423.431 321.965C422.768 321.965 422.105 321.965 422.105 321.965C421.773 321.965 421.773 321.633 421.773 321.633C421.773 321.301 422.105 321.301 422.105 321.301C422.105 321.301 431.389 321.633 435.037 320.305C435.368 320.305 435.368 320.305 435.7 320.637C435.7 320.969 435.7 320.969 435.368 321.301C432.384 321.965 426.416 321.965 423.431 321.965Z" fill="#CE615A"/>
<path d="M423.763 326.279C423.1 326.279 422.437 326.279 422.437 326.279C422.105 326.279 422.105 325.948 422.105 325.948C422.105 325.616 422.437 325.616 422.437 325.616C422.437 325.616 431.721 325.948 435.369 324.62C435.7 324.62 435.7 324.62 436.032 324.952C436.032 325.284 436.032 325.284 435.7 325.616C432.385 326.279 426.416 326.279 423.763 326.279Z" fill="#CE615A"/>
<path d="M423.763 330.594C423.1 330.594 422.437 330.594 422.437 330.594C422.105 330.594 422.105 330.263 422.105 330.263C422.105 329.931 422.437 329.931 422.437 329.931C422.437 329.931 431.721 330.263 435.369 328.935C435.7 328.935 435.7 328.935 436.032 329.267C436.032 329.599 436.032 329.599 435.7 329.931C432.385 330.594 426.416 330.594 423.763 330.594Z" fill="#CE615A"/>
<path d="M423.431 334.91C422.768 334.91 422.105 334.91 422.105 334.91C421.773 334.91 421.773 334.578 421.773 334.578C421.773 334.246 422.105 334.246 422.105 334.246C422.105 334.246 431.389 334.578 435.037 333.25C435.368 333.25 435.368 333.25 435.7 333.582C435.7 333.914 435.7 333.914 435.368 334.246C432.384 334.91 426.416 334.91 423.431 334.91Z" fill="#CE615A"/>
<path d="M423.763 339.225C423.1 339.225 422.437 339.225 422.437 339.225C422.105 339.225 422.105 338.893 422.105 338.893C422.105 338.561 422.437 338.561 422.437 338.561C422.437 338.561 431.721 338.893 435.369 337.565C435.7 337.565 435.7 337.565 436.032 337.897C436.032 338.229 436.032 338.229 435.7 338.561C432.385 339.225 426.416 339.225 423.763 339.225Z" fill="#CE615A"/>
<path d="M423.763 343.207C423.1 343.207 422.437 343.207 422.437 343.207C422.105 343.207 422.105 342.876 422.105 342.876C422.105 342.544 422.437 342.544 422.437 342.544C422.437 342.544 431.721 342.876 435.369 341.548C435.7 341.548 435.7 341.548 436.032 341.88C436.032 342.212 436.032 342.212 435.7 342.544C432.385 342.875 426.416 343.207 423.763 343.207Z" fill="#CE615A"/>
<path d="M423.763 347.191C423.1 347.191 422.437 347.191 422.437 347.191C422.105 347.191 422.105 346.859 422.105 346.859C422.105 346.527 422.437 346.527 422.437 346.527C422.437 346.527 431.721 346.859 435.369 345.531C435.7 345.531 435.7 345.531 436.032 345.863C436.032 346.195 436.032 346.195 435.7 346.527C432.385 346.859 426.416 347.191 423.763 347.191Z" fill="#CE615A"/>
<path d="M423.431 350.842C422.768 350.842 422.105 350.842 422.105 350.842C421.773 350.842 421.773 350.51 421.773 350.51C421.773 350.178 422.105 350.178 422.105 350.178C422.105 350.178 431.389 350.51 435.037 349.182C435.368 349.182 435.368 349.182 435.7 349.514C435.7 349.846 435.7 349.846 435.368 350.178C432.384 350.842 426.416 350.842 423.431 350.842Z" fill="#CE615A"/>
<path d="M423.763 355.82C423.1 355.82 422.437 355.82 422.437 355.82C422.105 355.82 422.105 355.489 422.105 355.489C422.105 355.157 422.437 355.157 422.437 355.157C422.437 355.157 431.721 355.489 435.369 354.161C435.7 354.161 435.7 354.161 436.032 354.493C436.032 354.825 436.032 354.825 435.7 355.157C432.385 355.821 426.416 355.82 423.763 355.82Z" fill="#CE615A"/>
<path d="M181.045 180.897L156.176 235.665L147.555 254.584L104.449 349.182L97.486 365.114L87.8701 366.442L95.8281 349.182L139.597 254.584L148.55 235.665L173.418 181.561L181.045 180.897Z" fill="#1E1E1E"/>
<path d="M87.87 366.442L56.7012 377.063L111.412 378.059L106.439 374.408L97.4859 364.45L87.87 366.442Z" fill="#F79738"/>
<path d="M56.7012 377.063V383.038H111.412V378.059L56.7012 377.063Z" fill="#CA6428"/>
<path d="M156.176 235.665L147.555 254.584H139.597L148.549 235.665H156.176Z" fill="#1E1E1E"/>
<path d="M104.449 349.182L97.486 365.114L87.8701 366.442L95.8281 349.182H104.449Z" fill="#1E1E1E"/>
<path d="M207.239 101.568C207.239 102.232 206.908 102.896 206.576 102.896C206.245 102.896 205.913 102.232 205.913 101.568C205.913 100.904 206.245 100.24 206.576 100.24C206.908 100.572 207.239 100.904 207.239 101.568Z" fill="#0B82E0"/>
<path d="M205.582 122.811C205.582 123.475 205.251 124.139 204.919 124.139C204.587 124.139 204.256 123.475 204.256 122.811C204.256 122.147 204.587 121.483 204.919 121.483C205.251 121.483 205.582 122.147 205.582 122.811Z" fill="#0B82E0"/>
<path d="M209.893 141.399C209.893 142.062 209.893 142.726 209.23 142.726C208.898 142.726 208.566 142.394 208.566 141.73C208.566 141.067 208.566 140.403 209.23 140.403C209.23 140.071 209.561 140.735 209.893 141.399Z" fill="#0B82E0"/>
<path d="M214.534 158.991C214.534 159.655 214.534 160.318 213.871 160.318C213.54 160.318 213.208 159.987 213.208 159.323C213.208 158.659 213.208 157.995 213.871 157.995C214.203 157.663 214.534 158.327 214.534 158.991Z" fill="#0B82E0"/>
<path d="M217.851 171.936C217.851 172.599 217.851 173.263 217.188 173.263C216.856 173.263 216.524 172.931 216.524 172.268C216.524 171.604 216.524 170.94 217.188 170.94C217.519 170.608 217.851 171.272 217.851 171.936Z" fill="#0B82E0"/>
<path d="M418.458 375.404C420.447 368.433 427.079 364.118 433.379 365.778C439.679 367.438 443.326 374.74 441.005 381.71C439.016 388.681 432.384 392.996 426.084 391.336C420.115 389.676 416.468 382.706 418.458 375.404Z" fill="#5F1D16"/>
<path d="M429.4 388.681C428.737 388.681 428.074 388.681 427.411 388.349C425.421 387.685 423.432 386.357 422.437 384.034C421.442 381.71 421.111 379.055 421.774 376.4C423.1 372.085 426.747 369.097 430.726 369.097C431.39 369.097 432.053 369.097 432.716 369.429C434.705 370.093 436.695 371.421 437.69 373.744C438.684 376.068 439.016 378.723 438.353 381.379C436.695 385.362 433.379 388.681 429.4 388.681Z" fill="#9FD8D4"/>
<path opacity="0.5" d="M418.127 302.381C418.127 303.045 417.463 303.709 416.8 303.709H374.358C373.694 303.709 373.031 303.045 373.031 302.381C373.031 301.717 373.694 301.053 374.358 301.053H416.8C417.463 301.053 418.127 301.717 418.127 302.381Z" fill="#CE615A"/>
<path d="M418.126 303.045H412.821L411.163 293.419C411.163 293.419 389.942 290.432 378.668 294.415L378.336 303.045H372.699L373.362 293.751L373.694 289.104C373.694 289.104 402.542 285.453 416.8 289.104L417.131 292.423L418.126 303.045Z" fill="#9B3C36"/>
<path d="M418.126 303.045H412.821L411.163 293.419C411.163 293.419 389.942 290.432 378.668 294.415L378.336 303.045H372.699L373.362 293.751C377.01 292.424 384.968 290.1 395.578 290.1C405.194 290.432 413.152 291.76 417.131 292.424L418.126 303.045Z" fill="#872D2B"/>
<path d="M44.1006 251.265L44.4322 253.257C44.1006 252.593 44.1006 251.929 44.1006 251.265Z" fill="#A89E9E"/>
<path d="M385.963 241.639C387.952 245.291 389.279 248.278 389.279 248.942C388.616 246.286 387.289 243.631 385.963 241.639Z" fill="#B9B0B0"/>
<path d="M366.068 317.317L379.332 318.977L373.695 374.076L366.068 370.425V317.317Z" fill="#FFC10D"/>
</svg>
