<svg width="94" height="93" viewBox="0 0 94 93" fill="none" xmlns="http://www.w3.org/2000/svg">
<path d="M73.8787 77.9875L13.9307 20.1575C13.2619 19.5123 13.4196 18.412 14.2245 17.9791L31.8476 8.63385C34.6112 7.19677 38.1319 7.78572 40.5173 10.0869L82.987 51.0561C85.3947 53.3787 86.1098 56.8759 84.7292 59.6903L76.0236 77.638C75.6416 78.4356 74.5475 78.6327 73.8787 77.9875Z" fill="#FF9534"/>
<path d="M13.1634 22.9147C19.205 28.7429 71.64 79.3253 71.64 79.3253L63.4026 92.326L58.0521 87.1646L64.9149 80.0505L57.1158 86.2613L46.7715 76.2825L50.6687 68.9855L45.2735 74.5783L33.4132 63.137L40.0385 56.269L32.5812 61.9025L30.7308 60.1175L32.5251 57.0975L29.3522 59.0035L22.2182 52.1215L14.8835 45.046L20.3567 37.4985L11.6106 42.1479L4.76639 35.5455L6.8808 31.9705L3.38418 34.2121L0.106989 31.0507L13.1634 22.9147Z" fill="#FF9534"/>
</svg>
