<svg width="52" height="46" viewBox="0 0 52 46" fill="none" xmlns="http://www.w3.org/2000/svg">
<path d="M46.3333 0.135742H5.6657C2.5232 0.135742 0.120117 2.50647 0.120117 5.60665V32.9612C0.120117 36.0613 2.5232 38.4321 5.6657 38.4321H17.4963C16.9417 40.4381 15.0932 41.7146 13.0598 41.7146C11.9507 41.7146 11.2113 42.4441 11.2113 43.5382C11.2113 44.6324 11.9507 45.3619 13.0598 45.3619H38.9392C40.0483 45.3619 40.7877 44.6324 40.7877 43.5382C40.7877 42.4441 40.0483 41.7146 38.9392 41.7146C36.9058 41.7146 35.0573 40.4381 34.3179 38.4321H46.3333C49.4758 38.4321 51.8789 36.0613 51.8789 32.9612V5.60665C51.8789 2.50647 49.4758 0.135742 46.3333 0.135742Z" fill="white"/>
</svg>
