<svg width="48" height="40" viewBox="0 0 48 40" fill="none" xmlns="http://www.w3.org/2000/svg">
<path d="M22.062 19.7733C21.378 18.317 21 16.6548 21 14.8148C21 12.9748 21.378 11.1274 22.062 9.39407C22.7445 7.65926 23.733 6.03704 24.9555 4.64593C26.1765 3.2563 27.6315 2.09333 29.2455 1.28148C30.861 0.465185 32.637 0 34.5 0C36.363 0 38.139 0.373333 39.7545 1.04741C41.37 1.72296 42.8235 2.69926 44.0445 3.90519C45.264 5.11111 46.2555 6.54815 46.938 8.1437C47.6235 9.73778 48 11.4933 48 13.3333C48 15.1733 47.622 16.9289 46.938 18.523C46.2555 20.1185 45.267 21.5556 44.0445 22.7615C42.825 23.9674 25.6155 39.3244 24 40C22.3845 39.3244 5.175 23.9674 3.954 22.7615C2.733 21.5556 1.7445 20.1185 1.0605 18.523C0.378 16.9289 0 15.1733 0 13.3333C0 11.4933 0.378 9.73778 1.0605 8.1437C1.7445 6.54815 2.7315 5.11111 3.954 3.90519C5.175 2.69926 6.63 1.72296 8.2455 1.04741C9.8595 0.373333 11.6355 0 13.5 0C15.3645 0 17.1405 0.465185 18.7545 1.27852C20.37 2.09333 21.8235 3.25481 23.046 4.64444C24.267 6.03556 25.2555 7.65778 25.9395 9.39259C26.622 11.1274 27 12.9748 27 14.8148C27 16.6548 26.622 18.317 25.9395 19.7733C25.2555 21.2296 24.27 22.4815 23.046 23.5037" fill="white"/>
</svg>
