<svg width="63" height="68" viewBox="0 0 63 68" fill="none" xmlns="http://www.w3.org/2000/svg">
<path fill-rule="evenodd" clip-rule="evenodd" d="M16.2711 0.123519C15.8567 0.23444 1.68025 10.37 0.816037 11.1732C0.637132 11.3395 0.375985 11.6986 0.235531 11.9713C-0.0137338 12.4556 -0.0189408 13.1045 0.0148375 39.391L0.0495504 66.3146L0.450084 66.8795C0.670377 67.1902 1.09094 67.5694 1.38466 67.7222L1.9187 68H31.5582H61.1976L61.7885 67.601C62.1315 67.3695 62.5096 66.9561 62.6897 66.6159L63 66.0296L62.9971 39.2846C62.9943 13.5357 62.9849 12.5196 62.7469 12.0074C62.611 11.7148 62.3268 11.3185 62.1156 11.1265C61.5551 10.6174 47.6553 0.579972 47.1596 0.326342C46.501 -0.0105444 45.7791 -0.071325 45.141 0.156369C44.8271 0.268355 41.639 2.48439 38.0316 5.09822L31.4914 9.83684L24.9343 5.08585C17.6751 -0.173734 17.5817 -0.2272 16.2711 0.123519ZM13.0669 18.3248V20.9848H10.4634H7.85995V18.3248V15.6649H10.4634H13.0669V18.3248ZM26.2539 18.2916L26.2177 20.9183H23.6142H21.0108L20.9746 18.2916L20.9384 15.6649H23.6142H26.2901L26.2539 18.2916ZM42.0082 18.2916L41.972 20.9183H39.3685H36.7651L36.7289 18.2916L36.6927 15.6649H39.3685H42.0444L42.0082 18.2916ZM55.1229 18.3248V20.9848H52.5194H49.9159V18.3248V15.6649H52.5194H55.1229V18.3248ZM13.0669 31.4253V34.0187H10.4634H7.85995V31.4253V28.8318H10.4634H13.0669V31.4253ZM26.2845 31.4253V34.0187H23.6142H20.944V31.4253V28.8318H23.6142H26.2845V31.4253ZM42.0388 31.4253V34.0187H39.3685H36.6983V31.4253V28.8318H39.3685H42.0388V31.4253ZM55.1229 31.4253V34.0187H52.5194H49.9159V31.4253V28.8318H52.5194H55.1229V31.4253ZM13.0669 44.5257V47.1856H10.4634H7.85995V44.5257V41.8657H10.4634H13.0669V44.5257ZM26.2539 44.4924L26.2177 47.1191H23.6142H21.0108L20.9746 44.4924L20.9384 41.8657H23.6142H26.2901L26.2539 44.4924ZM42.0082 44.4924L41.972 47.1191H39.3685H36.7651L36.7289 44.4924L36.6927 41.8657H39.3685H42.0444L42.0082 44.4924ZM55.1229 44.5257V47.1856H52.5194H49.9159V44.5257V41.8657H52.5194H55.1229V44.5257ZM13.0669 57.5596V60.2196H10.4634H7.85995V57.5596V54.8996H10.4634H13.0669V57.5596ZM26.2539 57.5928L26.2901 60.2196H23.6171H20.944V57.6483C20.944 56.234 20.9853 55.0358 21.0359 54.9855C21.0864 54.9352 22.2729 54.9102 23.6727 54.93L26.2177 54.9661L26.2539 57.5928ZM42.0082 57.5928L42.0444 60.2196H39.3714H36.6983V57.6483C36.6983 56.234 36.7396 55.0358 36.7902 54.9855C36.8406 54.9352 38.0272 54.9102 39.427 54.93L41.972 54.9661L42.0082 57.5928ZM55.1229 57.5596V60.2196H52.5194H49.9159V57.5596V54.8996H52.5194H55.1229V57.5596Z" fill="#2196F3"/>
</svg>
