<svg width="92" height="92" viewBox="0 0 92 92" fill="none" xmlns="http://www.w3.org/2000/svg">
<path fill-rule="evenodd" clip-rule="evenodd" d="M1.82487 21.9565C1.27616 22.3275 0.698933 23.5044 0.727575 24.1939C0.74281 24.5638 1.68824 27.6595 3.47055 33.176C6.02431 41.0805 6.21611 41.6218 6.61677 42.0556C7.11334 42.5933 7.8789 42.9861 8.48837 43.0161C8.78644 43.0308 17.6703 40.2117 37.6205 33.7721C61.4211 26.0895 66.3888 24.4513 66.7036 24.1818C67.2054 23.752 67.6347 22.7311 67.6058 22.0356C67.5931 21.7284 67.173 20.2067 66.6723 18.6543L65.7622 15.8317L67.0981 15.4434L68.434 15.055L70.2503 20.6819L72.0666 26.3086L56.7915 35.4476C43.0251 43.684 41.4715 44.6453 41.0624 45.1808C40.247 46.2481 40.2671 46.4056 41.845 51.3056L43.2245 55.5893L42.6377 55.9686C41.8635 56.4688 41.4246 57.127 41.3081 57.9627C41.2139 58.6386 41.2436 58.739 44.852 69.9177L48.4909 81.191L49 81.6876C49.2798 81.9607 49.8281 82.2834 50.2181 82.4049L50.9274 82.6257L54.2699 81.594C57.606 80.5644 57.6133 80.5614 58.2 79.9951C58.9279 79.2926 59.2125 78.362 59.0127 77.3382C58.9349 76.9395 57.2844 71.7618 55.3449 65.8323C52.1264 55.9924 51.7867 55.0211 51.4521 54.7046C50.9009 54.1833 49.9085 53.8099 49.1734 53.8473L48.5181 53.8806L47.5747 50.9554L46.6311 48.0301L61.6148 39.0818C69.8559 34.1603 76.8335 29.9515 77.1207 29.7288C77.764 29.2303 78.2356 28.2248 78.1967 27.435C78.1768 27.0309 77.2841 24.1464 75.3997 18.3966C72.3338 9.04206 72.5415 9.52196 71.3268 8.98211C70.4267 8.58209 70.0359 8.63955 66.9437 9.6254L64.056 10.5461L63.1233 7.66125C62.2299 4.89758 62.1673 4.7512 61.6356 4.17799C61.2513 3.76366 60.8652 3.51946 60.3801 3.38386L59.6795 3.18811L30.9545 12.4355C13.0789 18.1902 2.07672 21.7863 1.82487 21.9565Z" fill="#FF9534"/>
</svg>
