<svg width="76" height="71" viewBox="0 0 76 71" fill="none" xmlns="http://www.w3.org/2000/svg">
<path d="M43.1808 0H43.1791C22.9227 0 10.1666 6.98194 11.0236 12.5901C11.2671 14.1901 11.9507 18.5516 12.8126 24.0409C2.88581 27.8947 -0.401654 34.146 0.0383809 39.2391C0.560148 45.2716 5.98587 51.7293 17.904 52.8438C24.7084 53.4795 32.8949 49.7495 38.1984 43.3736C37.694 42.5158 37.4001 41.5201 37.4001 40.4535C37.4001 37.2626 39.9858 34.6744 43.1791 34.6744C46.37 34.6744 48.9582 37.2626 48.9582 40.4535C48.9582 43.599 46.441 46.1541 43.3112 46.2268C36.9939 54.3703 27.3816 59.2825 18.2746 58.712C18.486 60.0553 18.5661 60.563 18.6709 61.2425C19.0457 63.6292 28.3608 70.9868 43.1791 71H43.1808C58.0008 70.9868 67.3158 63.6292 67.6882 61.2425C68.0572 58.8673 74.467 18.285 75.3364 12.5901C76.1941 6.98194 63.4364 0 43.1808 0ZM5.79599 38.7421C5.5673 36.0919 7.67171 32.5618 13.7364 29.9116C14.6091 35.4455 15.5568 41.4582 16.3882 46.737C9.76786 45.4342 6.07586 41.9841 5.79599 38.7421ZM43.1791 21.1539C28.3591 21.144 17.847 15.6406 17.847 13.5882C17.8387 11.5449 28.3616 6.03583 43.1791 6.04491C57.9975 6.03583 68.5204 11.5449 68.5137 13.5882C68.5137 15.6406 58.0008 21.144 43.1791 21.1539Z" fill="#2196F3"/>
</svg>
