<svg width="159" height="41" viewBox="0 0 159 41" fill="none" xmlns="http://www.w3.org/2000/svg">
<path d="M48.3107 21.7855C48.2254 21.6999 48.1934 21.6144 48.1934 21.5075V11.0931C48.1934 10.9755 48.2254 10.8793 48.3 10.7938C48.3747 10.7082 48.4706 10.6761 48.588 10.6761H56.3305C56.4478 10.6761 56.5438 10.7189 56.6291 10.7938C56.7145 10.8686 56.7464 10.9755 56.7464 11.0931V12.7825C56.7464 12.9002 56.7038 12.9964 56.6291 13.0819C56.5545 13.1675 56.4478 13.1995 56.3305 13.1995H51.2008V14.9852H53.3444C54.6348 14.9852 55.648 15.2845 56.4052 15.894C57.1517 16.5035 57.525 17.3375 57.525 18.396C57.525 19.0696 57.365 19.6684 57.0344 20.203C56.7038 20.7376 56.2345 21.1546 55.6053 21.454C54.9761 21.7641 54.2189 21.9138 53.3444 21.9138H48.5986C48.4813 21.9031 48.3853 21.8603 48.3107 21.7855ZM53.0671 19.7325C53.4831 19.7325 53.803 19.6042 54.0483 19.3369C54.2829 19.0803 54.4002 18.7489 54.4002 18.3639C54.4002 17.9897 54.2829 17.6796 54.0589 17.4337C53.8243 17.1878 53.5044 17.0702 53.0778 17.0702H51.2115V19.7325H53.0671Z" fill="#1E1E1E"/>
<path d="M59.6476 21.7853C59.5623 21.6998 59.5303 21.6142 59.5303 21.5073V11.093C59.5303 10.9753 59.5623 10.8791 59.6369 10.7936C59.7116 10.708 59.8076 10.676 59.9249 10.676H67.4755C67.5928 10.676 67.6888 10.7187 67.7741 10.7936C67.8594 10.8684 67.8914 10.9753 67.8914 11.093V12.6861C67.8914 12.8037 67.8487 12.9 67.7741 12.9748C67.6888 13.0497 67.5928 13.0817 67.4755 13.0817H62.4204V15.1133H67.1235C67.2409 15.1133 67.3368 15.1561 67.4222 15.2309C67.5075 15.3057 67.5395 15.4127 67.5395 15.5303V16.9844C67.5395 17.1021 67.4968 17.1983 67.4222 17.2838C67.3475 17.3694 67.2409 17.4014 67.1235 17.4014H62.4204V19.4971H67.6141C67.7314 19.4971 67.8274 19.5399 67.9127 19.6148C67.998 19.6896 68.03 19.7965 68.03 19.9141V21.5073C68.03 21.6249 67.9874 21.7211 67.9127 21.796C67.8274 21.8708 67.7314 21.9029 67.6141 21.9029H59.9355C59.8289 21.9029 59.7329 21.8601 59.6476 21.7853Z" fill="#1E1E1E"/>
<path d="M77.8415 21.7853C77.7562 21.6998 77.7242 21.6142 77.7242 21.5073V13.3597H74.8447V14.707C74.8447 16.5247 74.7274 17.9361 74.4928 18.9411C74.2581 19.9462 73.8209 20.684 73.1917 21.1651C72.5518 21.6463 71.6346 21.8922 70.4188 21.9136C70.3122 21.9136 70.2162 21.8708 70.1309 21.7853C70.0456 21.6998 70.0029 21.6035 70.0029 21.4966V19.7217C70.0029 19.4971 70.1309 19.3581 70.4082 19.3047C70.9734 19.2084 71.368 18.738 71.6133 17.8933C71.8479 17.0486 71.9652 15.8617 71.9652 14.3327V11.0716C71.9652 10.954 72.0079 10.8577 72.0825 10.7829C72.1679 10.708 72.2638 10.676 72.3812 10.676H80.3264C80.4437 10.676 80.5396 10.7187 80.625 10.7936C80.7103 10.8684 80.7423 10.9753 80.7423 11.093V21.5073C80.7423 21.6249 80.6996 21.7211 80.625 21.796C80.5396 21.8708 80.4437 21.9029 80.3264 21.9029H78.1401C78.0121 21.9029 77.9161 21.8601 77.8415 21.7853Z" fill="#1E1E1E"/>
<path d="M82.843 21.7962C82.7683 21.732 82.7363 21.6465 82.7363 21.5609C82.7363 21.4968 82.7363 21.4433 82.7577 21.4113L86.4903 11.1359C86.597 10.8259 86.8102 10.6655 87.1302 10.6655H89.6257C89.9457 10.6655 90.159 10.8259 90.2656 11.1359L93.9983 21.4113C94.0089 21.4433 94.0089 21.4968 94.0089 21.5609C94.0089 21.6465 93.9769 21.7213 93.9023 21.7962C93.8276 21.871 93.753 21.9031 93.6676 21.9031H91.588C91.3321 21.9031 91.1508 21.7855 91.0441 21.5503L90.4682 19.9892H86.277L85.7011 21.5503C85.5945 21.7855 85.4132 21.9031 85.1572 21.9031H83.0776C82.9923 21.9031 82.9176 21.871 82.843 21.7962ZM86.9489 17.5834H89.7964L88.3673 13.4989L86.9489 17.5834Z" fill="#1E1E1E"/>
<path d="M105.015 10.7828C105.09 10.8576 105.122 10.9539 105.122 11.0715V21.4965C105.122 21.6034 105.079 21.6997 105.015 21.7745C104.94 21.86 104.844 21.8921 104.727 21.8921H102.541C102.434 21.8921 102.338 21.8493 102.264 21.7745C102.189 21.6997 102.146 21.6034 102.146 21.4965V18.075H100.866L99.0534 21.4644C98.8935 21.7531 98.6695 21.8921 98.3816 21.8921H96.142C96.046 21.8921 95.9607 21.86 95.8967 21.7852C95.822 21.721 95.79 21.6355 95.79 21.55C95.79 21.4965 95.8007 21.4323 95.8327 21.3789L98.0083 17.6366C97.3897 17.3479 96.9098 16.9202 96.5579 16.3642C96.206 15.7975 96.0353 15.1453 96.0353 14.3968C96.0353 13.6697 96.206 13.0282 96.5472 12.4508C96.8885 11.8841 97.3897 11.4457 98.051 11.1249C98.7122 10.8149 99.5014 10.6545 100.419 10.6545H104.727C104.834 10.6759 104.93 10.7079 105.015 10.7828ZM102.136 12.9854H100.483C100.067 12.9854 99.736 13.1137 99.5014 13.381C99.2667 13.6483 99.1494 13.9905 99.1494 14.4182C99.1494 14.8459 99.2561 15.1773 99.4907 15.4019C99.7146 15.6371 100.045 15.744 100.483 15.744H102.136V12.9854Z" fill="#1E1E1E"/>
<path d="M113.301 20.9515C112.427 20.2137 111.968 19.1338 111.915 17.7117C111.904 17.423 111.904 16.9525 111.904 16.3003C111.904 15.6374 111.904 15.1562 111.915 14.8568C111.968 13.4668 112.438 12.3976 113.312 11.6385C114.197 10.8793 115.381 10.5051 116.885 10.5051C117.834 10.5051 118.687 10.6655 119.434 10.9755C120.18 11.2856 120.777 11.7347 121.215 12.3228C121.652 12.9108 121.876 13.6058 121.908 14.4078C121.908 14.504 121.876 14.5788 121.801 14.6537C121.726 14.7178 121.652 14.7499 121.556 14.7499H119.284C119.135 14.7499 119.028 14.7178 118.954 14.6644C118.879 14.6109 118.826 14.4933 118.772 14.3329C118.623 13.809 118.399 13.4455 118.09 13.2316C117.781 13.0285 117.386 12.9215 116.885 12.9215C115.68 12.9215 115.05 13.5951 115.018 14.9424C115.008 15.2311 114.997 15.6802 114.997 16.2789C114.997 16.8777 114.997 17.3375 115.018 17.6475C115.061 18.9948 115.68 19.6684 116.885 19.6684C117.375 19.6684 117.781 19.5615 118.09 19.3476C118.399 19.1338 118.634 18.7702 118.772 18.257C118.815 18.0966 118.868 17.9897 118.943 17.9255C119.018 17.8721 119.124 17.84 119.284 17.84H121.556C121.652 17.84 121.737 17.8721 121.801 17.9362C121.865 18.0004 121.908 18.0859 121.908 18.1822C121.886 18.9841 121.652 19.6791 121.215 20.2672C120.777 20.8552 120.18 21.3043 119.434 21.6144C118.687 21.9245 117.834 22.0849 116.885 22.0849C115.37 22.0635 114.176 21.6892 113.301 20.9515Z" fill="#1E1E1E"/>
<path d="M125.406 20.9514C124.531 20.2137 124.062 19.1338 124.019 17.701C124.009 17.4016 124.009 16.9418 124.009 16.3217C124.009 15.7015 124.009 15.2417 124.019 14.9317C124.062 13.5203 124.531 12.4297 125.416 11.6705C126.302 10.9114 127.496 10.5264 128.989 10.5264C130.471 10.5264 131.655 10.9114 132.551 11.6705C133.436 12.4404 133.906 13.5203 133.948 14.9317C133.969 15.5518 133.98 16.0223 133.98 16.3217C133.98 16.6424 133.969 17.1022 133.948 17.701C133.895 19.1338 133.436 20.2137 132.562 20.9514C131.687 21.6892 130.503 22.0635 128.989 22.0635C127.475 22.0635 126.28 21.6892 125.406 20.9514ZM130.312 19.1551C130.642 18.8237 130.813 18.2998 130.834 17.6048C130.855 16.9846 130.866 16.5462 130.866 16.2789C130.866 16.0116 130.855 15.5839 130.834 14.9851C130.813 14.2901 130.631 13.7769 130.312 13.4347C129.981 13.1033 129.533 12.9322 128.978 12.9322C128.413 12.9322 127.965 13.1033 127.635 13.4347C127.304 13.7662 127.123 14.2901 127.112 14.9851C127.101 15.2845 127.091 15.7229 127.091 16.2789C127.091 16.8563 127.091 17.3054 127.112 17.6048C127.133 18.2998 127.304 18.813 127.635 19.1551C127.965 19.4866 128.413 19.6577 128.978 19.6577C129.544 19.6577 129.981 19.4866 130.312 19.1551Z" fill="#1E1E1E"/>
<path d="M136.71 21.7853C136.625 21.6998 136.593 21.6142 136.593 21.5073V11.093C136.593 10.9753 136.625 10.8791 136.699 10.7936C136.774 10.708 136.87 10.676 136.987 10.676H141.925C143.28 10.676 144.282 10.954 144.954 11.51C145.615 12.066 145.946 12.8572 145.946 13.8837C145.946 14.3969 145.807 14.846 145.54 15.2202C145.274 15.5944 144.965 15.8724 144.634 16.0328C145.071 16.2253 145.434 16.5461 145.732 16.9844C146.031 17.4335 146.18 17.9254 146.18 18.4814C146.18 19.5613 145.828 20.406 145.114 21.0048C144.399 21.6035 143.386 21.9029 142.064 21.9029H136.977C136.881 21.9029 136.785 21.8601 136.71 21.7853ZM141.595 15.1133C141.989 15.1133 142.288 15.0064 142.501 14.7925C142.714 14.5787 142.821 14.3007 142.821 13.9585C142.821 13.627 142.714 13.3597 142.512 13.1459C142.298 12.9427 142 12.8358 141.595 12.8358H139.59V15.1133H141.595ZM141.733 19.7324C142.149 19.7324 142.469 19.6148 142.704 19.3688C142.928 19.1229 143.045 18.8342 143.045 18.4814C143.045 18.1178 142.928 17.8184 142.693 17.5725C142.458 17.3266 142.138 17.209 141.733 17.209H139.59V19.7217H141.733V19.7324Z" fill="#1E1E1E"/>
<path d="M147.844 21.7959C147.769 21.7318 147.737 21.6462 147.737 21.5607C147.737 21.4966 147.737 21.4431 147.748 21.411L151.481 11.1357C151.587 10.8256 151.801 10.6652 152.12 10.6652H154.616C154.936 10.6652 155.149 10.8256 155.256 11.1357L158.989 21.411C158.999 21.4431 158.999 21.4966 158.999 21.5607C158.999 21.6462 158.967 21.7211 158.893 21.7959C158.818 21.8708 158.743 21.9029 158.658 21.9029H156.578C156.322 21.9029 156.141 21.7852 156.034 21.55L155.459 19.9889H151.267L150.691 21.55C150.585 21.7852 150.403 21.9029 150.148 21.9029H148.068C147.983 21.9029 147.908 21.8708 147.844 21.7959ZM151.939 17.5832H154.787L153.368 13.4987L151.939 17.5832Z" fill="#1E1E1E"/>
<path d="M52.5134 31.5162C52.5134 31.5697 52.4921 31.6232 52.4601 31.6659C52.4281 31.7087 52.3747 31.7301 52.3214 31.7301H51.8842C51.7882 31.7301 51.7135 31.6873 51.6602 31.6018L50.0178 29.0677H48.9834V31.5162C48.9834 31.5697 48.962 31.6232 48.9194 31.6552C48.8767 31.6873 48.8341 31.7087 48.7701 31.7087H48.3648C48.3115 31.7087 48.2582 31.6873 48.2262 31.6552C48.1942 31.6232 48.1729 31.5697 48.1729 31.5162V25.9562C48.1729 25.8921 48.1942 25.8493 48.2262 25.8065C48.2582 25.7744 48.3008 25.7531 48.3648 25.7531H48.7701C48.8341 25.7531 48.8767 25.7744 48.9194 25.8065C48.9514 25.8386 48.9727 25.8921 48.9727 25.9562V28.3192L49.9539 28.3299L51.4789 25.8814C51.5429 25.7958 51.6389 25.7424 51.7775 25.7424H52.2041C52.2574 25.7424 52.3001 25.7531 52.3321 25.7851C52.3641 25.8172 52.3747 25.86 52.3747 25.9134C52.3747 25.9455 52.3641 25.9776 52.3321 26.0204L50.7004 28.6293L52.5027 31.4093C52.5134 31.4307 52.5134 31.4628 52.5134 31.5162Z" fill="#2196F3"/>
<path d="M57.3235 31.666C57.2915 31.6339 57.2702 31.5804 57.2702 31.527V26.5016H55.1372V27.9023C55.1372 28.8111 55.0732 29.5489 54.9453 30.0942C54.8173 30.6395 54.6147 31.0351 54.3374 31.2917C54.0601 31.5484 53.6975 31.6874 53.2496 31.7194C53.1963 31.7301 53.1429 31.7087 53.1109 31.666C53.0789 31.6232 53.0576 31.5804 53.0576 31.5163V31.1527C53.0576 31.0993 53.0683 31.0565 53.1003 31.0244C53.1323 30.9924 53.1749 30.971 53.2283 30.9603C53.6015 30.9068 53.8788 30.6395 54.0708 30.137C54.2627 29.6451 54.3587 28.8539 54.3587 27.7953V25.9563C54.3587 25.8921 54.38 25.8493 54.412 25.8066C54.444 25.7745 54.4974 25.7531 54.5507 25.7531H57.8674C57.9314 25.7531 57.974 25.7745 58.0167 25.8066C58.0487 25.8387 58.07 25.8921 58.07 25.9563V31.5163C58.07 31.5697 58.0487 31.6232 58.006 31.6553C57.9634 31.6874 57.9207 31.7087 57.8567 31.7087H57.4515C57.3982 31.7194 57.3555 31.698 57.3235 31.666Z" fill="#2196F3"/>
<path d="M59.6051 31.666C59.5731 31.6339 59.5518 31.5805 59.5518 31.5163V25.967C59.5518 25.9029 59.5731 25.8601 59.6051 25.8173C59.6371 25.7852 59.6904 25.7639 59.7544 25.7639H60.1596C60.213 25.7639 60.2663 25.7852 60.2983 25.8173C60.3303 25.8494 60.3516 25.9029 60.3516 25.967V30.415L63.551 25.8815C63.5937 25.8066 63.6683 25.7639 63.7536 25.7639H64.1482C64.2016 25.7639 64.2549 25.7852 64.2869 25.8173C64.3189 25.8494 64.3402 25.9029 64.3402 25.967V31.527C64.3402 31.5805 64.3189 31.6339 64.2869 31.666C64.2549 31.6981 64.2016 31.7195 64.1482 31.7195H63.743C63.6897 31.7195 63.6363 31.6981 63.5937 31.666C63.551 31.6339 63.5297 31.5805 63.5297 31.527V27.1111L60.3409 31.6019C60.2983 31.6767 60.2236 31.7195 60.1383 31.7195H59.7331C59.6904 31.7195 59.6371 31.6981 59.6051 31.666Z" fill="#2196F3"/>
<path d="M65.8981 31.666C65.8661 31.6339 65.8447 31.5805 65.8447 31.527V25.967C65.8447 25.9029 65.8661 25.8601 65.8981 25.8173C65.93 25.7852 65.9727 25.7639 66.0367 25.7639H66.4419C66.5059 25.7639 66.5486 25.7852 66.5913 25.8173C66.6232 25.8494 66.6446 25.9029 66.6446 25.967V28.33H69.5987V25.967C69.5987 25.9029 69.62 25.8601 69.652 25.8173C69.684 25.7852 69.7373 25.7639 69.7907 25.7639H70.1959C70.2599 25.7639 70.3026 25.7852 70.3452 25.8173C70.3772 25.8494 70.3985 25.9029 70.3985 25.967V31.527C70.3985 31.5805 70.3772 31.6339 70.3346 31.666C70.2919 31.6981 70.2492 31.7195 70.1853 31.7195H69.78C69.7267 31.7195 69.6734 31.6981 69.6414 31.666C69.6094 31.6339 69.588 31.5805 69.588 31.527V29.0785H66.6339V31.527C66.6339 31.5805 66.6126 31.6339 66.5699 31.666C66.5273 31.6981 66.4846 31.7195 66.4206 31.7195H66.0154C65.9727 31.7195 65.93 31.6981 65.8981 31.666Z" fill="#2196F3"/>
<path d="M71.9449 31.666C71.9129 31.6339 71.8916 31.5805 71.8916 31.5163V25.967C71.8916 25.9029 71.9129 25.8601 71.9449 25.8173C71.9769 25.7852 72.0302 25.7639 72.0942 25.7639H72.4995C72.5528 25.7639 72.6061 25.7852 72.6381 25.8173C72.6701 25.8494 72.6915 25.9029 72.6915 25.967V30.415L75.8909 25.8815C75.9335 25.8066 76.0082 25.7639 76.0935 25.7639H76.4881C76.5414 25.7639 76.5947 25.7852 76.6267 25.8173C76.6587 25.8494 76.6801 25.9029 76.6801 25.967V31.527C76.6801 31.5805 76.6587 31.6339 76.6267 31.666C76.5947 31.6981 76.5414 31.7195 76.4881 31.7195H76.0828C76.0295 31.7195 75.9762 31.6981 75.9335 31.666C75.8909 31.6339 75.8695 31.5805 75.8695 31.527V27.1111L72.6808 31.6019C72.6381 31.6767 72.5635 31.7195 72.4782 31.7195H72.0729C72.0196 31.7195 71.9769 31.6981 71.9449 31.666Z" fill="#2196F3"/>
<path d="M78.2262 31.666C78.1942 31.6339 78.1729 31.5805 78.1729 31.527V25.967C78.1729 25.9029 78.1942 25.8601 78.2262 25.8173C78.2582 25.7852 78.3008 25.7639 78.3648 25.7639H78.7701C78.8341 25.7639 78.8767 25.7852 78.9194 25.8173C78.9514 25.8494 78.9727 25.9029 78.9727 25.967V28.33H81.9268V25.967C81.9268 25.9029 81.9482 25.8601 81.9802 25.8173C82.0121 25.7852 82.0655 25.7639 82.1188 25.7639H82.524C82.588 25.7639 82.6307 25.7852 82.6734 25.8173C82.7053 25.8494 82.7267 25.9029 82.7267 25.967V31.527C82.7267 31.5805 82.7053 31.6339 82.6627 31.666C82.62 31.6981 82.5774 31.7195 82.5134 31.7195H82.1188C82.0655 31.7195 82.0121 31.6981 81.9802 31.666C81.9482 31.6339 81.9268 31.5805 81.9268 31.527V29.0785H78.9727V31.527C78.9727 31.5805 78.9514 31.6339 78.9087 31.666C78.8661 31.6981 78.8234 31.7195 78.7594 31.7195H78.3542C78.3008 31.7195 78.2582 31.6981 78.2262 31.666Z" fill="#2196F3"/>
<path d="M84.2731 31.666C84.2411 31.6339 84.2197 31.5805 84.2197 31.527V25.967C84.2197 25.9029 84.2411 25.8601 84.2731 25.8173C84.305 25.7852 84.3477 25.7639 84.4117 25.7639H87.6644C87.7284 25.7639 87.7711 25.7852 87.8137 25.8173C87.8457 25.8494 87.8671 25.9029 87.8671 25.967V26.2771C87.8671 26.3305 87.8457 26.384 87.8137 26.4161C87.7817 26.4482 87.7284 26.4695 87.6644 26.4695H85.0196V31.5163C85.0196 31.5698 84.9982 31.6233 84.9556 31.6553C84.9129 31.6874 84.8703 31.7088 84.8063 31.7088H84.401C84.3477 31.7195 84.305 31.6981 84.2731 31.666Z" fill="#2196F3"/>
<path d="M88.9543 31.2165C88.549 30.8316 88.3357 30.2435 88.3144 29.463C88.3037 29.2919 88.3037 29.0566 88.3037 28.7359C88.3037 28.4258 88.3037 28.1906 88.3144 28.0195C88.3357 27.2496 88.5597 26.6616 88.9756 26.2659C89.3915 25.8703 89.9567 25.6672 90.6606 25.6672C91.3645 25.6672 91.9297 25.8703 92.3456 26.2659C92.7616 26.6616 92.9748 27.2496 92.9962 28.0195C93.0068 28.3509 93.0175 28.5862 93.0175 28.7359C93.0175 28.8749 93.0068 29.1208 92.9962 29.463C92.9748 30.2435 92.7616 30.8316 92.367 31.2165C91.9724 31.6014 91.3965 31.8046 90.6606 31.8046C89.9247 31.8046 89.3488 31.6121 88.9543 31.2165ZM91.7484 30.6819C92.015 30.4039 92.1643 29.9869 92.1857 29.4202C92.1963 29.078 92.207 28.8535 92.207 28.7359C92.207 28.6076 92.1963 28.383 92.1857 28.0516C92.1643 27.4849 92.015 27.0572 91.7484 26.7792C91.4818 26.5012 91.1192 26.3622 90.6606 26.3622C90.2127 26.3622 89.8394 26.5012 89.5728 26.7792C89.2955 27.0572 89.1569 27.4849 89.1356 28.0516C89.1249 28.2119 89.1249 28.4472 89.1249 28.7359C89.1249 29.0246 89.1249 29.2491 89.1356 29.4202C89.1569 29.9869 89.2955 30.4146 89.5728 30.6819C89.8394 30.9599 90.2127 31.0989 90.6713 31.0989C91.1085 31.0989 91.4711 30.9599 91.7484 30.6819Z" fill="#2196F3"/>
<path d="M94.3189 31.666C94.287 31.6339 94.2656 31.5805 94.2656 31.527V25.967C94.2656 25.9029 94.287 25.8601 94.3189 25.8173C94.3509 25.7852 94.3936 25.7639 94.4576 25.7639H96.7718C97.3691 25.7639 97.8276 25.9135 98.1262 26.2022C98.4355 26.4909 98.5848 26.8652 98.5848 27.3356C98.5848 27.6564 98.5102 27.9237 98.3609 28.1269C98.2116 28.3407 98.0409 28.4904 97.8383 28.5866C98.0836 28.7042 98.2862 28.886 98.4462 29.1426C98.6062 29.3886 98.6915 29.6772 98.6915 29.998C98.6915 30.3188 98.6168 30.6075 98.4782 30.8641C98.3289 31.1207 98.1156 31.3346 97.8383 31.4843C97.5504 31.6339 97.2197 31.7195 96.8252 31.7195H94.4363C94.3936 31.7195 94.3509 31.6981 94.3189 31.666ZM96.6439 28.2872C97.0171 28.2872 97.2944 28.2017 97.4864 28.0413C97.6783 27.8702 97.7743 27.635 97.7743 27.3356C97.7743 27.0362 97.6783 26.8117 97.4864 26.662C97.2944 26.5123 97.0171 26.4375 96.6439 26.4375H95.0655V28.2979H96.6439V28.2872ZM96.7292 31.0459C97.0918 31.0459 97.3797 30.9496 97.5823 30.7572C97.785 30.5647 97.8916 30.3081 97.8916 30.0087C97.8916 29.6986 97.785 29.442 97.5823 29.2496C97.3797 29.0571 97.0918 28.9609 96.7292 28.9609H95.0655V31.0459H96.7292Z" fill="#2196F3"/>
<path d="M99.4059 31.666C99.3739 31.6339 99.3525 31.5911 99.3525 31.5484L99.3739 31.4521L101.485 25.9456C101.528 25.8173 101.624 25.7531 101.752 25.7531H102.296C102.435 25.7531 102.52 25.8173 102.563 25.9456L104.674 31.4521L104.696 31.5484C104.696 31.5911 104.674 31.6339 104.642 31.666C104.61 31.698 104.568 31.7194 104.514 31.7194H104.12C104.066 31.7194 104.013 31.7087 103.981 31.6767C103.949 31.6446 103.917 31.6125 103.906 31.5804L103.426 30.3508H100.611L100.142 31.5804C100.099 31.6767 100.024 31.7301 99.9284 31.7301H99.5232C99.4805 31.7194 99.4379 31.698 99.4059 31.666ZM100.856 29.6344H103.181L102.019 26.5764L100.856 29.6344Z" fill="#2196F3"/>
<path d="M109.644 25.8065C109.676 25.8386 109.697 25.8921 109.697 25.9455V31.5162C109.697 31.5697 109.676 31.6232 109.644 31.6552C109.612 31.6873 109.569 31.7087 109.505 31.7087H109.1C109.047 31.7087 108.993 31.6873 108.951 31.6552C108.908 31.6232 108.887 31.5697 108.887 31.5162V29.4419H107.703L106.402 31.4842C106.359 31.559 106.317 31.6232 106.263 31.6552C106.221 31.6873 106.157 31.7087 106.071 31.7087H105.698C105.655 31.7087 105.613 31.6873 105.581 31.6552C105.549 31.6232 105.527 31.5804 105.527 31.5376C105.527 31.5055 105.538 31.4735 105.549 31.4414L106.871 29.3564C106.476 29.2601 106.167 29.057 105.954 28.7576C105.741 28.4582 105.634 28.0733 105.634 27.6028C105.634 27.2714 105.709 26.972 105.847 26.6833C105.986 26.3946 106.199 26.1701 106.498 25.999C106.786 25.8279 107.138 25.7424 107.564 25.7424H109.505C109.569 25.7531 109.612 25.7744 109.644 25.8065ZM108.897 26.4481H107.639C107.276 26.4481 106.988 26.555 106.786 26.7688C106.572 26.9827 106.477 27.2714 106.477 27.6349C106.477 28.3727 106.871 28.7469 107.65 28.7469H108.908V26.4481H108.897Z" fill="#2196F3"/>
<path d="M117.611 31.5163C117.611 31.5697 117.59 31.6232 117.558 31.666C117.526 31.7087 117.472 31.7301 117.419 31.7301H116.982C116.886 31.7301 116.811 31.6874 116.758 31.6018L115.116 29.0784H114.081V31.527C114.081 31.5804 114.06 31.6339 114.017 31.666C113.974 31.698 113.932 31.7194 113.868 31.7194H113.462C113.409 31.7194 113.356 31.698 113.324 31.666C113.292 31.6339 113.271 31.5804 113.271 31.527V25.967C113.271 25.9028 113.292 25.86 113.324 25.8173C113.356 25.7852 113.398 25.7638 113.462 25.7638H113.868C113.932 25.7638 113.974 25.7852 114.017 25.8173C114.049 25.8493 114.07 25.9028 114.07 25.967V28.33L115.052 28.3407L116.577 25.8921C116.641 25.8066 116.737 25.7531 116.875 25.7531H117.302C117.355 25.7531 117.398 25.7638 117.43 25.7959C117.462 25.828 117.472 25.8707 117.472 25.9242C117.472 25.9563 117.462 25.9883 117.43 26.0311L115.798 28.64L117.6 31.42C117.611 31.4307 117.611 31.4628 117.611 31.5163Z" fill="#2196F3"/>
<path d="M118.794 31.2165C118.389 30.8316 118.176 30.2435 118.154 29.463C118.144 29.2919 118.144 29.0566 118.144 28.7359C118.144 28.4258 118.144 28.1906 118.154 28.0195C118.176 27.2496 118.399 26.6616 118.815 26.2659C119.231 25.8703 119.797 25.6672 120.5 25.6672C121.204 25.6672 121.77 25.8703 122.185 26.2659C122.601 26.6616 122.815 27.2496 122.836 28.0195C122.847 28.3509 122.857 28.5862 122.857 28.7359C122.857 28.8749 122.847 29.1208 122.836 29.463C122.815 30.2435 122.601 30.8316 122.207 31.2165C121.812 31.6014 121.236 31.8046 120.5 31.8046C119.765 31.8046 119.199 31.6121 118.794 31.2165ZM121.588 30.6819C121.855 30.4039 122.004 29.9869 122.025 29.4202C122.036 29.078 122.047 28.8535 122.047 28.7359C122.047 28.6076 122.036 28.383 122.025 28.0516C122.004 27.4849 121.855 27.0572 121.588 26.7792C121.322 26.5012 120.959 26.3622 120.5 26.3622C120.053 26.3622 119.679 26.5012 119.413 26.7792C119.135 27.0572 118.997 27.4849 118.975 28.0516C118.965 28.2119 118.965 28.4472 118.965 28.7359C118.965 29.0246 118.965 29.2491 118.975 29.4202C118.997 29.9869 119.135 30.4146 119.413 30.6819C119.679 30.9599 120.053 31.0989 120.511 31.0989C120.959 31.0989 121.322 30.9599 121.588 30.6819Z" fill="#2196F3"/>
<path d="M124.17 31.666C124.138 31.6339 124.116 31.5805 124.116 31.527V25.967C124.116 25.9029 124.138 25.8601 124.17 25.8173C124.202 25.7852 124.255 25.7639 124.319 25.7639H124.713C124.82 25.7639 124.884 25.8066 124.927 25.8922L126.74 29.3779L128.563 25.8922C128.606 25.8066 128.681 25.7639 128.766 25.7639H129.161C129.225 25.7639 129.267 25.7852 129.31 25.8173C129.342 25.8494 129.363 25.9029 129.363 25.967V31.527C129.363 31.5805 129.342 31.6339 129.31 31.666C129.278 31.6981 129.225 31.7195 129.171 31.7195H128.777C128.723 31.7195 128.67 31.6981 128.638 31.666C128.606 31.6339 128.585 31.5805 128.585 31.527V27.2929L127.134 30.1156C127.081 30.2332 126.985 30.2974 126.868 30.2974H126.612C126.494 30.2974 126.398 30.2332 126.345 30.1156L124.905 27.2929V31.527C124.905 31.5805 124.884 31.6339 124.852 31.666C124.82 31.6981 124.767 31.7195 124.713 31.7195H124.33C124.255 31.7195 124.202 31.6981 124.17 31.666Z" fill="#2196F3"/>
<path d="M130.899 31.666C130.867 31.6339 130.846 31.5805 130.846 31.527V25.967C130.846 25.9029 130.867 25.8601 130.899 25.8173C130.931 25.7852 130.974 25.7639 131.038 25.7639H135.208C135.272 25.7639 135.314 25.7852 135.357 25.8173C135.389 25.8494 135.41 25.9029 135.41 25.967V31.527C135.41 31.5805 135.389 31.6339 135.346 31.666C135.304 31.6981 135.261 31.7195 135.197 31.7195H134.792C134.738 31.7195 134.685 31.6981 134.653 31.666C134.621 31.6339 134.6 31.5805 134.6 31.527V26.5016H131.646V31.527C131.646 31.5805 131.624 31.6339 131.582 31.666C131.539 31.6981 131.496 31.7195 131.432 31.7195H131.027C130.974 31.7195 130.931 31.6981 130.899 31.666Z" fill="#2196F3"/>
<path d="M136.37 31.666C136.338 31.6339 136.316 31.5911 136.316 31.5484L136.338 31.4521L138.449 25.9456C138.492 25.8173 138.588 25.7531 138.716 25.7531H139.26C139.399 25.7531 139.484 25.8173 139.526 25.9456L141.638 31.4521L141.659 31.5484C141.659 31.5911 141.638 31.6339 141.606 31.666C141.574 31.698 141.531 31.7194 141.478 31.7194H141.084C141.03 31.7194 140.977 31.7087 140.945 31.6767C140.913 31.6446 140.881 31.6125 140.87 31.5804L140.39 30.3508H137.575L137.106 31.5804C137.063 31.6767 136.988 31.7301 136.892 31.7301H136.487C136.444 31.7194 136.402 31.698 136.37 31.666ZM137.82 29.6344H140.145L138.983 26.5764L137.82 29.6344Z" fill="#2196F3"/>
<path d="M142.62 31.666C142.588 31.6339 142.566 31.5805 142.566 31.527V25.967C142.566 25.9029 142.588 25.8601 142.62 25.8173C142.652 25.7852 142.694 25.7639 142.758 25.7639H143.164C143.228 25.7639 143.27 25.7852 143.313 25.8173C143.345 25.8494 143.366 25.9029 143.366 25.967V28.33H146.32V25.967C146.32 25.9029 146.342 25.8601 146.374 25.8173C146.406 25.7852 146.459 25.7639 146.512 25.7639H146.918C146.982 25.7639 147.024 25.7852 147.067 25.8173C147.099 25.8494 147.12 25.9029 147.12 25.967V31.527C147.12 31.5805 147.099 31.6339 147.056 31.666C147.014 31.6981 146.971 31.7195 146.907 31.7195H146.502C146.448 31.7195 146.395 31.6981 146.363 31.666C146.331 31.6339 146.31 31.5805 146.31 31.527V29.0785H143.356V31.527C143.356 31.5805 143.334 31.6339 143.292 31.666C143.249 31.6981 143.206 31.7195 143.142 31.7195H142.737C142.694 31.7195 142.652 31.6981 142.62 31.666Z" fill="#2196F3"/>
<path d="M148.667 31.666C148.635 31.6339 148.613 31.5805 148.613 31.5163V25.967C148.613 25.9029 148.635 25.8601 148.667 25.8173C148.699 25.7852 148.752 25.7639 148.816 25.7639H149.221C149.274 25.7639 149.328 25.7852 149.36 25.8173C149.392 25.8494 149.413 25.9029 149.413 25.967V30.415L152.613 25.8815C152.655 25.8066 152.73 25.7639 152.815 25.7639H153.21C153.263 25.7639 153.316 25.7852 153.348 25.8173C153.38 25.8494 153.402 25.9029 153.402 25.967V31.527C153.402 31.5805 153.38 31.6339 153.348 31.666C153.316 31.6981 153.263 31.7195 153.21 31.7195H152.805C152.751 31.7195 152.698 31.6981 152.655 31.666C152.613 31.6339 152.591 31.5805 152.591 31.527V27.1111L149.402 31.6019C149.36 31.6767 149.285 31.7195 149.2 31.7195H148.795C148.741 31.7195 148.699 31.6981 148.667 31.666Z" fill="#2196F3"/>
<path d="M158.937 25.8065C158.969 25.8386 158.99 25.8921 158.99 25.9455V31.5162C158.99 31.5697 158.969 31.6232 158.937 31.6552C158.905 31.6873 158.862 31.7087 158.798 31.7087H158.393C158.34 31.7087 158.286 31.6873 158.244 31.6552C158.201 31.6232 158.18 31.5697 158.18 31.5162V29.4419H156.996L155.695 31.4842C155.652 31.559 155.61 31.6232 155.556 31.6552C155.514 31.6873 155.45 31.7087 155.364 31.7087H154.991C154.948 31.7087 154.906 31.6873 154.874 31.6552C154.842 31.6232 154.82 31.5804 154.82 31.5376C154.82 31.5055 154.831 31.4735 154.842 31.4414L156.164 29.3564C155.769 29.2601 155.46 29.057 155.247 28.7576C155.034 28.4582 154.927 28.0733 154.927 27.6028C154.927 27.2714 155.002 26.972 155.14 26.6833C155.279 26.3946 155.492 26.1701 155.791 25.999C156.079 25.8279 156.431 25.7424 156.857 25.7424H158.798C158.862 25.7531 158.905 25.7744 158.937 25.8065ZM158.19 26.4481H156.932C156.569 26.4481 156.281 26.555 156.079 26.7688C155.865 26.9827 155.769 27.2714 155.769 27.6349C155.769 28.3727 156.164 28.7469 156.943 28.7469H158.201V26.4481H158.19Z" fill="#2196F3"/>
<path d="M19.623 0.99999C8.75572 1.18176 0 10.0671 0 20.9946C0 26.3408 2.10095 31.2058 5.51365 34.7984C5.08706 33.8468 4.78845 32.8097 4.63914 31.687C4.04192 27.2603 4.5005 24.0954 5.18304 21.9783C5.47099 21.0802 6.14287 20.3959 6.97471 20.0537C6.61211 19.0379 6.40948 17.9046 6.40948 16.6536C6.40948 13.7666 7.46529 8.97647 9.23563 6.85939C11.6672 9.10477 15.5598 9.88531 19.943 9.88531C24.3262 9.88531 28.2188 9.10477 30.6503 6.85939C32.4207 8.97647 33.4765 13.7773 33.4765 16.6536C33.4765 17.8939 33.2845 19.0273 32.9113 20.0537C33.7431 20.3959 34.415 21.0802 34.7029 21.9783C35.3748 24.1061 35.8441 27.2603 35.2468 31.687C35.0975 32.799 34.8096 33.8361 34.3723 34.7877C37.8064 31.1737 39.9073 26.266 39.886 20.877C39.8326 9.71424 30.757 0.81822 19.623 0.99999Z" fill="#2196F3"/>
<path d="M23.8037 13.467C22.2893 13.467 20.9242 14.0871 19.9537 15.0922C18.9832 14.0871 17.6181 13.467 16.1038 13.467C13.1496 13.467 10.7607 15.8407 10.7607 18.7597C10.7607 21.6787 13.1496 24.0524 16.1038 24.0524C17.6181 24.0524 18.9832 23.4322 19.9537 22.4271C20.9242 23.4322 22.2893 24.0524 23.8037 24.0524C26.7578 24.0524 29.1467 21.6787 29.1467 18.7597C29.1467 15.83 26.7471 13.467 23.8037 13.467ZM15.6132 22.4592C13.5549 22.4592 11.8805 20.8019 11.8805 18.7597C11.8805 16.7174 13.5549 15.0601 15.6132 15.0601C17.6715 15.0601 19.3458 16.7174 19.3458 18.7597C19.3458 20.8019 17.6715 22.4592 15.6132 22.4592ZM24.1983 22.4592C22.14 22.4592 20.4656 20.8019 20.4656 18.7597C20.4656 16.7174 22.14 15.0601 24.1983 15.0601C26.2565 15.0601 27.9309 16.7174 27.9309 18.7597C27.9309 20.8019 26.2672 22.4592 24.1983 22.4592Z" fill="#2196F3"/>
<path d="M19.9434 25.5072C19.9434 25.5072 17.0319 21.7756 19.9434 21.7756C22.8549 21.7756 19.9434 25.5072 19.9434 25.5072Z" fill="#1E1E1E"/>
<path d="M10.9104 30.4891C10.4731 26.5115 8.59615 23.2718 6.36723 22.2453C5.73801 24.202 5.29009 27.1531 5.85532 31.3338C6.26058 34.3704 7.7643 36.4447 9.63063 37.8561C10.7078 36.0919 11.2303 33.4188 10.9104 30.4891Z" fill="#1E1E1E"/>
<path d="M33.5298 22.3625C31.3009 23.389 29.4239 26.6287 28.9867 30.6063C28.6667 33.536 29.1893 36.2091 30.2771 37.9733C32.1541 36.5619 33.6471 34.4876 34.0524 31.451C34.607 27.2703 34.159 24.3192 33.5298 22.3625Z" fill="#1E1E1E"/>
<path d="M28.0377 37.2248C28.0377 31.7931 24.4117 27.3771 19.9539 27.3771C15.4854 27.3771 11.8594 31.7824 11.8594 37.2248C11.8594 37.9732 11.934 38.7003 12.062 39.3953C15.8586 41.0954 19.9539 40.9885 19.9539 40.9885C19.9539 40.9885 24.0491 41.0954 27.8458 39.3953C27.9631 38.7003 28.0377 37.9732 28.0377 37.2248Z" fill="#1E1E1E"/>
<path d="M24.1978 16.8459C23.9952 16.8459 23.7926 16.878 23.6113 16.9314C23.8459 17.1132 23.9952 17.4019 23.9952 17.7227C23.9952 18.2787 23.5473 18.717 23.0034 18.717C22.7261 18.717 22.4701 18.5994 22.2888 18.4177C22.2675 18.5246 22.2568 18.6422 22.2568 18.7598C22.2568 19.8184 23.1207 20.6737 24.1871 20.6737C25.2536 20.6737 26.1175 19.8184 26.1175 18.7598C26.1388 17.7013 25.2643 16.8459 24.1978 16.8459Z" fill="#1E1E1E"/>
<path d="M15.6128 16.8459C15.4102 16.8459 15.2076 16.878 15.0263 16.9314C15.2609 17.1132 15.4102 17.4019 15.4102 17.7227C15.4102 18.2787 14.9623 18.717 14.4184 18.717C14.1411 18.717 13.8852 18.5994 13.7039 18.4177C13.6825 18.5246 13.6719 18.6422 13.6719 18.7598C13.6719 19.8184 14.5357 20.6737 15.6022 20.6737C16.6687 20.6737 17.5325 19.8184 17.5325 18.7598C17.5432 17.7013 16.6793 16.8459 15.6128 16.8459Z" fill="#1E1E1E"/>
<path d="M21.2441 29.6661H18.6526C19.1965 30.714 20.7002 30.714 21.2441 29.6661Z" fill="white"/>
<path d="M17.5222 32.6389H14.9307C15.4852 33.6867 16.9783 33.6867 17.5222 32.6389Z" fill="white"/>
<path d="M24.9558 32.6389H22.3643C22.9082 33.6867 24.4119 33.6867 24.9558 32.6389Z" fill="white"/>
<path d="M21.2441 35.6966H18.6526C19.1965 36.7444 20.7002 36.7444 21.2441 35.6966Z" fill="white"/>
<path d="M15.9011 37.3215H13.3096C13.8535 38.3693 15.3572 38.3693 15.9011 37.3215Z" fill="white"/>
<path d="M26.5866 37.3215H23.9951C24.539 38.3693 26.0427 38.3693 26.5866 37.3215Z" fill="white"/>
</svg>
