<svg width="230" height="67" viewBox="0 0 230 67" fill="none" xmlns="http://www.w3.org/2000/svg">
<g opacity="0.8">
<path d="M67.3171 33.5C67.3171 14.9985 52.2476 0 33.6585 0C15.0694 0 0 14.9985 0 33.5C0 52.0015 15.0694 67 33.6585 67C52.2476 67 67.3171 52.0015 67.3171 33.5Z" fill="#D7D7D7"/>
<path d="M52.0452 23.0699L50.2334 8.375C49.3722 11.337 43.8306 11.9064 43.8306 11.9064C43.8306 11.9064 39.7232 10.8731 33.7901 10.8731C27.8568 10.8731 23.7493 11.9064 23.7493 11.9064C23.7493 11.9064 18.0492 13.0721 16.476 8.375L15.5345 23.0699C15.5345 23.0699 10.3999 28.238 12.2256 41.8822C14.2575 57.0668 33.7901 56.5599 33.7901 56.5599C33.7901 56.5599 53.3228 57.0668 55.3544 41.8822C57.1798 28.238 52.0452 23.0699 52.0452 23.0699Z" fill="white"/>
<path d="M39.6809 16.0488C37.366 16.0488 35.2777 17.0073 33.79 18.5454C32.3018 17.0073 30.2138 16.0488 27.8988 16.0488C23.3821 16.0488 19.7207 19.693 19.7207 24.1884C19.7207 28.6839 23.3821 32.3286 27.8988 32.3286C30.2138 32.3286 32.3018 31.3698 33.79 29.8317C35.2777 31.3698 37.366 32.3286 39.6809 32.3286C44.1979 32.3286 47.8594 28.6839 47.8594 24.1884C47.8594 19.693 44.1979 16.0488 39.6809 16.0488Z" fill="#999999"/>
<path d="M33.7901 34.5707C33.7901 34.5707 29.3361 28.834 33.7901 28.834C38.2438 28.834 33.7901 34.5707 33.7901 34.5707Z" fill="#1C1C1E"/>
<path d="M32.8692 24.0053C32.8692 27.145 30.3119 29.6905 27.1574 29.6905C24.0026 29.6905 21.4453 27.145 21.4453 24.0053C21.4453 20.8656 24.0026 18.3203 27.1574 18.3203C30.3119 18.3203 32.8692 20.8656 32.8692 24.0053Z" fill="#FBFCFC"/>
<path d="M30.117 24.0062C30.117 25.6332 28.7918 26.9522 27.1571 26.9522C25.5225 26.9522 24.1973 25.6332 24.1973 24.0062C24.1973 22.3796 25.5225 21.0605 27.1571 21.0605C28.7918 21.0605 30.117 22.3796 30.117 24.0062Z" fill="#1C1C1E"/>
<path d="M46.0069 24.1889C46.0069 27.3285 43.4495 29.874 40.2951 29.874C37.1406 29.874 34.583 27.3285 34.583 24.1889C34.583 21.0492 37.1406 18.5039 40.2951 18.5039C43.4495 18.5039 46.0069 21.0492 46.0069 24.1889Z" fill="#FBFCFC"/>
<path d="M43.2544 24.1878C43.2544 25.8148 41.9295 27.1338 40.2948 27.1338C38.6604 27.1338 37.335 25.8148 37.335 24.1878C37.335 22.5612 38.6604 21.2422 40.2948 21.2422C41.9295 21.2422 43.2544 22.5612 43.2544 24.1878Z" fill="#1C1C1E"/>
<path d="M26.8781 22.4111C26.8781 23.1851 26.2474 23.813 25.4697 23.813C24.6918 23.813 24.0615 23.1851 24.0615 22.4111C24.0615 21.6369 24.6918 21.0098 25.4697 21.0098C26.2474 21.0098 26.8781 21.6369 26.8781 22.4111Z" fill="white"/>
<path d="M40.2359 22.5926C40.2359 23.3668 39.6053 23.9947 38.8276 23.9947C38.0495 23.9947 37.4189 23.3668 37.4189 22.5926C37.4189 21.8185 38.0495 21.1914 38.8276 21.1914C39.6053 21.1914 40.2359 21.8185 40.2359 22.5926Z" fill="white"/>
<path d="M19.9661 40.5842C19.2929 34.471 16.419 29.4893 13.0124 27.9062C12.049 30.9178 11.3663 35.4604 12.2255 41.8819C12.8512 46.5574 15.1372 49.7435 17.9996 51.9166C19.6544 49.1964 20.4623 45.0845 19.9661 40.5842Z" fill="#999999"/>
<path d="M54.5677 28.0879C51.1609 29.6709 48.2872 34.6526 47.6133 40.7659C47.1179 45.2661 47.9255 49.3779 49.5798 52.0981C52.4428 49.9251 54.7287 46.7389 55.3544 42.0634C56.2134 35.642 55.5307 31.0993 54.5677 28.0879Z" fill="#999999"/>
<path d="M46.1623 50.9472C46.1623 42.5875 40.6231 35.8105 33.7899 35.8105C26.9564 35.8105 21.417 42.5875 21.417 50.9472C21.417 52.0946 21.5251 53.2112 21.7228 54.2859C27.525 56.9028 33.7899 56.7414 33.7899 56.7414C33.7899 56.7414 40.0539 56.9028 45.8569 54.2859C46.0546 53.2112 46.1623 52.0946 46.1623 50.9472Z" fill="#999999"/>
<path d="M29.5824 55.4401L28.9163 55.4395C27.4691 55.4379 26.2947 56.6043 26.2932 58.0446L26.293 58.1454C26.293 58.4331 26.5266 58.6662 26.8151 58.6664H26.9763C27.2648 58.667 27.4993 58.4341 27.4993 58.1467C27.4997 58.0913 27.5444 58.0461 27.6005 58.0461L28.5421 58.0472C28.5977 58.0472 28.6431 58.0927 28.6431 58.1482C28.6431 58.4356 28.8768 58.6684 29.1653 58.669H29.3265C29.6151 58.6694 29.8494 58.4366 29.8494 58.1495C29.8498 58.0937 29.8949 58.0484 29.9508 58.0484L30.8921 58.05C30.9484 58.0495 30.9933 58.0949 30.9938 58.1505C30.9928 58.4379 31.2267 58.6712 31.5158 58.6718L31.6768 58.6716C31.9652 58.6718 32.1994 58.4392 32.1997 58.1517V58.0512C32.2009 56.6106 31.0291 55.4419 29.5824 55.4401Z" fill="#1C1C1E"/>
<path d="M38.6202 55.4512L39.286 55.452C40.7337 55.453 41.9056 56.6222 41.9036 58.0627L41.9032 58.1636C41.9036 58.4508 41.6691 58.6836 41.3803 58.6833L41.2196 58.683C40.9308 58.6828 40.6969 58.4498 40.6971 58.1623C40.6975 58.1067 40.6518 58.0615 40.5959 58.0615L39.6546 58.0603C39.599 58.0599 39.5537 58.1057 39.5537 58.161C39.5531 58.4482 39.3189 58.6813 39.0302 58.6808H38.8694C38.5807 58.6802 38.3468 58.4472 38.347 58.1598C38.3474 58.1042 38.3019 58.0589 38.2462 58.0589L37.3044 58.0579C37.2488 58.0577 37.204 58.1029 37.2034 58.1585C37.2032 58.4459 36.969 58.6785 36.6802 58.6785L36.5192 58.678C36.2302 58.6777 35.9963 58.4446 35.9971 58.1575L35.9973 58.0567C35.9985 56.6161 37.1733 55.4494 38.6202 55.4512Z" fill="#1C1C1E"/>
<path d="M23.2686 44.9258C23.5141 45.3924 23.9996 45.7146 24.5656 45.7146C25.1312 45.7146 25.6169 45.3924 25.8626 44.9258H23.2686Z" fill="#1C1C1E"/>
<path d="M29.418 44.7422C29.6633 45.2088 30.1488 45.531 30.7148 45.531C31.2807 45.531 31.7661 45.2088 32.0118 44.7422H29.418Z" fill="#1C1C1E"/>
<path d="M35.5674 44.9258C35.813 45.3924 36.2987 45.7146 36.8648 45.7146C37.4303 45.7146 37.916 45.3924 38.1611 44.9258H35.5674Z" fill="#1C1C1E"/>
<path d="M29.418 50.9941C29.6633 51.4606 30.1488 51.7831 30.7148 51.7831C31.2807 51.7831 31.7661 51.4606 32.0118 50.9941H29.418Z" fill="#1C1C1E"/>
<path d="M35.5674 50.9941C35.813 51.4606 36.2987 51.7831 36.8648 51.7831C37.4303 51.7831 37.916 51.4606 38.1611 50.9941H35.5674Z" fill="#1C1C1E"/>
<path d="M26.3438 47.9551C26.5891 48.4214 27.0748 48.7431 27.6404 48.7431C28.2064 48.7431 28.6921 48.4214 28.9373 47.9551H26.3438Z" fill="#1C1C1E"/>
<path d="M32.4932 47.9551C32.7388 48.4214 33.224 48.7431 33.79 48.7431C34.3561 48.7431 34.8413 48.4214 35.087 47.9551H32.4932Z" fill="#1C1C1E"/>
<path d="M32.4932 54.0078C32.7388 54.4745 33.224 54.7966 33.79 54.7966C34.3561 54.7966 34.8413 54.4745 35.087 54.0078H32.4932Z" fill="#1C1C1E"/>
<path d="M38.6426 47.9551C38.8879 48.4214 39.3739 48.7431 39.9394 48.7431C40.5052 48.7431 40.9913 48.4214 41.2364 47.9551H38.6426Z" fill="#1C1C1E"/>
<path d="M82.7216 33.5006C85.4367 33.5006 86.819 32.0021 86.819 29.2506V27.4081C86.819 24.6566 85.4367 23.1581 82.7216 23.1581H81.1419V18.7606H86.0291V16.304H78.4268V33.5006H82.7216ZM81.1419 31.044V25.6147H82.7216C83.5855 25.6147 84.1038 26.0078 84.1038 27.2361V29.4226C84.1038 30.6509 83.5855 31.044 82.7216 31.044H81.1419ZM91.3616 18.7606H96.0514V16.304H88.6465V33.5006H96.0514V31.044H91.3616V26.0078H95.0887V23.5511H91.3616V18.7606ZM96.9687 33.5252H97.3883C100.103 33.5252 101.239 32.2969 101.338 29.1523L101.634 18.7606H104.003V33.5006H106.768V16.304H99.0914L98.6471 29.2997C98.5978 30.8966 98.2028 31.0685 96.9687 31.0685V33.5252ZM114.869 16.304H110.895L108.13 33.5006H110.623L111.092 30.3807H114.425L114.894 33.5006H117.633L114.869 16.304ZM112.746 19.3502L114.054 28.0468H111.438L112.746 19.3502ZM121.169 33.5006C121.317 33.0584 121.415 32.7882 121.415 31.3879V28.6856C121.415 27.0887 121.958 26.4991 123.193 26.4991H124.131V33.5006H126.846V16.304H122.748C119.934 16.304 118.725 17.606 118.725 20.2592V21.6104C118.725 23.3792 119.293 24.5338 120.502 25.0988C119.145 25.6639 118.7 26.9659 118.7 28.7593V31.4125C118.7 32.2477 118.676 32.8619 118.404 33.5006H121.169ZM124.131 18.7606V24.0425H123.069C122.057 24.0425 121.44 23.6003 121.44 22.2245V20.5294C121.44 19.3011 121.86 18.7606 122.822 18.7606H124.131ZM137.968 27.0887V29.5454C137.968 30.7737 137.425 31.2159 136.561 31.2159C135.697 31.2159 135.154 30.7737 135.154 29.5454V20.2592C135.154 19.0309 135.697 18.5641 136.561 18.5641C137.425 18.5641 137.968 19.0309 137.968 20.2592V22.1017H140.535V20.4312C140.535 17.6797 139.152 16.1074 136.487 16.1074C133.821 16.1074 132.439 17.6797 132.439 20.4312V29.3734C132.439 32.1249 133.821 33.6972 136.487 33.6972C139.152 33.6972 140.535 32.1249 140.535 29.3734V27.0887H137.968ZM144.676 20.2592C144.676 19.0309 145.219 18.5641 146.083 18.5641C146.947 18.5641 147.49 19.0309 147.49 20.2592V29.5454C147.49 30.7737 146.947 31.2405 146.083 31.2405C145.219 31.2405 144.676 30.7737 144.676 29.5454V20.2592ZM141.961 29.3734C141.961 32.1249 143.417 33.6972 146.083 33.6972C148.748 33.6972 150.205 32.1249 150.205 29.3734V20.4312C150.205 17.6797 148.748 16.1074 146.083 16.1074C143.417 16.1074 141.961 17.6797 141.961 20.4312V29.3734ZM156.066 16.304H151.968V33.5006H156.239C158.954 33.5006 160.361 32.0758 160.361 29.4226V28.0223C160.361 26.2043 159.793 24.9023 158.337 24.3373C159.546 23.7722 160.089 22.6422 160.089 20.8734V20.2592C160.089 17.606 158.88 16.304 156.066 16.304ZM155.893 25.7621C157.127 25.7621 157.645 26.2535 157.645 27.8503V29.3489C157.645 30.6263 157.152 31.044 156.239 31.044H154.684V25.7621H155.893ZM155.992 18.7606C156.954 18.7606 157.374 19.3011 157.374 20.5294V21.4875C157.374 22.8633 156.757 23.3055 155.745 23.3055H154.684V18.7606H155.992ZM168.019 16.304H164.045L161.281 33.5006H163.774L164.243 30.3807H167.575L168.044 33.5006H170.784L168.019 16.304ZM165.896 19.3502L167.205 28.0468H164.588L165.896 19.3502Z" fill="#D3D3D3"/>
<path d="M82.6386 52.4836H84.6671L81.9205 45.5513L84.6671 39.9769H82.6924L80.1074 45.4262V39.9769H78.1328V52.4836H80.1074V48.6422L80.7178 47.4988L82.6386 52.4836ZM85.0092 52.5014H85.3144C87.2891 52.5014 88.1148 51.6081 88.1866 49.3212L88.402 41.7636H90.1254V52.4836H92.1359V39.9769H86.5531L86.2299 49.4284C86.194 50.5897 85.9068 50.7148 85.0092 50.7148V52.5014ZM97.3273 46.7484L98.1351 43.6753V52.4836H99.9122V39.9769H97.7401L96.1245 45.1404L95.4065 47.8918V39.9769H93.6473V52.4836H95.6758L97.3273 46.7484ZM103.283 47.1236H105.527V52.4836H107.537V39.9769H105.527V45.3369H103.283V39.9769H101.308V52.4836H103.283V47.1236ZM112.649 46.7484L113.456 43.6753V52.4836H115.234V39.9769H113.061L111.446 45.1404L110.728 47.8918V39.9769H108.969V52.4836H110.997L112.649 46.7484ZM118.605 47.1236H120.849V52.4836H122.859V39.9769H120.849V45.3369H118.605V39.9769H116.63V52.4836H118.605V47.1236ZM126.284 52.4836V41.7636H129.515V39.9769H124.309V52.4836H126.284ZM132.66 42.8534C132.66 41.9601 133.055 41.6206 133.683 41.6206C134.311 41.6206 134.706 41.9601 134.706 42.8534V49.607C134.706 50.5004 134.311 50.8398 133.683 50.8398C133.055 50.8398 132.66 50.5004 132.66 49.607V42.8534ZM130.685 49.482C130.685 51.483 131.744 52.6265 133.683 52.6265C135.622 52.6265 136.681 51.483 136.681 49.482V42.9785C136.681 40.9774 135.622 39.834 133.683 39.834C131.744 39.834 130.685 40.9774 130.685 42.9785V49.482ZM140.944 39.9769H137.964V52.4836H141.07C143.044 52.4836 144.068 51.4473 144.068 49.5177V48.4993C144.068 47.1772 143.655 46.2302 142.596 45.8193C143.475 45.4084 143.87 44.5865 143.87 43.3001V42.8534C143.87 40.9238 142.991 39.9769 140.944 39.9769ZM140.818 46.8556C141.716 46.8556 142.093 47.2129 142.093 48.3742V49.4641C142.093 50.3932 141.734 50.6969 141.07 50.6969H139.939V46.8556H140.818ZM140.89 41.7636C141.59 41.7636 141.896 42.1566 141.896 43.05V43.7468C141.896 44.7473 141.447 45.0689 140.711 45.0689H139.939V41.7636H140.89ZM149.637 39.9769H146.747L144.736 52.4836H146.549L146.89 50.2145H149.314L149.655 52.4836H151.648L149.637 39.9769ZM148.093 42.1924L149.045 48.5172H147.142L148.093 42.1924ZM154.219 52.4836C154.327 52.162 154.399 51.9654 154.399 50.947V48.9817C154.399 47.8204 154.794 47.3916 155.691 47.3916H156.373V52.4836H158.348V39.9769H155.368C153.322 39.9769 152.442 40.9238 152.442 42.8534V43.8361C152.442 45.1225 152.855 45.9622 153.734 46.3732C152.747 46.7841 152.424 47.731 152.424 49.0353V50.9649C152.424 51.5724 152.406 52.019 152.209 52.4836H154.219ZM156.373 41.7636V45.6049H155.601C154.865 45.6049 154.417 45.2833 154.417 44.2828V43.05C154.417 42.1566 154.722 41.7636 155.422 41.7636H156.373ZM167.083 52.4836H169.112L166.365 45.5513L169.112 39.9769H167.137L164.552 45.4262V39.9769H162.578V52.4836H164.552V48.6422L165.163 47.4988L167.083 52.4836ZM171.824 42.8534C171.824 41.9601 172.219 41.6206 172.847 41.6206C173.475 41.6206 173.87 41.9601 173.87 42.8534V49.607C173.87 50.5004 173.475 50.8398 172.847 50.8398C172.219 50.8398 171.824 50.5004 171.824 49.607V42.8534ZM169.849 49.482C169.849 51.483 170.908 52.6265 172.847 52.6265C174.786 52.6265 175.845 51.483 175.845 49.482V42.9785C175.845 40.9774 174.786 39.834 172.847 39.834C170.908 39.834 169.849 40.9774 169.849 42.9785V49.482ZM179.856 39.9769H177.109V52.4836H178.832V43.6396L180.304 52.4836H182.171L183.536 43.5145V52.4836H185.403V39.9769H182.656L181.31 48.8566L179.856 39.9769ZM188.814 41.7636H191.058V52.4836H193.069V39.9769H186.84V52.4836H188.814V41.7636ZM198.881 39.9769H195.99L193.98 52.4836H195.793L196.134 50.2145H198.557L198.899 52.4836H200.891L198.881 39.9769ZM197.337 42.1924L198.288 48.5172H196.385L197.337 42.1924ZM203.785 47.1236H206.029V52.4836H208.039V39.9769H206.029V45.3369H203.785V39.9769H201.81V52.4836H203.785V47.1236ZM213.152 46.7484L213.96 43.6753V52.4836H215.737V39.9769H213.565L211.949 45.1404L211.231 47.8918V39.9769H209.472V52.4836H211.5L213.152 46.7484ZM218.784 52.4836C218.892 52.162 218.964 51.9654 218.964 50.947V48.9817C218.964 47.8204 219.358 47.3916 220.256 47.3916H220.938V52.4836H222.913V39.9769H219.933C217.886 39.9769 217.007 40.9238 217.007 42.8534V43.8361C217.007 45.1225 217.42 45.9622 218.299 46.3732C217.312 46.7841 216.989 47.731 216.989 49.0353V50.9649C216.989 51.5724 216.971 52.019 216.773 52.4836H218.784ZM220.938 41.7636V45.6049H220.166C219.43 45.6049 218.981 45.2833 218.981 44.2828V43.05C218.981 42.1566 219.287 41.7636 219.987 41.7636H220.938Z" fill="#D3D3D3"/>
</g>
</svg>
