<svg width="40" height="39" viewBox="0 0 40 39" fill="none" xmlns="http://www.w3.org/2000/svg">
<path d="M0 30.9244C0 34.9291 3.24539 38.182 7.25696 38.182H32.743C36.7474 38.182 40 34.9363 40 30.9244V16.7852H0V30.9244Z" fill="#2196F3"/>
<path d="M12.15 9.7587C13.8053 9.7587 15.1497 8.41417 15.1497 6.7588V4.49623V2.9999C15.1497 1.34453 13.8053 0 12.15 0C10.4948 0 9.15039 1.34453 9.15039 2.9999V4.49623V6.7588C9.15039 8.41417 10.4948 9.7587 12.15 9.7587Z" fill="#2196F3"/>
<path d="M27.8502 9.7587C29.5054 9.7587 30.8499 8.41417 30.8499 6.7588V2.9999C30.8499 1.34453 29.5054 0 27.8502 0C26.195 0 24.8506 1.34453 24.8506 2.9999V6.7588C24.8506 8.41417 26.195 9.7587 27.8502 9.7587Z" fill="#2196F3"/>
<path d="M32.743 4.49609H32.6346V6.75867C32.6346 9.39713 30.4879 11.544 27.8497 11.544C25.2114 11.544 23.0647 9.39713 23.0647 6.75867V4.49609H16.9425V6.75867C16.9425 9.39713 14.7958 11.544 12.1576 11.544C9.51933 11.544 7.37261 9.39713 7.37261 6.75867V4.49609H7.26418C3.24539 4.49609 0 7.74177 0 11.7537V14.6162H40V11.7537C40 7.74177 36.7546 4.49609 32.743 4.49609Z" fill="#2196F3"/>
</svg>
