<svg width="40" height="40" viewBox="0 0 40 40" fill="none" xmlns="http://www.w3.org/2000/svg">
<path d="M20.4993 36.6665H20.3326C18.0469 36.649 15.7875 36.1757 13.6869 35.2743C11.5863 34.3728 9.68671 33.0612 8.09931 31.4165C5.15572 28.2686 3.48245 24.142 3.40242 19.833C3.3224 15.524 4.84129 11.3381 7.66598 8.08313C9.48578 6.0437 11.7735 4.4766 14.3326 3.51646C14.6312 3.40156 14.9566 3.37503 15.2699 3.44005C15.5832 3.50507 15.8711 3.65888 16.0993 3.88313C16.3107 4.09866 16.4595 4.36756 16.53 4.6611C16.6004 4.95464 16.5898 5.26181 16.4993 5.54979C15.5859 8.05135 15.4049 10.7615 15.9776 13.3623C16.5503 15.9631 17.853 18.3466 19.7326 20.2331C21.6298 22.107 24.019 23.4052 26.6235 23.9775C29.228 24.5497 31.9413 24.3725 34.4493 23.4665C34.7478 23.3614 35.0701 23.3435 35.3784 23.4148C35.6867 23.4861 35.9684 23.6438 36.1904 23.8693C36.4124 24.0948 36.5656 24.3789 36.6321 24.6883C36.6987 24.9977 36.6757 25.3196 36.566 25.6165C35.7146 27.8893 34.3845 29.9526 32.666 31.6665C31.0674 33.2603 29.1696 34.5225 27.0816 35.3806C24.9936 36.2386 22.7567 36.6756 20.4993 36.6665Z" fill="#2196F3"/>
</svg>
