<svg width="40" height="44" viewBox="0 0 40 44" fill="none" xmlns="http://www.w3.org/2000/svg">
<path fill-rule="evenodd" clip-rule="evenodd" d="M30.7707 37.7433C31.6232 40.0737 30.1004 42.7068 27.6822 43.4887C25.2641 44.2705 22.488 43.0275 21.8147 40.6392L17.9968 25.7723C17.9151 25.5195 18.0397 25.293 18.3084 25.2061L20.2787 24.5691L20.1152 24.0635C19.6248 22.5468 20.4505 20.5114 22.1522 19.9612L36.5714 15.2988C36.9297 15.183 37.1789 14.7301 37.0699 14.3931L34.7541 7.23077C34.6451 6.89372 34.1778 6.6725 33.8196 6.78834L33.2822 6.96209L34.2903 10.0798C34.59 11.0067 33.9669 12.1389 32.9817 12.4574L6.11361 21.1451C5.12844 21.4636 3.96039 20.9106 3.66068 19.9837L0.854385 11.3047C0.527437 10.2935 1.17783 9.24557 2.16299 8.92702L29.0311 0.239406C30.0163 -0.0791404 31.1571 0.389633 31.484 1.40078L32.4649 4.43422L33.3605 4.14463C34.9726 3.62338 36.8142 4.42397 37.3319 6.02495L39.8657 13.8613C40.3561 15.3781 39.3591 17.1896 37.747 17.7109L23.3278 22.3732C22.88 22.518 22.6931 22.8577 22.802 23.1947L22.9655 23.7003L24.5776 23.179C24.8463 23.0922 25.0799 23.2028 25.1616 23.4556L30.7707 37.7433Z" fill="#2196F3"/>
</svg>
