<svg width="36" height="36" viewBox="0 0 36 36" fill="none" xmlns="http://www.w3.org/2000/svg">
<path d="M35.2069 29.1004L25.3615 19.255C27.8075 14.2635 26.971 8.06489 22.8181 3.91835C17.5979 -1.30612 9.1354 -1.30612 3.91517 3.91835C-1.30506 9.13646 -1.30506 17.6011 3.91517 22.8192C8.06383 26.9742 14.2603 27.8065 19.2518 25.3605L29.0993 35.2058C30.3912 36.4956 32.8033 36.18 34.489 34.4901C36.1768 32.8086 36.5008 30.3901 35.2069 29.1004ZM18.8728 18.8696C15.8338 21.9107 10.9058 21.9064 7.87111 18.8675C4.82792 15.8328 4.82792 10.9048 7.87111 7.86794C10.9058 4.82898 15.8338 4.82898 18.8728 7.86794C21.9075 10.9005 21.9075 15.8328 18.8728 18.8696Z" fill="#2196F3"/>
</svg>
