<svg width="40" height="40" viewBox="0 0 40 40" fill="none" xmlns="http://www.w3.org/2000/svg">
<path d="M8.41678 10.9884C9.13296 11.7028 10.2836 11.7137 10.9997 10.9975C11.7086 10.2886 11.7141 9.14162 10.987 8.41454L8.44223 5.86976C7.72424 5.15359 6.57364 5.14268 5.85928 5.85886C5.15038 6.56958 5.14493 7.71473 5.87201 8.4418L8.41678 10.9884Z" fill="#2196F3"/>
<path d="M19.9999 30.9003C26.0233 30.9003 30.9061 26.0174 30.9061 19.9941C30.9061 13.9708 26.0233 9.08789 19.9999 9.08789C13.9766 9.08789 9.09375 13.9708 9.09375 19.9941C9.09375 26.0174 13.9766 30.9003 19.9999 30.9003Z" fill="#2196F3"/>
<path d="M7.27079 19.9993C7.27079 18.996 6.46373 18.1816 5.43492 18.1816H1.83406C0.821599 18.1816 0 18.9887 0 19.9993C0 21.0045 0.807058 21.817 1.83406 21.817H5.43492C6.44919 21.817 7.27079 21.0118 7.27079 19.9993Z" fill="#2196F3"/>
<path d="M38.1662 18.1816H34.5672C33.5511 18.1816 32.7295 18.9887 32.7295 19.9993C32.7295 21.0045 33.5384 21.817 34.5672 21.817H38.1662C39.1787 21.817 40.0003 21.0118 40.0003 19.9993C40.0003 18.996 39.1932 18.1816 38.1662 18.1816Z" fill="#2196F3"/>
<path d="M8.41477 29.0136L5.87 31.5584C5.15382 32.2764 5.14292 33.4288 5.85727 34.1413C6.56799 34.8484 7.71314 34.8539 8.44022 34.1286L10.985 31.5838C11.703 30.8658 11.7139 29.7171 10.9977 29.0009C10.287 28.292 9.14185 28.2865 8.41477 29.0136Z" fill="#2196F3"/>
<path d="M19.9993 7.27079C21.0045 7.27079 21.817 6.46373 21.817 5.43492V1.83587C21.817 0.821599 21.0118 0 19.9993 0C18.9942 0 18.1816 0.807058 18.1816 1.83587V5.43492C18.1816 6.44919 18.9887 7.27079 19.9993 7.27079Z" fill="#2196F3"/>
<path d="M19.9993 32.7295C18.9942 32.7295 18.1816 33.5384 18.1816 34.5672V38.1662C18.1816 39.1823 18.9887 40.0003 19.9993 40.0003C21.0045 40.0003 21.817 39.1969 21.817 38.1662V34.5672C21.817 33.5511 21.0118 32.7295 19.9993 32.7295Z" fill="#2196F3"/>
<path d="M31.5844 10.9888L34.1292 8.44223C34.8472 7.72424 34.8563 6.57546 34.142 5.85928C33.4294 5.15038 32.2861 5.14493 31.559 5.87201L29.0142 8.41678C28.2962 9.13296 28.2871 10.2854 29.0015 10.9997C29.714 11.7086 30.8574 11.7141 31.5844 10.9888Z" fill="#2196F3"/>
<path d="M31.5845 29.0142C30.8665 28.2962 29.7177 28.2871 29.0016 29.0015C28.2927 29.714 28.2854 30.8574 29.0143 31.5844L31.5591 34.1292C32.2771 34.8472 33.4258 34.8563 34.142 34.142C34.8491 33.4331 34.8545 32.2861 34.1293 31.559L31.5845 29.0142Z" fill="#2196F3"/>
</svg>
