<svg width="131" height="56" viewBox="0 0 131 56" fill="none" xmlns="http://www.w3.org/2000/svg">
<path d="M55.8987 28.0002C55.8987 24.5557 55.2472 21.2703 54.1115 18.223C53.8111 28.2534 43.6348 36.0193 37.6602 41.1585H52.6149C54.7053 37.2345 55.8987 32.7578 55.8987 28.0002ZM45.0876 5.91414C40.3527 2.22091 34.416 0 27.9499 0C12.5137 0 0 12.5368 0 28.0002C0 43.4636 12.5137 56 27.9499 56C35.0184 56 41.4546 53.3505 46.3765 49.0146H26.1417L26.08 43.0614C38.2722 32.4429 45.7462 25.2617 45.7462 18.3254C45.7462 15.7476 44.7661 12.4946 40.3554 12.4946C36.8628 12.4946 33.4935 14.5214 34.1059 22.9906H26.9997C25.2226 13.171 30.5528 5.37521 40.722 5.37521C42.2986 5.37521 43.7569 5.56377 45.0876 5.91414Z" fill="#A3C626"/>
<path d="M81.822 19.3529H88.4329C88.6589 14.3154 86.9644 6.33252 76.0595 6.33252C68.0353 6.33252 62.2151 11.1452 62.2151 21.1644C62.2151 22.5231 62.2711 29.5423 62.2711 33.901C62.2711 44.7709 69.7873 47.1478 76.1157 47.1478C79.9016 47.1478 85.3823 46.2982 87.9247 43.5247V26.2024H75.4937V32.4861H81.0317V40.1285C76.8498 41.5433 69.2215 42.1098 69.2215 32.4861V21.1644C69.2215 14.4278 72.3297 12.1071 75.7758 12.1071C79.3362 12.1071 81.822 13.9187 81.822 19.3529ZM130.996 36.1649C131.279 20.6553 113.537 25.8057 113.705 17.1451C113.762 14.0889 115.74 12.1071 118.961 12.1071C122.408 12.1071 124.441 14.1451 124.384 19.4668H130.883C131.053 14.6542 129.922 6.4465 119.187 6.4465C112.519 6.4465 107.039 9.73037 106.925 17.0323C106.643 31.9192 124.498 27.0515 124.216 36.0525C124.102 39.7318 121.446 41.3731 118.452 41.3731C114.949 41.3731 112.124 39.3352 112.689 33.2216H106.133C105.399 41.3169 108.959 47.0916 118.396 47.0916C126.363 47.0916 130.883 42.6751 130.996 36.1649ZM101.146 46.5808H94.4791V6.95564H101.146V46.5808ZM101.146 46.5808H94.4791V6.95564H101.146V46.5808Z" fill="#434242"/>
</svg>
