<svg width="151" height="25" viewBox="0 0 151 25" fill="none" xmlns="http://www.w3.org/2000/svg">
<path d="M12.0592 0.688374C12.3553 -0.22946 13.6447 -0.229457 13.9408 0.688377L16.3315 8.098C16.464 8.50847 16.8438 8.78638 17.2724 8.78638H25.0088C25.9672 8.78638 26.3656 10.0213 25.5903 10.5886L19.3314 15.168C18.9847 15.4216 18.8396 15.8713 18.972 16.2818L21.3627 23.6914C21.6589 24.6092 20.6157 25.3725 19.8404 24.8052L13.5815 20.2258C13.2347 19.9721 12.7653 19.9721 12.4185 20.2258L6.1596 24.8052C5.3843 25.3725 4.34115 24.6092 4.63729 23.6914L7.02798 16.2818C7.16042 15.8713 7.01534 15.4216 6.66861 15.168L0.409683 10.5886C-0.365614 10.0213 0.0328389 8.78638 0.991158 8.78638H8.72762C9.15619 8.78638 9.53603 8.50847 9.66846 8.098L12.0592 0.688374Z" fill="#FF9534"/>
<path d="M43.0592 0.688374C43.3553 -0.22946 44.6447 -0.229457 44.9408 0.688377L47.3315 8.098C47.464 8.50847 47.8438 8.78638 48.2724 8.78638H56.0088C56.9672 8.78638 57.3656 10.0213 56.5903 10.5886L50.3314 15.168C49.9847 15.4216 49.8396 15.8713 49.972 16.2818L52.3627 23.6914C52.6589 24.6092 51.6157 25.3725 50.8404 24.8052L44.5815 20.2258C44.2347 19.9721 43.7653 19.9721 43.4185 20.2258L37.1596 24.8052C36.3843 25.3725 35.3411 24.6092 35.6373 23.6914L38.028 16.2818C38.1604 15.8713 38.0153 15.4216 37.6686 15.168L31.4097 10.5886C30.6344 10.0213 31.0328 8.78638 31.9912 8.78638H39.7276C40.1562 8.78638 40.536 8.50847 40.6685 8.098L43.0592 0.688374Z" fill="#FF9534"/>
<path d="M74.0592 0.688374C74.3553 -0.22946 75.6447 -0.229457 75.9408 0.688377L78.3315 8.098C78.464 8.50847 78.8438 8.78638 79.2724 8.78638H87.0088C87.9672 8.78638 88.3656 10.0213 87.5903 10.5886L81.3314 15.168C80.9847 15.4216 80.8396 15.8713 80.972 16.2818L83.3627 23.6914C83.6589 24.6092 82.6157 25.3725 81.8404 24.8052L75.5815 20.2258C75.2347 19.9721 74.7653 19.9721 74.4185 20.2258L68.1596 24.8052C67.3843 25.3725 66.3411 24.6092 66.6373 23.6914L69.028 16.2818C69.1604 15.8713 69.0153 15.4216 68.6686 15.168L62.4097 10.5886C61.6344 10.0213 62.0328 8.78638 62.9912 8.78638H70.7276C71.1562 8.78638 71.536 8.50847 71.6685 8.098L74.0592 0.688374Z" fill="#FF9534"/>
<path d="M105.059 0.688374C105.355 -0.22946 106.645 -0.229457 106.941 0.688377L109.332 8.098C109.464 8.50847 109.844 8.78638 110.272 8.78638H118.009C118.967 8.78638 119.366 10.0213 118.59 10.5886L112.331 15.168C111.985 15.4216 111.84 15.8713 111.972 16.2818L114.363 23.6914C114.659 24.6092 113.616 25.3725 112.84 24.8052L106.581 20.2258C106.235 19.9721 105.765 19.9721 105.419 20.2258L99.1596 24.8052C98.3843 25.3725 97.3411 24.6092 97.6373 23.6914L100.028 16.2818C100.16 15.8713 100.015 15.4216 99.6686 15.168L93.4097 10.5886C92.6344 10.0213 93.0328 8.78638 93.9912 8.78638H101.728C102.156 8.78638 102.536 8.50847 102.668 8.098L105.059 0.688374Z" fill="#FF9534"/>
<path d="M136.46 0.688374C136.756 -0.22946 138.045 -0.229457 138.341 0.688377L140.732 8.098C140.864 8.50847 141.244 8.78638 141.673 8.78638H149.409C150.368 8.78638 150.766 10.0213 149.991 10.5886L143.732 15.168C143.385 15.4216 143.24 15.8713 143.372 16.2818L145.763 23.6914C146.059 24.6092 145.016 25.3725 144.241 24.8052L137.982 20.2258C137.635 19.9721 137.166 19.9721 136.819 20.2258L130.56 24.8052C129.785 25.3725 128.742 24.6092 129.038 23.6914L131.428 16.2818C131.561 15.8713 131.416 15.4216 131.069 15.168L124.81 10.5886C124.035 10.0213 124.433 8.78638 125.392 8.78638H133.128C133.557 8.78638 133.936 8.50847 134.069 8.098L136.46 0.688374Z" fill="#DFF1FF"/>
<path d="M130.349 24.8057L136.801 20.2388C137.159 19.9858 137.643 19.9858 138 20.2388L137.911 0.329774C137.911 -0.166881 136.736 -0.161084 136.431 0.754263L133.966 8.14381C133.83 8.55317 133.438 8.83032 132.997 8.83032H125.022C124.034 8.83032 123.623 10.0619 124.422 10.6276L130.874 15.1946C131.232 15.4476 131.381 15.8961 131.245 16.3054L128.78 23.695C128.475 24.6103 129.55 25.3715 130.349 24.8057Z" fill="#FF9534"/>
</svg>
