<svg width="25" height="25" viewBox="0 0 25 25" fill="none" xmlns="http://www.w3.org/2000/svg">
<path d="M5.48559 10.1714C6.45704 7.22774 9.22335 5.11364 12.5 5.11364C14.2613 5.11364 15.8522 5.73864 17.1022 6.76136L20.7386 3.125C18.5227 1.19318 15.6818 0 12.5 0C7.57296 0 3.33096 2.81073 1.29163 6.92711L5.48559 10.1714Z" fill="#EA4335"/>
<path d="M16.7091 18.763C15.5739 19.4961 14.1314 19.8863 12.5 19.8863C9.23596 19.8863 6.47829 17.7883 5.4969 14.8623L1.28906 18.0572C3.32586 22.1808 7.56775 24.9999 12.5 24.9999C15.5551 24.9999 18.4744 23.9139 20.6607 21.8745L16.7091 18.763Z" fill="#34A853"/>
<path d="M20.6606 21.8746C22.9471 19.7418 24.4318 16.5663 24.4318 12.5C24.4318 11.7614 24.3182 10.9659 24.1477 10.2273H12.5V15.0568H19.2045C18.8737 16.6809 17.9857 17.9388 16.7091 18.7631L20.6606 21.8746Z" fill="#4A90E2"/>
<path d="M5.49686 14.8623C5.24826 14.1211 5.11364 13.3267 5.11364 12.4999C5.11364 11.6856 5.2442 10.9028 5.48563 10.1713L1.29166 6.927C0.454778 8.60451 0 10.4951 0 12.4999C0 14.4994 0.463313 16.3855 1.28902 18.0572L5.49686 14.8623Z" fill="#FBBC05"/>
</svg>
