<svg width="304" height="56" viewBox="0 0 304 56" fill="none" xmlns="http://www.w3.org/2000/svg">
<g clip-path="url(#clip0_395_962)">
<path fill-rule="evenodd" clip-rule="evenodd" d="M179.75 33.4227L190.089 29.127C189.52 27.6835 187.811 26.6745 185.798 26.6745C183.211 26.6745 179.62 28.9522 179.75 33.4227ZM191.882 37.5835L195.823 40.2109C194.555 42.094 191.488 45.3357 186.188 45.3357C179.62 45.3357 174.874 40.2508 174.874 33.7724C174.874 26.8893 179.665 22.204 185.619 22.204C191.623 22.204 194.555 26.9792 195.519 29.5666L196.043 30.8803L180.579 37.2738C181.762 39.5965 183.601 40.7803 186.188 40.7803C188.77 40.7803 190.569 39.5066 191.882 37.5835ZM166.823 44.6364H171.902V10.6406H166.823V44.6364ZM158.531 33.8123C158.531 29.7414 155.814 26.7594 152.352 26.7594C148.851 26.7594 145.914 29.7414 145.914 33.8123C145.914 37.8433 148.851 40.7803 152.352 40.7803C155.814 40.7803 158.531 37.8433 158.531 33.8123ZM162.996 22.9083V43.6724C162.996 52.2138 157.961 55.7203 152.002 55.7203C146.393 55.7203 143.021 51.9541 141.753 48.8872L146.178 47.044C146.967 48.9271 148.896 51.1599 152.007 51.1599C155.819 51.1599 158.186 48.7972 158.186 44.3717V42.7084H158.011C156.873 44.112 154.68 45.3357 151.923 45.3357C146.138 45.3357 140.839 40.2958 140.839 33.8123C140.839 27.2839 146.138 22.204 151.923 22.204C154.685 22.204 156.873 23.4278 158.011 24.7864H158.186V22.9033C158.181 22.9083 162.996 22.9083 162.996 22.9083ZM107.547 33.7724C107.547 29.6065 104.58 26.7644 101.139 26.7644C97.6971 26.7644 94.73 29.6115 94.73 33.7724C94.73 37.8882 97.6971 40.7803 101.139 40.7803C104.575 40.7803 107.547 37.8882 107.547 33.7724ZM112.532 33.7724C112.532 40.4307 107.412 45.3357 101.134 45.3357C94.8549 45.3357 89.7351 40.4307 89.7351 33.7724C89.7351 27.0691 94.8549 22.209 101.134 22.209C107.417 22.209 112.532 27.0691 112.532 33.7724ZM133.096 33.7724C133.096 29.6065 130.129 26.7644 126.688 26.7644C123.246 26.7644 120.279 29.6115 120.279 33.7724C120.279 37.8882 123.246 40.7803 126.688 40.7803C130.129 40.7803 133.096 37.8882 133.096 33.7724ZM138.086 33.7724C138.086 40.4307 132.967 45.3357 126.688 45.3357C120.409 45.3357 115.289 40.4307 115.289 33.7724C115.289 27.0691 120.409 22.209 126.688 22.209C132.967 22.209 138.086 27.0691 138.086 33.7724ZM70.2097 45.3357C60.3097 45.3357 51.988 37.2738 51.988 27.3738C51.988 17.4738 60.3147 9.41187 70.2147 9.41187C75.6942 9.41187 79.5903 11.5597 82.5273 14.3669L79.0658 17.8284C76.9629 15.8554 74.1158 14.3219 70.2147 14.3219C62.987 14.3219 57.3327 20.1511 57.3327 27.3788C57.3327 34.6065 62.987 40.4307 70.2147 40.4307C74.9 40.4307 77.5723 38.5476 79.2856 36.8393C80.6892 35.4407 81.6082 33.4227 81.9579 30.6655H70.2147V25.7604H86.7281C86.9079 26.6345 86.9928 27.6885 86.9928 28.8273C86.9928 32.5086 85.9838 37.064 82.7471 40.3058C79.5853 43.5875 75.5543 45.3357 70.2097 45.3357Z" fill="#5F6368"/>
<path d="M208.044 44.3166V14.1382H211.922L222.417 32.515H222.585L233.08 14.1382H236.958V44.3166H233.08V26.4034L233.249 21.3456H233.08L223.639 37.91H221.363L211.922 21.3456H211.753L211.922 26.4034V44.3166H208.044Z" fill="#63666A"/>
<path d="M248.886 44.9909C246.694 44.9909 244.861 44.3586 243.386 43.0942C241.911 41.8297 241.173 40.1648 241.173 38.0785C241.173 35.8235 242.037 34.0744 243.786 32.7888C245.535 31.5033 247.685 30.8711 250.235 30.8711C252.511 30.8711 254.387 31.2925 255.841 32.1355V31.5454C255.841 30.0281 255.314 28.8058 254.281 27.8996C253.249 26.9934 251.963 26.5297 250.446 26.5297C249.329 26.5297 248.296 26.8037 247.39 27.3306C246.484 27.8574 245.851 28.595 245.514 29.5223L241.974 28.0049C242.459 26.7616 243.386 25.6236 244.798 24.5698C246.21 23.5161 248.064 22.9893 250.361 22.9893C252.996 22.9893 255.187 23.769 256.937 25.3074C258.686 26.8459 259.55 29.0376 259.55 31.8405V44.3165H255.841V41.4504H255.672C254.134 43.8107 251.858 44.9909 248.886 44.9909ZM249.518 41.4504C251.12 41.4504 252.574 40.8603 253.881 39.6591C255.187 38.4578 255.841 37.0458 255.841 35.4231C254.745 34.5169 253.101 34.0744 250.909 34.0744C249.034 34.0744 247.601 34.4748 246.652 35.2967C245.704 36.1186 245.219 37.0669 245.219 38.1628C245.219 39.1744 245.662 39.9752 246.526 40.5653C247.39 41.1553 248.401 41.4504 249.518 41.4504Z" fill="#63666A"/>
<path d="M274.66 44.9909C273.08 44.9909 271.668 44.6537 270.424 43.9793C269.181 43.3049 268.232 42.462 267.621 41.4504H267.453L267.621 44.3165V53.4206H263.744V23.6636H267.453V26.5297H267.621C268.232 25.5182 269.181 24.6752 270.424 24.0008C271.668 23.3264 273.08 22.9893 274.66 22.9893C277.337 22.9893 279.634 24.043 281.573 26.1504C283.511 28.2578 284.481 30.8711 284.481 33.9901C284.481 37.1091 283.511 39.7223 281.573 41.8297C279.634 43.9372 277.337 44.9909 274.66 44.9909ZM274.028 41.4504C275.819 41.4504 277.379 40.776 278.664 39.4062C279.95 38.0363 280.603 36.245 280.603 33.9901C280.603 31.7351 279.95 29.9438 278.664 28.574C277.379 27.2041 275.819 26.5297 274.028 26.5297C272.194 26.5297 270.656 27.2041 269.371 28.5529C268.085 29.9016 267.453 31.714 267.453 33.9901C267.453 36.2661 268.085 38.0785 269.371 39.4272C270.656 40.776 272.216 41.4504 274.028 41.4504Z" fill="#63666A"/>
<path d="M295.713 44.9909C293.416 44.9909 291.499 44.4219 290.002 43.3049C288.506 42.188 287.389 40.776 286.694 39.09L290.15 37.657C291.246 40.2491 293.121 41.5347 295.756 41.5347C296.957 41.5347 297.947 41.2607 298.727 40.7339C299.507 40.207 299.886 39.4905 299.886 38.6264C299.886 37.2777 298.938 36.3715 297.062 35.8868L292.889 34.8752C291.562 34.538 290.318 33.9058 289.138 32.9574C287.958 32.0091 287.368 30.7446 287.368 29.143C287.368 27.3095 288.169 25.8343 289.792 24.6963C291.414 23.5583 293.332 22.9893 295.545 22.9893C297.378 22.9893 299.001 23.4107 300.434 24.2326C301.867 25.0545 302.9 26.2558 303.511 27.7942L300.139 29.1851C299.38 27.3516 297.8 26.4454 295.418 26.4454C294.259 26.4454 293.29 26.6773 292.51 27.162C291.73 27.6467 291.33 28.2789 291.33 29.1008C291.33 30.281 292.236 31.0818 294.07 31.5033L298.158 32.4727C300.097 32.9153 301.53 33.695 302.457 34.7909C303.384 35.8868 303.848 37.1301 303.848 38.5C303.848 40.3545 303.089 41.8929 301.572 43.1363C300.055 44.3586 298.095 44.9909 295.713 44.9909Z" fill="#63666A"/>
<path d="M10.8561 41.3944C12.5793 43.5472 14.3276 46.2445 15.2467 47.8778C16.3655 50.0007 16.8251 51.4343 17.6592 53.9917C18.1487 55.4003 18.6083 55.8298 19.5823 55.8298C20.6462 55.8298 21.1307 55.1106 21.5054 53.9917C22.2796 51.5791 22.884 49.746 23.828 47.9927C25.6912 44.6361 28.0488 41.6491 30.3415 38.782C30.9708 37.9778 34.9918 33.2426 36.8 29.4864C36.8 29.4864 39.0078 25.3805 39.0078 19.6413C39.0078 14.2767 36.825 10.5454 36.825 10.5454L30.5113 12.2387L26.6652 22.3385L25.7161 23.7172L25.5163 23.9769L25.2566 24.2916L24.827 24.8061L24.1977 25.4354L20.7811 28.2176L12.2597 33.1527L10.8561 41.3944Z" fill="#34A853"/>
<path d="M2.04492 28.7968C4.13782 33.562 8.1288 37.7228 10.8561 41.3941L25.2915 24.2913C25.2915 24.2913 23.2536 26.9586 19.5823 26.9586C15.4764 26.9586 12.1498 23.6869 12.1498 19.5561C12.1498 16.7139 13.8431 14.7659 13.8431 14.7659L4.0529 17.3782L2.04492 28.7968Z" fill="#FBBC04"/>
<path d="M25.4614 0.990234C30.2516 2.53868 34.3575 5.78041 36.825 10.5756L25.2866 24.3218C25.2866 24.3218 26.9799 22.3438 26.9799 19.5316C26.9799 15.3108 23.4235 12.129 19.5774 12.129C15.931 12.129 13.8381 14.7714 13.8381 14.7714V6.10009L25.4614 0.990234Z" fill="#4285F4"/>
<path d="M4.68225 7.04384C7.54937 3.62728 12.5743 0.10083 19.5173 0.10083C22.8739 0.10083 25.4264 0.989936 25.4264 0.989936L13.838 14.7661H5.6313L4.68225 7.04384Z" fill="#1A73E8"/>
<path d="M2.04495 28.7966C2.04495 28.7966 0.151855 25.0354 0.151855 19.6159C0.151855 14.481 2.15983 10.0005 4.71227 7.07349L13.8681 14.7907L2.04495 28.7966Z" fill="#EA4335"/>
</g>
<defs>
<clipPath id="clip0_395_962">
<rect width="304" height="55.9307" fill="white"/>
</clipPath>
</defs>
</svg>
