<svg width="25" height="25" viewBox="0 0 25 25" fill="none" xmlns="http://www.w3.org/2000/svg">
<path d="M12.4999 24.9745C19.3894 24.9745 24.9745 19.3894 24.9745 12.4999C24.9745 5.61043 19.3894 0.0253906 12.4999 0.0253906C5.61043 0.0253906 0.0253906 5.61043 0.0253906 12.4999C0.0253906 19.3894 5.61043 24.9745 12.4999 24.9745Z" fill="#FC3F1D"/>
<path d="M17.0138 20.3311H14.2754V6.78712H13.0555C10.8194 6.78712 9.6481 7.90517 9.6481 9.57416C9.6481 11.4677 10.456 12.345 12.1273 13.463L13.5046 14.3913L9.54625 20.3288H6.60181L10.1643 15.0279C8.1157 13.5649 6.96292 12.1367 6.96292 9.72693C6.96292 6.71536 9.06245 4.66675 13.037 4.66675H16.9953V20.3265H17.0138V20.3311Z" fill="white"/>
</svg>
