<svg width="234" height="56" viewBox="0 0 234 56" fill="none" xmlns="http://www.w3.org/2000/svg">
<path fill-rule="evenodd" clip-rule="evenodd" d="M20.4995 12.6148H17.2672C11.313 12.6148 8.16576 15.5981 8.16576 20.1156C8.16576 25.1445 10.2923 27.5311 14.8004 30.5143L18.458 32.9862L7.91058 48.9253H0L9.52672 34.7761C4.08288 30.8553 0.93566 27.1049 0.93566 20.627C0.93566 12.5296 6.54962 7.07446 17.1821 7.07446H27.7295V49.0105H20.4995V12.6148ZM57.6707 18.5813V48.9253H50.5256V36.2251H40.9989V48.9253H33.8539V18.5813H40.9989V30.5996H50.6107V18.5813H57.6707ZM89.9935 55.8294H83.3588V48.9253H67.3675V55.8294H60.7328V43.2145H62.9444C65.4962 38.1856 65.9215 28.5539 65.9215 21.1384V18.5813H86.7612V43.2145H89.9935V55.8294ZM79.7012 24.2069H72.1309V25.1445C72.1309 30.4291 71.6205 38.6118 69.5791 43.2145H79.7012V24.2069ZM106.07 49.4367C96.9684 49.4367 91.7797 44.3226 91.7797 33.7533C91.7797 24.5478 95.9476 17.8994 104.624 17.8994C111.769 17.8994 116.447 21.9055 116.447 32.3895V36.2251H99.1799C99.4351 41.2541 101.477 43.7259 106.665 43.7259C110.153 43.7259 113.895 42.3621 116.107 40.9131V46.7944C114.065 48.2434 110.663 49.4367 106.07 49.4367ZM99.1799 30.9405H109.132V30.3439C109.132 26.5083 108.026 23.6102 104.454 23.6102C101.136 23.6102 99.35 26.1673 99.1799 30.9405ZM128.441 34.009V48.9253H121.296V18.5813H128.441V32.56L138.563 18.5813H145.793L135.671 32.56L147.154 48.8401H138.988L128.441 34.009ZM146.728 33.7533C146.728 43.8964 151.322 49.5219 160.933 49.5219C164.251 49.5219 166.632 48.9253 168.334 47.6468V41.7655C166.547 43.044 164.336 43.8111 161.359 43.8111C156.255 43.8111 154.129 39.8051 154.129 33.5828C154.129 27.0197 156.68 23.6102 161.444 23.6102C164.251 23.6102 166.888 24.5478 168.334 25.4854V19.3484C166.803 18.4961 164.166 17.8994 160.593 17.8994C151.492 17.8994 146.728 24.4626 146.728 33.7533Z" fill="black"/>
<path fill-rule="evenodd" clip-rule="evenodd" d="M211.629 -0.000244141C199.295 -0.000244141 189.258 10.0576 189.258 22.4168C189.258 28.3833 191.64 34.0089 195.808 38.2707C199.89 42.362 209.332 48.1581 209.928 54.3803C210.013 55.3179 210.693 56.085 211.629 56.085C212.564 56.085 213.245 55.3179 213.33 54.3803C213.925 48.2433 223.367 42.362 227.45 38.2707C231.618 34.0941 233.999 28.3833 233.999 22.4168C233.999 10.0576 223.962 -0.000244141 211.629 -0.000244141Z" fill="#FF4433"/>
<path opacity="0.251" fill-rule="evenodd" clip-rule="evenodd" d="M211.629 30.2584C215.967 30.2584 219.454 26.7637 219.454 22.4167C219.454 18.0696 215.967 14.575 211.629 14.575C207.291 14.575 203.803 18.0696 203.803 22.4167C203.803 26.7637 207.291 30.2584 211.629 30.2584Z" fill="black"/>
</svg>
