<svg width="119" height="173" viewBox="0 0 119 173" fill="none" xmlns="http://www.w3.org/2000/svg">
<g clip-path="url(#clip0_731_350)">
<path d="M14.8105 6.56885V52.6416V114.546V156.381H104.159V114.546V52.6416V6.56885H14.8105Z" fill="#99CAFF"/>
<path opacity="0.38" d="M67.8441 6.47803L13.9321 108.855V125.504L76.6275 6.47803H67.8441Z" fill="white"/>
<path opacity="0.38" d="M84.2297 6.47803L13.9321 139.914V156.381H40.8578C62.3317 115.969 83.8056 75.5267 105.28 35.1146V6.47803H84.2297Z" fill="white"/>
<path d="M19.4446 153.899V13.1377H105.976V4.78284H10.54V153.899H19.4446Z" fill="#D8E9EA"/>
<path d="M6.36035 0V52.6416V114.546V162.496H112.64V114.546V52.6416V0H6.36035ZM103.705 114.546V154.05H63.7251C60.7569 154.05 57.7584 154.05 54.7902 154.05H15.2952V114.546V52.6416V8.93001H54.7902C57.7584 8.93001 60.7569 8.93001 63.7251 8.93001H103.705V52.6416V114.546Z" fill="#E9F4F4"/>
<path d="M119 162.496H0V173H119V162.496Z" fill="#F2F9F9"/>
<path d="M112.64 159.65H6.36035V162.496H112.64V159.65Z" fill="#C6E5E4"/>
</g>
<defs>
<clipPath id="clip0_731_350">
<rect width="119" height="173" fill="white"/>
</clipPath>
</defs>
</svg>
