<svg width="170" height="135" viewBox="0 0 170 135" fill="none" xmlns="http://www.w3.org/2000/svg">
<g clip-path="url(#clip0_731_332)">
<path d="M88.1421 5.12598V41.0787V89.3858V122.031H158.361V89.3858V41.0787V5.12598H88.1421Z" fill="#99CAFF"/>
<path opacity="0.38" d="M129.821 5.05511L87.4277 84.9449V97.937L136.723 5.05511H129.821Z" fill="white"/>
<path opacity="0.38" d="M142.674 5.05511L87.4277 109.181V122.031H108.588C125.465 90.4961 142.341 58.937 159.217 27.4016V5.05511H142.674Z" fill="white"/>
<path d="M91.784 120.094V10.252H159.789V3.73227H84.7622V120.094H91.784Z" fill="#D8E9EA"/>
<path d="M81.501 0V41.0787V89.3858V126.803H165.025V89.3858V41.0787V0H81.501ZM157.98 89.3858V120.213H126.56C124.227 120.213 121.871 120.213 119.538 120.213H88.5228V89.3858V41.0787V6.9685H119.562C121.894 6.9685 124.251 6.9685 126.584 6.9685H158.003V41.0787V89.3858H157.98Z" fill="#E9F4F4"/>
<path d="M170.024 126.803H76.5024V135H170.024V126.803Z" fill="#F2F9F9"/>
<path d="M165.025 124.583H81.501V126.803H165.025V124.583Z" fill="#C6E5E4"/>
<path d="M11.6396 5.12598V41.0787V89.3858V122.031H81.8581V89.3858V41.0787V5.12598H11.6396Z" fill="#99CAFF"/>
<path opacity="0.38" d="M53.3183 5.05511L10.9492 84.9449V97.937L60.2211 5.05511H53.3183Z" fill="white"/>
<path opacity="0.38" d="M66.1956 5.05511L10.9492 109.181V122.031H32.11C48.9862 90.4961 65.8624 58.937 82.7386 27.4016V5.05511H66.1956Z" fill="white"/>
<path d="M15.305 120.094V10.252H83.286V3.73227H8.2832V120.094H15.305Z" fill="#D8E9EA"/>
<path d="M4.99854 0V41.0787V89.3858V126.803H88.5228V89.3858V41.0787V0H4.99854ZM81.5009 89.3858V120.213H50.0811C47.7485 120.213 45.392 120.213 43.0593 120.213H12.0204V89.3858V41.0787V6.9685H43.0593C45.392 6.9685 47.7485 6.9685 50.0811 6.9685H81.5009V41.0787V89.3858Z" fill="#E9F4F4"/>
<path d="M93.5214 126.803H0V135H93.5214V126.803Z" fill="#F2F9F9"/>
<path d="M88.5228 124.583H4.99854V126.803H88.5228V124.583Z" fill="#C6E5E4"/>
</g>
<defs>
<clipPath id="clip0_731_332">
<rect width="170" height="135" fill="white"/>
</clipPath>
</defs>
</svg>
