<svg width="170" height="94" viewBox="0 0 170 94" fill="none" xmlns="http://www.w3.org/2000/svg">
<g clip-path="url(#clip0_731_287)">
<path d="M60.7871 3.56671V28.583V62.1955V84.9106H109.213V62.1955V28.583V3.56671H60.7871Z" fill="#99CAFF"/>
<path opacity="0.38" d="M89.5306 3.5174L60.2944 59.1054V68.1455L94.2912 3.5174H89.5306Z" fill="white"/>
<path opacity="0.38" d="M98.3951 3.5174L60.2944 75.9692V84.9106H74.8879C86.5266 62.968 98.1652 41.0089 109.804 19.0663V3.5174H98.3951Z" fill="white"/>
<path d="M63.2987 83.5629V7.13341H110.198V2.59695H58.4561V83.5629H63.2987Z" fill="#D8E9EA"/>
<path d="M56.207 0V28.583V62.1955V88.2308H113.809V62.1955V28.583V0H56.207ZM108.95 62.1955V83.645H87.2818C85.673 83.645 84.0479 83.645 82.4392 83.645H61.0496V62.1955V28.583V4.84875H82.4556C84.0643 4.84875 85.6895 4.84875 87.2982 4.84875H108.967V28.583V62.1955H108.95Z" fill="#E9F4F4"/>
<path d="M117.257 88.2308H52.7598V93.9343H117.257V88.2308Z" fill="#F2F9F9"/>
<path d="M113.809 86.6858H56.207V88.2308H113.809V86.6858Z" fill="#C6E5E4"/>
<path d="M8.02734 3.56671V28.583V62.1955V84.9106H56.4534V62.1955V28.583V3.56671H8.02734Z" fill="#99CAFF"/>
<path opacity="0.38" d="M36.771 3.5174L7.55127 59.1054V68.1455L41.5316 3.5174H36.771Z" fill="white"/>
<path opacity="0.38" d="M45.6519 3.5174L7.55127 75.9692V84.9106H22.1447C33.7834 62.968 45.4221 41.0089 57.0607 19.0663V3.5174H45.6519Z" fill="white"/>
<path d="M10.555 83.5629V7.13341H57.438V2.59695H5.7124V83.5629H10.555Z" fill="#D8E9EA"/>
<path d="M3.44727 0V28.583V62.1955V88.2308H61.0496V62.1955V28.583V0H3.44727ZM56.207 62.1955V83.645H34.5384C32.9297 83.645 31.3045 83.645 29.6958 83.645H8.28987V62.1955V28.583V4.84875H29.6958C31.3045 4.84875 32.9297 4.84875 34.5384 4.84875H56.207V28.583V62.1955Z" fill="#E9F4F4"/>
<path d="M64.4969 88.2308H0V93.9343H64.4969V88.2308Z" fill="#F2F9F9"/>
<path d="M61.0496 86.6858H3.44727V88.2308H61.0496V86.6858Z" fill="#C6E5E4"/>
<path d="M113.547 3.63245V28.6487V62.2612V84.9764H161.973V62.2612V28.6487V3.63245H113.547Z" fill="#99CAFF"/>
<path opacity="0.38" d="M142.29 3.58313L113.054 59.1712V68.2112L147.051 3.58313H142.29Z" fill="white"/>
<path opacity="0.38" d="M151.155 3.58313L113.054 76.035V84.9764H127.648C139.286 63.0173 150.925 41.0746 162.564 19.1156V3.58313H151.155Z" fill="white"/>
<path d="M116.058 83.6286V7.18271H162.958V2.66269H111.216V83.6286H116.058Z" fill="#D8E9EA"/>
<path d="M108.967 0.0657349V28.6487V62.2612V88.2965H166.569V62.2612V28.6487V0.0657349H108.967ZM161.71 62.2612V83.7108H140.042C138.433 83.7108 136.808 83.7108 135.199 83.7108H113.809V62.2612V28.6487V4.91448H135.215C136.824 4.91448 138.449 4.91448 140.058 4.91448H161.727V28.6487V62.2612H161.71Z" fill="#E9F4F4"/>
<path d="M170.016 88.2965H105.52V94H170.016V88.2965Z" fill="#F2F9F9"/>
<path d="M166.569 86.7515H108.967V88.2965H166.569V86.7515Z" fill="#C6E5E4"/>
</g>
<defs>
<clipPath id="clip0_731_287">
<rect width="170" height="94" fill="white"/>
</clipPath>
</defs>
</svg>
