<svg width="175" height="165" viewBox="0 0 175 165" fill="none" xmlns="http://www.w3.org/2000/svg">
<g clip-path="url(#clip0_731_359)">
<path d="M91.5659 4.54782V36.4454V79.3039V108.267H153.216V79.3039V36.4454V4.54782H91.5659Z" fill="#99CAFF"/>
<path opacity="0.38" d="M128.172 4.48495L90.939 75.3639V86.8906L134.213 4.48495H128.172Z" fill="white"/>
<path opacity="0.38" d="M139.461 4.48495L90.939 96.8665V108.268H109.524C124.346 80.289 139.168 52.2895 153.99 24.3109V4.48495H139.461Z" fill="white"/>
<path d="M94.7648 106.549V9.09564H154.471V3.31131H88.5977V106.549H94.7648Z" fill="#D8E9EA"/>
<path d="M85.7124 0V36.4454V79.3039V112.501H159.07V79.3039V36.4454V0H85.7124ZM152.903 79.3039V106.654H125.307C123.259 106.654 121.189 106.654 119.14 106.654H91.8795V79.3039V36.4454V6.18252H119.14C121.189 6.18252 123.259 6.18252 125.307 6.18252H152.903V36.4454V79.3039Z" fill="#E9F4F4"/>
<path d="M167.244 112.501H12.397V119.773H167.244V112.501Z" fill="#F2F9F9"/>
<path d="M159.07 110.531H85.7124V112.501H159.07V110.531Z" fill="#C6E5E4"/>
<path d="M24.3755 4.54782V36.4454V79.3039V108.267H86.0467V79.3039V36.4454V4.54782H24.3755Z" fill="#99CAFF"/>
<path opacity="0.38" d="M60.9812 4.48495L23.7485 75.3639V86.8906L67.0438 4.48495H60.9812Z" fill="white"/>
<path opacity="0.38" d="M72.2702 4.48495L23.7485 96.8665V108.268H42.3335C57.1555 80.289 71.9775 52.2895 86.7995 24.3109V4.48495H72.2702Z" fill="white"/>
<path d="M27.5743 106.549V9.09564H87.3014V3.31131H21.4072V106.549H27.5743Z" fill="#D8E9EA"/>
<path d="M18.543 0V36.4454V79.3039V112.501H91.9004V79.3039V36.4454V0H18.543ZM85.7124 79.3039V106.654H58.1171C56.0684 106.654 53.9987 106.654 51.95 106.654H24.7101V79.3039V36.4454V6.18252H51.9709C54.0196 6.18252 56.0893 6.18252 58.138 6.18252H85.7333V36.4454V79.3039H85.7124Z" fill="#E9F4F4"/>
<path d="M96.2906 112.501H14.1528V119.773H96.2906V112.501Z" fill="#F2F9F9"/>
<path d="M91.9004 110.531H18.543V112.501H91.9004V110.531Z" fill="#C6E5E4"/>
<path d="M13.0034 61.0498H9.95117V141.423H13.0034V61.0498Z" fill="#BFD8D7"/>
<path d="M175 141.402H0V153.641H175V141.402Z" fill="#BFD8D7"/>
<path d="M39.574 153.641L36.3127 165H23.0586L19.7974 153.641H39.574Z" fill="#BFD8D7"/>
<path d="M157.857 153.641L154.596 165H141.342L138.081 153.641H157.857Z" fill="#BFD8D7"/>
<path d="M165.321 61.0498H11.2056V65.5138H165.321V61.0498Z" fill="#BFD8D7"/>
<path d="M166.073 75.2172H11.749V79.6812H166.073V75.2172Z" fill="#BFD8D7"/>
<path d="M151.398 79.6812H148.346V141.402H151.398V79.6812Z" fill="#BFD8D7"/>
<path d="M155.663 110.866C155.663 121.471 151.294 131.468 151.294 131.468H148.471C148.471 131.468 144.102 121.45 144.102 110.866C144.102 100.262 148.471 89.3846 148.471 89.3846H151.294C151.294 89.3846 155.663 100.262 155.663 110.866Z" fill="#BFD8D7"/>
<path d="M128.694 79.6812H125.642V141.402H128.694V79.6812Z" fill="#BFD8D7"/>
<path d="M132.938 110.866C132.938 121.471 128.569 131.468 128.569 131.468H125.747C125.747 131.468 121.377 121.45 121.377 110.866C121.377 100.262 125.747 89.3846 125.747 89.3846H128.569C128.569 89.3846 132.938 100.262 132.938 110.866Z" fill="#BFD8D7"/>
<path d="M109.545 79.6812H106.493V141.402H109.545V79.6812Z" fill="#BFD8D7"/>
<path d="M113.81 110.866C113.81 121.471 109.441 131.468 109.441 131.468H106.618C106.618 131.468 102.249 121.45 102.249 110.866C102.249 100.262 106.618 89.3846 106.618 89.3846H109.441C109.441 89.3846 113.81 100.262 113.81 110.866Z" fill="#BFD8D7"/>
<path d="M90.4165 79.6812H87.3643V141.402H90.4165V79.6812Z" fill="#BFD8D7"/>
<path d="M94.6813 110.866C94.6813 121.471 90.3121 131.468 90.3121 131.468H87.4899C87.4899 131.468 83.1206 121.45 83.1206 110.866C83.1206 100.262 87.4899 89.3846 87.4899 89.3846H90.3121C90.2912 89.3846 94.6813 100.262 94.6813 110.866Z" fill="#BFD8D7"/>
<path d="M69.7412 79.6812H66.689V141.402H69.7412V79.6812Z" fill="#BFD8D7"/>
<path d="M74.0056 110.866C74.0056 121.471 69.6363 131.468 69.6363 131.468H66.8141C66.8141 131.468 62.4448 121.45 62.4448 110.866C62.4448 100.262 66.8141 89.3846 66.8141 89.3846H69.6363C69.6363 89.3846 74.0056 100.262 74.0056 110.866Z" fill="#BFD8D7"/>
<path d="M49.0864 79.6812H46.0342V141.402H49.0864V79.6812Z" fill="#BFD8D7"/>
<path d="M53.3513 110.866C53.3513 121.471 48.982 131.468 48.982 131.468H46.1598C46.1598 131.468 41.7905 121.45 41.7905 110.866C41.7905 100.262 46.1598 89.3846 46.1598 89.3846H48.982C48.982 89.3846 53.3513 100.262 53.3513 110.866Z" fill="#BFD8D7"/>
<path d="M28.4316 79.6812H25.3794V141.402H28.4316V79.6812Z" fill="#BFD8D7"/>
<path d="M32.571 110.866C32.571 121.471 28.2017 131.468 28.2017 131.468H25.3795C25.3795 131.468 21.0103 121.45 21.0103 110.866C21.0103 100.262 25.3795 89.3846 25.3795 89.3846H28.2017C28.2017 89.3846 32.571 100.262 32.571 110.866Z" fill="#BFD8D7"/>
<path d="M167.579 61.0498H164.526V141.423H167.579V61.0498Z" fill="#BFD8D7"/>
</g>
<defs>
<clipPath id="clip0_731_359">
<rect width="175" height="165" fill="white"/>
</clipPath>
</defs>
</svg>
