<svg width="100" height="173" viewBox="0 0 100 173" fill="none" xmlns="http://www.w3.org/2000/svg">
<g clip-path="url(#clip0_1509_150)">
<path d="M19.9998 69.7001L30.5998 70.0001L34.7998 60.0001L27.6998 56.6001H18.1998L13.7998 59.2001L14.0998 62.2001L19.9998 69.7001Z" fill="#DFF1FF"/>
<path d="M7.4998 57.8999L1.1998 31.1999L0.799805 17.6999L4.5998 5.7999C4.5998 5.7999 10.3998 2.8999 11.3998 2.5999C12.3998 2.2999 19.5998 0.899902 20.3998 0.899902C21.1998 0.899902 26.8998 1.7999 26.8998 1.7999L35.7998 3.9999L39.8998 8.8999L45.4998 17.1999L50.2998 34.5999L53.3998 52.4999L52.4998 60.7999L49.8998 66.5999L41.1998 69.6999L37.2998 69.3999L39.6998 64.2999L40.0998 59.7999L39.3998 58.1999L38.0998 56.5999L35.8998 55.1999L32.0998 54.1999L25.2998 52.7999C25.2998 52.7999 21.0998 52.8999 20.7998 52.8999C20.4998 52.8999 15.7998 53.5999 15.7998 53.5999L11.9998 54.7999L7.9998 58.8999L7.4998 57.8999Z" fill="#DFF1FF"/>
<path d="M62.9004 96.9C62.9004 96.9 45.7004 91.9 44.4004 91.3C43.2004 90.6 31.9004 89.5 31.9004 89.5L30.8004 89.6C30.8004 90.7 30.7004 95.3 30.7004 95.4C30.7004 95.5 25.9004 95.4 25.4004 95.4L32.9004 97.8L48.6004 98.6L48.4004 108.8L48.7004 115.6L53.3004 117.8L57.9004 115.6L57.8004 98.3L62.9004 96.9Z" fill="#2196F3"/>
<path d="M24.1 90.3L22.6 90.4L18 90L21.8 94.4L25.2 95.5C25.1 95.2 24.1 90.3 24.1 90.3Z" fill="#2196F3"/>
<path d="M88.6998 47.8998L68.4998 45.7998L61.4998 49.4998L60.2998 57.2998C60.2998 57.2998 71.1998 72.6998 71.3998 73.1998L83.0998 75.2998L89.5998 63.7998L92.5998 51.6998L88.6998 47.8998ZM81.7998 64.7998C81.5998 64.9998 78.5998 69.9998 78.5998 69.9998L75.2998 68.9998L64.9998 54.6998L66.3998 52.0998L70.1998 51.2998L79.2998 51.1998L86.1998 53.4998L86.4998 56.7998C86.4998 56.7998 81.8998 64.5998 81.7998 64.7998Z" fill="#DFF1FF"/>
<path d="M39.9998 59.6999C39.8998 59.6999 38.4998 56.4999 38.4998 56.4999C38.4998 56.4999 36.2998 55.4999 35.8998 55.0999C35.3998 54.6999 33.4998 54.3999 33.3998 54.3999C33.2998 54.3999 28.5998 52.4999 28.1998 52.4999C27.7998 52.3999 15.1998 52.7999 15.1998 52.7999L9.6998 56.6999L8.2998 61.7999L12.5998 68.9999L17.0998 75.3999L20.1998 79.1999L22.9998 90.1999L24.4998 95.3999C24.4998 95.3999 29.8998 96.3999 30.0998 96.2999C30.1998 96.1999 30.9998 94.4999 31.0998 94.0999C31.1998 93.7999 33.6998 76.6999 33.5998 76.4999C33.5998 76.2999 34.9998 73.9999 35.8998 72.4999C36.7998 70.8999 37.2998 70.0999 37.2998 69.9999C37.2998 69.8999 39.6998 64.4999 39.9998 63.7999C40.3998 63.1999 40.0998 59.7999 39.9998 59.6999ZM21.5998 70.5999L24.9998 70.4999L25.3998 75.5999L21.5998 70.5999Z" fill="#DFF1FF"/>
<path d="M20.3006 79.2001C20.3006 79.2001 16.2006 83.0001 16.2006 83.1001C16.2006 83.3001 16.1006 85.9001 16.1006 85.9001L17.3006 89.4001L21.7006 91.3001L24.0006 90.9001C24.0006 90.9001 35.8006 90.0001 36.2006 90.2001C36.6006 90.4001 48.6006 93.4001 48.6006 93.4001L64.3006 97.2001C64.3006 97.2001 76.5006 95.8001 76.8006 95.7001C77.1006 95.6001 85.8006 90.6001 85.8006 90.6001L90.8006 83.0001L87.3006 78.1001C87.3006 78.1001 79.3006 74.8001 78.8006 74.6001C78.3006 74.4001 57.9006 72.6001 57.9006 72.6001L45.4006 73.1001L20.3006 79.2001Z" fill="#DFF1FF"/>
<path d="M48.6 116.3L47 120V132.2C47 132.2 51.2 136.1 51.6 136C52.1 135.9 58.1 134.8 58.1 134.8L58 116.4L55.3 118L48.6 116.3Z" fill="#DFF1FF"/>
<path d="M87.2997 56.6999C87.7997 55.8999 87.8997 54.8999 87.5997 53.9999C87.2997 53.0999 86.5997 52.2999 85.7997 51.8999C82.4997 50.3999 75.6997 48.2999 66.7997 51.1999C65.7997 51.4999 64.8997 52.3999 64.5997 53.3999C64.2997 54.4999 64.4997 55.5999 65.0997 56.4999L75.1997 69.5999C75.7997 70.3999 76.6997 70.7999 77.5997 70.7999C77.6997 70.7999 77.6997 70.7999 77.7997 70.7999C78.7997 70.6999 79.6997 70.0999 80.2997 69.1999L87.2997 56.6999ZM78.4997 68.2999C78.2997 68.5999 77.9997 68.7999 77.5997 68.7999C77.1997 68.7999 76.8997 68.6999 76.6997 68.3999L66.5997 55.2999C66.2997 54.8999 66.1997 54.4999 66.3997 53.9999C66.4997 53.5999 66.8997 53.1999 67.2997 53.0999C70.2997 52.0999 73.0997 51.7999 75.4997 51.7999C79.6997 51.7999 82.9997 52.8999 84.8997 53.7999C85.2997 53.9999 85.4997 54.2999 85.6997 54.6999C85.7997 55.0999 85.7997 55.4999 85.5997 55.7999L78.4997 68.2999Z" fill="#2196F3"/>
<path d="M50.2996 144.3L38.8996 144C38.8996 144 24.3996 148.8 24.0996 148.9C23.7996 149 12.0996 153.8 12.0996 153.8C12.0996 153.8 9.79964 150.9 10.2996 150.2C10.7996 149.5 12.9996 145.8 13.1996 145.6C13.3996 145.5 21.9996 141.8 21.9996 141.8C21.9996 141.8 39.2996 136.9 39.5996 136.8C39.8996 136.7 49.8996 135.3 49.8996 135.3L61.5996 135.8L68.7996 136.9L91.7996 144.9L96.1996 149.5L95.1996 152.8L83.6996 150L75.9996 147.1L67.4996 144.9L57.9996 143.6L50.2996 144.3Z" fill="#DFF1FF"/>
<path d="M35 74.3997L39.8 73.6997L39.7 69.8997L37 69.6997L35 74.3997Z" fill="#DFF1FF"/>
<path d="M26.7002 70.5L26.8002 74.1C26.8002 74.1 27.1002 74.8 27.3002 74.8C27.4002 74.7 29.9002 71.5 29.8002 71.3" fill="#DFF1FF"/>
<path d="M25.8005 77.0001C25.9005 77.0001 25.9005 77.0001 26.0005 77.0001C27.0005 76.9001 27.9005 76.3001 28.5005 75.4001L35.6005 62.9001C36.1005 62.1001 36.2005 61.1001 35.9005 60.2001C35.6005 59.3001 34.9005 58.5001 34.1005 58.1001C30.8005 56.6001 24.0005 54.5001 15.1005 57.4001C14.1005 57.7001 13.2005 58.6001 12.9005 59.6001C12.6005 60.7001 12.8005 61.8001 13.4005 62.7001L23.5005 75.8001C24.0005 76.5001 24.9005 77.0001 25.8005 77.0001ZM22.3005 71.1001H24.7005L25.0005 74.6001C25.0005 74.6001 24.9005 74.6001 24.9005 74.5001L22.3005 71.1001ZM27.0005 74.0001L26.7005 71.1001H28.6005L27.0005 74.0001ZM14.7005 60.2001C14.8005 59.8001 15.2005 59.4001 15.6005 59.3001C18.6005 58.3001 21.4005 58.0001 23.8005 58.0001C28.0005 58.0001 31.3005 59.1001 33.2005 60.0001C33.6005 60.2001 33.8005 60.5001 34.0005 60.9001C34.1005 61.3001 34.1005 61.7001 33.9005 62.0001L29.8005 69.2001L20.9005 69.3001L15.0005 61.6001C14.6005 61.1001 14.5005 60.6001 14.7005 60.2001Z" fill="#2196F3"/>
<path d="M96.2001 153.1C96.7001 152.5 97.0001 151.6 96.9001 150.8C96.6001 148 94.8001 145.5 92.2001 144.4C90.3001 143.6 88.1001 142.6 85.5001 141.7C85.3001 140.8 85.0001 140 84.6001 139.2C82.4001 134.8 77.8001 131.9 72.6001 131.6C64.1001 131.2 60.8001 131 59.6001 130.9C59.6001 130.6 59.7001 130.3 59.7001 130V120C59.7001 118.5 59.1001 117 58.1001 115.9C58.5001 115.1 58.8001 114.2 58.8001 113.2V99.1999C63.1001 98.6999 67.8001 97.9999 72.9001 97.0999C82.5001 95.4999 87.6001 90.6999 90.0001 87.3999C91.4001 85.4999 91.6001 82.9999 90.4001 80.8999C89.0001 78.5999 86.7001 76.7999 83.8001 75.4999L92.6001 58.1999C93.4001 56.4999 93.7001 54.5999 93.2001 52.7999C92.6001 50.3999 90.9001 48.3999 88.7001 47.3999C81.9001 44.3999 73.6001 44.5999 67.8001 45.1999C63.9001 45.5999 60.6001 48.3999 59.4001 52.1999C58.5001 55.2999 59.1001 58.6999 61.2001 61.1999L70.0001 72.1999C59.7001 71.1999 48.0001 72.0999 41.0001 72.8999V70.7999C45.8001 70.3999 49.1001 68.8999 51.2001 66.2999C56.4001 59.8999 53.7001 47.4999 49.6001 28.6999L49.4001 27.8999C46.7001 15.2999 41.5001 6.8999 33.9001 2.7999C27.1001 -0.900098 18.2001 -0.900098 8.40012 2.7999C-9.49988 9.6999 6.70012 58.6999 7.40012 60.7999V60.3999C7.20012 62.6999 7.90012 64.9999 9.40012 66.8999L18.6001 78.2999C18.8001 78.5999 19.0001 78.7999 19.2001 79.0999C17.7001 80.4999 14.1001 84.2999 15.1001 87.5999C15.1001 87.6999 15.2001 87.7999 15.3001 87.8999C15.7001 89.2999 16.7001 91.4999 19.4001 93.6999C23.3001 96.8999 30.8001 99.8999 45.1001 99.8999C45.8001 99.8999 46.5001 99.8999 47.2001 99.8999V113.1C47.2001 114.1 47.4001 114.9 47.8001 115.7C46.8001 116.9 46.2001 118.3 46.2001 119.9V129.8C46.2001 130.1 46.2001 130.4 46.3001 130.8C44.8001 130.9 41.4001 131.1 33.7001 131.5C28.5001 131.8 23.9001 134.7 21.7001 139.1C21.3001 139.9 21.0001 140.8 20.8001 141.6C18.3001 142.6 16.0001 143.5 14.1001 144.3C11.5001 145.4 9.70012 147.9 9.40012 150.7C9.30012 151.6 9.60012 152.4 10.1001 153C8.20012 153.8 6.80012 155.6 6.80012 157.6C6.80012 160.4 9.30012 162.7 12.5001 162.7C15.7001 162.7 18.2001 160.4 18.2001 157.6C18.2001 155.8 17.1001 154.2 15.5001 153.3L35.1001 146.5C38.2001 145.4 41.4001 144.9 44.6001 144.9H50.0001L51.3001 162.8C49.7001 163.7 48.6001 165.3 48.6001 167.2C48.6001 170 51.1001 172.3 54.3001 172.3C57.5001 172.3 60.0001 170 60.0001 167.2C60.0001 165.2 58.7001 163.5 56.9001 162.7L57.4001 145H61.9001C65.1001 145 68.3001 145.5 71.4001 146.6L91.0001 153.4C89.4001 154.3 88.3001 155.9 88.3001 157.7C88.3001 160.5 90.8001 162.8 94.0001 162.8C97.2001 162.8 99.7001 160.5 99.7001 157.7C99.5001 155.6 98.1001 153.9 96.2001 153.1ZM59.1001 132.8C60.2001 132.9 63.2001 133.1 72.6001 133.5C77.1001 133.7 81.0001 136.2 82.9001 140C83.0001 140.2 83.1001 140.5 83.2001 140.7C75.6001 137.9 66.2001 135.1 58.0001 134.5C58.4001 134 58.8001 133.4 59.1001 132.8ZM62.8001 59.9999C61.2001 57.9999 60.7001 55.2999 61.4001 52.7999C62.3001 49.7999 64.9001 47.5999 68.1001 47.1999C73.6001 46.5999 81.5001 46.3999 87.9001 49.1999C89.6001 49.8999 90.9001 51.4999 91.3001 53.1999C91.6001 54.4999 91.4001 55.9999 90.8001 57.1999L82.0001 74.7999C79.3001 73.7999 76.2001 73.0999 72.9001 72.6999L62.8001 59.9999ZM88.7001 81.8999C89.5001 83.1999 89.4001 84.8999 88.4001 86.1999C85.3001 90.2999 77.7001 96.8999 61.2001 95.3999C56.4001 94.9999 51.4001 93.5999 46.4001 91.4999C42.6001 89.8999 37.1001 88.1999 31.9001 88.8999L32.1001 85.8999C32.4001 82.3999 33.4001 78.9999 35.0001 75.7999C39.2001 75.0999 81.2001 69.1999 88.7001 81.8999ZM36.2001 73.5999L37.5001 70.9999H37.6001C38.0001 70.9999 38.4001 70.9999 38.8001 70.9999L38.9001 73.2999C37.9001 73.2999 37.0001 73.3999 36.2001 73.5999ZM9.10012 4.6999C18.4001 1.1999 26.7001 1.0999 33.0001 4.4999C40.0001 8.2999 44.9001 16.2999 47.5001 28.1999L47.7001 28.9999C51.7001 47.1999 54.3001 59.1999 49.7001 64.8999C47.6001 67.3999 44.1001 68.6999 38.6001 68.7999L40.6001 64.7999C41.5001 62.9999 41.7001 60.8999 41.1001 58.9999C40.5001 57.0999 39.2001 55.4999 37.5001 54.4999C30.0001 50.4999 20.3001 51.1999 15.2001 51.8999C13.0001 52.1999 10.9001 53.3999 9.50012 55.0999C9.00012 55.6999 8.70012 56.2999 8.40012 56.8999C5.20012 46.6999 -4.79988 9.9999 9.10012 4.6999ZM16.9001 86.5999V86.4999C16.9001 86.3999 16.9001 86.2999 16.9001 86.2999V86.1999C17.0001 84.3999 18.9001 82.1999 20.2001 80.8999C20.8001 82.0999 21.3001 83.3999 21.5001 84.6999L22.4001 89.5999C20.0001 89.2999 18.3001 88.6999 17.5001 87.7999C17.3001 87.4999 17.0001 87.0999 16.9001 86.5999ZM20.7001 92.1999C20.1001 91.7999 19.7001 91.2999 19.3001 90.8999C20.3001 91.1999 21.5001 91.3999 22.8001 91.5999L23.2001 93.8999C22.3001 93.2999 21.4001 92.7999 20.7001 92.1999ZM29.6001 94.2999C29.6001 94.6999 29.2001 94.9999 28.8001 94.9999C27.9001 94.8999 26.6001 94.6999 25.9001 94.5999C25.6001 94.5999 25.4001 94.2999 25.3001 93.9999L23.5001 84.2999C23.0001 81.5999 21.9001 79.1999 20.2001 77.0999L11.0001 65.5999C8.50012 62.4999 9.00012 57.7999 12.3001 55.2999C13.3001 54.4999 14.5001 54.0999 15.7001 53.8999C17.6001 53.5999 20.1001 53.3999 22.9001 53.3999C27.3001 53.3999 32.3001 54.0999 36.5001 56.2999C37.8001 56.9999 38.7001 58.1999 39.2001 59.5999C39.7001 60.9999 39.5001 62.5999 38.8001 63.8999L33.3001 74.7999C31.6001 78.1999 30.5001 81.7999 30.2001 85.5999L29.6001 94.2999ZM30.8001 96.5999C30.8001 96.5999 30.9001 96.5999 30.8001 96.5999C31.3001 96.1999 31.6001 95.6999 31.6001 95.0999L31.9001 90.8999C36.8001 89.9999 42.1001 91.6999 45.8001 93.2999C50.3001 95.1999 54.7001 96.4999 59.1001 97.0999C46.0001 98.4999 37.0001 97.9999 30.8001 96.5999ZM56.8001 99.2999V113.1C56.8001 115.2 55.1001 116.9 53.0001 116.9C50.9001 116.9 49.2001 115.2 49.2001 113.1V99.7999C51.5001 99.7999 54.1001 99.5999 56.8001 99.2999ZM23.5001 139.9C25.4001 136.1 29.3001 133.7 33.8001 133.4C42.2001 133 45.5001 132.8 46.9001 132.7C47.2001 133.3 47.6001 133.9 48.0001 134.4C39.9001 135 30.6001 137.8 23.2001 140.6C23.3001 140.4 23.3001 140.2 23.5001 139.9ZM16.3001 157.7C16.3001 159.5 14.6001 160.9 12.5001 160.9C10.4001 160.9 8.70012 159.4 8.70012 157.7C8.70012 156 10.4001 154.5 12.5001 154.5C14.6001 154.5 16.3001 155.9 16.3001 157.7ZM44.5001 143C41.0001 143 37.6001 143.6 34.4001 144.7L12.9001 152.1C12.5001 152.2 12.2001 152.2 11.9001 151.9C11.6001 151.7 11.4001 151.3 11.5001 150.9C11.7001 148.8 13.1001 146.9 15.0001 146.1C21.3001 143.4 37.1001 137 49.4001 136.4L49.9001 143H44.5001ZM58.0001 167.2C58.0001 169 56.3001 170.4 54.2001 170.4C52.1001 170.4 50.4001 168.9 50.4001 167.2C50.4001 165.5 52.1001 164 54.2001 164C56.3001 164 58.0001 165.4 58.0001 167.2ZM51.3001 136.4C51.8001 136.5 52.4001 136.6 53.0001 136.6C53.9001 136.6 54.8001 136.4 55.6001 136.1L54.9001 161.7H53.3001L51.3001 136.4ZM52.9001 134.6C50.3001 134.6 48.1001 132.5 48.1001 129.8V120C48.1001 119.1 48.4001 118.2 49.0001 117.4C50.0001 118.4 51.4001 119 53.0001 119C54.5001 119 55.9001 118.4 56.9001 117.5C57.4001 118.2 57.7001 119.1 57.7001 120V129.9C57.7001 132.5 55.6001 134.6 52.9001 134.6ZM72.0001 144.7C68.7001 143.6 65.3001 143 61.9001 143H57.4001L57.6001 136.5C69.9001 137.3 85.3001 143.5 91.5001 146.2C93.4001 147 94.8001 148.9 95.0001 151C95.0001 151.4 94.9001 151.7 94.6001 152C94.3001 152.2 93.9001 152.3 93.6001 152.2L72.0001 144.7ZM93.8001 160.9C91.7001 160.9 90.0001 159.4 90.0001 157.7C90.0001 156 91.7001 154.5 93.8001 154.5C95.9001 154.5 97.6001 156 97.6001 157.7C97.6001 159.4 95.9001 160.9 93.8001 160.9Z" fill="#2196F3"/>
<path d="M50.1006 135H56.9006L55.9006 162.8L52.0006 162.5L50.1006 135Z" fill="#2196F3"/>
<path d="M48.6 135.3C48.1 135.3 22.8 141.8 22.8 141.8L22.5 139.3C22.5 139.3 26.1 134.3 26.6 134.1C27.1 133.9 34.4 132.7 34.4 132.7L45.2 131.6L48.4 133.2L48.6 135.3Z" fill="#2196F3"/>
<path d="M56.5 134.8L59 131.4L76 132.7L82 136.1L84.5 140.2L85 142.5L59.3 135.5L56.5 134.8Z" fill="#2196F3"/>
<path d="M93.7 161.2C96.0196 161.2 97.9 159.633 97.9 157.7C97.9 155.767 96.0196 154.2 93.7 154.2C91.3804 154.2 89.5 155.767 89.5 157.7C89.5 159.633 91.3804 161.2 93.7 161.2Z" fill="#2196F3"/>
<path d="M54.0004 171.2C56.5409 171.2 58.6004 169.499 58.6004 167.4C58.6004 165.301 56.5409 163.6 54.0004 163.6C51.4599 163.6 49.4004 165.301 49.4004 167.4C49.4004 169.499 51.4599 171.2 54.0004 171.2Z" fill="#2196F3"/>
<path d="M12.0004 161.7C14.5409 161.7 16.6004 159.999 16.6004 157.9C16.6004 155.801 14.5409 154.1 12.0004 154.1C9.45988 154.1 7.40039 155.801 7.40039 157.9C7.40039 159.999 9.45988 161.7 12.0004 161.7Z" fill="#2196F3"/>
</g>
<defs>
<clipPath id="clip0_1509_150">
<rect width="99.5" height="172.3" fill="white"/>
</clipPath>
</defs>
</svg>
