<svg width="154" height="147" viewBox="0 0 154 147" fill="none" xmlns="http://www.w3.org/2000/svg">
<g clip-path="url(#clip0_1509_112)">
<path d="M11.6997 2.9C11.6997 2.9 3.19969 7.6 3.19969 14.8C3.19969 22 1.59969 45.1 7.89969 57.6L2.39969 62.6C2.39969 62.6 0.599692 69.4 0.799692 70.3C0.999692 71.2 4.29969 78.3 4.69969 78.8C5.09969 79.3 8.39969 83 8.39969 83L8.79969 87.6L8.99969 99.2L50.5997 139L57.5997 144.9L138.3 123.6C138.3 123.6 139.2 89.6 152.9 76.3L149.7 69.5L125.1 58L107.5 54.6L104.7 55.5L98.1997 54.6L93.9997 55.3L91.4997 55.5L92.4997 48L91.2997 35.8L89.9997 25.1L84.1997 13.7L72.9997 4.8L62.5997 1L11.6997 2.9Z" fill="#DFF1FF"/>
<path d="M153.2 75C152.6 72.8 150.9 68.5 146.7 66.8C142.4 64.4 115.4 49.9 92.2001 54.7C93.7001 43 93.2001 32.8 90.5001 24.3C86.1001 10 72.4001 0 57.2001 0C57.1001 0 57.0001 0 56.9001 0L16.0001 1.1C15.5001 1.1 15.1001 1.2 14.6001 1.2C10.6001 1.8 7.40012 3.8 5.20012 7.3C-3.59988 21 5.00012 52.7 6.40013 57.7C5.90013 57.9 5.50012 58.2 5.10012 58.5C-1.09987 64 -1.69987 70.9 3.40013 78.6C4.40013 80.1 5.80013 81.5 7.60012 82.9V96.5C7.60012 98.3 8.30013 100.1 9.70012 101.3C17.6001 108.9 49.5001 139.2 55.8001 145.2C56.4001 145.7 57.1001 146 57.9001 146C58.2001 146 58.4001 146 58.7001 145.9L138 124.7C139 124.4 139.7 123.5 139.6 122.4C139.1 117.3 138.6 99 152.6 78.6C153.3 77.7 153.6 76.3 153.2 75ZM140.9 66.1H140.8C136.1 66.7 131.9 69.4 129.2 73.5C127.1 76.8 124.9 81.7 123.3 88.7C110.7 79 98.8001 74.4 88.6001 72.6C90.1001 67.1 91.2001 61.8 92.0001 56.8C110 52.7 131.2 61.4 140.9 66.1ZM121.3 111.2L73.3001 122C73.3001 114.9 73.1001 107 72.8001 100.6V100.5C89.2001 90.8 118.5 91 122.8 91.1C121.8 96.6 121.2 103.2 121.3 111.2ZM37.8001 99.5L38.1001 99.8C38.1001 99.7 37.2001 88.8 42.9001 83.8C45.2001 81.8 48.3001 81 52.2001 81.3H52.3001C53.3001 81.4 54.4001 81.5 55.5001 81.8C56.1001 82 70.2001 85.7 70.9001 100.7C71.6001 114.8 71.4001 136.1 71.3001 140.6L58.9001 144C61.1001 122.1 50.4001 108.8 37.8001 99.5ZM120.5 89.1C111.9 89.1 87.8001 89.9 72.6001 98.4C70.5001 83.8 56.1001 80 55.9001 79.9C55.1001 79.7 54.3001 79.6 53.6001 79.5C61.3001 75.5 87.8001 65 120.5 89.1ZM56.9001 2C57.0001 2 57.1001 2 57.2001 2C71.5001 2 84.5001 11.4 88.7001 24.9C92.5001 37.2 91.8001 53.2 86.6001 72.3C68.0001 69.7 54.7001 76.4 51.1001 78.5L33.1001 69.3C37.4001 60.5 38.5001 23.3 27.6001 7.7C26.1001 5.6 24.5001 4 22.7001 2.9L56.9001 2ZM6.90013 8.4C8.80013 5.4 11.4001 3.7 14.9001 3.2C19.2001 2.6 23.0001 4.5 26.0001 8.9C36.3001 23.7 35.3001 60.3 31.3001 68.5L10.6001 57.9C9.90013 57.5 9.10012 57.4 8.40012 57.4C7.20012 53.2 -1.39988 21.3 6.90013 8.4ZM5.10012 77.5C0.500125 70.6 1.00012 64.9 6.40013 60.1C7.30013 59.3 8.60012 59.1 9.70012 59.7L48.4001 79.5C45.7001 79.8 43.4001 80.8 41.6001 82.4C36.4001 86.9 36.0001 95 36.0001 98.2C31.0001 94.7 25.8001 91.7 21.0001 89C13.8001 84.9 7.60012 81.4 5.10012 77.5ZM11.0001 100C10.1001 99.1 9.60013 97.9 9.60013 96.6V84.4C12.6001 86.5 16.2001 88.5 20.1001 90.7C37.0001 100.3 59.9001 113.4 56.9001 143.6C50.1001 137.2 18.9001 107.5 11.0001 100ZM73.3001 140.1C73.3001 137.4 73.4001 131.3 73.4001 124.1L121.4 113.3C121.5 117.5 121.7 122.1 122.2 127.1L73.3001 140.1ZM150.9 77.6C136.5 98.6 137 117.5 137.5 122.7C137.5 122.8 137.5 122.9 137.4 122.9L124 126.5C121.3 96.5 126.2 81.7 130.8 74.5C133.2 70.8 136.9 68.5 141 68C141.5 67.9 142 67.9 142.4 67.9C143.7 67.9 144.9 68.2 145.9 68.6C146.1 68.7 146.2 68.8 146.3 68.8C149.4 70.3 150.7 73.4 151.3 75.6C151.5 76.3 151.3 77 150.9 77.6Z" fill="#2196F3"/>
<path d="M17.5004 2L27.3004 7.8L33.3004 25.1C33.3004 25.1 35.4004 53.9 35.1004 54.4C34.8004 54.9 32.1004 69.7 32.1004 69.7L8.40039 57.3L4.30039 48.5L1.90039 26.9C1.90039 26.9 2.80039 15.8 2.80039 15.3C2.80039 14.8 7.80039 4.6 7.80039 4.6L17.5004 2Z" fill="#2196F3"/>
<path d="M123.6 90.4999C110.9 77.3999 86.7998 73.4999 86.7998 73.4999L89.0998 68.3999L91.3998 55.4999L100.2 54.8999L118.2 55.8999L139.5 63.8999L143.6 67.1999L137.1 67.9999L132.8 71.0999L129.5 74.3999L126.6 81.0999L123.6 90.4999Z" fill="#2196F3"/>
<path d="M8.5 83.1001L9 99.2001L16 106.3L34.9 123.9L57.6 144.9L58.4 131.4L53.3 117.7L43.9 105L32.2 96.6001L13.2 85.0001L8.5 83.1001Z" fill="#2196F3"/>
<path d="M72 123.4L72.5 141.5C72.5 141.5 123.4 128.3 123.2 127.8C123.1 127.3 122.3 111.1 122.3 111.1L72 123.4Z" fill="#2196F3"/>
</g>
<defs>
<clipPath id="clip0_1509_112">
<rect width="153.4" height="146.2" fill="white"/>
</clipPath>
</defs>
</svg>
