<svg width="91" height="109" viewBox="0 0 91 109" fill="none" xmlns="http://www.w3.org/2000/svg">
<g clip-path="url(#clip0_1509_141)">
<path d="M48.5004 0.600098L1.60039 13.0001L0.900391 77.8001L3.80039 79.4001L6.10039 77.5001L6.00039 48.8001L32.5004 70.5001L31.7004 104.9L33.5004 107.2L37.3004 106.3L37.6004 69.5001L79.7004 53.3001L84.3004 51.1001L83.1004 78.0001C83.1004 78.0001 84.8004 81.5001 85.0004 81.6001C85.2004 81.7001 88.6004 80.3001 88.6004 80.3001L89.0004 29.4001L90.0004 23.7001L90.2004 19.4001L48.5004 0.600098ZM5.90039 27.9001L15.6004 34.4001L6.40039 39.2001C6.50039 39.2001 5.70039 29.8001 5.90039 27.9001ZM32.1004 66.3001C31.7004 67.2001 6.90039 44.8001 6.90039 44.8001L6.20039 42.8001L18.1004 36.8001L32.3004 47.2001C32.3004 47.3001 32.5004 65.4001 32.1004 66.3001ZM37.4004 65.9001L37.0004 47.7001H38.0004L46.9004 44.8001L47.0004 55.4001L49.1004 56.6001L51.7004 56.1001L51.8004 43.6001L65.5004 38.0001L68.2004 39.3001L78.0004 45.7001L82.3004 48.8001L37.4004 65.9001ZM83.6004 45.0001C83.5004 45.5001 69.8004 36.8001 69.8004 36.8001L84.1004 31.9001C84.1004 31.9001 83.7004 44.5001 83.6004 45.0001Z" fill="#DFF1FF"/>
<path d="M91 20.1C91 19.9 91 19.8 90.9 19.7C90.7 19 90.1 18.5 89.5 18.2L49.9 0.4C49 0 48.1 -0.1 47.2 0.1L2.3 11.8C1.3 12.1 0.5 12.9 0.3 13.9V14L0 19.1V19.5V20.6C0 20.8 0 21.1 0 21.3V77.1C0 78.8 1.3 80 2.7 80H4.3C5.8 80 7 78.8 7 77.3V50.7L31.3 70.8V105.7C31.3 107.2 32.5 108.4 34 108.4H35.6C37.1 108.4 38.3 107.2 38.3 105.7V70.7L82.9 53.3V79.4C82.9 80.9 84.1 82.1 85.6 82.1H87.2C88.7 82.1 89.9 80.9 89.9 79.4V29.4C90.7 28.4 91.1 27.1 91.1 25.8L91 20.1ZM39 48.6L45.7 46.2V54.7C45.7 56.2 46.9 57.4 48.4 57.4H50C51.5 57.4 52.7 56.2 52.7 54.7V43.8L65.4 39.3L80.6 48.2L38.3 64.7V48.9C38.5 48.8 38.7 48.7 39 48.6ZM47.7 45.5L50.7 44.4V54.6C50.7 55 50.4 55.3 50 55.3H48.4C48 55.3 47.7 55 47.7 54.6V45.5ZM69.3 37.8L82.9 45.9V47.2L67.9 38.4L69.3 37.8ZM82.8 43.6L71.7 37L82.8 33V43.6ZM38.3 46.8C36 47.6 33.4 47.2 31.5 45.7L3.6 24C2.7 23.3 2.1 22.2 2 21.1V19.5L2.1 17.1L32.6 39.2C33.3 39.7 34.2 40 35 40C35.4 40 35.8 39.9 36.2 39.8L89 23.3V25.8C89 27.5 87.9 29.1 86.2 29.7L38.3 46.8ZM31.3 64.1L7.3 43.9L18.3 38L30.2 47.2C30.6 47.5 30.9 47.7 31.3 48H31.2V64.1H31.3ZM13.7 34.4L7 37.9V29.2L13.7 34.4ZM7 40.2L15.4 35.7L16.6 36.7L7 41.8V40.2ZM2.3 14.3C2.3 14.2 2.4 13.8 2.8 13.7L47.7 2.1C48.2 2 48.7 2 49.1 2.2L88.7 20C89 20.1 89.1 20.4 89.1 20.6V20.8C89.1 21 89 21.3 88.6 21.4L35.7 38C35.1 38.2 34.4 38.1 33.8 37.7L2.6 15.1C2.3 14.8 2.3 14.5 2.3 14.3ZM4.3 78H2.7C2.4 78 2 77.6 2 77.3V25.3C2.1 25.4 2.2 25.5 2.3 25.6L4.9 27.6V77.2C5 77.6 4.7 78 4.3 78ZM7 48.1V46.3L31.3 66.7V68.2L7 48.1ZM35.6 106.3H34C33.6 106.3 33.3 106 33.3 105.6V48.8C34.1 49 35 49.2 35.9 49.2C36 49.2 36.2 49.2 36.3 49.2V105.7C36.3 106 35.9 106.3 35.6 106.3ZM38.3 68.5V66.9L82.7 49.4L82.8 49.5V51.1L38.3 68.5ZM87.1 80H85.5C85.1 80 84.8 79.7 84.8 79.3V32.3L86.9 31.6C87.2 31.5 87.5 31.4 87.8 31.2V79.4C87.8 79.7 87.5 80 87.1 80Z" fill="#2196F3"/>
<path d="M15.0998 34.1001C14.3998 34.2001 6.5998 38.5001 6.5998 38.5001L6.2998 44.2001L19.0998 36.6001L15.0998 34.1001Z" fill="#2196F3"/>
<path d="M6.0002 48.7998C6.0002 48.7998 32.0002 72.0998 32.1002 71.4998C32.2002 70.8998 32.2002 64.6998 32.2002 64.6998L5.2002 43.2998L6.0002 48.7998Z" fill="#2196F3"/>
<path d="M37.4 65.9001C37.4 65.4001 83.6 47.1001 83.6 47.1001V52.7001L37 70.4001L37.4 65.9001Z" fill="#2196F3"/>
<path d="M65.5 37.9998L83.1 48.5998L83.6 43.8998L69.8 36.7998L65 38.0998" fill="#2196F3"/>
<path d="M89.2004 22.1001C86.7004 22.8001 35.7004 39.6001 35.3004 39.3001C35.0004 39.1001 1.40039 15.4001 1.40039 15.4001L2.10039 12.3001L48.5004 0.600098L90.2004 19.4001L89.2004 22.1001Z" fill="#2196F3"/>
</g>
<defs>
<clipPath id="clip0_1509_141">
<rect width="91" height="108.3" fill="white"/>
</clipPath>
</defs>
</svg>
