<svg width="115" height="177" viewBox="0 0 115 177" fill="none" xmlns="http://www.w3.org/2000/svg">
<g clip-path="url(#clip0_1509_173)">
<path d="M2.09963 15.4C1.89963 15 0.699628 21.9 1.39963 27.3C1.89963 31.2 2.69963 34.1 5.69963 42.6C10.7996 57 12.0996 58.8 14.3996 67C15.6996 71.5 16.2996 74.7 17.2996 79.5C18.6996 86.4 20.0996 93.2 20.6996 102.2C20.9996 106.4 20.9996 109.5 20.9996 110.6C20.9996 114.5 20.9996 121.8 19.2996 130.5C18.1996 136.3 15.9996 144.6 11.3996 154C11.3996 154 12.5996 157.4 12.8996 157.4C13.1996 157.4 16.3996 157.2 16.3996 157.2L21.6996 148.4L26.0996 135.1L29.3996 108.3C29.3996 108.3 41.8996 111.6 42.1996 111.6C42.4996 111.6 53.4996 112.4 53.4996 112.4L54.7996 131.8L58.2996 132L59.8996 116.5L61.8996 121.2C61.8996 121.2 66.3996 164.8 66.3996 165.1C66.3996 165.4 66.4996 172.3 66.4996 172.3C66.4996 172.3 67.1996 175.2 67.5996 175.1C67.9996 175 71.1996 175 71.1996 175C71.1996 175 73.0996 171.3 73.1996 170.9C73.2996 170.5 71.6996 144 71.6996 144L72.5996 126.5L74.8996 116.6L85.8996 114.3C85.8996 114.3 94.3996 111.5 94.6996 111.4C94.9996 111.3 103.1 106 103.1 106L104.5 121.6L106.3 138.7L109.8 151.3C109.8 151.3 112.8 152 113.1 151.9C113.4 151.8 114 147.5 114 147.5L112.1 136L111.4 116.2L112.3 100L111.4 90.7L108.5 84.3L101.3 79.6C101.3 79.6 96.1996 77 95.7996 77C95.3996 77 89.5996 75.9 89.5996 75.9L85.3996 74.8C85.3996 74.8 78.7996 74.5 78.4996 74.4C78.0996 74.3 70.7996 74.8 70.4996 74.8C70.1996 74.8 65.2996 75.9 65.2996 75.9L62.2996 76.3L62.7996 70.9L64.7996 56.5L64.9996 39.7L62.9996 20.2L59.7996 14.4L56.4996 8.8L48.9996 3.1C48.9996 3.1 42.6996 1.2 42.3996 1.3C42.0996 1.5 34.9996 0.8 34.9996 0.8L26.4996 0.5L14.1996 3.1L4.99963 8.6L1.89963 15" fill="#DFF1FF"/>
<path d="M113 109.4C113.8 104.3 113.6 99.0002 112.5 93.6002L111.8 90.2002H111.7C111.7 90.1002 111.7 90.1002 111.7 90.0002C112.1 88.3002 111.6 86.5002 110.3 85.2002C103.9 78.7002 89.5 69.1002 63.5 75.3002C68.4 43.7002 65.4 26.2002 62.1 17.1002C58.6 7.30023 49.5 0.700235 39.1 0.200235C20 -0.699765 8.7 2.10023 3.4 9.20023C-3.9 19.0002 1.9 35.3002 8.5 54.1002C11.3 62.0002 14.2 70.2002 16.4 78.7002C26 115.5 14.7 144.5 11 152.6C10.2 154.3 10.7 156.4 12.3 157.5C13 158 13.8 158.3 14.6 158.3C15.7 158.3 16.8 157.8 17.6 156.9C21.1 152.8 29.1 140.2 29.9 109.9C31.2 110.5 32.7 111 34.5 111.4C40 112.8 44.5 113.2 48.1 113.5C49.7 113.6 51.2 113.8 52.4 114L53.6 130.9C53.7 131.8 54.1 132.6 54.8 133.1C55.4 133.5 56 133.8 56.7 133.8C56.9 133.8 57 133.8 57.2 133.8C58.6 133.6 59.7 132.4 59.8 131L60.6 119.4C61.1 123.2 66 159.8 65.1 171.6C65 172.8 65.4 173.9 66.1 174.8C66.9 175.7 67.9 176.2 69.1 176.3C69.2 176.3 69.2 176.3 69.3 176.3C70.4 176.3 71.5 175.8 72.4 175C73.3 174.1 73.7 172.9 73.6 171.7C73 161.7 71.4 128.5 75.2 118.5C75.6 117.5 76.4 116.9 77.5 116.8C83 116.2 96.3 114.2 102.5 107.4C103.1 118.4 105 144.7 108.8 151.8C109.2 152.6 110 153.1 110.9 153.3C111.8 153.5 112.7 153.2 113.4 152.6C114.1 152 114.5 151 114.4 150C113.9 145.2 111.2 121.2 113 109.4ZM109.8 89.6002C109.6 90.7002 108.8 91.6002 107.8 92.0002L90.6 98.5002C88.9 91.6002 79.7 87.3002 69.7 84.7002C76.2 81.5002 84.8 78.7002 95.5 78.0002C101.8 80.3002 106.2 83.8002 109 86.6002C109.7 87.4002 110 88.5002 109.8 89.6002ZM69.7 106.4C69.6 106.4 69.6 106.4 69.5 106.4H69.4C67.4 104.7 61.3 99.9002 53.4 96.7002C54.8 95.1002 59.2 90.4002 67 86.1002C77.3 88.5002 87.3 92.6002 88.7 99.2002L69.7 106.4ZM11.3 27.7002C10.5 23.0002 11.4 19.1002 13.9 16.1002C16.9 12.6002 21.6 10.8002 25.6 9.90023C26.4 11.0002 29.4 15.9002 32.7 23.3002L11.4 28.0002C11.4 27.9002 11.4 27.8002 11.3 27.7002ZM43 80.6002C42.8 80.6002 42.6 80.6002 42.5 80.6002C43.5 75.4002 44 70.2002 44.1 65.3002L57 61.4002C56.2 70.0002 54.9 76.5002 54.7 77.3002C50.3 78.4002 46.4 79.5002 43 80.6002ZM39.6 93.8002C35.7 93.8002 31.7 94.6002 27.8 96.5002C27.5 95.8002 27.2 94.5002 27.8 92.9002C28.7 90.5002 32 86.5002 43.2 82.6002C46.1 82.8002 54.8 83.5002 63.9 85.3002C55.9 90.1002 51.9 95.0002 51.3 95.9002C47.7 94.7002 43.7 93.8002 39.6 93.8002ZM57.2 59.3002L44 63.2002C43.9 56.0002 42.9 49.2002 41.4 43.0002L57.3 39.4002C57.9 46.2002 57.7 53.2002 57.2 59.3002ZM41 41.0002C39.5 34.9002 37.5 29.4002 35.6 24.8002L53 21.0002C55.3 25.7002 56.6 31.4002 57.2 37.4002L41 41.0002ZM34.7 22.9002C31.8 16.2002 28.9 11.4002 27.7 9.50023C30.6 9.00023 32.8 9.00023 32.8 9.00023C39.8 8.60023 45.5 10.8002 49.5 15.6002C50.4 16.7002 51.2 17.9002 52 19.2002L34.7 22.9002ZM33.6 25.2002C35.6 29.8002 37.5 35.3002 39.1 41.5002L16.6 46.6002C14.6 40.7002 12.9 35.0002 11.9 30.0002L33.6 25.2002ZM39.5 43.4002C41 49.7002 42 56.5002 42 63.8002L24.3 69.0002C23.2 65.6002 21.9 62.1002 20.7 58.5002C19.5 55.2002 18.3 51.8002 17.2 48.5002L39.5 43.4002ZM42 65.9002C42 71.0002 41.4 76.3002 40.2 81.6002C35.2 83.5002 31.5 85.6002 29.1 87.9002C28.8 83.5002 27.1 77.5002 25 70.9002L42 65.9002ZM66.6 106.7C52.4 107.6 34.5 100.2 29.4 98.0002C44.4 91.2002 60.9 102.2 66.6 106.7ZM90.3 76.5002C80.4 77.8002 72.5 80.7002 66.5 83.9002C59.8 82.4002 53 81.5002 48.4 81.0002C51.7 80.1002 55.5 79.1002 59.9 78.2002C72.6 74.6002 82.6 74.7002 90.3 76.5002ZM16.1 155.5C15.4 156.3 14.3 156.4 13.5 155.8C12.7 155.3 12.5 154.2 12.9 153.4C16.7 145.2 28.2 115.7 18.4 78.2002C16.2 69.7002 13.3 61.4002 10.4 53.5002C3.9 35.2002 -1.7 19.4002 5 10.4002C9.8 4.00023 20.9 1.30023 39 2.20023C48.6 2.70023 57 8.80023 60.3 17.8002C63.6 26.7002 66.5 44.1002 61.5 75.8002C60.9 76.0002 60.2 76.1002 59.6 76.3002C58.7 76.5002 57.8 76.7002 56.9 76.9002C58.3 70.0002 65.3 30.9002 51.2 14.3002C46.6 9.10023 40.4 6.60023 32.8 7.00023C32.2 7.00023 18.9 7.10023 12.4 14.7002C9.5 18.2002 8.4 22.6002 9.4 27.9002C11 37.0002 14.9 48.2002 18.8 59.1002C23.3 71.7002 27.5 83.6002 27.1 90.1002C26.6 90.8002 26.3 91.5002 26 92.2002C24.9 95.0002 25.9 97.2002 26.4 98.0002C25.5 99.1002 23.8 101.7 24.7 104.6C25.1 106.2 26.3 107.5 28 108.7C27.3 139.2 19.5 151.6 16.1 155.5ZM56.9 131.7C56.6 131.7 56.3 131.7 56 131.5C55.8 131.3 55.6 131 55.6 130.7L54.5 114.3C56.2 114.7 57.6 115.4 58.8 116.6L57.8 130.7C57.8 131.2 57.4 131.6 56.9 131.7ZM112.1 150.9C111.9 151.1 111.6 151.2 111.3 151.1C111.1 151.1 110.8 151 110.6 150.6C106.9 143.6 105 115.5 104.5 107C104.5 106.2 103.9 105.5 103.2 105.2C102.4 104.9 101.6 105.1 101.1 105.7C95.3 112.1 81.5 114 77.4 114.4C75.6 114.6 74.1 115.7 73.5 117.4C69.7 127.4 71.1 158.5 71.8 171.4C71.8 172.1 71.6 172.7 71.1 173.2C70.6 173.7 70 173.9 69.3 173.9C68.7 173.9 68.1 173.6 67.7 173.1C67.3 172.6 67.1 172 67.1 171.4C68.1 158.8 62.8 120.1 62.6 118.4V118.2L62.5 118C62 117.1 61.5 116.3 60.9 115.6V115.4H60.7C57.7 112 53.8 111.7 48.3 111.2C44.8 110.9 40.3 110.5 35 109.2C33 108.7 31.3 108.1 30 107.4C30 107.3 30 107.3 30 107.2H29.6C28 106.3 26.9 105.2 26.6 104C26.1 102.1 27.2 100.2 27.9 99.3002C32.1 101.2 53.5 110.5 69.5 108.2H69.6C69.9 108.2 70.1 108.2 70.4 108.1L108.4 93.6002C109.1 93.3002 109.7 92.9002 110.2 92.4002L110.5 93.7002C111.5 98.9002 111.7 104 111 108.8C109.2 120.9 111.9 145.1 112.4 149.8C112.5 150.4 112.3 150.7 112.1 150.9Z" fill="#2196F3"/>
<path d="M28.4002 96.4003L40.6002 94.3003L52.0002 96.8003L64.0002 102.6L69.0002 107.3H63.5002C63.5002 107.3 55.6002 106.7 55.2002 106.7C54.8002 106.7 38.6002 102.1 38.6002 102.1L30.5002 99.6003L28.2002 97.8003L28.4002 96.4003Z" fill="#2196F3"/>
<path d="M10.5996 28.7002C10.5996 28.7002 34.0996 24.3002 33.9996 23.8002C33.8996 23.3002 25.9996 8.7002 25.9996 8.7002L17.7996 10.8002C17.7996 10.8002 13.1996 14.7002 12.9996 15.1002C12.7996 15.5002 10.0996 21.5002 10.0996 21.5002L10.5996 28.7002Z" fill="#2196F3"/>
<path d="M35.0004 25.1001L40.3004 42.2001L58.5004 37.6001L55.3004 23.2001L53.3004 19.6001L34.4004 23.5001L35.0004 25.1001Z" fill="#2196F3"/>
<path d="M16.0996 47.8002L40.2996 42.2002L42.5996 52.8002L42.7996 64.5002L24.1996 70.3002L16.0996 47.8002Z" fill="#2196F3"/>
<path d="M43.4996 64.2004L41.5996 81.9004C41.5996 81.9004 55.3996 78.4004 55.5996 78.0004C55.7996 77.6004 57.9996 59.9004 57.9996 59.9004L43.4996 64.2004Z" fill="#2196F3"/>
<path d="M13.2002 149.7C14.9002 150.6 19.5002 152.9 19.5002 152.9C19.5002 152.9 16.2002 157.1 15.8002 157.1C15.4002 157.1 11.2002 155.6 11.2002 155.6L13.2002 149.7Z" fill="#2196F3"/>
<path d="M54.2002 127.5L59.2002 127.6L58.8002 132.1L55.0002 132.7L54.2002 127.5Z" fill="#2196F3"/>
<path d="M65.9004 167.4L72.8004 167.5V172L70.1004 175.2L67.1004 173.8L65.9004 167.4Z" fill="#2196F3"/>
<path d="M107.8 146.7L113.1 145.3L114.2 150.7L111.4 152.2L109.1 150.5L107.8 146.7Z" fill="#2196F3"/>
</g>
<defs>
<clipPath id="clip0_1509_173">
<rect width="114.4" height="176.1" fill="white"/>
</clipPath>
</defs>
</svg>
