<svg width="130" height="94" viewBox="0 0 130 94" fill="none" xmlns="http://www.w3.org/2000/svg">
<g clip-path="url(#clip0_1509_121)">
<path d="M8.79961 12.8999C8.79961 12.8999 26.9996 -1.00012 77.9996 1.29988L98.9996 4.39988L115.2 9.69987L125.1 15.3999L128.5 22.1999L128.9 31.0999L126.4 52.1999L121.4 60.4999L121.3 77.6999L118.7 79.2999L109.6 79.5999L107.8 76.1999L108.3 69.3999L104.1 70.3999C104.1 70.3999 91.5996 78.8999 70.2996 80.1999C48.9996 81.4999 49.1996 78.1999 49.1996 78.1999L48.4996 86.6999L48.1996 90.9999L44.4996 92.5999L37.2996 91.9999L35.4996 88.9999L35.3996 75.3999L28.9996 73.2999L17.4996 68.8999L16.1996 73.1999L12.7996 74.7999L4.99961 73.7999L3.39961 70.7999V60.8999L3.79961 57.9999L2.19961 54.8999L0.0996094 44.8999L0.599609 28.1999L1.99961 19.5999L8.79961 12.8999Z" fill="#DFF1FF"/>
<path d="M129.6 25.7C129.7 25.1 129.8 24.5 129.8 24C129.8 23.9 129.8 23.7 129.8 23.6V23.2C128.7 10.1 100.6 0 64.9 0C28.5 0 0 10.5 0 24V49C0 52.6 1 56 2.7 59V70.9C2.7 73.5 4.8 75.6 7.4 75.6H13.3C15.9 75.6 18 73.5 18 70.9V70.2C22.7 72.4 28.2 74.6 34.5 76.5V89C34.5 91.6 36.6 93.7 39.2 93.7H45.1C47.7 93.7 49.8 91.6 49.8 89V80C54.6 80.7 59.6 81.2 64.8 81.2C78.1 81.2 92.6 78.4 107.2 70.7V76.4C107.2 79 109.3 81.1 111.9 81.1H117.8C120.4 81.1 122.5 79 122.5 76.4V60.6C125.7 57.3 127.7 53 128 48.3L129.6 25.7ZM127.8 23.5L127.7 25.4C125.7 35.2 104.2 43.5 77 45.5C77.8 40.9 83.2 18 114.7 10.7C122.6 14.3 127.5 18.7 127.8 23.5ZM64.9 45.9C57 45.9 49.4 45.4 42.4 44.4C42.6 42.2 43.5 34.5 48.3 26.4C55.9 13.9 69.5 6 87.7 3.6C96.8 4.9 104.9 6.9 111.5 9.4C80.1 17.9 75.4 42 74.9 45.6C71.6 45.8 68.3 45.9 64.9 45.9ZM80.8 2.7C45.1 10.5 40.9 38.7 40.4 44.1C28.8 42.3 18.8 39.3 12 35.6C11.9 31.9 13.1 13.5 44.8 3.2C51.2 2.4 57.9 2 64.9 2C70.4 2 75.7 2.3 80.8 2.7ZM35.6 4.6C13.4 14.6 10.4 29.2 10.1 34.5C4.9 31.4 2 27.8 2 24C2 15.7 15.8 8.4 35.6 4.6ZM16 70.8C16 72.3 14.8 73.5 13.3 73.5H7.5C6 73.5 4.8 72.3 4.8 70.8V61.7C6.3 63.4 8 64.9 10 66C11.8 67 13.8 68.1 16.1 69.2V70.8H16ZM47.8 89C47.8 90.5 46.6 91.7 45.1 91.7H39.2C37.7 91.7 36.5 90.5 36.5 89V77C40.1 78 43.8 78.9 47.8 79.6V89ZM117.8 79.1H111.9C110.4 79.1 109.2 77.9 109.2 76.4V69.6C112.8 67.6 116.4 65.3 120 62.7C120.2 62.6 120.3 62.5 120.5 62.4V76.4C120.5 77.9 119.3 79.1 117.8 79.1ZM118.9 61.1C74 93.7 28.4 74.2 10.9 64.3C8.3 62.9 6.2 60.8 4.7 58.4C3 55.6 2 52.3 2 48.9V30C9.1 40.4 34.2 47.9 64.9 47.9C94.9 47.9 119.5 40.7 127.3 30.7L126.1 48.1C125.7 53.3 123.1 58 118.9 61.1Z" fill="#2196F3"/>
<path d="M3.2002 59.9999L3.8002 71.8999L6.7002 74.7999L15.7002 74.4999L17.0002 68.1999L8.7002 64.5999L3.8002 59.3999L3.2002 59.9999Z" fill="#2196F3"/>
<path d="M35.4004 75.3999L49.6004 79.0999L48.8004 90.1999C48.8004 90.1999 46.5004 93.0999 45.7004 93.0999C44.9004 93.0999 36.7004 92.3999 36.7004 92.3999L35.5004 88.9999L35.4004 75.3999Z" fill="#2196F3"/>
<path d="M108.3 69.4999V78.1999L111.3 79.7999H119.5L121.7 76.5999L122 59.3999L108.3 69.4999Z" fill="#2196F3"/>
<path d="M11.0996 35.1002L15.4996 20.1002L40.6996 2.2002C40.6996 2.2002 14.3996 8.7002 13.6996 9.2002C12.9996 9.7002 3.79961 16.8002 3.49961 17.2002C3.19961 17.6002 1.09961 27.4002 1.09961 27.4002L9.59961 36.0002L11.0996 35.1002Z" fill="#2196F3"/>
<path d="M84.3002 2.0998L62.0002 10.7998L54.3002 17.2998L46.6002 26.6998L44.3002 33.3998L41.2002 44.0998L45.5002 46.3998L67.8002 47.2998L76.3002 46.4998L78.5002 37.7998L88.3002 22.0998L99.5002 14.7998L115.8 9.7998C115.7 9.8998 88.1002 0.799797 84.3002 2.0998Z" fill="#2196F3"/>
</g>
<defs>
<clipPath id="clip0_1509_121">
<rect width="129.8" height="93.8" fill="white"/>
</clipPath>
</defs>
</svg>
