<svg width="118" height="145" viewBox="0 0 118 145" fill="none" xmlns="http://www.w3.org/2000/svg">
<g clip-path="url(#clip0_1509_131)">
<path d="M8.6002 8.3999C8.6002 8.3999 19.9002 2.0999 20.7002 1.9999C21.5002 1.8999 38.2002 0.399902 38.2002 0.399902L52.5002 4.0999L64.1002 9.6999L73.5002 17.0999L91.0002 28.0999C91.0002 28.0999 102.5 32.7999 102.7 33.1999C103 33.5999 105 34.8999 105 34.8999L110.1 33.8999L115.6 36.9999L116.1 41.1999L114 44.4999L110.9 49.4999L109.1 57.2999L108.1 82.1999L105 83.5999L103 129.5L100.3 128.7L97.8002 84.4999L59.6002 91.2999V114.1L57.4002 114.5L55.4002 92.1999L42.3002 93.9999L39.8002 143.2H36.5002L33.2002 92.8999L22.2002 87.8999L20.6002 115.9H18.0002L15.3002 84.0999L10.5002 81.8999L6.5002 70.8999L4.3002 49.8999L5.3002 39.5999L0.700195 30.0999L1.6002 19.6999L5.3002 14.3999L8.6002 8.3999Z" fill="#DFF1FF"/>
<path d="M34.4004 93.2998L38.1004 94.9998L42.5004 94.4998L39.8004 143.2L37.2004 143L34.4004 93.2998Z" fill="#2196F3"/>
<path d="M116.8 37.6C115.4 34.6 110.9 32.7 106.6 33.2C106.3 33.2 106.1 33.3 105.8 33.4C104 32.7 83.3003 24.6 72.1003 14.7C63.9003 7.39996 54.3003 2.69996 44.4003 0.999963C27.5003 -1.90004 14.3003 1.59996 6.00028 10.9C-1.49972 19.4 -1.99972 31.6 4.30028 40.3C4.10028 41.9 1.00028 65.4 9.10028 81.7C9.70028 82.9 12.2003 84.5 15.6003 86.3L15.2003 86L17.4003 115.5C17.5003 116.4 18.3003 117.2 19.2003 117.2H20.1003C21.1003 117.2 21.8003 116.5 21.9003 115.5L23.0003 90C26.6003 91.6 30.3003 93.2 33.1003 94.3H32.9003L35.7003 142.4C35.8003 143.5 36.7003 144.4 37.8003 144.4H39.0003C40.1003 144.4 41.0003 143.5 41.1003 142.4L43.2003 95.2L53.9003 93.3L55.9003 113.6C56.0003 114.6 56.9003 115.4 57.9003 115.4H58.6003C59.7003 115.4 60.6003 114.5 60.6003 113.4V92.2L96.8003 85.9L98.9003 128.5C98.9003 129.4 99.6003 130.1 100.4 130.2L101.8 130.4C101.9 130.4 102 130.4 102.1 130.4C102.5 130.4 102.9 130.3 103.3 130C103.7 129.7 104 129.2 104 128.6L105.5 84.2L107.6 83.8C108.6 83.6 109.3 82.8 109.3 81.8C108.8 67.5 110 49.1 115 44.1C117.9 41.4 117.3 38.9 116.8 37.6ZM44.0003 2.89996C53.6003 4.49996 62.8003 9.09996 70.7003 16.1C80.6003 24.9 97.3003 32.1 103.1 34.4C101.3 35.6 100.1 37.5 99.7003 39.6C98.9003 43.8 97.4003 52.7 96.8003 61.5C91.7003 58.4 69.6003 46.3 43.1003 55.2C42.3003 52.8 41.3003 50.6 40.2003 48.7C39.2003 47 37.5003 45.7 35.7003 45.1C35.3003 45 3.30028 34.7 7.70028 12C17.5003 1.09996 32.9003 1.09996 44.0003 2.89996ZM31.7003 59.6C28.9003 55.9 27.6003 52.8 28.0003 50.6C28.2003 49.5 28.7003 48.6 29.7003 47.8C31.0003 46.9 32.6003 46.5 34.2003 46.8C35.9003 47.2 37.5003 48.2 38.4003 49.8C46.1003 62.7 46.4003 92.1 46.4003 92.4H47.2003L39.2003 93.8C39.9003 89 41.4003 72.6 31.7003 59.6ZM96.6003 70.8L47.7003 79.4C47.5003 76.9 47.2003 74.3 46.8003 71.6L96.7003 64.2C96.6003 66.4 96.5003 68.7 96.6003 70.8ZM46.5003 69.6C45.8003 65.4 44.9003 61.1 43.7003 57.2C67.4003 49.3 87.5003 58.6 94.3003 62.5L46.5003 69.6ZM47.8003 81.4L96.7003 72.8C96.9003 76 97.6003 80.5 99.3003 83.4L48.3003 92.3C48.3003 91.3 48.3003 87 47.8003 81.4ZM5.30028 15.3C4.50028 31.9 21.8003 41.6 30.4003 45.3C29.7003 45.5 29.1003 45.9 28.6003 46.3C27.2003 47.4 26.3003 48.7 26.1003 50.4C26.0003 51 26.0003 51.7 26.1003 52.4C17.9003 49.4 11.7003 45.6 7.50028 41C1.00028 33.9 0.300276 23.4 5.30028 15.3ZM10.9003 80.9C4.40028 67.5 5.50028 48.5 6.10028 42.5C10.7003 47.5 17.6003 51.6 26.4003 54.6L26.5003 54.4C27.1003 56.3 28.3003 58.5 30.1003 60.9C39.4003 73.2 37.8003 89.4 37.1003 93.8C26.5003 89.5 12.0003 83 10.9003 80.9ZM19.9003 115.2H19.4003L17.3003 87.2C18.5003 87.8 19.8003 88.4 21.1003 89.1L19.9003 115.2ZM39.2003 142.3C39.2003 142.4 39.1003 142.4 39.2003 142.3L37.9003 142.4C37.9003 142.4 37.8003 142.4 37.8003 142.3L35.0003 95C36.1003 95.4 37.0003 95.8 37.5003 96L37.8003 96.1L41.3003 95.5L39.2003 142.3ZM58.6003 113.4H57.9003L55.9003 93L58.6003 92.5V113.4ZM102.1 128.5L100.9 128.3L98.8003 85.5L103.5 84.7L102.1 128.5ZM107.3 82L101.5 83C99.9003 81.1 98.9003 76.9 98.6003 71.6C98.1003 60.7 100.5 45.9 101.6 40.1C102.1 37.5 104.2 35.5 106.7 35.2C107 35.2 107.4 35.1 107.7 35.1C110.8 35.1 113.9 36.5 114.8 38.5C115.4 39.8 115 41.3 113.4 42.9C106.8 49.7 107.1 74.5 107.3 82Z" fill="#2196F3"/>
<path d="M15.7002 86.3999C15.7002 86.7999 18.1002 115.9 18.1002 115.9H20.7002L22.6002 88.0999L15.7002 86.3999Z" fill="#2196F3"/>
<path d="M54.2998 92.1998L57.3998 114.5L59.5998 114.1V91.2998L54.2998 92.1998Z" fill="#2196F3"/>
<path d="M97.4004 84.7001L100.2 129L103 129.5L104.2 112.2L105 83.6001L97.4004 84.7001Z" fill="#2196F3"/>
<path d="M5.10039 39.6001L4.40039 55.1001C4.40039 55.1001 6.50039 73.5001 6.60039 73.9001C6.70039 74.3001 10.0004 81.6001 10.3004 81.9001C10.6004 82.1001 37.8004 95.0001 37.8004 95.0001L38.8004 84.6001L37.0004 72.2001L29.8004 58.5001L26.8004 52.5001L21.0004 52.3001L18.8004 50.2001L5.10039 39.6001Z" fill="#2196F3"/>
<path d="M45.9 70.5L96.6 62.8L88.3 57.9L71.9 53.4L56.3 53L45.5 55.4L42.5 56.8L45.9 70.5Z" fill="#2196F3"/>
</g>
<defs>
<clipPath id="clip0_1509_131">
<rect width="117.2" height="144.4" fill="white"/>
</clipPath>
</defs>
</svg>
