<svg width="235" height="126" viewBox="0 0 235 126" fill="none" xmlns="http://www.w3.org/2000/svg">
<g clip-path="url(#clip0_1509_103)">
<path d="M0.299805 10.9001L2.8998 26.3001L4.6998 62.3001L4.1998 106.3L29.9998 124.3L79.7998 113L129 101.9L131.6 102.2L170.5 122.9L222.3 107L229.8 46.6001L233.9 14.6001L219.5 9.9001L202 5.6001H180.6L153.6 1.4001L116.2 1.1001L93.5998 3.3001L62.4998 2.6001L28.2998 4.4001L4.3998 8.3001L0.299805 10.9001Z" fill="#DFF1FF"/>
<path d="M233.9 13.9002V13.8002H233.8C233.6 13.6002 233.3 13.5002 233.1 13.4002C227.7 11.4002 199.8 1.50019 181.9 4.70019C178.9 4.00019 145.4 -3.29981 97.2999 2.10019C94.6999 1.90019 32.9999 0.400187 5.69994 7.20019L2.89994 7.70019C1.89994 7.90019 1.09994 8.50019 0.499938 9.30019C-6.16312e-05 10.1002 -0.200062 11.1002 0.0999384 12.1002C4.79994 29.5002 3.29994 97.3002 3.09994 105C3.09994 106.3 3.69994 107.4 4.69994 108.2L29.6999 125.1L130.5 102.7L170.7 124.1L221.3 108.5C222.5 108.1 223.4 107 223.6 105.8L234.7 16.2002C234.8 15.3002 234.5 14.4002 233.9 13.9002ZM229.7 14.3002C228.2 14.7002 227 15.3002 226.4 16.2002C225.8 17.0002 225.8 17.8002 225.8 18.2002L220 61.3002C208.7 57.6002 187.6 50.8002 173.9 47.8002C171.8 33.2002 180.9 10.1002 182.4 6.50019C197.9 3.90019 221.1 11.2002 229.7 14.3002ZM169.8 121.3L131.6 101L132.5 68.6002L171.7 82.6002C170 95.1002 169.8 115.4 169.8 121.3ZM130.6 52.4002C125.6 47.5002 117.7 45.1002 111.4 44.0002C125.6 43.6002 150.7 43.4002 164.9 46.5002C149.4 45.6002 133.9 51.2002 130.6 52.4002ZM101.4 45.0002C102.7 45.0002 121 45.6002 129.3 54.1002L28.0999 69.5002C25.3999 65.2002 17.4999 60.9002 11.5999 58.2002L101.4 45.0002ZM130.9 55.8002L130.6 66.3002L30.9999 82.0002C30.3999 77.4002 29.6999 73.7002 28.8999 71.4002L130.9 55.8002ZM31.2999 84.0002L130.6 68.4002L129.7 100.9L31.3999 122.8C33.0999 115 32.6999 97.0002 31.2999 84.0002ZM172 80.6002L132.6 66.5002L132.9 55.7002C138.7 56.4002 166.9 60.5002 175.5 71.9002C174.6 72.7002 173.9 73.4002 173.5 74.3002C172.9 75.7002 172.4 77.9002 172 80.6002ZM177.2 70.8002C167.9 58.4002 138.3 54.4002 132.9 53.7002C138.9 51.6002 156.5 46.2002 171.7 49.3002C184 51.8002 204 58.1002 216.3 62.1002C206.6 63.1002 185.8 65.7002 177.2 70.8002ZM97.1999 4.00019H97.2999C142.1 -1.09981 174 5.00019 180.3 6.30019C178.3 11.3002 170.3 31.9002 171.7 46.5002C155.8 39.7002 107.5 42.1002 101.3 42.4002C106 28.6002 98.2999 9.30019 95.8999 4.00019C96.6999 4.00019 97.0999 4.00019 97.1999 4.00019ZM93.7999 3.90019C95.3999 7.40019 104.9 29.5002 98.8999 43.3002L10.2999 56.3002C13.2999 35.8002 8.39994 13.8002 7.19994 8.90019C31.2999 3.20019 80.4999 3.70019 93.7999 3.90019ZM2.09994 11.6002C1.99994 11.2002 2.09994 10.8002 2.29994 10.4002C2.49994 10.0002 2.89994 9.80019 3.29994 9.70019L5.19994 9.40019C6.29994 14.0002 11.3999 36.2002 8.19994 56.6002C6.89994 56.1002 5.99994 55.7002 5.39994 55.4002C5.09994 37.4002 4.19994 19.6002 2.09994 11.6002ZM5.09994 105.1C5.29994 98.5002 5.69994 78.1002 5.39994 57.6002C5.99994 57.9002 6.79994 58.2002 7.79994 58.6002V58.7002H7.89994C13.5999 61.2002 24.2999 66.4002 26.5999 71.0002C29.7999 77.3002 31.8999 111.9 29.2999 122.4L5.89994 106.6C5.39994 106.2 5.09994 105.7 5.09994 105.1ZM221.6 105.5C221.5 106 221.2 106.4 220.7 106.6L171.8 121.7C171.8 114.7 172.2 82.6002 175.4 75.2002C178.2 68.6002 209.3 64.7002 221 63.8002C223.7 64.7002 225.7 65.4002 226.6 65.7002L221.6 105.5ZM226.8 63.6002C225.9 63.3002 224.2 62.7002 221.9 62.0002L227.8 18.3002V18.2002V18.0002C227.8 18.0002 227.8 17.7002 228.1 17.4002C228.5 16.9002 229.6 16.2002 232.7 15.9002V16.0002L226.8 63.6002Z" fill="#2196F3"/>
<path d="M3.8998 8.30034L5.7998 8.50034L10.0998 29.6003L9.9998 53.6003V58.0003L17.3998 62.0003L27.0998 69.2003L29.3998 77.4003L31.5998 98.7003L31.9998 113L29.9998 124.3L3.6998 106.4L3.2998 44.9003L3.7998 31.2003L0.299805 10.9003L0.899805 9.90034C1.4998 8.80034 2.6998 8.20034 3.8998 8.30034Z" fill="#2196F3"/>
<path d="M131.5 67.6001L129.6 100.8C129.6 100.8 170.2 123.5 170.5 122.9C170.8 122.3 173.1 81.4001 173.1 81.4001L131.5 67.6001Z" fill="#2196F3"/>
<path d="M131.5 54.3C125.8 48.5 106.6 43.6 106.6 43.6L114.9 42.5L163.7 44.8L169 47.8L159.1 47.1L151.4 47.6L144 49.9L133.6 52.5L131.5 54.3Z" fill="#2196F3"/>
<path d="M27 83.7C28.6 83.4 132.5 66.5 132.5 66.5L131.5 101L30 124.3L25 86.6L27 83.7Z" fill="#2196F3"/>
</g>
<defs>
<clipPath id="clip0_1509_103">
<rect width="234.7" height="125.1" fill="white"/>
</clipPath>
</defs>
</svg>
