<svg width="215" height="111" viewBox="0 0 215 111" fill="none" xmlns="http://www.w3.org/2000/svg">
<g clip-path="url(#clip0_1509_54)">
<path d="M30.4993 8.29971L94.2993 4.69971L99.1993 7.89971L103.199 4.09971L157.299 0.699707L164.299 4.19971L170.499 17.2997L171.899 24.0997L205.699 32.5997C205.699 32.5997 212.699 37.8997 212.699 38.0997C212.799 38.2997 213.499 44.7997 213.499 44.7997L211.699 47.1997L208.699 49.5997L205.499 50.9997L205.399 89.5997L49.2993 110.1L11.4993 91.8997L11.5993 54.4997C11.5993 54.4997 -4.80069 46.6997 2.29931 36.8997L4.69931 33.9997L9.29931 33.2997L12.2993 32.0997C12.2993 32.0997 16.4993 32.4997 17.0993 32.8997C17.6993 33.3997 20.6993 34.4997 20.6993 34.4997L16.6993 31.9997L15.7993 23.9997L18.0993 16.7997C18.0993 16.7997 23.2993 11.5997 23.3993 11.1997C23.4993 10.6997 28.5993 9.19971 28.5993 9.19971L30.4993 8.29971Z" fill="#FF9534"/>
<path d="M214.7 41.5999C214 36.6999 210.3 32.6999 205.5 31.4999V31.3999L172.5 22.7999C171.6 16.6999 169.5 11.0999 167.4 6.59993C165.3 2.29992 160.9 -0.300075 156.1 -0.100075L105.8 2.29993C103.1 2.39992 100.7 3.99993 99.4996 6.39993C97.6996 4.59993 95.0996 3.59993 92.4996 3.79993L28.6996 8.29992C27.9996 8.39993 27.1996 8.49992 26.5996 8.79992V8.69992C26.4996 8.69992 12.3996 11.9999 15.5996 31.2999C12.5996 30.7999 9.59961 31.0999 6.79961 32.0999C2.39961 33.7999 0.0996094 37.0999 0.0996094 41.4999C0.0996094 46.7999 3.39961 51.4999 8.49961 53.5999L10.9996 54.5999H10.8996V92.1999L49.6996 110.6L206.9 90.4999V51.4999C210.3 50.6999 215.5 47.8999 214.7 41.5999ZM105.9 4.39993L156.2 1.99993C160.2 1.79993 163.9 3.99993 165.6 7.49993C169.6 15.7999 173.3 27.8999 169.2 39.3999C154.2 35.9999 134.6 37.5999 110.8 44.2999C111.6 25.4999 104.5 13.9999 101.4 9.09993C101.2 8.79992 101.1 8.59993 100.9 8.29992C101.6 6.09993 103.5 4.59993 105.9 4.39993ZM191.8 63.0999L134.4 69.6999L133.8 59.2999C138.8 57.7999 177.1 51.6999 191.7 55.5999V63.0999H191.8ZM50.0996 68.7999C49.9996 68.7999 39.6996 64.3999 42.1996 56.0999C43.6996 51.0999 48.7996 47.7999 53.9996 48.3999C60.2996 49.0999 63.8996 54.2999 64.6996 63.6999V106.8L50.6996 108.6V68.9999L50.0996 68.7999ZM109.5 46.6999C115.4 48.1999 125.3 54.6999 129.8 57.8999C118.8 58.3999 80.2996 60.4999 66.7996 64.9999V63.6999C66.0996 55.2999 63.1996 50.8999 59.9996 48.5999C90.4996 40.9999 109.3 46.5999 109.5 46.6999ZM66.6996 66.9999C80.0996 62.1999 124.6 59.9999 131.8 59.6999L132.4 69.9999L66.7996 77.5999L66.6996 66.9999ZM132.8 57.4999C130.4 55.7999 120.5 48.7999 113.1 45.6999C150.1 35.4999 176.6 38.0999 190.2 53.0999C174.6 50.2999 138.6 55.4999 132.8 57.4999ZM28.7996 10.2999L92.4996 5.89993C95.1996 5.69993 97.6996 6.99992 98.9996 9.19992C99.1996 9.49992 99.3996 9.79992 99.5996 10.1999C102.8 15.3999 109.5 26.1999 108.7 44.3999C103.8 43.1999 85.3996 39.7999 57.3996 47.0999L27.4996 35.5999L24.5996 15.5999C24.3996 14.2999 24.7996 13.0999 25.5996 12.0999C26.3996 10.9999 27.4996 10.3999 28.7996 10.2999ZM22.9996 12.5999C22.5996 13.5999 22.4996 14.6999 22.6996 15.7999L25.4996 34.6999L19.1996 32.2999C18.6996 32.0999 18.1996 31.8999 17.6996 31.7999C15.4996 20.3999 19.5996 14.9999 22.9996 12.5999ZM1.99961 41.5999C1.99961 37.9999 3.79961 35.4999 7.49961 34.0999C10.8996 32.7999 14.7996 32.7999 18.4996 34.1999L50.5996 46.5999C45.8996 47.3999 41.7996 50.8999 40.3996 55.5999C39.0996 59.8999 40.5996 63.2999 42.6996 65.6999L9.09961 51.7999C4.89961 50.0999 1.99961 45.8999 1.99961 41.5999ZM12.7996 55.4999L48.7996 70.3999V108.2L12.7996 91.0999V55.4999ZM66.6996 106.5V79.5999L191.7 65.1999V90.4999L66.6996 106.5ZM191.8 44.1999V51.9999C186.6 46.1999 179.7 42.1999 171.1 39.8999C172.9 34.8999 173.2 29.7999 172.8 24.9999L199 31.7999C196.7 32.6999 194.8 34.3999 193.5 36.9999C192.3 39.0999 191.8 41.5999 191.8 44.1999ZM205.6 49.6999L204.7 49.7999V88.7999L193.7 90.1999V44.1999C193.7 41.8999 194.2 39.7999 195.1 37.9999C196.8 34.7999 199.2 33.1999 202.5 33.1999C202.9 33.1999 203.4 33.1999 203.9 33.2999C208.4 33.8999 212.1 37.4999 212.7 41.8999C213.6 48.4999 205.9 49.6999 205.6 49.6999Z" fill="#D66407"/>
<path d="M171.3 23.7998C171.3 23.7998 173.5 35.2998 169.3 40.9998C169.3 40.9998 183.8 42.1998 192.8 55.4998V41.1998L196.5 33.5998L203.3 31.7998L171.3 23.7998Z" fill="#D66407"/>
<path d="M25.2998 10.6997L23.7998 15.7997L26.8998 36.6997L16.5998 31.8997L16.2998 22.9997L17.8998 15.7997L25.2998 10.6997Z" fill="#D66407"/>
<path d="M11.7 54.3999C13.6 54.6999 49.6 69.7999 49.6 69.7999V110.7L11.5 91.8999L11.7 54.3999Z" fill="#D66407"/>
<path d="M66.1996 78.5998L65.5996 107.2L193.8 90.1998L192.8 63.2998L66.1996 78.5998Z" fill="#D66407"/>
</g>
<defs>
<clipPath id="clip0_1509_54">
<rect width="214.8" height="110.7" fill="white"/>
</clipPath>
</defs>
</svg>
