<svg width="127" height="76" viewBox="0 0 127 76" fill="none" xmlns="http://www.w3.org/2000/svg">
<path d="M31.75 31.6667V44.3333H95.25V31.6667C95.25 24.6802 100.945 19 107.95 19H114.3C114.3 8.51042 105.767 0 95.25 0H31.75C21.2328 0 12.7 8.51042 12.7 19H19.05C26.0548 19 31.75 24.6802 31.75 31.6667ZM114.3 25.3333H107.95C104.438 25.3333 101.6 28.1635 101.6 31.6667V50.6667H25.4V31.6667C25.4 28.1635 22.5623 25.3333 19.05 25.3333H12.7C5.69516 25.3333 0 31.0135 0 38C0 42.6708 2.57969 46.7083 6.35 48.9052V72.8333C6.35 74.575 7.77875 76 9.525 76H22.225C23.9712 76 25.4 74.575 25.4 72.8333V69.6667H101.6V72.8333C101.6 74.575 103.029 76 104.775 76H117.475C119.221 76 120.65 74.575 120.65 72.8333V48.9052C124.42 46.7083 127 42.6708 127 38C127 31.0135 121.305 25.3333 114.3 25.3333Z" fill="#FF9534"/>
</svg>
