<svg width="254" height="98" viewBox="0 0 254 98" fill="none" xmlns="http://www.w3.org/2000/svg">
<g clip-path="url(#clip0_1509_86)">
<path d="M17.9008 24.0002C17.8008 23.7002 14.9008 13.9002 14.9008 13.9002C14.9008 13.9002 15.9008 9.20015 16.2008 8.90015C16.5008 8.60015 22.7008 4.60015 22.7008 4.60015L71.4008 4.00015L115.901 4.10015L119.901 6.20015L125.801 5.40015C125.801 5.40015 149.101 1.50015 149.301 1.50015C149.501 1.50015 167.601 0.700154 168.101 0.800154C168.601 0.900154 202.201 2.00015 203.901 3.80015C205.601 5.60015 209.601 4.60015 209.601 4.60015L212.101 7.90015L215.701 19.8002L215.101 24.7002L218.901 23.5002L226.501 22.0002C226.501 22.0002 236.001 22.3002 236.301 22.5002C236.601 22.7002 246.201 27.6002 247.101 28.2002C248.001 28.8002 252.501 32.7002 252.501 32.7002L253.301 34.4002L252.901 60.3002C252.901 61.7002 251.801 62.8002 250.401 62.8002L194.301 63.8002L146.801 64.8002C146.801 64.8002 147.701 74.5002 146.001 75.6002C144.301 76.7001 150.701 81.7002 145.501 92.9002L130.301 92.8002L45.8008 96.5002L0.800781 65.3002L1.10078 31.4002L3.60078 27.0002L12.1008 24.6002L17.9008 24.0002Z" fill="#FF9534"/>
<path d="M254 32.2L253.8 31.9C253.8 31.9 253.2 31.2 252.2 30.5C238 17.5 222 21 216.3 22.9C216.3 15.4 215.2 5.39999 209.6 3.99999V3.89999C169.9 -5.80001 121.7 5.09999 121.3 5.19999L121.8 5.49999C119.5 3.69999 116.7 2.69999 113.7 2.69999C113.7 2.69999 113.7 2.69999 113.6 2.69999L26.9004 3.19999C22.5004 3.19999 18.4004 5.29999 15.8004 8.79999L15.6004 8.99999C14.1004 11.1 13.6004 13.7 14.5004 16.1L17.0004 23.3C10.8004 23.4 7.10039 24.5 6.70039 24.6C4.70039 25 2.80039 26 1.40039 28C0.400391 29.5 -0.0996094 31.2 -0.0996094 33V64C-0.0996094 65.3 0.500391 66.4 1.60039 67.2L45.6004 97.5L146.5 93.5L146.8 93.1C147 92.8 151.9 84.7 147 75.5C148.5 71.4 148.7 68.3 148.2 66L250.4 63.6C252.3 63.6 253.9 62 253.9 60.1V32.2H254ZM246.5 28.6C244.4 28.5 242 28.9 239.1 30.3L218 24.5C223.4 22.9 235.2 20.9 246.5 28.6ZM115.4 51.8H115.8L140.1 60.9L48.3004 65.6L34.9004 56.6C37.6004 55 45.0004 51.7 55.5004 54.5C56.6004 54.8 57.7004 54.5 58.5004 53.8C59.3004 53.1 59.8004 52 59.6004 51L59.3004 47.8L101.2 46.3L115.4 51.6V51.8ZM145.3 74.6L48.3004 77.6L49.0004 67.6L144.7 62.7C145.5 63.5 148.1 67.1 145.3 74.6ZM76.4004 37.5V37.7C76.4004 37.7 76.6004 37.7 76.9004 37.6C77.6004 37.7 78.2004 37.8 78.9004 38L96.3004 44.5L59.1004 45.9L58.3004 38.3C61.0004 37.8 69.4004 36.5 76.4004 37.5ZM122.1 34.1C123.5 34.4 124.8 34.7 125.9 35.1C130.5 36.9 133.5 38.1 135.4 39.2L91.6004 40.6L81.3004 36.7C90.4004 35 110.6 31.9 122.1 34.1ZM230.2 36.2L182.1 37.7C180.9 36.3 179.3 35.2 177.3 34.1C185.9 32.5 215.4 27.7 230.2 36.2ZM173.4 32.7C163.9 29.7 148.5 29.3 127.6 31.5C129.5 22.2 127.6 15.1 125.6 10.6C125 9.19999 124.2 7.99999 123.2 6.99999C127.4 6.09999 143.8 2.89999 163.8 2.19999C165.6 5.09999 175.6 22.8 173.4 32.7ZM179.4 37.8L138.6 39.1C136.8 37.3 133.5 35.9 127.3 33.5C161.7 29.8 174.6 33.9 179.4 37.8ZM56.3004 38.4L57.7004 51.2C57.7004 51.6 57.6004 52 57.3004 52.3C57.0004 52.6 56.5004 52.7 56.1004 52.6C44.8004 49.5 36.9004 53.2 33.9004 54.9C33.9004 54.9 33.9004 54.9 33.8004 55L34.0004 38.3C36.8004 37.2 48.7004 33.3 56.3004 38.4ZM33.7004 58.3C33.8004 58.3 33.8004 58.3 33.7004 58.3L47.0004 67.1L46.4004 76.3L33.7004 67.8V58.3ZM96.5004 42.4L137.7 41.1C138.8 42.6 139 44.4 139.3 47.5L139.4 48.7L141.4 48.6L141.3 47.3C141 44.5 140.8 42.6 140.1 41L181.2 39.7C183.4 43 181.7 46.7 181.6 46.8L182.1 46.5L116.1 49.6L96.5004 42.4ZM183.5 39.7L233 38.1C234.9 39.7 236.4 41.6 237.4 43.9L183.8 46.5C184.3 45.2 184.9 42.6 183.5 39.7ZM238 32.1L238.3 41.2C234.2 34.3 225.7 31 216.1 29.8C216.2 28.9 216.3 27.6 216.3 26L238 32.1ZM209.1 5.89999C214.7 6.99999 214.7 22.4 214.1 29.6C198.2 28 180.1 31.5 175.5 32.5C177.2 22.5 168.8 6.79999 166.1 2.09999C179.8 1.69999 194.9 2.49999 209.1 5.89999ZM113.6 4.89999C113.6 4.89999 113.7 4.89999 113.6 4.89999C118 4.89999 122 7.49999 123.8 11.4C125.8 15.7 127.6 22.6 125.6 31.7C124.5 31.8 123.4 31.9 122.3 32.1C107.8 29.5 82.0004 34.5 76.9004 35.6C76.8004 35.6 76.6004 35.6 76.5004 35.5C80.7004 29 71.0004 10.9 67.7004 5.09999L113.6 4.89999ZM16.4004 15.5C15.8004 13.7 16.1004 11.7 17.2004 10.2L17.3004 10.1C19.5004 7.09999 23.1004 5.29999 26.8004 5.29999L65.2004 5.09999C71.2004 15.2 78.6004 31.9 74.0004 35.1L74.1004 35.2C66.8004 34.6 59.1004 36 57.3004 36.4C41.5004 26.3 28.1004 23.7 19.1004 23.4L16.4004 15.5ZM49.2004 34C42.1004 33.3 34.9004 35.8 33.1004 36.5L12.3004 25.7C19.1004 25 32.5004 25.2 49.2004 34ZM31.4004 85.3L3.70039 66.2C2.60039 65.5 2.00039 64.3 2.00039 63V33C2.00039 31.1 2.80039 29.2 4.30039 28C6.30039 26.4 8.90039 26.2 11.0004 27.3L32.0004 38.2L31.4004 85.3ZM33.6004 70.2L46.2004 78.6L45.1004 94.8L33.4004 86.7L33.6004 70.2ZM145.4 91.6L47.1004 95.5L48.2004 79.5L145.5 76.5C149 83.7 146.3 89.9 145.4 91.6ZM147.8 64C147 61.9 145.8 60.8 145.6 60.8L145.3 60.6H145.1L120.8 51.5L238 45.9C238 46 238.1 46.1 238.1 46.2L238.3 46.1L238.8 61.8L147.8 64ZM240.9 61.9L240 32.2C245.2 29.5 248.8 30.8 250.7 32C251.1 32.4 251.5 32.8 252 33.2V60C252 60.9 251.3 61.7 250.3 61.7L240.9 61.9Z" fill="#D66407"/>
<path d="M9.90078 25L32.4008 36.8L32.0008 86.5L0.800781 65.3L0.900781 34.6L2.40078 27.6L9.90078 25Z" fill="#D66407"/>
<path d="M116.101 49.7001L238.501 45.2001L235.101 38.6001L226.501 32.7001L214.501 30.4001L215.201 24.6001L239.301 31.8001L239.801 63.4001L147.001 64.8001L144.501 60.5001L116.701 51.5001L116.101 49.7001Z" fill="#D66407"/>
<path d="M32.8006 55.7002C33.6006 55.9002 49.0006 67.5002 49.0006 67.5002L47.3006 76.8002L28.1006 67.4002L32.8006 55.7002Z" fill="#D66407"/>
<path d="M47.2008 76.9C47.0008 77.1 46.6008 95.7 46.0008 95.7C45.4008 95.7 28.3008 84.1 28.3008 84.1L31.6008 65.5L47.2008 76.9Z" fill="#D66407"/>
</g>
<defs>
<clipPath id="clip0_1509_86">
<rect width="254" height="97.6" fill="white"/>
</clipPath>
</defs>
</svg>
