<svg width="203" height="94" viewBox="0 0 203 94" fill="none" xmlns="http://www.w3.org/2000/svg">
<g clip-path="url(#clip0_1509_77)">
<path d="M3.2 26.2996C3.2 26.2996 8.5 25.1996 9.1 25.1996C9.7 25.1996 14 25.8996 14.1 25.4996C14.2 25.1996 15.3 11.6996 15.5 11.5996C15.8 11.4996 20 8.99961 20 8.99961L58.3 7.39961L62.3 10.1996C62.3 10.1996 76.5 4.99961 76.8 4.89961C77.1 4.79961 94.3 3.69961 96.7 3.69961C99 3.79961 105.7 5.39961 105.7 5.39961L107.5 6.29961C107.5 6.29961 112.7 2.69961 113 2.69961C113.3 2.69961 124.7 0.599609 124.7 0.599609L134.9 1.39961L141.9 2.59961L145.9 5.29961L147.7 13.9996L156.6 15.1996L173.4 20.3996L179.8 24.8996L184.2 45.6996L186.2 47.6996L201.9 52.9996L202.6 57.2996L202.2 82.2996L199.9 84.0996L156.9 88.6996L132.8 75.6996L46.2 88.1996L20.4 91.9996L1 73.8996L3.2 26.2996Z" fill="#FF9534"/>
<path d="M184.9 46.1998L182.1 30.5998C181.1 24.7998 176.7 20.0998 171 18.6998L148.1 12.8998C147.7 9.89976 147.1 7.59976 146.5 5.89976C145.6 3.39976 143.4 1.59976 140.7 1.19976C116.7 -2.50024 108.4 3.79976 106.7 5.39976C105.6 4.29976 104.1 3.49976 102.4 3.29976C83.1 0.699763 63.7 7.99976 62.4 8.49976C60.9 7.09976 58.8 6.39976 56.7 6.49976L20.2 8.29976C16.9 8.49976 14.3 10.9998 14.1 14.2998L13.3 24.6998C12.5 24.3998 11.7 24.2998 10.9 24.3998L4.1 24.8998C3.1 24.9998 2.2 25.6998 2 26.6998C2 26.7998 1.9 26.9998 1.9 27.0998L0 72.7998C0 73.8998 0.4 74.8998 1.2 75.6998L19.2 92.2998C19.9 92.9998 20.8 93.2998 21.8 93.2998C22 93.2998 22.2 93.2998 22.4 93.2998L131.5 76.6998L154.8 89.2998C155.7 89.7998 156.6 89.9998 157.6 89.7998L200.5 84.6998C201.9 84.4998 202.9 83.3998 202.9 81.9998V52.3998L184.9 46.1998ZM113.5 38.2998L129.7 46.0998V47.4998C110.8 44.4998 89.5 51.4998 85.8 52.7998L71.9 41.9998C87.7 33.8998 111.6 37.8998 113.5 38.2998ZM32.2 59.5998C37 58.4998 68.2 51.3998 84.6 54.6998L84.8 61.7998L32.2 67.2998V59.5998ZM86.8 61.6998L86.6 54.6998C90.2 53.4998 111.6 46.4998 129.9 49.4998L130.1 57.0998L86.8 61.6998ZM69.6 42.7998L81.9 52.2998C65 50.1998 38 56.1998 32.2 57.5998V46.6998C32.2 46.5998 32.2 46.5998 32.2 46.5998C40.2 40.9998 66.6 42.5998 69.6 42.7998ZM32.2 69.2998L130.1 59.0998L130.6 74.6998L32.3 89.6998L32.2 69.2998ZM131.7 47.0998L155.7 58.6998L155.6 67.3998L132.1 57.3998L131.7 47.0998ZM156.8 56.9998L116.2 37.2998C126.7 32.9998 147.8 35.6998 149.5 35.8998L196.8 52.3998C177 50.9998 159.5 56.0998 156.8 56.9998ZM200.9 54.7998V61.6998C196.9 61.7998 165.1 66.4998 157.6 67.5998L157.7 58.6998C161.4 57.5998 180.4 52.2998 200.9 54.7998ZM148.6 21.5998L165.3 25.1998C169.3 26.0998 172.3 29.3998 172.7 33.4998L173.4 42.1998L150 33.9998H149.8C149.6 33.9998 148.8 33.8998 147.4 33.6998C148.1 29.0998 148.5 24.9998 148.6 21.5998ZM170.6 20.5998C175.5 21.8998 179.3 25.8998 180.2 30.8998L182.8 45.3998L175.4 42.7998L174.6 33.1998C174.2 28.1998 170.6 24.0998 165.7 23.0998L148.6 19.4998C148.6 17.7998 148.5 16.2998 148.4 14.8998L170.6 20.5998ZM140.5 3.09976C142.4 3.39976 144 4.69976 144.7 6.49976C146.3 10.7998 147.7 18.9998 145.4 33.4998C137.7 32.7998 121.8 31.8998 113.7 36.2998C113.6 36.2998 113.5 36.2998 113.4 36.1998C114.1 32.4998 112.6 23.2998 108.9 8.89976C108.7 8.19976 108.4 7.49976 108.1 6.89976C108.7 6.19976 115.9 -0.700237 140.5 3.09976ZM102.2 5.19976C104.5 5.49976 106.4 7.19976 106.9 9.39976C111 25.4998 111.9 33.4998 111.4 35.8998C104.4 34.8998 85.1 33.0998 71.1 40.0998C72.5 31.3998 67.5 18.8998 64.7 11.9998L64.5 11.4998C64.3 10.9998 64.1 10.5998 63.8 10.0998C67.5 8.69976 84.9 2.89976 102.2 5.19976ZM16.1 14.3998C16.3 12.1998 18.1 10.3998 20.4 10.2998L56.9 8.39976C59.4 8.29976 61.8 9.79976 62.7 12.1998L62.9 12.6998C65.7 19.6998 70.9 32.5998 69 40.6998C63.6 40.3998 41 39.2998 32 44.2998C31.3 38.9998 28.3 34.1998 23.8 31.1998L15.2 25.5998L16.1 14.3998ZM2.5 74.1998C2.2 73.8998 2 73.3998 2 72.8998L3.7 29.6998L12.8 35.2998C16.7 37.7998 19.1 41.9998 19.1 46.6998L20.1 90.4998L2.5 74.1998ZM22.2 91.2998L21.1 46.6998C21.1 41.3998 18.4 36.4998 13.9 33.6998L4.1 27.5998C3.9 27.4998 3.9 27.2998 3.9 27.1998C3.9 27.0998 4 26.8998 4.2 26.8998L11 26.3998C11.9 26.2998 12.8 26.5998 13.6 27.0998L22.7 33.0998C27.4 36.1998 30.1 41.2998 30.2 46.8998L30.3 89.9998L22.2 91.2998ZM132.6 74.9998L132.1 59.4998L155.5 69.4998L155.3 87.2998L132.6 74.9998ZM200.2 82.6998L157.3 87.7998L157.5 69.5998C174 67.0998 198.3 63.6998 200.8 63.6998V81.8998C200.9 82.2998 200.6 82.5998 200.2 82.6998Z" fill="#D66407"/>
<path d="M2.9 28.5996L14.1 34.5996L19.1 41.0996L20.5 54.1996L21.1 91.9996L1 73.8996L2.9 28.5996Z" fill="#D66407"/>
<path d="M131.2 58.8999L130.6 74.7999L156.6 88.7999L156.5 67.9999L131.2 58.8999Z" fill="#D66407"/>
<path d="M148.1 20.5L146.3 34C146.3 34 150.8 35 151.4 35.2C152 35.4 174.5 44 174.5 44L173.9 35.6L170.8 26.2C170.8 26.2 161.8 22.5 161.2 22.5C160.6 22.5 148.1 20.5 148.1 20.5Z" fill="#D66407"/>
<path d="M131.2 58.8999L32.1998 67.2999L31.2998 89.8999L132.5 75.7999L131.2 58.8999Z" fill="#D66407"/>
</g>
<defs>
<clipPath id="clip0_1509_77">
<rect width="202.9" height="93.3" fill="white"/>
</clipPath>
</defs>
</svg>
