<svg width="227" height="113" viewBox="0 0 227 113" fill="none" xmlns="http://www.w3.org/2000/svg">
<g clip-path="url(#clip0_1509_95)">
<path d="M3.89961 11.8999L41.3996 5.1999L73.3996 2.3999L102.6 0.899902L144.3 1.5999L167.2 3.3999L223.9 12.4999L225.7 17.7999L221.2 86.1999L217.2 89.7999L210.9 89.5999L208.8 97.6999L201.5 101.2L155.2 109.3L109.8 111.4L72.4996 109.3L30.6996 102L20.3996 99.4999L17.1996 93.8999L15.4996 90.0999H8.29961L4.79961 84.3999L1.09961 13.6999L3.89961 11.8999Z" fill="#FF9534"/>
<path d="M222.5 11.1001C116 -11.6999 21.8 7.00013 3.99995 11.0001C1.59995 11.5001 -0.100047 13.8001 0.0999533 16.3001L4.49995 85.9001C4.69995 89.2001 7.39995 91.7001 10.7 91.7001H10.8L15.5 91.6001C15.7 96.5001 19.2 100.7 24.1 101.7L41.6 105.3C65.5 110.2 89.6 112.7 113.7 112.7C138.1 112.7 162.5 110.2 186.7 105.2L203.1 101.8C208.1 100.8 211.7 96.3001 211.7 91.3001V91.0001H216C219.3 91.0001 222 88.5001 222.2 85.2001L226.5 16.4001C226.6 13.9001 224.9 11.6001 222.5 11.1001ZM19.5 57.6001C23.8 24.6001 14.5 14.7001 9.49995 11.9001C20.3 9.70013 41.4 6.00013 69.3 3.80013C71.3 7.90013 80.9 29.8001 71.1 45.8001C47.5 48.0001 27.7 52.1001 19.5 57.6001ZM113.5 45.9001C171 45.9001 209.5 55.0001 209.5 63.4001C209.5 71.8001 170.9 80.9001 113.5 80.9001C56 80.9001 17.5 71.8001 17.5 63.4001C17.5 55.0001 56 45.9001 113.5 45.9001ZM155.2 45.7001C145.4 29.5001 155.2 7.50013 157.1 3.60013C176.1 5.10013 196.1 7.70013 216.7 11.8001C211.8 14.7001 202.5 24.4001 206.6 56.9001C197.8 51.7001 178.3 47.8001 155.2 45.7001ZM154.9 3.50013C152.4 8.90013 143.9 29.3001 152.8 45.5001C140.3 44.4001 126.8 43.9001 113.5 43.9001C99.9 43.9001 86.2 44.5001 73.5 45.6001C82.3 29.4001 74 9.20013 71.4 3.60013C95.2 1.80013 123.7 1.20013 154.9 3.50013ZM10.7 89.7001C10.7 89.7001 10.6 89.7001 10.7 89.7001C8.39995 89.7001 6.59995 88.0001 6.39995 85.8001L1.99995 16.2001C1.89995 14.7001 2.89995 13.3001 4.39995 13.0001C4.99995 12.9001 5.59995 12.7001 6.39995 12.6001V12.8001C6.59995 12.8001 23.3 16.5001 17.3 59.2001H17.6C16.2 60.5001 15.4 62.0001 15.4 63.5001V89.7001H10.7ZM202.7 99.7001L186.3 103.1C138.4 113 89.9 113.1 42 103.3L24.5 99.7001C20.4 98.9001 17.5 95.3001 17.5 91.1001V67.5001C27.2 77.2001 71 82.9001 113.5 82.9001C156.2 82.9001 200.2 77.2001 209.7 67.4001V91.2001C209.7 95.3001 206.7 98.9001 202.7 99.7001ZM220.1 85.0001C220 87.2001 218.1 88.9001 215.9 88.9001H211.6V63.4001H211.5C211.5 61.7001 210.5 60.1001 208.7 58.6001C202.9 16.4001 219.5 12.8001 219.7 12.7001V12.5001C220.5 12.7001 221.2 12.8001 222 13.0001C223.5 13.3001 224.5 14.7001 224.4 16.2001L220.1 85.0001Z" fill="#D66407"/>
<path d="M218.8 11.8003L211 18.5003L206.3 36.5003L207.9 57.9003L210.2 61.8003L210.9 89.6003L219.1 89.1003L221.4 84.5003L223.1 44.7003L225.4 13.4003L218.8 11.8003Z" fill="#D66407"/>
<path d="M6.40039 11.1001L13.2004 16.2001L18.4004 27.4001L19.8004 39.2001L19.2004 56.3001L17.8004 60.9001L16.5004 63.4001V90.7001L7.10039 89.5001L4.80039 84.4001L1.40039 24.4001V13.3001L6.40039 11.1001Z" fill="#D66407"/>
<path d="M69.5 2.70029L74.1 13.8003L77 30.5003L72.8 44.8003L71 47.2003L98.7 45.0003L125.8 44.9003L154.5 46.7003L149.9 33.3003L150.7 18.7003L154.6 6.00029L156.1 2.50029L118.4 1.30029H93.5L69.5 2.70029Z" fill="#D66407"/>
</g>
<defs>
<clipPath id="clip0_1509_95">
<rect width="226.5" height="112.6" fill="white"/>
</clipPath>
</defs>
</svg>
