<svg width="253" height="101" viewBox="0 0 253 101" fill="none" xmlns="http://www.w3.org/2000/svg">
<g clip-path="url(#clip0_1509_63)">
<path d="M2.10039 31.2999L9.10039 29.7999L11.2004 30.0999L12.6004 24.6999L16.9004 20.9999C16.9004 20.9999 26.9004 19.1999 28.6004 19.2999C30.3004 19.3999 49.2004 17.3999 49.2004 17.3999L73.5004 16.3999L88.4004 17.4999L90.0004 18.7999C90.0004 18.7999 103.9 14.1999 104.4 14.0999C104.9 13.9999 131.1 11.6999 131.5 11.6999C131.9 11.6999 152.7 12.4999 152.7 12.4999L155.3 14.7999L161 12.0999L193.3 9.3999L208.7 11.1999L210.8 14.6999C210.8 14.6999 215.6 16.3999 215.9 16.4999C216.2 16.5999 251.8 24.3999 251.8 24.3999L251 64.2999L246.3 66.1999L118.5 85.7999L24.1004 100.2L0.900391 86.2999L2.10039 31.2999Z" fill="#FF9534"/>
<path d="M251.3 23.7C250.6 23.2 249.9 22.9 249 22.8L211.3 14.4C210.8 13.3 210.4 12.4 210.1 11.7C209.6 10.7 208.7 10 207.6 9.90004C182.6 6.40004 158.1 12.2 154.6 13.1C153.6 12.1 152.3 11.5 150.9 11.5C109.9 9.30004 93.6 16.2 90.2 17.9C89.5 17.1 88.5 16.6 87.4 16.5C69.6 14.2 34.9 17.9 20.7 19.6C17.5 20 14.6 21.5 12.5 24C10.9 25.9 10.6 28.2 10.5 29.3C7.2 28.9 4 29.3 1 30.7C0.200004 31 -0.0999956 31.2 4.44055e-06 55.4C0.100004 67.6 0.300004 80.9 0.400004 86C0.400004 87.4 1.2 88.7 2.5 89.4L21.8 100.1C22.8 100.6 23.9 100.9 25 100.9C25.3 100.9 25.7 100.9 26 100.8L248.8 66.4C250.5 66.1 251.8 64.7 251.8 63L253 27.1C252.9 25.8 252.4 24.6 251.3 23.7ZM244.8 23.9C244 24.4 243.4 25.3 243.1 26.2L212.9 18.7C212.7 18 212.4 17.3 212.2 16.7L244.8 23.9ZM40.3 54.4C43.9 53.2 63.5 47.2 99.4 47.2C113.3 49.5 120.5 53.3 124.2 57L40.1 67.4L40.3 54.4ZM242.5 42.2H242.3L242.6 41.8L242.5 42.2ZM242.5 41.6C233.9 36.6 224 34.1 214.1 33C215.2 29.3 214.7 24.9 213.6 20.9L242.9 28.2L242.5 41.6ZM240 42.5L187.5 48.9C183.7 44.2 176.6 40.9 166 38.9C178.9 35.8 215 29 240 42.5ZM160 40C160.6 40.1 161.3 40.2 161.9 40.3C162.4 40.4 163 40.5 163.5 40.6C173.8 42.3 181.1 45.2 185.1 49.3L126.7 56.8C122.2 51.5 113.4 47.7 100.2 45.4V45.3C109.8 43.1 139.7 37.2 160 40ZM40.1 69.4L125.9 58.9C126.4 59.6 126.8 60.3 127.1 61C129.2 65.6 127.3 69.8 126.6 71L39.8 83.4L40.1 69.4ZM128.9 60.1C128.7 59.6 128.4 59 128.1 58.5L186.7 51C187 51.4 187.2 51.8 187.4 52.2C190 57.2 187.4 62 187.3 62.2L187.8 62.1L129 70.6C129.9 68.4 130.8 64.5 128.9 60.1ZM189.1 51.3C189 51.1 188.9 50.9 188.8 50.7L242.4 44.2L242.1 54.3L189.6 61.8C190.3 60 191.4 55.8 189.1 51.3ZM207.3 11.8C207.7 11.9 208.1 12.1 208.3 12.5C209.8 15.6 214.4 25.9 212 32.8C188 30.8 164.5 37.1 161.2 38.1H161.1C162.1 28.7 158.3 19.6 155.8 14.8C161.2 13.5 184 8.60004 207.3 11.8ZM150.7 13.4C152.1 13.5 153.3 14.2 153.9 15.4C156.3 19.9 160 28.7 159.1 37.8C135.8 35 102.1 42.6 97.1 43.8C97.9 36.5 93.4 25 91.1 19.5C94.6 17.9 111 11.3 150.7 13.4ZM14 25.1C15.8 23 18.2 21.7 20.9 21.4C31.9 20.1 69.1 16 87.1 18.3C88 18.4 88.8 19 89.2 19.9C91.1 24.3 96.9 38.7 94.9 45.2C63.5 45.6 45.3 50.6 40.4 52.2L40.5 47.6C40.5 45.8 39.9 44.1 38.6 42.8C38.2 42.4 37.8 42.1 37.4 41.8C34.7 39.6 23.7 31 12.5 29.3C12.5 28.4 12.8 26.6 14 25.1ZM32.7 40.9H30.9C28.5 40.9 26.5 42.1 25.3 43.9L3.8 31.8C13.9 28.9 26.5 36.4 32.7 40.9ZM23 98.6C22.9 98.6 22.8 98.5 22.8 98.5L3.4 87.7C2.8 87.3 2.4 86.7 2.4 86C2 58.1 1.9 38.3 2.2 33.2L24.6 45.9C24.5 46.4 24.4 46.9 24.4 47.5L23 98.6ZM249.7 63.1C249.7 63.9 249.1 64.5 248.4 64.6L25.7 99C25.5 99 25.3 99.1 25 99.1L26.4 47.5C26.5 45 28.5 43 31 43H33.9C34.7 43 35.5 43.2 36.2 43.6C36.5 43.8 36.6 44 36.7 44C36.9 44.1 37 44.3 37.1 44.4C38 45.3 38.4 46.5 38.4 47.7L37.7 85.8L244 56.1L244.9 27.4C244.9 26.4 245.6 25.5 246.6 25.3L248 24.9C248.7 24.7 249.4 24.9 250 25.3C250.6 25.7 250.9 26.4 250.9 27.1L249.7 63.1Z" fill="#D66407"/>
<path d="M1.5 31.2998C3.8 32.6998 25.1 45.3998 25.1 45.3998L23.8 99.6998L1.5 87.4998V31.2998Z" fill="#D66407"/>
<path d="M212.8 33.4001C215.8 28.8001 211.5 19.1001 211.5 19.1001L244 27.4001L243.2 42.9001L221.7 35.1001L212.8 33.4001Z" fill="#D66407"/>
<path d="M39.2003 68.7001C39.2003 68.7001 37.0003 85.7001 38.7003 85.1001C40.4003 84.6001 126.2 72.3001 126.2 72.3001L129.1 67.2001L128.3 60.4001L126.7 56.6001L39.2003 68.7001Z" fill="#D66407"/>
<path d="M187.5 48.9002L242.5 43.2002L242.6 55.1002L188.1 63.2002C190.6 60.1002 187.6 49.6002 187.6 49.6002" fill="#D66407"/>
<path d="M212 15.2002L211.1 16.8002L213.6 20.9002L242.8 27.6002L247.5 23.5002L212 15.2002Z" fill="#D66407"/>
<path d="M127.4 57.5L189.2 49.5L190.8 63.2C190.8 63.2 119.4 73.6 119.4 72.8C119.4 72 127.4 57.5 127.4 57.5Z" fill="#D66407"/>
<path d="M40.0996 67.4001L242.5 41.6001L237.9 50.0001L41.1996 69.8001L40.0996 67.4001Z" fill="#D66407"/>
<path d="M37.3 85.8002L245.3 55.2002L243 60.5002L36 91.0002L37.3 85.8002Z" fill="#FF9534"/>
<path d="M244.5 55.2002L35.5 83.7002L40.4 91.6002L247.2 59.4002L244.5 55.2002Z" fill="#FF9534"/>
</g>
<defs>
<clipPath id="clip0_1509_63">
<rect width="252.9" height="101" fill="white"/>
</clipPath>
</defs>
</svg>
