<svg width="60" height="52" viewBox="0 0 60 52" fill="none" xmlns="http://www.w3.org/2000/svg">
<path fill-rule="evenodd" clip-rule="evenodd" d="M14.3191 0.0669527C11.3661 0.597445 10.482 0.858081 8.72058 1.7176C5.71439 3.18468 3.36695 5.46366 1.87419 8.36437C0.807461 10.4371 0.221156 12.5793 0.0526881 15.0198C-0.268566 19.6704 0.875181 23.8334 3.59592 27.918C4.99986 30.0257 6.09337 31.3269 8.27956 33.4913C10.5965 35.7852 12.0823 37.0835 17.5191 41.5638C22.2714 45.4804 24.4479 47.4367 26.7309 49.8439C28.4625 51.6697 28.9646 52 30.0074 52C31.023 52 31.4552 51.6838 34.2073 48.9271C37.0953 46.0345 38.3545 44.9195 43.3222 40.855C49.1046 36.1239 52.5924 32.8975 54.5544 30.4638C58.6308 25.4078 60.3292 20.5441 59.9477 15.0198C59.6083 10.105 57.4349 5.95741 53.769 3.22913C51.0399 1.19798 48.0264 0.182409 44.2608 0.024431C41.3553 -0.0973551 39.8456 0.212684 37.134 1.4882C34.9715 2.50557 32.9426 3.94319 30.9451 5.87374L30.0166 6.77111L28.8315 5.65879C26.0521 3.04968 22.7836 1.10633 19.87 0.330204C18.9925 0.0965394 15.1654 -0.0849704 14.3191 0.0669527Z" fill="url(#paint0_linear_913_57)"/>
<defs>
<linearGradient id="paint0_linear_913_57" x1="56.7429" y1="2.30031e-06" x2="14.2955" y2="29.0637" gradientUnits="userSpaceOnUse">
<stop offset="0.0001" stop-color="#C6E5FF"/>
<stop offset="0.0002" stop-color="#D0EAFF"/>
<stop offset="1" stop-color="#2196F3"/>
</linearGradient>
</defs>
</svg>
