<svg width="53" height="57" viewBox="0 0 53 57" fill="none" xmlns="http://www.w3.org/2000/svg">
<path d="M47.7001 28.5C47.7001 27.0275 47.5588 25.555 47.2761 24.13L52.2699 20.425C52.9295 19.95 53.165 19.095 52.8824 18.335C51.7988 15.485 50.2912 12.8725 48.4068 10.545C48.1611 10.2471 47.8249 10.0391 47.4502 9.95325C47.0755 9.86738 46.6831 9.90841 46.3339 10.07L40.6334 12.5875C38.4663 10.64 35.9223 9.12 33.1427 8.2175L32.436 1.9475C32.4154 1.56214 32.2635 1.19577 32.006 0.910209C31.7485 0.624649 31.4012 0.437379 31.0227 0.38C29.5151 0.1425 28.0547 0 26.5 0C24.9924 0 23.4849 0.1425 22.0244 0.3325C21.2706 0.475 20.7053 1.14 20.6111 1.9475L19.9044 8.17C17.0777 9.12 14.5337 10.64 12.4137 12.5875L6.71322 10.0225C6.36442 9.85845 5.9714 9.81609 5.59609 9.9021C5.22078 9.9881 4.88453 10.1976 4.64032 10.4975C2.70875 12.825 1.20119 15.485 0.117623 18.2875C-0.165045 19.0475 0.117623 19.9025 0.730071 20.3775L5.77099 24.0825C5.44121 25.5075 5.29988 26.98 5.29988 28.5C5.29988 29.9725 5.44121 31.445 5.72388 32.87L0.730071 36.575C0.0705117 37.05 -0.165045 37.905 0.117623 38.665C1.20119 41.515 2.70875 44.1275 4.5932 46.455C5.11143 47.0725 5.95944 47.2625 6.66611 46.93L12.3666 44.4125C14.5337 46.36 17.0777 47.88 19.8573 48.7825L20.5169 55.0525C20.6111 55.86 21.1764 56.4775 21.9773 56.62C23.4849 56.8575 24.9453 57 26.5 57C28.0076 57 29.5151 56.8575 30.9756 56.6675C31.7294 56.525 32.3418 55.9075 32.436 55.1L33.1427 48.83C35.9694 47.88 38.5134 46.4075 40.6334 44.46L46.3339 46.9775C47.0406 47.31 47.9357 47.12 48.4068 46.5025C50.2912 44.175 51.7988 41.5625 52.8824 38.7125C53.0125 38.3436 53.0233 37.9426 52.9132 37.5671C52.8032 37.1916 52.578 36.8609 52.2699 36.6225L47.229 32.9175C47.5588 31.4925 47.7001 30.02 47.7001 28.5ZM26.5 35.625C22.5898 35.625 19.4333 32.4425 19.4333 28.5C19.4333 24.5575 22.5898 21.375 26.5 21.375C30.4102 21.375 33.5667 24.5575 33.5667 28.5C33.5667 32.4425 30.4102 35.625 26.5 35.625Z" fill="url(#paint0_linear_913_55)"/>
<defs>
<linearGradient id="paint0_linear_913_55" x1="50.1229" y1="2.52149e-06" x2="7.90301" y2="23.2954" gradientUnits="userSpaceOnUse">
<stop offset="0.0001" stop-color="#C6E5FF"/>
<stop offset="0.0002" stop-color="#D0EAFF"/>
<stop offset="1" stop-color="#2196F3"/>
</linearGradient>
</defs>
</svg>
