<svg width="52" height="45" viewBox="0 0 52 45" fill="none" xmlns="http://www.w3.org/2000/svg">
<path fill-rule="evenodd" clip-rule="evenodd" d="M44.4488 14.8848C46.8564 14.8848 48.8936 16.0011 50.3752 17.8617C51.8568 19.7223 52.2272 22.1411 51.6716 24.3738L47.0416 40.561C46.3008 42.9798 44.0784 44.6543 41.6707 44.6543H16.6684C15.5572 44.6543 14.8164 43.9101 14.8164 42.7937V16.7454C14.8164 16.3732 15.0016 16.0011 15.1868 15.629L25.1877 2.23272C26.2989 0.744239 27.9658 0 29.6326 0C32.5958 0 35.1886 2.41877 35.1886 5.58179V14.8848H44.4488ZM1.85202 14.8848H9.26011C10.3713 14.8848 11.1121 15.629 11.1121 16.7454V42.7937C11.1121 43.9101 10.3713 44.6543 9.26011 44.6543H1.85202C0.740809 44.6543 0 43.9101 0 42.7937V16.7454C0 15.629 0.740809 14.8848 1.85202 14.8848Z" fill="url(#paint0_linear_913_56)"/>
<defs>
<linearGradient id="paint0_linear_913_56" x1="49.0985" y1="1.97536e-06" x2="12.5481" y2="25.2168" gradientUnits="userSpaceOnUse">
<stop offset="0.0001" stop-color="#C6E5FF"/>
<stop offset="0.0002" stop-color="#D0EAFF"/>
<stop offset="1" stop-color="#2196F3"/>
</linearGradient>
</defs>
</svg>
