<svg width="50" height="55" viewBox="0 0 50 55" fill="none" xmlns="http://www.w3.org/2000/svg">
<g clip-path="url(#clip0_395_3876)">
<path d="M23.8889 0.27872C17.7778 4.73776 10 7.52466 1.94444 7.80335C0.833333 7.80335 0 8.63942 0 9.75418V30.0986C0.277778 36.7871 3.88889 42.9183 9.72222 46.5413L23.8889 54.6233C24.4444 54.902 25.2778 54.902 25.8333 54.6233L40 46.5413C45.8333 42.9183 49.4444 36.7871 49.7222 30.0986V9.75418C49.7222 8.63942 48.8889 7.80335 47.7778 7.80335C39.7222 7.52466 32.2222 4.73776 25.8333 0.27872C25.5556 2.96161e-05 24.4444 2.96161e-05 23.8889 0.27872Z" fill="white"/>
</g>
<defs>
<clipPath id="clip0_395_3876">
<rect width="50" height="54.902" fill="white"/>
</clipPath>
</defs>
</svg>
